<?xml version="1.0" encoding="utf-8"?>
<!-- Generator: Adobe Illustrator 21.1.0, SVG Export Plug-In . SVG Version: 6.00 Build 0)  -->
<svg version="1.1" id="Layer_1" xmlns="http://www.w3.org/2000/svg" xmlns:xlink="http://www.w3.org/1999/xlink" x="0px" y="0px"
	 viewBox="0 0 1071 879.1" style="enable-background:new 0 0 1071 879.1;" xml:space="preserve">
<style type="text/css">
	.st0{filter:url(#filter-2);}
	.st1{fill:#FFFFFF;}
	.st2{fill:#F0F0F0;}
	.st3{fill:#D8D8D8;}
</style>
<filter  filterUnits="objectBoundingBox" height="109.6%" id="filter-2" width="105.0%" x="-2.5%" y="-4.1%">
	<feOffset  dx="0" dy="4" in="SourceAlpha" result="shadowOffsetOuter1"></feOffset>
	<feGaussianBlur  in="shadowOffsetOuter1" result="shadowBlurOuter1" stdDeviation="8"></feGaussianBlur>
	<feColorMatrix  in="shadowBlurOuter1" type="matrix" values="0 0 0 0 0   0 0 0 0 0   0 0 0 0 0  0 0 0 0.1 0"></feColorMatrix>
</filter>
<title>Browser</title>
<desc>Created with Sketch.</desc>
<g id="Symbols">
	<g id="Module_x2F_Presupuestos" transform="translate(-613.000000, 12.000000)">
		<g id="Group-11">
			<g id="Browser" transform="translate(629.000000, 0.000000)">
				<g id="Rectangle">
					<g class="st0">
						<path id="path-1_2_" d="M6,0h1027l0,0c3.3,0,6,4.3,6,9.7v857.4H0V9.7l0,0C0,4.3,2.7,0,6,0z"/>
					</g>
					<g>
						<path id="path-1_1_" class="st1" d="M0,9.7C0,4.3,2.7,0,6,0h1027c3.3,0,6,4.3,6,9.7v857.4H0V9.7z"/>
					</g>
				</g>
				<path id="Rectangle_1_" class="st2" d="M6,0h1027l0,0c3.3,0,6,2.7,6,6v39H0V6l0,0C0,2.7,2.7,0,6,0z"/>
				<g id="Group-6" transform="translate(17.000000, 17.000000)">
					<ellipse id="Oval" class="st3" cx="7.7" cy="7.5" rx="7.7" ry="7.5"/>
					<ellipse id="Oval-Copy" class="st3" cx="34.5" cy="7.5" rx="7.7" ry="7.5"/>
					<ellipse id="Oval-Copy-2" class="st3" cx="61.3" cy="7.5" rx="7.7" ry="7.5"/>
				</g>
			</g>
		</g>
	</g>
</g>
</svg>
