<?xml version="1.0" encoding="UTF-8"?>
<svg width="1071px" height="571px" viewBox="0 0 1071 571" version="1.1" xmlns="http://www.w3.org/2000/svg" xmlns:xlink="http://www.w3.org/1999/xlink">
    <!-- Generator: Sketch 46.2 (44496) - http://www.bohemiancoding.com/sketch -->
    <title>Browser</title>
    <desc>Created with Sketch.</desc>
    <defs>
        <path d="M6,0 L1033,0 L1033,0 C1036.31371,-6.08718376e-16 1039,2.6862915 1039,6 L1039,539 L0,539 L0,6 L0,6 C-4.05812251e-16,2.6862915 2.6862915,6.08718376e-16 6,0 Z" id="path-1"></path>
        <filter x="-2.5%" y="-4.1%" width="105.0%" height="109.6%" filterUnits="objectBoundingBox" id="filter-2">
            <feOffset dx="0" dy="4" in="SourceAlpha" result="shadowOffsetOuter1"></feOffset>
            <feGaussianBlur stdDeviation="8" in="shadowOffsetOuter1" result="shadowBlurOuter1"></feGaussianBlur>
            <feColorMatrix values="0 0 0 0 0   0 0 0 0 0   0 0 0 0 0  0 0 0 0.1 0" type="matrix" in="shadowBlurOuter1"></feColorMatrix>
        </filter>
    </defs>
    <g id="Symbols" stroke="none" stroke-width="1" fill="none" fill-rule="evenodd">
        <g id="Module/Presupuestos" transform="translate(-613.000000, 12.000000)">
            <g id="Group-11">
                <g id="Browser" transform="translate(629.000000, 0.000000)">
                    <g id="Rectangle">
                        <use fill="black" fill-opacity="1" filter="url(#filter-2)" xlink:href="#path-1"></use>
                        <use fill="#FFFFFF" fill-rule="evenodd" xlink:href="#path-1"></use>
                    </g>
                    <path d="M6,0 L1033,0 L1033,8.8817842e-16 C1036.31371,-1.26276608e-13 1039,2.6862915 1039,6 L1039,45 L0,45 L0,6 L8.8817842e-16,6 C4.82366169e-16,2.6862915 2.6862915,1.4968968e-15 6,8.8817842e-16 Z" id="Rectangle" fill="#F0F0F0"></path>
                    <g id="Group-6" transform="translate(17.000000, 17.000000)" fill="#D8D8D8">
                        <ellipse id="Oval" cx="7.66666667" cy="7.5" rx="7.66666667" ry="7.5"></ellipse>
                        <ellipse id="Oval-Copy" cx="34.5" cy="7.5" rx="7.66666667" ry="7.5"></ellipse>
                        <ellipse id="Oval-Copy-2" cx="61.3333333" cy="7.5" rx="7.66666667" ry="7.5"></ellipse>
                    </g>
                </g>
            </g>
        </g>
    </g>
</svg>