<?xml version="1.0" encoding="UTF-8"?>
<svg width="215px" height="122px" viewBox="0 0 215 122" version="1.1" xmlns="http://www.w3.org/2000/svg" xmlns:xlink="http://www.w3.org/1999/xlink">
    <!-- Generator: Sketch 47.1 (45422) - http://www.bohemiancoding.com/sketch -->
    <title>Page 1</title>
    <desc>Created with Sketch.</desc>
    <defs></defs>
    <g id="Symbols" stroke="none" stroke-width="1" fill="none" fill-rule="evenodd" stroke-linecap="round" stroke-linejoin="round">
        <g id="Module/General" transform="translate(-897.000000, -307.000000)" stroke="#F8ADA5" stroke-width="2">
            <g id="Page-1" transform="translate(898.000000, 308.000000)">
                <path d="M128.583968,-9.67741936e-05 L83.6739677,-9.67741936e-05 C70.0704194,-9.67741936e-05 59.043,11.0282903 59.043,24.630871 C59.043,38.2353871 70.0704194,49.2618387 83.6739677,49.2618387 L100.821387,49.2618387 L106.128484,59.8789355 L111.437516,49.2618387 L128.583968,49.2618387 C142.187516,49.2618387 153.215903,38.2353871 153.215903,24.630871 C153.215903,11.0282903 142.187516,-9.67741936e-05 128.583968,-9.67741936e-05 Z" id="Stroke-1"></path>
                <path d="M187.626677,59.8789355 L142.716677,59.8789355 C129.113129,59.8789355 118.08571,70.9073226 118.08571,84.5099032 C118.08571,98.1144194 129.113129,109.140871 142.716677,109.140871 L159.864097,109.140871 L165.171194,119.757968 L170.480226,109.140871 L187.626677,109.140871 C201.230226,109.140871 212.258613,98.1144194 212.258613,84.5099032 C212.258613,70.9073226 201.230226,59.8789355 187.626677,59.8789355 Z" id="Stroke-3"></path>
                <path d="M69.5413548,59.8789355 L24.6313548,59.8789355 C11.0278065,59.8789355 0.000387096774,70.9073226 0.000387096774,84.5099032 C0.000387096774,98.1144194 11.0278065,109.140871 24.6313548,109.140871 L41.7787742,109.140871 L47.085871,119.757968 L52.3949032,109.140871 L69.5413548,109.140871 C83.1449032,109.140871 94.1732903,98.1144194 94.1732903,84.5099032 C94.1732903,70.9073226 83.1449032,59.8789355 69.5413548,59.8789355 Z" id="Stroke-5"></path>
            </g>
        </g>
    </g>
</svg>