<?xml version="1.0" encoding="UTF-8"?>
<svg width="157px" height="122px" viewBox="0 0 157 122" version="1.1" xmlns="http://www.w3.org/2000/svg" xmlns:xlink="http://www.w3.org/1999/xlink">
    <!-- Generator: Sketch 47.1 (45422) - http://www.bohemiancoding.com/sketch -->
    <title>Page 1</title>
    <desc>Created with Sketch.</desc>
    <defs></defs>
    <g id="Symbols" stroke="none" stroke-width="1" fill="none" fill-rule="evenodd">
        <g id="Module/General" transform="translate(-554.000000, -305.000000)">
            <g id="Page-1" transform="translate(555.000000, 306.000000)">
                <polygon id="Stroke-1" stroke="#F8BC1E" stroke-width="2" points="34.3118182 119.910909 113.112727 119.910909 113.112727 41.1090909 34.3118182 41.1090909"></polygon>
                <path d="M113.112727,115.386636 L34.3118182,115.386636" id="Stroke-3" stroke="#F8BC1E" stroke-width="2"></path>
                <path d="M113.112727,110.862545 L34.3118182,110.862545" id="Stroke-4" stroke="#F8BC1E" stroke-width="2"></path>
                <polygon id="Stroke-5" stroke="#F8BC1E" stroke-width="2" points="34.3118182 106.338182 113.112727 106.338182 113.112727 41.1090909 34.3118182 41.1090909"></polygon>
                <polygon id="Stroke-6" stroke="#F8BC1E" stroke-width="2" points="34.3118182 41.1090909 113.112727 41.1090909 113.112727 26.79 34.3118182 26.79"></polygon>
                <path d="M113.112727,106.338364 L34.3118182,106.338364" id="Stroke-7" stroke="#F8BC1E" stroke-width="2"></path>
                <g id="Group-20" transform="translate(0.000000, 0.820000)">
                    <path d="M30.1421818,75.5867273 L21.6567273,75.5867273 L21.6567273,74.1721818 C21.6567273,71.0267273 19.1058182,68.4776364 15.9603636,68.4776364 L5.69581818,68.4776364 C2.54945455,68.4776364 0.000363636364,71.0267273 0.000363636364,74.1721818 L0.000363636364,81.2821818 L0.000363636364,89.8576364 L0.000363636364,96.9676364 C0.000363636364,100.113091 2.54945455,102.663091 5.69581818,102.663091 L30.1421818,102.663091" id="Stroke-8" stroke="#F8BC1E" stroke-width="2"></path>
                    <path d="M46.2887273,20.8095455 L46.2887273,12.8940909 C46.2887273,9.74863636 43.7387273,7.19772727 40.5923636,7.19772727 L24.6323636,7.19772727 L24.6323636,5.785 C24.6323636,2.63954545 22.0823636,0.0886363636 18.9369091,0.0886363636 L8.67145455,0.0886363636 C5.526,0.0886363636 2.97509091,2.63954545 2.97509091,5.785 L2.97509091,12.8940909 L2.97509091,21.4704545 L2.97509091,28.5795455 C2.97509091,31.725 5.526,34.2759091 8.67145455,34.2759091 L29.1496364,34.2759091" id="Stroke-10" stroke="#F8BC1E" stroke-width="2"></path>
                    <path d="M149.786636,32.8612727 L137.910273,32.8612727 L137.910273,31.8094545 C137.910273,29.4685455 136.013,27.5712727 133.672091,27.5712727 L126.034818,27.5712727 C123.693,27.5712727 121.795727,29.4685455 121.795727,31.8094545 L121.795727,37.0994545 L121.795727,43.4803636 L121.795727,48.7703636 C121.795727,51.1112727 123.693,53.0085455 126.034818,53.0085455 L149.786636,53.0085455 C152.127545,53.0085455 154.024818,51.1112727 154.024818,48.7703636 L154.024818,37.0994545 C154.024818,34.7585455 152.127545,32.8612727 149.786636,32.8612727 Z" id="Stroke-12" stroke="#F8BC1E" stroke-width="2"></path>
                    <path d="M117.080273,92.4093636 L137.640273,92.4093636 C139.980273,92.4093636 141.877545,90.5111818 141.877545,88.1711818 L141.877545,76.4993636 C141.877545,74.1593636 139.980273,72.2620909 137.640273,72.2620909 L125.763909,72.2620909 L125.763909,71.2102727 C125.763909,68.8684545 123.865727,66.9720909 121.525727,66.9720909 L117.080273,66.9720909" id="Stroke-14" stroke="#F8BC1E" stroke-width="2"></path>
                    <path d="M54.6441818,66.4540909 C54.7987273,65.9731818 55.0232727,65.6640909 55.7441818,64.9413636 L60.4887273,60.1977273 C61.1241818,59.5613636 61.8641818,59.0459091 62.8950909,59.0459091 C63.5832727,59.0459091 64.1505455,59.2859091 64.5450909,59.6822727 C65.1469091,60.3004545 65.1987273,61.0922727 65.1987273,61.9513636 L65.1987273,80.7395455 C65.1987273,81.8213636 65.1469091,82.2522727 64.9069091,82.7331818 C64.5796364,83.3868182 63.8750909,83.7986364 62.9641818,83.7986364 C62.0532727,83.7986364 61.3487273,83.3868182 61.0214545,82.7331818 C60.7805455,82.2522727 60.7296364,81.8213636 60.7296364,80.7395455 L60.7296364,65.905 L58.7178182,67.915 C57.9969091,68.6377273 57.7041818,68.8604545 57.2223636,69.015 C56.5696364,69.2386364 55.8305455,69.015 55.2287273,68.4313636 C54.6441818,67.8468182 54.4378182,67.1077273 54.6441818,66.4540909" id="Fill-16" fill="#F8BC1E"></path>
                    <path d="M86.9381818,83.4028182 C86.5081818,83.6273636 86.1136364,83.661 85.0990909,83.661 L75.6963636,83.661 C74.7681818,83.661 73.9436364,83.6437273 73.3418182,83.0073636 C72.9627273,82.6291818 72.7227273,82.0800909 72.7227273,81.4091818 C72.7227273,80.4473636 73.2381818,79.7591818 73.9081818,78.9519091 L81.5063636,69.7382727 C82.5890909,68.4146364 83.2254545,67.3991818 83.2254545,65.8528182 C83.2254545,64.2373636 82.1936364,63.0337273 80.2863636,63.0337273 C78.7390909,63.0337273 77.8281818,63.7046364 77.1745455,65.3537273 C76.9336364,65.9391818 76.6590909,66.3173636 76.2981818,66.6264545 C76.04,66.8328182 75.5936364,67.0046364 75.0254545,67.0046364 C74.3218182,67.0046364 73.8054545,66.7982727 73.4272727,66.3346364 C73.0490909,65.871 72.8945455,65.3373636 72.8945455,64.7355455 C72.8945455,63.3946364 73.6681818,61.761 74.9572727,60.6964545 C76.3154545,59.5791818 77.88,58.9773636 80.2,58.9773636 C84.7036364,58.9773636 87.7118182,61.3837273 87.7118182,65.7500909 C87.7118182,68.5173636 86.7318182,69.841 84.5490909,72.4537273 L78.6018182,79.6046364 L85.0990909,79.6046364 C86.1136364,79.6046364 86.5081818,79.6391818 86.9381818,79.8619091 C87.5227273,80.1719091 87.9181818,80.7900909 87.9181818,81.6337273 C87.9181818,82.4746364 87.5227273,83.0937273 86.9381818,83.4028182" id="Fill-18" fill="#F8BC1E"></path>
                </g>
            </g>
        </g>
    </g>
</svg>