<?xml version="1.0" encoding="UTF-8"?>
<svg width="120px" height="120px" viewBox="0 0 120 120" version="1.1" xmlns="http://www.w3.org/2000/svg" xmlns:xlink="http://www.w3.org/1999/xlink">
    <!-- Generator: Sketch 47.1 (45422) - http://www.bohemiancoding.com/sketch -->
    <title>Page 1</title>
    <desc>Created with Sketch.</desc>
    <defs></defs>
    <g id="Symbols" stroke="none" stroke-width="1" fill="none" fill-rule="evenodd" stroke-linecap="round" stroke-linejoin="round">
        <g id="Module/General" transform="translate(-212.000000, -311.000000)" stroke="#008D9B" stroke-width="2">
            <path d="M272.00266,386.144947 C263.636968,386.144947 256.855053,379.363032 256.855053,370.99734 C256.855053,362.630652 263.636968,355.849734 272.00266,355.849734 C280.368351,355.849734 287.150266,362.630652 287.150266,370.99734 C287.150266,379.363032 280.368351,386.144947 272.00266,386.144947 Z M328.152926,356.869016 L327.737035,356.595745 L306.745013,360.484375 C306.05984,358.209441 305.145279,355.993351 304.004322,353.864029 L321.595412,341.769282 L321.850731,341.667553 C320.080452,337.15359 317.371676,332.922872 313.723404,329.275598 C310.179854,325.732048 306.085771,323.075133 301.716423,321.301862 L301.229721,321.404588 L289.135971,338.995678 C287.006649,337.853723 284.789561,336.94016 282.516622,336.253989 L286.403258,315.261968 L286.510971,315.010638 C282.067819,313.070811 277.160904,311.994681 272.00266,311.994681 C266.991024,311.994681 262.216755,313.009973 257.874335,314.848072 L257.601064,315.263963 L261.488697,336.253989 C259.216755,336.94016 256.99867,337.853723 254.870346,338.995678 L242.775598,321.402593 L242.672872,321.150266 C238.159907,322.918551 233.929189,325.627327 230.280918,329.275598 C226.737367,332.820146 224.080452,336.914229 222.308178,341.283577 L222.407912,341.769282 L240,353.865027 C238.86004,355.993351 237.945479,358.210439 237.260306,360.484375 L216.268285,356.595745 L216.015957,356.489029 C214.07613,360.932181 213,365.840093 213,370.99734 C213,376.007979 214.015293,380.782247 215.852394,385.126662 L216.268285,385.397939 L237.259309,381.511303 C237.944481,383.783245 238.86004,386.00133 240,388.129654 L222.40891,400.224402 L222.154588,400.327128 C223.924867,404.840093 226.634641,409.070811 230.280918,412.719082 C233.825465,416.261636 237.918551,418.919548 242.287899,420.691822 L242.775598,420.589096 L254.870346,402.999003 C256.99867,404.13996 259.214761,405.053524 261.488697,405.739694 L257.601064,426.731715 L257.494348,426.984043 C261.9375,428.92387 266.844415,430 272.00266,430 C277.014295,430 281.789561,428.98371 286.130984,427.148604 L286.403258,426.731715 L282.516622,405.739694 C284.789561,405.053524 287.006649,404.13996 289.134973,402.999003 L301.229721,420.59109 L301.332447,420.845412 C305.84641,419.075133 310.07613,416.366356 313.723404,412.719082 C317.266955,409.175532 319.924867,405.079455 321.697141,400.711104 L321.59641,400.224402 L304.004322,388.129654 C305.144282,386.000332 306.05984,383.784242 306.746011,381.511303 L327.737035,385.397939 L327.989362,385.505652 C329.929189,381.0625 331.005319,376.155585 331.005319,370.99734 C331.005319,365.985705 329.989029,361.211436 328.152926,356.869016 Z" id="Page-1"></path>
        </g>
    </g>
</svg>