<?xml version="1.0" encoding="utf-8"?>
<!-- Generator: Adobe Illustrator 21.0.0, SVG Export Plug-In . SVG Version: 6.00 Build 0)  -->
<svg version="1.1" id="Layer_1" xmlns="http://www.w3.org/2000/svg" xmlns:xlink="http://www.w3.org/1999/xlink" x="0px" y="0px"
	 viewBox="0 0 635.3 635.3" style="enable-background:new 0 0 635.3 635.3;" xml:space="preserve">
<style type="text/css">
	.st0{fill:none;stroke:#FFFFFF;stroke-miterlimit:10;}
	.st1{fill:#2E7A81;}
	.st2{fill:#FBAA01;}
	.st3{fill:#FA8884;}
	.st4{fill:#FEF5D1;}
	.st5{fill:none;stroke:#FFFFFF;stroke-linecap:round;stroke-linejoin:round;stroke-miterlimit:10;stroke-dasharray:2;}
	.st6{fill:#FFFFFF;stroke:#FFFFFF;stroke-linecap:round;stroke-linejoin:round;stroke-miterlimit:10;stroke-dasharray:2;}
	.st7{font-family:'SourceSansPro-Bold';}
	.st8{font-size:10px;}
	.st9{fill:none;}
	.st10{fill:#FFFFFF;}
	.st11{font-family:'SourceSansPro-Regular';}
	.st12{font-size:8.4845px;}
</style>
<g>
	<path class="st0" d="M190,281.8c5.9-2.5,12.4-3.9,19.2-3.9h59c6.4,0,12.2-3.4,15.4-8.9L313,218c13.4-23.3,43.2-31.3,66.5-17.8
		c23.3,13.4,31.3,43.2,17.8,66.5l-29.5,51.1c-3.2,5.5-3.2,12.3,0,17.8l29.1,50.4c13.3,23.1,6.2,53-16.7,66.8
		c-23.4,14-53.6,6.1-67.2-17.4l-29.5-51.1c-3.2-5.5-9-8.9-15.4-8.9h-58.2c-26.8,0-49.5-21.9-49.5-48.7c0-15.6,7.4-29.5,18.9-38.4"/>
	<polyline class="st0" points="179.3,307.9 179.3,288.1 159.5,288.1 	"/>
	<path class="st1" d="M278.8,342.5c-8.3,0-14.9-6.7-14.9-14.9c0-8.3,6.7-14.9,14.9-14.9h29.9c8.3,0,14.9,6.7,14.9,14.9
		c0,8.3-6.7,14.9-14.9,14.9H278.8z"/>
	<path class="st2" d="M336.5,346c4.1,7.1,1.7,16.3-5.5,20.4c-7.1,4.1-16.3,1.7-20.4-5.5l-14.9-25.9c-4.1-7.1-1.7-16.3,5.5-20.4
		c7.1-4.1,16.3-1.7,20.4,5.5L336.5,346z"/>
	<path class="st3" d="M310.6,294.2c4.1-7.1,13.3-9.6,20.4-5.5c7.1,4.1,9.6,13.3,5.5,20.4l-14.9,25.9c-4.1,7.1-13.3,9.6-20.4,5.5
		c-7.1-4.1-9.6-13.3-5.5-20.4L310.6,294.2z"/>
	<circle class="st4" cx="308.6" cy="327.6" r="14.9"/>
	<circle class="st0" cx="377.9" cy="199.4" r="12.4"/>
	<circle class="st0" cx="275.9" cy="274.1" r="12.4"/>
	<circle class="st0" cx="160.5" cy="330.2" r="12.4"/>
	<circle class="st0" cx="275.9" cy="377.9" r="12.4"/>
	<circle class="st0" cx="380.1" cy="450.2" r="12.4"/>
	<circle class="st0" cx="366.6" cy="325" r="12.4"/>
	<polyline class="st5" points="384.9,189.1 425.7,148.3 461.2,148.3 	"/>
	<polyline class="st5" points="268.6,264 212.1,207.5 213,178.5 	"/>
	<polyline class="st5" points="178.1,451.2 214,415.3 242.6,415.3 268.8,389.1 	"/>
	<polyline class="st5" points="436.1,487.9 411,487.9 385.6,462.4 	"/>
	<polyline class="st5" points="79,364.3 110.5,332.8 148.1,332.8 	"/>
	<line class="st6" x1="379.1" y1="325" x2="398.4" y2="325"/>
	<g>
		<text transform="matrix(1 0 0 1 451.0345 470.6925)" class="st3 st7 st8">COMUNICACIÓN</text>
	</g>
	<rect x="451" y="478.7" class="st9" width="165" height="42.7"/>
	<text transform="matrix(1 0 0 1 451.0338 484.7344)"><tspan x="0" y="0" class="st10 st11 st12">• Plan de comunicación digital</tspan><tspan x="0" y="10.2" class="st10 st11 st12">• Comunidades online y engagement</tspan><tspan x="0" y="20.4" class="st10 st11 st12">• Comunicación clara</tspan><tspan x="0" y="30.5" class="st10 st11 st12">• Email marketing y redes sociales</tspan></text>
	<g>
		<text transform="matrix(1 0 0 1 477.0924 115.7013)"><tspan x="0" y="0" class="st3 st7 st8">DISEÑO DE SERVICIOS Y </tspan><tspan x="0" y="12" class="st3 st7 st8">EXPERIENCIA DE USUARIO</tspan></text>
	</g>
	<rect x="477.1" y="135.7" class="st9" width="121.3" height="86.4"/>
	<text transform="matrix(1 0 0 1 477.0927 141.7433)"><tspan x="0" y="0" class="st10 st11 st12">• Diseño de producto y soluciones</tspan><tspan x="0" y="10.2" class="st10 st11 st12">• Cocreación </tspan><tspan x="0" y="20.4" class="st10 st11 st12">• Definición: Casos de uso, roles</tspan><tspan x="0" y="30.5" class="st10 st11 st12">• Arquitectura de la información</tspan><tspan x="0" y="40.7" class="st10 st11 st12">• Diseño de interacción y visual</tspan></text>
	<g>
		<text transform="matrix(1 0 0 1 423.2711 302.8142)" class="st3 st7 st8">TECNOLOGÍA</text>
	</g>
	<g>
		<rect x="423.3" y="309.8" class="st9" width="154.7" height="41.6"/>
		<text transform="matrix(1 0 0 1 423.2718 315.8553)"><tspan x="0" y="0" class="st10 st11 st12">• Implementación de Gobierto</tspan><tspan x="0" y="10.2" class="st10 st11 st12">• Desarrollo aplicaciones web y móvil</tspan><tspan x="0" y="20.4" class="st10 st11 st12">• Integraciones y APIs</tspan><tspan x="0" y="30.5" class="st10 st11 st12">• Metodologías ágiles</tspan></text>
	</g>
	<g>
		<text transform="matrix(1 0 0 1 198.4158 103.7342)" class="st3 st7 st8">INVESTIGACIÓN</text>
	</g>
	<rect x="198.4" y="110.7" class="st9" width="130.3" height="54.6"/>
	<text transform="matrix(1 0 0 1 198.4151 116.7752)"><tspan x="0" y="0" class="st10 st11 st12">• Análisis de situación: métricas,   </tspan><tspan x="0" y="10.2" class="st10 st11 st12">  contenido, diseño, usabilidad</tspan><tspan x="0" y="20.4" class="st10 st11 st12">• Focus groups, encuestas</tspan><tspan x="0" y="30.5" class="st10 st11 st12">• Diseño de personas</tspan><tspan x="0" y="40.7" class="st10 st11 st12">• Citizen Journey Maps</tspan></text>
	<g>
		<text transform="matrix(1 0 0 1 130.1877 474.4868)"><tspan x="0" y="0" class="st3 st7 st8">PUESTA EN MARCHA</tspan><tspan x="0" y="12" class="st3 st7 st8">Y EVOLUCIÓN</tspan></text>
	</g>
	<rect x="130.2" y="493.5" class="st9" width="99" height="46.4"/>
	<text transform="matrix(1 0 0 1 130.188 499.5279)"><tspan x="0" y="0" class="st10 st11 st12">• Plan de lanzamiento</tspan><tspan x="0" y="10.2" class="st10 st11 st12">• Gestión de contenido</tspan><tspan x="0" y="20.4" class="st10 st11 st12">• Mantenimiento correctivo   </tspan><tspan x="0" y="30.5" class="st10 st11 st12">   y evolutivo</tspan></text>
	<rect x="19.4" y="373.2" class="st9" width="118.5" height="32.7"/>
	<text transform="matrix(1 0 0 1 19.3924 379.2104)"><tspan x="0" y="0" class="st10 st11 st12">• Cuadros de mando</tspan><tspan x="0" y="10.2" class="st10 st11 st12">• Análisis de datos</tspan><tspan x="0" y="20.4" class="st10 st11 st12">• Analítica y monitorización</tspan></text>
	<g>
		<text transform="matrix(1 0 0 1 19.392 348.6317)"><tspan x="0" y="0" class="st3 st7 st8">MONITORIZACIÓN</tspan><tspan x="0" y="12" class="st3 st7 st8">Y DIAGNÓSTICO</tspan></text>
	</g>
</g>
</svg>
