<?xml version="1.0" encoding="UTF-8"?>
<svg width="194px" height="34px" viewBox="0 0 194 34" version="1.1" xmlns="http://www.w3.org/2000/svg" xmlns:xlink="http://www.w3.org/1999/xlink">
    <!-- Generator: Sketch 46.2 (44496) - http://www.bohemiancoding.com/sketch -->
    <title>Group 2</title>
    <desc>Created with Sketch.</desc>
    <defs></defs>
    <g id="Symbols" stroke="none" stroke-width="1" fill="none" fill-rule="evenodd">
        <g id="Footer" transform="translate(-81.000000, -64.000000)">
            <g id="Group" transform="translate(78.000000, 61.000000)">
                <g id="Group-3">
                    <g id="Group-2">
                        <g id="Logo">
                            <path d="M15.8493419,27.154805 C12.8462805,25.425443 11.8168321,21.5962176 13.550856,18.6005197 L13.550856,18.6005197 C15.2844987,15.6054804 19.1232899,14.5788321 22.1274176,16.308808 L32.420319,22.2361432 C35.4233804,23.9655052 36.4528288,27.7947306 34.7188049,30.7904285 L34.7188049,30.7904285 C32.9851622,33.7854678 29.146371,34.8121161 26.1422433,33.0821402 L15.8493419,27.154805 L15.8493419,27.154805 Z" id="Rectangle-1-Copy-17" fill="#F8B206" transform="translate(24.134830, 24.695474) rotate(-150.000000) translate(-24.134830, -24.695474) "></path>
                            <rect id="Rectangle-1-Copy-18" fill="#F69C95" transform="translate(24.260402, 14.674087) rotate(-150.000000) translate(-24.260402, -14.674087) " x="17.982326" y="2.48417839" width="12.5561514" height="24.3798175" rx="6.27807568"></rect>
                            <path d="M17.5348787,11.3683886 C20.5379401,9.63902672 24.3774163,10.6644025 26.1114402,13.6601004 L26.1114402,13.6601004 C27.845083,16.6551397 26.817082,20.4844097 23.8129544,22.2143856 L13.5200529,28.1417208 C10.5169915,29.8710828 6.67751528,28.845707 4.94349137,25.8500091 L4.94349137,25.8500091 C3.20984864,22.8549697 4.23784962,19.0256998 7.24197724,17.2957239 L17.5348787,11.3683886 L17.5348787,11.3683886 Z" id="Rectangle-1-Copy-19" fill="#008E9C" transform="translate(15.527466, 19.755055) rotate(-150.000000) translate(-15.527466, -19.755055) "></path>
                            <path d="M21.2817644,26.1212217 C24.9224141,26.1212217 27.8737439,23.1959918 27.8737439,19.5875379 C27.8737439,15.979084 24.9224141,13.0538541 21.2817644,13.0538541 C17.6411147,13.0538541 14.6897849,15.979084 14.6897849,19.5875379 C14.6897849,23.1959918 17.6411147,26.1212217 21.2817644,26.1212217 Z" id="Oval-2" fill="#FEF1D6"></path>
                        </g>
                        <path d="M69,19.0470588 L69,31.6470588 L64.7487923,31.6470588 L64.5716586,28.8941176 C63.2254361,30.9647162 60.9935744,32 57.8760064,32 C55.7503919,32 53.8668896,31.5352988 52.2254428,30.6058824 C50.5839961,29.6764659 49.3027421,28.3117737 48.3816425,26.5117647 C47.4605429,24.7117557 47,22.5529538 47,20.0352941 C47,17.541164 47.4723517,15.3941266 48.4170692,13.5941176 C49.3617868,11.7941086 50.7079891,10.4117695 52.4557166,9.44705882 C54.2034441,8.48234812 56.2699827,8 58.6553945,8 C61.3242216,8 63.4734218,8.47058353 65.1030596,9.41176471 C66.7326974,10.3529459 68.0198557,11.8705778 68.9645733,13.9647059 L63.331723,16.1882353 C63.0483078,15.0352884 62.5169121,14.1764734 61.7375201,13.6117647 C60.9581281,13.047056 59.9898072,12.7647059 58.8325282,12.7647059 C57.0375648,12.7647059 55.6618405,13.3764645 54.705314,14.6 C53.7487875,15.8235355 53.2705314,17.6235175 53.2705314,20 C53.2705314,24.8941421 55.1835557,27.3411765 59.0096618,27.3411765 C60.4503561,27.3411765 61.6135221,27.011768 62.4991948,26.3529412 C63.3848676,25.6941144 63.8276973,24.7411827 63.8276973,23.4941176 L63.8276973,23.1411765 L58.0177134,23.1411765 L58.0177134,19.0470588 L69,19.0470588 Z M89.499053,16.3711538 C91.1663593,17.951931 92,20.1615243 92,23 C92,25.8384757 91.1663593,28.048069 89.499053,29.6288462 C87.8317467,31.2096233 85.4987524,32 82.5,32 C79.5012476,32 77.1682533,31.2096233 75.500947,29.6288462 C73.8336407,28.048069 73,25.8384757 73,23 C73,20.1615243 73.8336407,17.951931 75.500947,16.3711538 C77.1682533,14.7903767 79.5012476,14 82.5,14 C85.4987524,14 87.8317467,14.7903767 89.499053,16.3711538 Z M79.856383,19.1870504 C79.2854581,19.9784212 79,21.2493917 79,23 C79,24.7506083 79.2854581,26.0215788 79.856383,26.8129496 C80.4273078,27.6043205 81.3085047,28 82.5,28 C83.6914953,28 84.5726922,27.6043205 85.143617,26.8129496 C85.7145419,26.0215788 86,24.7506083 86,23 C86,21.2493917 85.7145419,19.9784212 85.143617,19.1870504 C84.5726922,18.3956795 83.6914953,18 82.5,18 C81.3085047,18 80.4273078,18.3956795 79.856383,19.1870504 Z M112.017078,15.7590028 C113.339033,17.4155207 114,19.7322104 114,22.7091413 C114,25.6380571 113.35105,27.9187361 112.053131,29.5512465 C110.755212,31.183757 108.928538,32 106.573055,32 C105.154958,32 103.923155,31.6218874 102.877609,30.865651 C101.832063,30.1094145 101.056929,29.0951125 100.552182,27.8227147 L100.371917,31.6398892 L95,31.6398892 L95,6 L101.129032,6 L101.129032,16.6592798 C101.633779,15.6029495 102.348825,14.7747029 103.274194,14.1745152 C104.199562,13.5743276 105.299171,13.2742382 106.573055,13.2742382 C108.880467,13.2742382 110.695123,14.1024848 112.017078,15.7590028 Z M107.077957,26.7777778 C107.692655,25.9629589 108,24.7037122 108,23 C108,21.2962878 107.692655,20.0370411 107.077957,19.2222222 C106.463259,18.4074033 105.591403,18 104.462366,18 C103.358417,18 102.505379,18.4197489 101.903226,19.2592593 C101.301072,20.0987696 101,21.283943 101,22.8148148 L101,23.1851852 C101,24.76544 101.307345,25.9629589 101.922043,26.7777778 C102.536741,27.5925967 103.383507,28 104.462366,28 C105.591403,28 106.463259,27.5925967 107.077957,26.7777778 Z M117.830808,11.2822086 C117.276933,10.8036786 117,10.0490849 117,9.01840491 C117,7.96318491 117.276933,7.19632141 117.830808,6.71779141 C118.384683,6.23926141 119.274405,6 120.5,6 C121.725595,6 122.615317,6.23926141 123.169192,6.71779141 C123.723067,7.19632141 124,7.96318491 124,9.01840491 C124,10.0490849 123.723067,10.8036786 123.169192,11.2822086 C122.615317,11.7607386 121.725595,12 120.5,12 C119.274405,12 118.384683,11.7607386 117.830808,11.2822086 Z M123,32 L117,32 L117,14 L123,14 L123,32 Z M144.823875,24.6961538 L132.812133,24.6961538 C133.000001,25.7807747 133.405085,26.5769205 134.027397,27.0846154 C134.64971,27.5923102 135.47749,27.8461538 136.510763,27.8461538 C137.379652,27.8461538 138.090017,27.684617 138.641879,27.3615385 C139.193741,27.0384599 139.5636,26.5653877 139.751468,25.9423077 L144.612524,27.4653846 C144.119371,28.9423151 143.162434,30.0673038 141.741683,30.8403846 C140.320932,31.6134654 138.57731,32 136.510763,32 C133.434427,32 131.080243,31.2153925 129.448141,29.6461538 C127.816039,28.0769152 127,25.8615528 127,23 C127,20.1384472 127.798426,17.9230848 129.395303,16.3538462 C130.99218,14.7846075 133.258302,14 136.193738,14 C139.035239,14 141.2133,14.7673 142.727984,16.3019231 C144.242669,17.8365461 145,19.9884477 145,22.7576923 C145,23.5423116 144.941292,24.188459 144.823875,24.6961538 Z M133,21 L140,21 C139.702126,18.99999 138.560294,18 136.574468,18 C134.56382,18 133.372342,18.99999 133,21 Z M162,14.3882353 L161.355372,19.4705882 C161.11662,19.3294111 160.794309,19.2058829 160.38843,19.1 C159.982551,18.9941171 159.552803,18.9411765 159.099174,18.9411765 C157.953162,18.9411765 156.998167,19.2999964 156.23416,20.0176471 C155.470152,20.7352977 155.088154,21.7646992 155.088154,23.1058824 L155.088154,32 L149,32 L149,14.3529412 L154.371901,14.3529412 L154.62259,18.1647059 C155.052344,16.8235227 155.726809,15.7941212 156.646006,15.0764706 C157.565202,14.3588199 158.705227,14 160.066116,14 C160.877874,14 161.522495,14.1294105 162,14.3882353 Z M177,30.6367713 C176.391724,31.0433503 175.619226,31.3721961 174.682482,31.6233184 C173.745737,31.8744407 172.802924,32 171.854015,32 C169.688554,32 168.034069,31.545595 166.890511,30.6367713 C165.746953,29.7279476 165.163017,28.2690683 165.138686,26.2600897 L165.138686,18.044843 L162,18.044843 L162,13.7040359 L165.138686,13.7040359 L165.138686,9.68609865 L171.343066,8 L171.343066,13.7040359 L176.817518,13.7040359 L176.817518,18.044843 L171.343066,18.044843 L171.343066,25.2556054 C171.343066,26.858005 172.145977,27.6591928 173.751825,27.6591928 C174.749397,27.6591928 175.6253,27.3961162 176.379562,26.8699552 L177,30.6367713 Z M194.499053,16.3711538 C196.166359,17.951931 197,20.1615243 197,23 C197,25.8384757 196.166359,28.048069 194.499053,29.6288462 C192.831747,31.2096233 190.498752,32 187.5,32 C184.501248,32 182.168253,31.2096233 180.500947,29.6288462 C178.833641,28.048069 178,25.8384757 178,23 C178,20.1615243 178.833641,17.951931 180.500947,16.3711538 C182.168253,14.7903767 184.501248,14 187.5,14 C190.498752,14 192.831747,14.7903767 194.499053,16.3711538 Z M184.856383,19.1870504 C184.285458,19.9784212 184,21.2493917 184,23 C184,24.7506083 184.285458,26.0215788 184.856383,26.8129496 C185.427308,27.6043205 186.308505,28 187.5,28 C188.691495,28 189.572692,27.6043205 190.143617,26.8129496 C190.714542,26.0215788 191,24.7506083 191,23 C191,21.2493917 190.714542,19.9784212 190.143617,19.1870504 C189.572692,18.3956795 188.691495,18 187.5,18 C186.308505,18 185.427308,18.3956795 184.856383,19.1870504 Z" id="Gobierto" fill="#00909E"></path>
                    </g>
                </g>
            </g>
        </g>
    </g>
</svg>