<?xml version="1.0" encoding="UTF-8"?>
<svg width="462px" height="502px" viewBox="0 0 462 502" version="1.1" xmlns="http://www.w3.org/2000/svg" xmlns:xlink="http://www.w3.org/1999/xlink">
    <!-- Generator: Sketch 46.2 (44496) - http://www.bohemiancoding.com/sketch -->
    <title>Path</title>
    <desc>Created with Sketch.</desc>
    <defs></defs>
    <g id="Page-1" stroke="none" stroke-width="1" fill="none" fill-rule="evenodd">
        <g id="Group-19" transform="translate(1.000000, 1.000000)" stroke="#FFFFFF" stroke-width="2">
            <path d="M360.991597,500 C358.670492,500 356.349386,499.913206 354.017434,499.750467 C350.926242,499.533481 347.769972,499.153757 344.646241,498.638417 C315.551072,493.745396 290.425644,476.305194 275.696385,450.787711 L216.584112,348.370603 L98.3541442,348.370603 C72.0790103,348.370603 47.3820114,338.139741 28.8077423,319.554942 C26.6113689,317.363389 24.4692269,315.009098 22.4626635,312.573437 C7.9774452,295.024742 0,272.800013 0,249.994847 C0,242.856028 0.84058736,235.538195 2.48380007,228.247486 C10.9872903,190.622217 40.8416994,161.329189 78.5433983,153.609933 C85.0240557,152.286322 91.6891,151.613667 98.3541442,151.613667 L216.584112,151.613667 L275.696385,49.1965587 C283.879909,35.0111382 295.550516,23.0226949 309.422919,14.5222919 C328.393077,2.89729911 350.980473,-1.99029701 373.025555,0.738294384 C378.432429,1.41094912 384.094192,2.6477659 389.848148,4.42704617 C391.42086,4.91526332 392.95561,5.45230219 394.49036,6.01103959 C400.2172,8.1049487 405.309532,10.4538156 410.04936,13.182407 C415.835855,16.5239822 421.264423,20.4405687 426.21033,24.8290984 C435.852681,33.3783231 443.618623,43.6146093 449.274963,55.2450267 C456.352166,70.4068815 459.606053,85.8019956 459.210163,101.018097 C458.982391,107.175057 458.299075,112.767856 457.138522,118.371504 C456.840249,119.814457 456.487745,121.230287 456.118971,122.656966 C454.638453,128.483024 452.843392,133.712372 450.630749,138.621666 C449.025498,142.115131 447.593788,144.908818 446.053615,147.577739 L386.93592,249.994847 L446.053615,352.411956 C454.242563,366.597376 458.787158,382.697693 459.210163,398.971598 C459.535552,411.659819 457.447641,424.13648 453.006086,436.048978 C445.04491,457.378643 429.795029,475.39928 410.04936,486.801863 C395.005558,495.486704 378.172118,500 360.991597,500 Z" id="Path"></path>
        </g>
    </g>
</svg>