<?xml version="1.0" encoding="UTF-8"?>
<svg width="1280px" height="688px" viewBox="0 0 1280 688" version="1.1" xmlns="http://www.w3.org/2000/svg" xmlns:xlink="http://www.w3.org/1999/xlink">
    <!-- Generator: Sketch 46.2 (44496) - http://www.bohemiancoding.com/sketch -->
    <title>Page 1</title>
    <desc>Created with Sketch.</desc>
    <defs>
        <path d="M1143.6214,0 C1143.62623,0 1143.62783,0 1143.63266,0 C1180.56315,0 1217.42606,7.04923011 1251.90251,21.0205322 C1266.66376,27.0138666 1281.71708,34.793049 1296.62075,44.1745851 C1300.69366,46.7443068 1304.62173,49.423481 1308.53291,52.1630151 C1323.12197,62.4129289 1335.72689,72.9026726 1347.04766,84.1988244 C1360.86109,98.0180195 1373.22865,113.190886 1383.87516,129.331925 C1404.63876,160.781036 1418.82472,195.575694 1425.99856,232.711512 C1434.51287,280.898822 1432.05079,326.851207 1419.41852,369.535306 C1414.11537,386.755579 1407.95372,402.037093 1400.43551,416.98864 C1398.50205,420.837991 1396.43502,424.571451 1394.31248,428.322617 C1385.72253,443.660467 1376.69649,457.073239 1366.73309,469.266741 C1359.55522,477.920739 1353.39759,484.72853 1347.02835,491.102534 L1102.5649,735.670337 L1192.02231,1069.73495 C1204.41482,1116.00604 1205.06654,1164.92733 1193.94532,1211.21934 C1185.26204,1247.30811 1169.92388,1280.97364 1148.36534,1311.26303 C1109.74035,1365.49036 1053.03513,1404.85386 988.640305,1422.11839 C939.582028,1435.26478 888.624887,1435.27283 840.104085,1422.26809 C833.548981,1420.51202 827.058246,1418.50887 820.596476,1416.28441 C812.030668,1413.33241 803.403711,1409.87017 794.971468,1406.04979 C716.503328,1370.20487 658.742461,1301.92013 636.454143,1218.68787 L547.012822,884.627274 L213.108053,795.136094 C138.901898,775.247914 76.8951387,727.652935 38.5010748,661.094489 C33.9558704,653.24046 29.688254,644.968741 25.8647788,636.569059 C-1.76530112,576.032116 -7.47637588,507.211381 9.78156193,442.789675 C15.183669,422.623034 23.0945294,402.587575 33.252647,383.235391 C85.7409482,283.38404 192.223768,223.2334 304.541572,229.964734 C323.845616,231.131692 343.179431,234.27604 362.001517,239.320517 L695.907091,328.811696 L940.355252,84.2390643 C974.201697,50.3610713 1016.23337,25.3302281 1061.84553,11.8168564 C1088.48917,3.92178312 1116.07661,0.000804798505 1143.6214,0 Z" id="path-1"></path>
    </defs>
    <g id="Symbols" stroke="none" stroke-width="1" fill="none" fill-rule="evenodd" opacity="0.100000001">
        <g id="Module/General">
            <g id="Page-1">
                <g transform="translate(-113.000000, -252.000000)">
                    <mask id="mask-2" fill="white">
                        <use xlink:href="#path-1"></use>
                    </mask>
                    <g id="Clip-2"></g>
                    <polygon id="Fill-1" fill="#FFFFFF" mask="url(#mask-2)" points="196.403369 -268 1501 81.5161718 1120.59583 1501 -184 1151.48463"></polygon>
                </g>
            </g>
        </g>
    </g>
</svg>