<?xml version="1.0" encoding="UTF-8"?>
<svg width="26px" height="28px" viewBox="0 0 26 28" version="1.1" xmlns="http://www.w3.org/2000/svg" xmlns:xlink="http://www.w3.org/1999/xlink">
    <!-- Generator: Sketch 46.2 (44496) - http://www.bohemiancoding.com/sketch -->
    <title>Logo</title>
    <desc>Created with Sketch.</desc>
    <defs></defs>
    <g id="Symbols" stroke="none" stroke-width="1" fill="none" fill-rule="evenodd">
        <g id="Header/Home" transform="translate(-40.000000, -30.000000)">
            <g id="Group-3" transform="translate(38.000000, 28.000000)">
                <g id="Logo">
                    <path d="M13.0045882,22.2808656 C10.5405378,20.861902 9.69586224,17.7199734 11.1186511,15.2619649 L11.1186511,15.2619649 C12.5411272,12.8044967 15.6909046,11.9621186 18.1558298,13.381586 L26.6012874,18.2450406 C29.0653378,19.6640042 29.9100134,22.8059328 28.4872245,25.2639413 L28.4872245,25.2639413 C27.0647484,27.7214095 23.914971,28.5637876 21.4500458,27.1443202 L13.0045882,22.2808656 L13.0045882,22.2808656 Z" id="Rectangle-1-Copy-17" fill="#F8B206" transform="translate(19.802938, 20.262953) rotate(-150.000000) translate(-19.802938, -20.262953) "></path>
                    <rect id="Rectangle-1-Copy-18" fill="#F69C95" transform="translate(19.905971, 12.040277) rotate(-150.000000) translate(-19.905971, -12.040277) " x="14.754729" y="2.03830022" width="10.3024832" height="20.0039528" rx="5.15124159"></rect>
                    <path d="M14.3875928,9.32790862 C16.8516432,7.908945 20.0019826,8.75027896 21.4247715,11.2082875 L21.4247715,11.2082875 C22.8472476,13.6657557 22.0037596,16.8077208 19.5388344,18.2271882 L11.0933768,23.0906427 C8.62932636,24.5096064 5.47898689,23.6682724 4.05619804,21.2102639 L4.05619804,21.2102639 C2.63372196,18.7527957 3.47720994,15.6108306 5.94213517,14.1913632 L14.3875928,9.32790862 L14.3875928,9.32790862 Z" id="Rectangle-1-Copy-19" fill="#008E9C" transform="translate(12.740485, 16.209276) rotate(-150.000000) translate(-12.740485, -16.209276) "></path>
                    <path d="M17.4619605,21.4327973 C20.4491603,21.4327973 22.8707642,19.0326087 22.8707642,16.071826 C22.8707642,13.1110433 20.4491603,10.7108546 17.4619605,10.7108546 C14.4747608,10.7108546 12.0531569,13.1110433 12.0531569,16.071826 C12.0531569,19.0326087 14.4747608,21.4327973 17.4619605,21.4327973 Z" id="Oval-2" fill="#FEF1D6"></path>
                </g>
            </g>
        </g>
    </g>
</svg>