<?xml version="1.0" encoding="UTF-8"?>
<svg width="588px" height="588px" viewBox="0 0 588 588" version="1.1" xmlns="http://www.w3.org/2000/svg" xmlns:xlink="http://www.w3.org/1999/xlink">
    <!-- Generator: Sketch 46.2 (44496) - http://www.bohemiancoding.com/sketch -->
    <title>Path</title>
    <desc>Created with Sketch.</desc>
    <defs></defs>
    <g id="Page-1" stroke="none" stroke-width="1" fill="none" fill-rule="evenodd">
        <path d="M427.934273,553.38271 C425.148946,553.38271 422.363619,553.278557 419.565276,553.08327 C415.855846,552.822887 412.068322,552.367218 408.319845,551.74881 C373.405642,545.877185 343.255129,524.948943 325.580017,494.327963 L254.64529,371.427433 L112.769329,371.427433 C81.2391681,371.427433 51.6027694,359.150399 29.3136465,336.84864 C26.6779983,334.218777 24.107428,331.393627 21.6995519,328.470834 C4.31728995,307.412401 -5.2556443,280.742725 -5.2556443,253.376527 C-5.2556443,244.809943 -4.24693947,236.028544 -2.27508421,227.279693 C7.92910402,182.129371 43.754395,146.977736 88.9964336,137.714629 C96.7732225,136.126296 104.771276,135.31911 112.769329,135.31911 L254.64529,135.31911 L325.580017,12.4185802 C335.400247,-4.60392442 349.404975,-18.9900564 366.051858,-29.19054 C388.816049,-43.1405314 415.920924,-49.0056467 442.375021,-45.731337 C448.863271,-44.9241513 455.657386,-43.4399712 462.562133,-41.3048349 C464.449388,-40.7189743 466.291087,-40.0745277 468.132787,-39.4040428 C475.004996,-36.8913519 481.115795,-34.0727115 486.803588,-30.7984018 C493.747382,-26.7885117 500.261663,-22.0886079 506.196752,-16.8223723 C517.767573,-6.56330257 527.086704,5.72024089 533.874311,19.6767418 C542.366955,37.8709675 546.271619,56.3451044 545.796551,74.6044258 C545.523225,81.9927787 544.703246,88.7041371 543.310582,95.4285146 C542.952655,97.1600581 542.529649,98.8590538 542.087121,100.571069 C540.310499,107.562338 538.156426,113.837556 535.501254,119.728709 C533.574954,123.920867 531.856901,127.273292 530.008694,130.475996 L459.067459,253.376527 L530.008694,376.277057 C539.835431,393.299561 545.288945,412.619941 545.796551,432.148627 C546.187018,447.374493 543.681525,462.346485 538.351659,476.641483 C528.798248,502.237081 510.49839,523.861846 486.803588,537.544945 C468.751026,547.966754 448.550898,553.38271 427.934273,553.38271 Z" id="Path" fill="#000000" transform="translate(270.290207, 253.382710) rotate(-345.000000) translate(-270.290207, -253.382710) "></path>
    </g>
</svg>