<?xml version="1.0" encoding="utf-8"?>
<!-- Generator: Adobe Illustrator 21.0.0, SVG Export Plug-In . SVG Version: 6.00 Build 0)  -->
<svg version="1.1" id="Layer_1" xmlns="http://www.w3.org/2000/svg" xmlns:xlink="http://www.w3.org/1999/xlink" x="0px" y="0px"
	 viewBox="0 0 1024 787" style="enable-background:new 0 0 1024 787;" xml:space="preserve">
<style type="text/css">
	.st0{clip-path:url(#SVGID_2_);fill:#F2F9FA;}
	.st1{clip-path:url(#SVGID_4_);fill:#F2F9FA;}
	.st2{clip-path:url(#SVGID_6_);fill:#179FAC;}
	.st3{clip-path:url(#SVGID_8_);fill:#118593;}
	.st4{opacity:0.5;clip-path:url(#SVGID_10_);fill:#FFFFFF;enable-background:new    ;}
	.st5{clip-path:url(#SVGID_12_);fill:#F2F9FA;}
	.st6{enable-background:new    ;}
	.st7{fill:#FFFFFF;}
	.st8{clip-path:url(#SVGID_14_);fill:#FFFFFF;}
	.st9{clip-path:url(#SVGID_16_);fill:#F2F9FA;}
	.st10{clip-path:url(#SVGID_18_);fill:#118593;}
	.st11{clip-path:url(#SVGID_20_);fill:#932711;}
	.st12{clip-path:url(#SVGID_22_);fill:#F2F9FA;}
	.st13{clip-path:url(#SVGID_24_);fill:#F2F9FA;}
	.st14{clip-path:url(#SVGID_26_);fill:#F2F9FA;}
	.st15{clip-path:url(#SVGID_28_);fill:#F2F9FA;}
	.st16{clip-path:url(#SVGID_30_);fill:#F2F9FA;}
	.st17{opacity:0.5;}
	.st18{opacity:0.6;enable-background:new    ;}
	.st19{opacity:0.6;}
	.st20{clip-path:url(#SVGID_32_);fill:#00909E;}
	.st21{fill:#008D9B;}
	.st22{fill:#F6B119;}
	.st23{fill:#F59B94;}
	.st24{fill:#FDF0D6;}
</style>
<g>
	<g>
		<g>
			<defs>
				<rect id="SVGID_1_" x="687" y="230" width="251" height="122"/>
			</defs>
			<clipPath id="SVGID_2_">
				<use xlink:href="#SVGID_1_"  style="overflow:visible;"/>
			</clipPath>
			<rect x="682" y="225" class="st0" width="261" height="132"/>
		</g>
	</g>
</g>
<g>
	<g>
		<g>
			<defs>
				<rect id="SVGID_3_" x="388" y="230" width="251" height="122"/>
			</defs>
			<clipPath id="SVGID_4_">
				<use xlink:href="#SVGID_3_"  style="overflow:visible;"/>
			</clipPath>
			<rect x="383" y="225" class="st1" width="261" height="132"/>
		</g>
	</g>
</g>
<g>
	<g>
		<g>
			<defs>
				<rect id="SVGID_5_" y="36" width="1024" height="122.5"/>
			</defs>
			<clipPath id="SVGID_6_">
				<use xlink:href="#SVGID_5_"  style="overflow:visible;"/>
			</clipPath>
			<rect x="-5" y="31" class="st2" width="1034" height="132.5"/>
		</g>
	</g>
</g>
<g>
	<g>
		<g>
			<defs>
				<rect id="SVGID_7_" y="158" width="1024" height="36"/>
			</defs>
			<clipPath id="SVGID_8_">
				<use xlink:href="#SVGID_7_"  style="overflow:visible;"/>
			</clipPath>
			<rect x="-5" y="153" class="st3" width="1034" height="46"/>
		</g>
	</g>
</g>
<g>
	<g>
		<g>
			<defs>
				<rect id="SVGID_9_" x="60" y="190" width="48" height="4"/>
			</defs>
			<clipPath id="SVGID_10_">
				<use xlink:href="#SVGID_9_"  style="overflow:visible;"/>
			</clipPath>
			<rect x="55" y="185" class="st4" width="58" height="14"/>
		</g>
	</g>
</g>
<g>
	<g>
		<g>
			<defs>
				<rect id="SVGID_11_" x="88" y="230" width="251" height="122"/>
			</defs>
			<clipPath id="SVGID_12_">
				<use xlink:href="#SVGID_11_"  style="overflow:visible;"/>
			</clipPath>
			<rect x="83" y="225" class="st5" width="261" height="132"/>
		</g>
	</g>
</g>
<g class="st6">
	<path class="st7" d="M65.8,107.9h-5.1v-3.5h14.5v3.5h-5.1V123h-4.2v-15.1H65.8z"/>
</g>
<g class="st6">
	<path class="st7" d="M75.2,108.8h4.2v8.3c0,1,0.1,1.7,0.4,2.1s0.7,0.6,1.3,0.6c0.5,0,1-0.1,1.3-0.4c0.4-0.2,0.8-0.6,1.2-1.2v-9.4
		h4.2V123h-3.4l-0.3-2H84c-0.6,0.7-1.3,1.3-2,1.7s-1.5,0.6-2.5,0.6c-1.5,0-2.7-0.5-3.4-1.5c-0.7-1-1-2.4-1-4.2v-8.8H75.2z"/>
	<path class="st7" d="M97,119.1c0-1.5,0.6-2.6,1.9-3.5c1.3-0.8,3.3-1.4,6.1-1.7c0-0.6-0.2-1.1-0.6-1.5c-0.3-0.4-0.9-0.6-1.7-0.6
		c-0.6,0-1.2,0.1-1.8,0.3c-0.6,0.2-1.3,0.5-1.9,0.9l-1.5-2.8c0.9-0.6,1.9-1,2.9-1.3s2.1-0.5,3.2-0.5c1.8,0,3.2,0.5,4.2,1.6
		c1,1,1.4,2.7,1.4,4.8v8.1h-3.4l-0.3-1.5h-0.1c-0.6,0.5-1.3,1-1.9,1.3c-0.7,0.3-1.4,0.5-2.2,0.5c-0.6,0-1.2-0.1-1.7-0.3
		c-0.5-0.2-1-0.5-1.3-0.9c-0.4-0.4-0.6-0.8-0.8-1.4C97.1,120.2,97,119.7,97,119.1z M101,118.7c0,0.5,0.1,0.8,0.4,1s0.7,0.3,1.2,0.3
		s0.9-0.1,1.3-0.3c0.3-0.2,0.7-0.5,1.1-0.9v-2.5c-1.5,0.2-2.5,0.5-3.1,0.9C101.3,117.7,101,118.2,101,118.7z"/>
	<path class="st7" d="M113.5,125.2c0.2,0,0.3,0.1,0.5,0.1c0.7,0,1.2-0.2,1.6-0.5s0.7-0.8,0.9-1.3l0.2-0.7l-5.5-13.8h4.2l2,6.1
		c0.2,0.6,0.4,1.3,0.6,2s0.4,1.4,0.5,2.1h0.1c0.2-0.7,0.3-1.3,0.5-2s0.3-1.3,0.5-2l1.7-6.1h4l-4.9,14.3c-0.3,0.9-0.7,1.7-1.1,2.4
		c-0.4,0.7-0.8,1.2-1.3,1.7s-1,0.8-1.7,1c-0.6,0.2-1.3,0.3-2.2,0.3c-0.4,0-0.8,0-1.1-0.1c-0.3,0-0.6-0.1-0.9-0.2l0.7-3.2
		C113.2,125.1,113.4,125.1,113.5,125.2z"/>
	<path class="st7" d="M127.5,108.8h4.2v8.3c0,1,0.1,1.7,0.4,2.1s0.7,0.6,1.3,0.6c0.5,0,1-0.1,1.3-0.4c0.4-0.2,0.8-0.6,1.2-1.2v-9.4
		h4.2V123h-3.4l-0.3-2h-0.1c-0.6,0.7-1.3,1.3-2,1.7s-1.5,0.6-2.5,0.6c-1.5,0-2.7-0.5-3.4-1.5s-1-2.4-1-4.2v-8.8H127.5z"/>
	<path class="st7" d="M143.9,108.8h3.4l0.3,1.8h0.1c0.6-0.6,1.3-1.1,2-1.5s1.6-0.6,2.5-0.6c1.5,0,2.7,0.5,3.4,1.5s1,2.4,1,4.2v8.8
		h-4.2v-8.3c0-1-0.1-1.7-0.4-2.1c-0.3-0.4-0.7-0.6-1.3-0.6c-0.5,0-1,0.1-1.4,0.4c-0.4,0.2-0.8,0.6-1.3,1v9.6h-4.2L143.9,108.8
		L143.9,108.8z"/>
</g>
<g class="st6">
	<path class="st7" d="M160.8,112.1h-1.9V109l2.2-0.2l0.5-3.8h3.5v3.8h3.4v3.3H165v5.7c0,0.8,0.2,1.4,0.5,1.7
		c0.3,0.4,0.8,0.5,1.3,0.5c0.2,0,0.5,0,0.7-0.1s0.5-0.1,0.6-0.2l0.7,3.1c-0.4,0.1-0.8,0.2-1.3,0.3c-0.5,0.1-1.1,0.2-1.8,0.2
		c-0.9,0-1.6-0.1-2.2-0.4c-0.6-0.3-1.1-0.6-1.5-1.1s-0.7-1.1-0.9-1.7c-0.2-0.7-0.3-1.4-0.3-2.2V112.1z"/>
</g>
<g class="st6">
	<path class="st7" d="M170,119.1c0-1.5,0.6-2.6,1.9-3.5c1.3-0.8,3.3-1.4,6.1-1.7c0-0.6-0.2-1.1-0.6-1.5c-0.3-0.4-0.9-0.6-1.7-0.6
		c-0.6,0-1.2,0.1-1.8,0.3c-0.6,0.2-1.3,0.5-1.9,0.9l-1.5-2.8c0.9-0.6,1.9-1,2.9-1.3s2.1-0.5,3.2-0.5c1.8,0,3.2,0.5,4.2,1.6
		c1,1,1.4,2.7,1.4,4.8v8.1h-3.4l-0.3-1.5h-0.1c-0.6,0.5-1.3,1-1.9,1.3c-0.7,0.3-1.4,0.5-2.2,0.5c-0.6,0-1.2-0.1-1.7-0.3
		c-0.5-0.2-1-0.5-1.3-0.9c-0.4-0.4-0.6-0.8-0.8-1.4C170.1,120.2,170,119.7,170,119.1z M174,118.7c0,0.5,0.1,0.8,0.4,1
		c0.3,0.2,0.7,0.3,1.2,0.3s0.9-0.1,1.3-0.3c0.3-0.2,0.7-0.5,1.1-0.9v-2.5c-1.5,0.2-2.5,0.5-3.1,0.9C174.3,117.7,174,118.2,174,118.7
		z"/>
	<path class="st7" d="M185.7,108.8h3.4l0.3,1.8h0.1c0.6-0.6,1.2-1.1,1.9-1.5s1.5-0.6,2.4-0.6c1,0,1.8,0.2,2.4,0.6
		c0.6,0.4,1.1,1,1.5,1.8c0.6-0.6,1.3-1.2,2-1.7s1.5-0.7,2.5-0.7c1.5,0,2.6,0.5,3.4,1.5c0.7,1,1.1,2.4,1.1,4.2v8.8h-4.2v-8.3
		c0-1-0.1-1.7-0.4-2.1c-0.3-0.4-0.7-0.6-1.3-0.6c-0.7,0-1.5,0.5-2.4,1.4v9.6h-4.2v-8.3c0-1-0.1-1.7-0.4-2.1
		c-0.3-0.4-0.7-0.6-1.3-0.6c-0.7,0-1.5,0.5-2.4,1.4v9.6h-4.2v-14.2H185.7z"/>
	<path class="st7" d="M212.3,106.7c-0.7,0-1.3-0.2-1.7-0.6c-0.5-0.4-0.7-0.9-0.7-1.6s0.2-1.2,0.7-1.6s1-0.6,1.7-0.6s1.3,0.2,1.8,0.6
		c0.4,0.4,0.7,0.9,0.7,1.6s-0.2,1.2-0.7,1.6S213,106.7,212.3,106.7z M210.2,108.8h4.2V123h-4.2V108.8z"/>
	<path class="st7" d="M217.3,115.9c0-1.1,0.2-2.2,0.6-3.1c0.4-0.9,0.9-1.7,1.5-2.3c0.6-0.6,1.3-1.1,2.1-1.5c0.8-0.3,1.6-0.5,2.5-0.5
		c1,0,1.9,0.2,2.6,0.5c0.8,0.3,1.4,0.8,1.9,1.4s0.9,1.3,1.1,2.2c0.2,0.8,0.4,1.7,0.4,2.7c0,0.4,0,0.7-0.1,1c0,0.3-0.1,0.6-0.1,0.7
		h-8.5c0.2,1.1,0.6,1.9,1.3,2.4s1.5,0.7,2.4,0.7c1,0,2-0.3,3.1-0.9l1.4,2.5c-0.7,0.5-1.5,0.9-2.4,1.2c-0.9,0.3-1.8,0.4-2.6,0.4
		c-1,0-2-0.2-2.8-0.5c-0.9-0.3-1.6-0.8-2.3-1.5c-0.6-0.6-1.2-1.4-1.5-2.3C217.5,118.1,217.3,117.1,217.3,115.9z M226.4,114.5
		c0-0.8-0.2-1.5-0.5-2c-0.4-0.5-1-0.8-1.8-0.8c-0.7,0-1.3,0.2-1.8,0.7c-0.5,0.4-0.8,1.1-1,2.1C221.3,114.5,226.4,114.5,226.4,114.5z
		"/>
	<path class="st7" d="M232.9,108.8h3.4l0.3,1.8h0.1c0.6-0.6,1.3-1.1,2-1.5s1.6-0.6,2.5-0.6c1.5,0,2.7,0.5,3.4,1.5s1,2.4,1,4.2v8.8
		h-4.2v-8.3c0-1-0.1-1.7-0.4-2.1c-0.3-0.4-0.7-0.6-1.3-0.6c-0.5,0-1,0.1-1.4,0.4c-0.4,0.2-0.8,0.6-1.3,1v9.6h-4.2L232.9,108.8
		L232.9,108.8z"/>
</g>
<g class="st6">
	<path class="st7" d="M249.8,112.1h-1.9V109l2.2-0.2l0.5-3.8h3.5v3.8h3.4v3.3H254v5.7c0,0.8,0.2,1.4,0.5,1.7
		c0.3,0.4,0.8,0.5,1.3,0.5c0.2,0,0.5,0,0.7-0.1s0.5-0.1,0.6-0.2l0.7,3.1c-0.4,0.1-0.8,0.2-1.3,0.3c-0.5,0.1-1.1,0.2-1.8,0.2
		c-0.9,0-1.6-0.1-2.2-0.4c-0.6-0.3-1.1-0.6-1.5-1.1s-0.7-1.1-0.9-1.7c-0.2-0.7-0.3-1.4-0.3-2.2L249.8,112.1L249.8,112.1z"/>
</g>
<g class="st6">
	<path class="st7" d="M258.8,115.9c0-1.2,0.2-2.2,0.6-3.2c0.4-0.9,0.9-1.7,1.5-2.3c0.6-0.6,1.4-1.1,2.2-1.4c0.8-0.3,1.7-0.5,2.6-0.5
		s1.8,0.2,2.6,0.5c0.8,0.3,1.6,0.8,2.2,1.4s1.1,1.4,1.5,2.3s0.6,2,0.6,3.2s-0.2,2.2-0.6,3.2c-0.4,0.9-0.9,1.7-1.5,2.3
		c-0.6,0.6-1.4,1.1-2.2,1.4s-1.7,0.5-2.6,0.5s-1.8-0.2-2.6-0.5c-0.8-0.3-1.6-0.8-2.2-1.4s-1.1-1.4-1.5-2.3
		C259,118.1,258.8,117.1,258.8,115.9z M263.1,115.9c0,1.2,0.2,2.2,0.6,2.9s1.1,1.1,2,1.1s1.5-0.4,1.9-1.1s0.7-1.7,0.7-2.9
		s-0.2-2.2-0.7-2.9c-0.4-0.7-1.1-1.1-1.9-1.1c-0.9,0-1.5,0.4-2,1.1S263.1,114.7,263.1,115.9z"/>
</g>
<g class="st6">
	<path class="st7" d="M289.9,102.3h1.7l-7.6,24.9h-1.7L289.9,102.3z"/>
	<path class="st7" d="M300.3,103.9h5.7c1,0,2,0.1,2.8,0.3c0.9,0.2,1.6,0.5,2.2,0.9s1.1,1,1.4,1.7s0.5,1.6,0.5,2.6s-0.2,1.8-0.5,2.6
		c-0.3,0.7-0.8,1.3-1.4,1.8s-1.3,0.8-2.2,1.1c-0.8,0.2-1.8,0.4-2.8,0.4h-3.4v7.4h-2.4L300.3,103.9L300.3,103.9z M305.8,113.2
		c1.6,0,2.9-0.3,3.6-0.9s1.2-1.6,1.2-2.9c0-1.4-0.4-2.3-1.2-2.8c-0.8-0.5-2-0.8-3.6-0.8h-3.1v7.5L305.8,113.2L305.8,113.2z"/>
</g>
<g class="st6">
	<path class="st7" d="M316.6,108.7h1.9l0.2,2.5h0.1c0.5-0.9,1.1-1.6,1.7-2.1c0.7-0.5,1.4-0.8,2.2-0.8c0.6,0,1,0.1,1.5,0.3l-0.5,2.1
		c-0.2-0.1-0.4-0.1-0.6-0.2c-0.2,0-0.4-0.1-0.7-0.1c-0.6,0-1.2,0.2-1.8,0.7c-0.6,0.5-1.2,1.3-1.7,2.5v8.9h-2.3L316.6,108.7
		L316.6,108.7z"/>
</g>
<g class="st6">
	<path class="st7" d="M324.9,115.7c0-1.1,0.2-2.2,0.5-3.1c0.4-0.9,0.8-1.7,1.4-2.3c0.6-0.6,1.2-1.1,2-1.4c0.7-0.3,1.5-0.5,2.3-0.5
		c0.9,0,1.7,0.2,2.4,0.5s1.3,0.7,1.7,1.3c0.5,0.6,0.8,1.3,1.1,2.1s0.4,1.7,0.4,2.7c0,0.5,0,0.9-0.1,1.3h-9.4
		c0.1,1.5,0.6,2.7,1.4,3.6s1.9,1.3,3.2,1.3c0.7,0,1.3-0.1,1.8-0.3c0.6-0.2,1.1-0.5,1.6-0.8l0.8,1.5c-0.6,0.4-1.3,0.7-2,1
		s-1.6,0.4-2.5,0.4s-1.8-0.2-2.6-0.5c-0.8-0.3-1.5-0.8-2.1-1.4s-1.1-1.4-1.4-2.3C325.1,117.9,324.9,116.8,324.9,115.7z M334.6,114.6
		c0-1.4-0.3-2.5-0.9-3.3s-1.4-1.1-2.5-1.1c-0.5,0-1,0.1-1.4,0.3c-0.4,0.2-0.9,0.5-1.2,0.9c-0.4,0.4-0.7,0.8-0.9,1.4
		s-0.4,1.2-0.5,1.9h7.4V114.6z"/>
	<path class="st7" d="M339.7,119.5c0.6,0.5,1.2,0.9,1.9,1.2c0.6,0.3,1.4,0.5,2.2,0.5c0.9,0,1.6-0.2,2.1-0.6s0.7-0.9,0.7-1.5
		c0-0.4-0.1-0.7-0.3-0.9s-0.4-0.5-0.7-0.7s-0.6-0.4-1-0.5c-0.4-0.2-0.8-0.3-1.1-0.5c-0.5-0.2-1-0.4-1.5-0.6s-0.9-0.5-1.3-0.8
		s-0.7-0.7-1-1.1s-0.4-0.9-0.4-1.5s0.1-1.1,0.3-1.6c0.2-0.5,0.5-0.9,0.9-1.3s0.9-0.6,1.5-0.8c0.6-0.2,1.3-0.3,2-0.3
		c0.9,0,1.7,0.2,2.4,0.5s1.4,0.7,1.9,1.1l-1.1,1.5c-0.5-0.4-1-0.7-1.5-0.9c-0.5-0.2-1.1-0.3-1.7-0.3c-0.9,0-1.5,0.2-1.9,0.6
		s-0.6,0.9-0.6,1.4c0,0.3,0.1,0.6,0.3,0.8c0.2,0.2,0.4,0.4,0.7,0.6c0.3,0.2,0.6,0.3,1,0.5c0.4,0.1,0.8,0.3,1.2,0.4
		c0.5,0.2,1,0.4,1.5,0.6s1,0.5,1.4,0.8s0.7,0.7,1,1.2s0.4,1,0.4,1.7c0,0.6-0.1,1.1-0.3,1.6c-0.2,0.5-0.5,0.9-1,1.3s-1,0.7-1.6,0.9
		s-1.4,0.3-2.2,0.3c-1,0-1.9-0.2-2.8-0.5c-0.9-0.4-1.7-0.8-2.3-1.4L339.7,119.5z"/>
	<path class="st7" d="M351.9,108.7h2.4v8.5c0,1.3,0.2,2.3,0.6,2.8c0.4,0.6,1.1,0.9,2,0.9c0.7,0,1.4-0.2,1.9-0.6
		c0.6-0.4,1.2-1,1.8-1.8v-9.9h2.3v13.9H361l-0.2-2.2h-0.1c-0.6,0.8-1.3,1.4-2,1.8s-1.6,0.7-2.5,0.7c-1.5,0-2.6-0.5-3.2-1.4
		c-0.7-0.9-1-2.3-1-4.1L351.9,108.7L351.9,108.7z"/>
	<path class="st7" d="M369.9,123.8v4.7h-2.3v-19.7h1.9l0.2,1.6h0.1c0.6-0.5,1.3-1,2.1-1.4c0.8-0.4,1.5-0.6,2.4-0.6s1.7,0.2,2.4,0.5
		s1.3,0.8,1.7,1.4s0.8,1.4,1,2.2c0.2,0.9,0.4,1.8,0.4,2.9c0,1.2-0.2,2.2-0.5,3.2s-0.8,1.7-1.3,2.4c-0.6,0.6-1.2,1.1-1.9,1.5
		c-0.7,0.3-1.5,0.5-2.3,0.5c-0.6,0-1.3-0.1-1.9-0.4s-1.3-0.7-1.9-1.2L369.9,123.8z M369.9,119.5c0.6,0.5,1.2,0.9,1.8,1.1
		s1.1,0.3,1.6,0.3c0.6,0,1.1-0.1,1.6-0.4s0.9-0.6,1.3-1.1s0.6-1,0.8-1.7c0.2-0.7,0.3-1.5,0.3-2.3s-0.1-1.5-0.2-2.1s-0.3-1.2-0.6-1.6
		s-0.7-0.8-1.1-1c-0.5-0.2-1-0.4-1.7-0.4c-0.6,0-1.2,0.2-1.8,0.5s-1.2,0.8-1.9,1.4L369.9,119.5L369.9,119.5z"/>
	<path class="st7" d="M383.3,108.7h2.4v8.5c0,1.3,0.2,2.3,0.6,2.8c0.4,0.6,1.1,0.9,2,0.9c0.7,0,1.4-0.2,1.9-0.6
		c0.6-0.4,1.2-1,1.8-1.8v-9.9h2.3v13.9h-1.9l-0.2-2.2h-0.1c-0.6,0.8-1.3,1.4-2,1.8s-1.6,0.7-2.5,0.7c-1.5,0-2.6-0.5-3.2-1.4
		c-0.7-0.9-1-2.3-1-4.1L383.3,108.7L383.3,108.7z"/>
	<path class="st7" d="M398,115.7c0-1.1,0.2-2.2,0.5-3.1c0.4-0.9,0.8-1.7,1.4-2.3c0.6-0.6,1.2-1.1,2-1.4c0.7-0.3,1.5-0.5,2.3-0.5
		c0.9,0,1.7,0.2,2.4,0.5s1.3,0.7,1.7,1.3c0.5,0.6,0.8,1.3,1.1,2.1s0.4,1.7,0.4,2.7c0,0.5,0,0.9-0.1,1.3h-9.4
		c0.1,1.5,0.6,2.7,1.4,3.6s1.9,1.3,3.2,1.3c0.7,0,1.3-0.1,1.8-0.3c0.6-0.2,1.1-0.5,1.6-0.8l0.8,1.5c-0.6,0.4-1.3,0.7-2,1
		s-1.6,0.4-2.5,0.4s-1.8-0.2-2.6-0.5c-0.8-0.3-1.5-0.8-2.1-1.4s-1.1-1.4-1.4-2.3C398.1,117.9,398,116.8,398,115.7z M407.7,114.6
		c0-1.4-0.3-2.5-0.9-3.3s-1.4-1.1-2.5-1.1c-0.5,0-1,0.1-1.4,0.3c-0.4,0.2-0.9,0.5-1.2,0.9c-0.4,0.4-0.7,0.8-0.9,1.4
		s-0.4,1.2-0.5,1.9h7.4V114.6z"/>
	<path class="st7" d="M412.8,119.5c0.6,0.5,1.2,0.9,1.9,1.2c0.6,0.3,1.4,0.5,2.2,0.5c0.9,0,1.6-0.2,2.1-0.6s0.7-0.9,0.7-1.5
		c0-0.4-0.1-0.7-0.3-0.9s-0.4-0.5-0.7-0.7s-0.6-0.4-1-0.5c-0.4-0.2-0.8-0.3-1.1-0.5c-0.5-0.2-1-0.4-1.5-0.6s-0.9-0.5-1.3-0.8
		s-0.7-0.7-1-1.1s-0.4-0.9-0.4-1.5s0.1-1.1,0.3-1.6c0.2-0.5,0.5-0.9,0.9-1.3s0.9-0.6,1.5-0.8c0.6-0.2,1.3-0.3,2-0.3
		c0.9,0,1.7,0.2,2.4,0.5s1.4,0.7,1.9,1.1l-1.1,1.5c-0.5-0.4-1-0.7-1.5-0.9c-0.5-0.2-1.1-0.3-1.7-0.3c-0.9,0-1.5,0.2-1.9,0.6
		s-0.6,0.9-0.6,1.4c0,0.3,0.1,0.6,0.3,0.8c0.2,0.2,0.4,0.4,0.7,0.6c0.3,0.2,0.6,0.3,1,0.5c0.4,0.1,0.8,0.3,1.2,0.4
		c0.5,0.2,1,0.4,1.5,0.6s1,0.5,1.4,0.8s0.7,0.7,1,1.2s0.4,1,0.4,1.7c0,0.6-0.1,1.1-0.3,1.6c-0.2,0.5-0.5,0.9-1,1.3s-1,0.7-1.6,0.9
		s-1.4,0.3-2.2,0.3c-1,0-1.9-0.2-2.8-0.5c-0.9-0.4-1.7-0.8-2.3-1.4L412.8,119.5z"/>
</g>
<g class="st6">
	<path class="st7" d="M425.5,110.6h-2.1v-1.8l2.2-0.1l0.3-3.9h2v3.9h3.7v1.9h-3.7v7.7c0,0.9,0.2,1.5,0.5,2s0.9,0.7,1.7,0.7
		c0.2,0,0.5,0,0.8-0.1s0.5-0.2,0.8-0.3l0.5,1.8c-0.4,0.1-0.8,0.3-1.2,0.4c-0.4,0.1-0.9,0.2-1.3,0.2c-0.7,0-1.4-0.1-1.9-0.3
		c-0.5-0.2-0.9-0.5-1.2-0.9c-0.3-0.4-0.5-0.9-0.7-1.5c-0.1-0.6-0.2-1.2-0.2-1.9v-7.8H425.5z"/>
</g>
<g class="st6">
	<path class="st7" d="M433.2,115.7c0-1.2,0.2-2.2,0.5-3.1c0.4-0.9,0.8-1.7,1.4-2.3c0.6-0.6,1.3-1.1,2-1.4c0.8-0.3,1.6-0.5,2.4-0.5
		c0.9,0,1.7,0.2,2.4,0.5c0.8,0.3,1.5,0.8,2,1.4s1.1,1.4,1.4,2.3c0.4,0.9,0.5,1.9,0.5,3.1c0,1.1-0.2,2.2-0.5,3.1
		c-0.4,0.9-0.8,1.7-1.4,2.3c-0.6,0.6-1.3,1.1-2,1.4c-0.8,0.3-1.6,0.5-2.4,0.5c-0.9,0-1.7-0.2-2.4-0.5c-0.8-0.3-1.5-0.8-2-1.4
		c-0.6-0.6-1.1-1.4-1.4-2.3C433.4,117.9,433.2,116.8,433.2,115.7z M435.6,115.7c0,0.8,0.1,1.5,0.3,2.2c0.2,0.6,0.5,1.2,0.8,1.7
		s0.8,0.8,1.3,1.1c0.5,0.3,1,0.4,1.6,0.4s1.1-0.1,1.6-0.4s0.9-0.6,1.3-1.1s0.6-1,0.8-1.7c0.2-0.6,0.3-1.4,0.3-2.2
		c0-0.8-0.1-1.5-0.3-2.2c-0.2-0.7-0.5-1.2-0.8-1.7c-0.4-0.5-0.8-0.8-1.3-1.1c-0.5-0.3-1-0.4-1.6-0.4s-1.1,0.1-1.6,0.4
		s-0.9,0.6-1.3,1.1s-0.6,1-0.8,1.7S435.6,114.9,435.6,115.7z"/>
	<path class="st7" d="M449.3,119.5c0.6,0.5,1.2,0.9,1.9,1.2c0.6,0.3,1.4,0.5,2.2,0.5c0.9,0,1.6-0.2,2.1-0.6s0.7-0.9,0.7-1.5
		c0-0.4-0.1-0.7-0.3-0.9s-0.4-0.5-0.7-0.7s-0.6-0.4-1-0.5c-0.4-0.2-0.8-0.3-1.1-0.5c-0.5-0.2-1-0.4-1.5-0.6s-0.9-0.5-1.3-0.8
		s-0.7-0.7-1-1.1s-0.4-0.9-0.4-1.5s0.1-1.1,0.3-1.6c0.2-0.5,0.5-0.9,0.9-1.3s0.9-0.6,1.5-0.8c0.6-0.2,1.3-0.3,2-0.3
		c0.9,0,1.7,0.2,2.4,0.5s1.4,0.7,1.9,1.1l-1.1,1.5c-0.5-0.4-1-0.7-1.5-0.9c-0.5-0.2-1.1-0.3-1.7-0.3c-0.9,0-1.5,0.2-1.9,0.6
		s-0.6,0.9-0.6,1.4c0,0.3,0.1,0.6,0.3,0.8c0.2,0.2,0.4,0.4,0.7,0.6c0.3,0.2,0.6,0.3,1,0.5c0.4,0.1,0.8,0.3,1.2,0.4
		c0.5,0.2,1,0.4,1.5,0.6s1,0.5,1.4,0.8s0.7,0.7,1,1.2s0.4,1,0.4,1.7c0,0.6-0.1,1.1-0.3,1.6c-0.2,0.5-0.5,0.9-1,1.3s-1,0.7-1.6,0.9
		s-1.4,0.3-2.2,0.3c-1,0-1.9-0.2-2.8-0.5c-0.9-0.4-1.7-0.8-2.3-1.4L449.3,119.5z"/>
</g>
<g>
	<g>
		<g>
			<defs>
				<rect id="SVGID_13_" x="80" y="222" width="268" height="141"/>
			</defs>
			<clipPath id="SVGID_14_">
				<use xlink:href="#SVGID_13_"  style="overflow:visible;"/>
			</clipPath>
			<rect x="-448" y="230" class="st8" width="251" height="122"/>
		</g>
	</g>
</g>
<g>
	<g>
		<g>
			<defs>
				<rect id="SVGID_15_" x="88" y="407" width="251" height="122"/>
			</defs>
			<clipPath id="SVGID_16_">
				<use xlink:href="#SVGID_15_"  style="overflow:visible;"/>
			</clipPath>
			<rect x="83" y="402" class="st9" width="261" height="132"/>
		</g>
	</g>
</g>
<g>
	<g>
		<g>
			<defs>
				<polygon id="SVGID_17_" points="273.5,254 277,261 270,261 				"/>
			</defs>
			<clipPath id="SVGID_18_">
				<use xlink:href="#SVGID_17_"  style="overflow:visible;"/>
			</clipPath>
			<rect x="265" y="249" class="st10" width="17" height="17"/>
		</g>
	</g>
</g>
<g>
	<g>
		<g>
			<defs>
				<polygon id="SVGID_19_" points="566.5,262 570,255 563,255 				"/>
			</defs>
			<clipPath id="SVGID_20_">
				<use xlink:href="#SVGID_19_"  style="overflow:visible;"/>
			</clipPath>
			<rect x="558" y="250" class="st11" width="17" height="17"/>
		</g>
	</g>
</g>
<g>
	<g>
		<g>
			<defs>
				<rect id="SVGID_21_" x="387" y="407" width="251" height="122"/>
			</defs>
			<clipPath id="SVGID_22_">
				<use xlink:href="#SVGID_21_"  style="overflow:visible;"/>
			</clipPath>
			<rect x="382" y="402" class="st12" width="261" height="132"/>
		</g>
	</g>
</g>
<g>
	<g>
		<g>
			<defs>
				<rect id="SVGID_23_" x="686" y="407" width="251" height="122"/>
			</defs>
			<clipPath id="SVGID_24_">
				<use xlink:href="#SVGID_23_"  style="overflow:visible;"/>
			</clipPath>
			<rect x="681" y="402" class="st13" width="261" height="132"/>
		</g>
	</g>
</g>
<g>
	<g>
		<g>
			<defs>
				<rect id="SVGID_25_" x="88.5" y="584" width="251" height="122"/>
			</defs>
			<clipPath id="SVGID_26_">
				<use xlink:href="#SVGID_25_"  style="overflow:visible;"/>
			</clipPath>
			<rect x="83.5" y="579" class="st14" width="261" height="132"/>
		</g>
	</g>
</g>
<g>
	<g>
		<g>
			<defs>
				<rect id="SVGID_27_" x="387.5" y="584" width="251" height="122"/>
			</defs>
			<clipPath id="SVGID_28_">
				<use xlink:href="#SVGID_27_"  style="overflow:visible;"/>
			</clipPath>
			<rect x="382.5" y="579" class="st15" width="261" height="132"/>
		</g>
	</g>
</g>
<g>
	<g>
		<g>
			<defs>
				<rect id="SVGID_29_" x="686.5" y="584" width="251" height="122"/>
			</defs>
			<clipPath id="SVGID_30_">
				<use xlink:href="#SVGID_29_"  style="overflow:visible;"/>
			</clipPath>
			<rect x="681.5" y="579" class="st16" width="261" height="132"/>
		</g>
	</g>
</g>
<g class="st6">
	<path d="M110.8,257.2c0-0.8,0.1-1.5,0.3-2.1c0.2-0.6,0.5-1.2,0.9-1.6c0.4-0.4,0.9-0.8,1.4-1s1.2-0.4,1.8-0.4c0.7,0,1.2,0.1,1.7,0.4
		c0.5,0.3,0.8,0.5,1.1,0.8l-0.7,0.8c-0.2-0.3-0.5-0.5-0.9-0.7c-0.3-0.2-0.7-0.3-1.2-0.3s-1,0.1-1.4,0.3s-0.7,0.5-1,0.8
		s-0.5,0.8-0.7,1.3c-0.2,0.5-0.2,1-0.2,1.6s0.1,1.2,0.2,1.7s0.4,0.9,0.6,1.3c0.3,0.3,0.6,0.6,1,0.8c0.4,0.2,0.9,0.3,1.4,0.3
		c0.4,0,0.7-0.1,1-0.2s0.6-0.2,0.8-0.4V258H115v-1h3.2v4.1c-0.3,0.3-0.7,0.6-1.3,0.8s-1.1,0.3-1.8,0.3c-0.7,0-1.2-0.1-1.8-0.3
		s-1-0.6-1.4-1s-0.7-1-0.9-1.6C110.9,258.7,110.8,258,110.8,257.2z"/>
	<path d="M120.1,260.2c0-0.8,0.4-1.4,1.1-1.8s1.9-0.7,3.4-0.9c0-0.2,0-0.5-0.1-0.7s-0.1-0.4-0.2-0.6s-0.3-0.3-0.5-0.4
		c-0.2-0.1-0.4-0.2-0.7-0.2c-0.4,0-0.8,0.1-1.2,0.2c-0.4,0.2-0.7,0.3-1,0.5l-0.5-0.9c0.3-0.2,0.8-0.4,1.2-0.6c0.5-0.2,1-0.3,1.6-0.3
		c0.9,0,1.5,0.3,1.9,0.8s0.6,1.3,0.6,2.2v4.5h-1l-0.1-0.9l0,0c-0.4,0.3-0.7,0.5-1.1,0.7s-0.8,0.3-1.3,0.3c-0.6,0-1.1-0.2-1.5-0.5
		C120.3,261.4,120.1,260.9,120.1,260.2z M121.3,260.1c0,0.4,0.1,0.7,0.4,0.9c0.2,0.2,0.5,0.3,0.9,0.3s0.7-0.1,1-0.2s0.6-0.4,1-0.7
		v-2c-0.6,0.1-1.1,0.2-1.5,0.3c-0.4,0.1-0.8,0.2-1,0.4c-0.3,0.1-0.4,0.3-0.5,0.5C121.4,259.7,121.3,259.9,121.3,260.1z"/>
	<path d="M128,260.4c0.3,0.3,0.6,0.5,1,0.6c0.3,0.2,0.7,0.2,1.2,0.2s0.8-0.1,1.1-0.3c0.2-0.2,0.4-0.5,0.4-0.8c0-0.2-0.1-0.4-0.1-0.5
		c-0.1-0.1-0.2-0.3-0.4-0.4s-0.3-0.2-0.5-0.3c-0.2-0.1-0.4-0.2-0.6-0.2c-0.3-0.1-0.5-0.2-0.8-0.3c-0.3-0.1-0.5-0.3-0.7-0.4
		c-0.2-0.2-0.4-0.4-0.5-0.6c-0.1-0.2-0.2-0.5-0.2-0.8s0.1-0.6,0.2-0.8c0.1-0.3,0.3-0.5,0.5-0.7s0.5-0.3,0.8-0.4s0.7-0.2,1.1-0.2
		c0.5,0,0.9,0.1,1.3,0.2c0.4,0.2,0.7,0.4,1,0.6l-0.6,0.8c-0.2-0.2-0.5-0.3-0.8-0.5s-0.6-0.2-0.9-0.2c-0.5,0-0.8,0.1-1,0.3
		s-0.3,0.5-0.3,0.7s0,0.3,0.1,0.4s0.2,0.2,0.4,0.3s0.3,0.2,0.5,0.3s0.4,0.2,0.6,0.2c0.3,0.1,0.5,0.2,0.8,0.3
		c0.3,0.1,0.5,0.2,0.7,0.4s0.4,0.4,0.5,0.6s0.2,0.5,0.2,0.9c0,0.3-0.1,0.6-0.2,0.8c-0.1,0.3-0.3,0.5-0.5,0.7s-0.5,0.4-0.8,0.5
		s-0.7,0.2-1.1,0.2c-0.5,0-1-0.1-1.5-0.3c-0.5-0.2-0.9-0.4-1.2-0.7L128,260.4z"/>
</g>
<g class="st6">
	<path d="M134.7,255.8h-1.1v-0.9l1.1-0.1l0.1-2h1v2h2v1h-2v4c0,0.5,0.1,0.8,0.2,1s0.5,0.4,0.9,0.4c0.1,0,0.3,0,0.4-0.1
		s0.3-0.1,0.4-0.1l0.2,0.9c-0.2,0.1-0.4,0.1-0.7,0.2c-0.2,0.1-0.5,0.1-0.7,0.1c-0.4,0-0.7-0.1-1-0.2s-0.5-0.3-0.6-0.5
		s-0.3-0.5-0.4-0.8s-0.1-0.6-0.1-1v-3.9H134.7z"/>
</g>
<g class="st6">
	<path d="M138.7,258.5c0-0.6,0.1-1.2,0.3-1.6c0.2-0.5,0.4-0.9,0.7-1.2s0.7-0.6,1.1-0.8c0.4-0.2,0.8-0.3,1.3-0.3s0.9,0.1,1.3,0.3
		c0.4,0.2,0.8,0.4,1.1,0.8s0.6,0.7,0.7,1.2c0.2,0.5,0.3,1,0.3,1.6s-0.1,1.1-0.3,1.6s-0.4,0.9-0.7,1.2s-0.7,0.6-1.1,0.7
		c-0.4,0.2-0.8,0.3-1.3,0.3c-0.4,0-0.9-0.1-1.3-0.3c-0.4-0.2-0.8-0.4-1.1-0.7s-0.6-0.7-0.7-1.2C138.8,259.6,138.7,259.1,138.7,258.5
		z M140,258.5c0,0.4,0.1,0.8,0.2,1.1c0.1,0.3,0.2,0.6,0.4,0.9s0.4,0.4,0.7,0.6c0.3,0.1,0.5,0.2,0.9,0.2s0.6-0.1,0.9-0.2
		c0.3-0.1,0.5-0.3,0.7-0.6s0.3-0.5,0.4-0.9c0.1-0.3,0.1-0.7,0.1-1.1s-0.1-0.8-0.1-1.1c-0.1-0.3-0.2-0.6-0.4-0.9s-0.4-0.4-0.7-0.6
		c-0.3-0.1-0.5-0.2-0.9-0.2s-0.6,0.1-0.9,0.2c-0.3,0.1-0.5,0.3-0.7,0.6s-0.3,0.5-0.4,0.9C140,257.7,140,258,140,258.5z"/>
	<path d="M151.6,262.7v2.5h-1.2v-10.4h1l0.1,0.8l0,0c0.3-0.3,0.7-0.5,1.1-0.7s0.8-0.3,1.2-0.3c0.5,0,0.9,0.1,1.2,0.3
		c0.4,0.2,0.7,0.4,0.9,0.8c0.2,0.3,0.4,0.7,0.5,1.2s0.2,1,0.2,1.5c0,0.6-0.1,1.2-0.3,1.7s-0.4,0.9-0.7,1.2c-0.3,0.3-0.6,0.6-1,0.8
		c-0.4,0.2-0.8,0.3-1.2,0.3c-0.3,0-0.7-0.1-1-0.2s-0.7-0.4-1-0.6L151.6,262.7z M151.6,260.5c0.3,0.3,0.6,0.5,1,0.6s0.6,0.2,0.8,0.2
		c0.3,0,0.6-0.1,0.8-0.2c0.3-0.1,0.5-0.3,0.7-0.6c0.2-0.2,0.3-0.5,0.4-0.9c0.1-0.4,0.2-0.8,0.2-1.2c0-0.4,0-0.8-0.1-1.1
		c-0.1-0.3-0.2-0.6-0.3-0.8c-0.2-0.2-0.4-0.4-0.6-0.5c-0.2-0.1-0.5-0.2-0.9-0.2c-0.3,0-0.6,0.1-0.9,0.3c-0.3,0.2-0.7,0.4-1,0.7
		L151.6,260.5L151.6,260.5z"/>
	<path d="M158.2,258.5c0-0.6,0.1-1.2,0.3-1.6c0.2-0.5,0.4-0.9,0.7-1.2s0.7-0.6,1.1-0.8c0.4-0.2,0.8-0.3,1.3-0.3s0.9,0.1,1.3,0.3
		c0.4,0.2,0.8,0.4,1.1,0.8s0.6,0.7,0.7,1.2c0.2,0.5,0.3,1,0.3,1.6s-0.1,1.1-0.3,1.6s-0.4,0.9-0.7,1.2s-0.7,0.6-1.1,0.7
		c-0.4,0.2-0.8,0.3-1.3,0.3c-0.4,0-0.9-0.1-1.3-0.3c-0.4-0.2-0.8-0.4-1.1-0.7s-0.6-0.7-0.7-1.2C158.3,259.6,158.2,259.1,158.2,258.5
		z M159.4,258.5c0,0.4,0.1,0.8,0.2,1.1c0.1,0.3,0.2,0.6,0.4,0.9s0.4,0.4,0.7,0.6c0.3,0.1,0.5,0.2,0.9,0.2s0.6-0.1,0.9-0.2
		c0.3-0.1,0.5-0.3,0.7-0.6s0.3-0.5,0.4-0.9c0.1-0.3,0.1-0.7,0.1-1.1s-0.1-0.8-0.1-1.1c-0.1-0.3-0.2-0.6-0.4-0.9s-0.4-0.4-0.7-0.6
		c-0.3-0.1-0.5-0.2-0.9-0.2s-0.6,0.1-0.9,0.2c-0.3,0.1-0.5,0.3-0.7,0.6s-0.3,0.5-0.4,0.9C159.5,257.7,159.4,258,159.4,258.5z"/>
	<path d="M166.8,254.8h1l0.1,1.3l0,0c0.2-0.5,0.6-0.8,0.9-1.1c0.4-0.3,0.7-0.4,1.2-0.4c0.3,0,0.5,0,0.8,0.1l-0.2,1.1
		c-0.1,0-0.2-0.1-0.3-0.1s-0.2,0-0.4,0c-0.3,0-0.6,0.1-1,0.4c-0.3,0.2-0.6,0.7-0.9,1.3v4.7h-1.2L166.8,254.8L166.8,254.8z"/>
	<path d="M175.1,251.4h1.2v2.9v1.5c0.4-0.3,0.7-0.6,1.1-0.8c0.4-0.2,0.8-0.4,1.3-0.4c0.8,0,1.3,0.2,1.7,0.7s0.5,1.2,0.5,2.1v4.6
		h-1.2v-4.5c0-0.7-0.1-1.2-0.3-1.5s-0.6-0.5-1-0.5s-0.7,0.1-1,0.3s-0.6,0.5-1,0.8v5.3h-1.2v-10.5H175.1z"/>
	<path d="M182.9,260.2c0-0.8,0.4-1.4,1.1-1.8s1.9-0.7,3.4-0.9c0-0.2,0-0.5-0.1-0.7s-0.1-0.4-0.2-0.6s-0.3-0.3-0.5-0.4
		c-0.2-0.1-0.4-0.2-0.7-0.2c-0.4,0-0.8,0.1-1.2,0.2c-0.4,0.2-0.7,0.3-1,0.5l-0.5-0.9c0.3-0.2,0.8-0.4,1.2-0.6c0.5-0.2,1-0.3,1.6-0.3
		c0.9,0,1.5,0.3,1.9,0.8s0.6,1.3,0.6,2.2v4.5h-1l-0.1-0.9l0,0c-0.4,0.3-0.7,0.5-1.1,0.7c-0.4,0.2-0.8,0.3-1.3,0.3
		c-0.6,0-1.1-0.2-1.5-0.5C183.1,261.4,182.9,260.9,182.9,260.2z M184.1,260.1c0,0.4,0.1,0.7,0.4,0.9c0.2,0.2,0.5,0.3,0.9,0.3
		s0.7-0.1,1-0.2s0.6-0.4,1-0.7v-2c-0.6,0.1-1.1,0.2-1.5,0.3c-0.4,0.1-0.8,0.2-1,0.4c-0.3,0.1-0.4,0.3-0.5,0.5
		C184.1,259.7,184.1,259.9,184.1,260.1z"/>
	<path d="M190.9,251.4h1.2v2.9v1.3c0.3-0.3,0.7-0.5,1.1-0.7c0.4-0.2,0.8-0.3,1.2-0.3c0.5,0,0.9,0.1,1.2,0.3c0.4,0.2,0.7,0.4,0.9,0.8
		c0.2,0.3,0.4,0.7,0.6,1.2s0.2,1,0.2,1.5c0,0.6-0.1,1.2-0.3,1.7s-0.4,0.9-0.7,1.2c-0.3,0.3-0.6,0.6-1,0.8c-0.4,0.2-0.8,0.3-1.2,0.3
		c-0.3,0-0.7-0.1-1.1-0.2c-0.4-0.2-0.7-0.4-1-0.7l0,0l-0.1,0.7h-1L190.9,251.4L190.9,251.4z M192.1,260.5c0.3,0.3,0.6,0.5,1,0.6
		s0.6,0.2,0.8,0.2c0.3,0,0.6-0.1,0.8-0.2c0.3-0.1,0.5-0.3,0.7-0.6c0.2-0.2,0.3-0.5,0.4-0.9c0.1-0.4,0.2-0.8,0.2-1.2
		c0-0.4,0-0.8-0.1-1.1c-0.1-0.3-0.2-0.6-0.3-0.8c-0.2-0.2-0.4-0.4-0.6-0.5c-0.2-0.1-0.5-0.2-0.9-0.2c-0.6,0-1.2,0.3-2,1L192.1,260.5
		L192.1,260.5z"/>
	<path d="M199.9,253.3c-0.2,0-0.4-0.1-0.6-0.2c-0.2-0.2-0.2-0.3-0.2-0.6c0-0.2,0.1-0.4,0.2-0.6c0.2-0.1,0.4-0.2,0.6-0.2
		c0.2,0,0.4,0.1,0.6,0.2c0.2,0.1,0.2,0.3,0.2,0.6c0,0.2-0.1,0.4-0.2,0.6C200.3,253.2,200.1,253.3,199.9,253.3z M199.2,254.8h1.2v7.3
		h-1.2V254.8z"/>
</g>
<g class="st6">
	<path d="M203.1,255.8H202v-0.9l1.1-0.1l0.1-2h1v2h2v1h-2v4c0,0.5,0.1,0.8,0.2,1s0.5,0.4,0.9,0.4c0.1,0,0.3,0,0.4-0.1
		s0.3-0.1,0.4-0.1l0.2,0.9c-0.2,0.1-0.4,0.1-0.7,0.2c-0.2,0.1-0.5,0.1-0.7,0.1c-0.4,0-0.7-0.1-1-0.2s-0.5-0.3-0.6-0.5
		s-0.3-0.5-0.4-0.8s-0.1-0.6-0.1-1v-3.9H203.1z"/>
</g>
<g class="st6">
	<path d="M207.1,260.2c0-0.8,0.4-1.4,1.1-1.8s1.9-0.7,3.4-0.9c0-0.2,0-0.5-0.1-0.7s-0.1-0.4-0.2-0.6s-0.3-0.3-0.5-0.4
		c-0.2-0.1-0.4-0.2-0.7-0.2c-0.4,0-0.8,0.1-1.2,0.2c-0.4,0.2-0.7,0.3-1,0.5l-0.5-0.9c0.3-0.2,0.8-0.4,1.2-0.6c0.5-0.2,1-0.3,1.6-0.3
		c0.9,0,1.5,0.3,1.9,0.8s0.6,1.3,0.6,2.2v4.5h-1l-0.1-0.9l0,0c-0.4,0.3-0.7,0.5-1.1,0.7c-0.4,0.2-0.8,0.3-1.3,0.3
		c-0.6,0-1.1-0.2-1.5-0.5C207.3,261.4,207.1,260.9,207.1,260.2z M208.3,260.1c0,0.4,0.1,0.7,0.4,0.9c0.2,0.2,0.5,0.3,0.9,0.3
		s0.7-0.1,1-0.2s0.6-0.4,1-0.7v-2c-0.6,0.1-1.1,0.2-1.5,0.3c-0.4,0.1-0.8,0.2-1,0.4c-0.3,0.1-0.4,0.3-0.5,0.5
		C208.4,259.7,208.3,259.9,208.3,260.1z"/>
	<path d="M215.1,254.8h1l0.1,1l0,0c0.4-0.3,0.7-0.6,1.1-0.9c0.4-0.2,0.8-0.4,1.3-0.4c0.8,0,1.3,0.2,1.7,0.7s0.5,1.2,0.5,2.1v4.6
		h-1.2v-4.5c0-0.7-0.1-1.2-0.3-1.5s-0.6-0.5-1-0.5s-0.7,0.1-1,0.3s-0.6,0.5-1,0.8v5.3h-1.2L215.1,254.8L215.1,254.8z"/>
</g>
<g class="st6">
	<path d="M223.5,255.8h-1.1v-0.9l1.1-0.1l0.1-2h1v2h2v1h-2v4c0,0.5,0.1,0.8,0.2,1s0.5,0.4,0.9,0.4c0.1,0,0.3,0,0.4-0.1
		s0.3-0.1,0.4-0.1l0.2,0.9c-0.2,0.1-0.4,0.1-0.7,0.2c-0.2,0.1-0.5,0.1-0.7,0.1c-0.4,0-0.7-0.1-1-0.2s-0.5-0.3-0.6-0.5
		s-0.3-0.5-0.4-0.8s-0.1-0.6-0.1-1v-3.9H223.5z"/>
</g>
<g class="st6">
	<path d="M227.6,258.5c0-0.6,0.1-1.1,0.3-1.6s0.4-0.9,0.7-1.2s0.7-0.6,1-0.8c0.4-0.2,0.8-0.3,1.2-0.3c0.5,0,0.9,0.1,1.2,0.2
		c0.4,0.2,0.7,0.4,0.9,0.7s0.4,0.7,0.6,1.1s0.2,0.9,0.2,1.4c0,0.3,0,0.5,0,0.7h-4.9c0.1,0.8,0.3,1.4,0.7,1.9s1,0.7,1.7,0.7
		c0.4,0,0.7-0.1,1-0.2s0.6-0.2,0.8-0.4l0.4,0.8c-0.3,0.2-0.7,0.4-1.1,0.5s-0.8,0.2-1.3,0.2s-0.9-0.1-1.4-0.3
		c-0.4-0.2-0.8-0.4-1.1-0.8c-0.3-0.3-0.6-0.7-0.7-1.2C227.7,259.6,227.6,259.1,227.6,258.5z M232.7,257.9c0-0.8-0.2-1.3-0.5-1.7
		c-0.3-0.4-0.8-0.6-1.3-0.6c-0.3,0-0.5,0.1-0.7,0.2c-0.2,0.1-0.4,0.3-0.6,0.5c-0.2,0.2-0.3,0.4-0.5,0.7c-0.1,0.3-0.2,0.6-0.2,1h3.8
		V257.9z"/>
</g>
<g class="st6">
	<path d="M114.7,312.1h4.5v-14.5h-3.6V296c0.9-0.2,1.7-0.4,2.4-0.6c0.7-0.2,1.3-0.5,1.8-0.8h1.9v17.6h4.1v2.1h-11.1
		C114.7,314.3,114.7,312.1,114.7,312.1z"/>
	<path d="M129.6,312.7c0-0.6,0.2-1.1,0.5-1.4c0.4-0.4,0.8-0.5,1.3-0.5s0.9,0.2,1.3,0.5c0.4,0.4,0.5,0.8,0.5,1.4s-0.2,1-0.5,1.4
		c-0.4,0.4-0.8,0.5-1.3,0.5s-1-0.2-1.3-0.5C129.8,313.7,129.6,313.2,129.6,312.7z"/>
	<path d="M143,314.6c-2,0-3.6-0.9-4.7-2.7s-1.7-4.3-1.7-7.6c0-3.3,0.6-5.8,1.7-7.6s2.7-2.6,4.7-2.6s3.5,0.9,4.6,2.6s1.7,4.3,1.7,7.6
		c0,3.3-0.6,5.9-1.7,7.6C146.5,313.7,145,314.6,143,314.6z M143,312.5c0.6,0,1.1-0.2,1.6-0.5s0.9-0.8,1.2-1.5s0.6-1.5,0.8-2.6
		c0.2-1,0.3-2.3,0.3-3.7c0-1.4-0.1-2.7-0.3-3.7s-0.4-1.9-0.8-2.5c-0.3-0.6-0.7-1.1-1.2-1.4s-1-0.5-1.6-0.5s-1.1,0.2-1.6,0.5
		s-0.9,0.8-1.2,1.4s-0.6,1.5-0.8,2.5s-0.3,2.3-0.3,3.7c0,2.9,0.4,5,1.1,6.3C140.9,311.9,141.9,312.5,143,312.5z"/>
	<path d="M151.9,309.2c0-0.6,0.1-1.2,0.3-1.8c0.2-0.5,0.5-1,0.8-1.5c0.3-0.4,0.7-0.8,1.2-1.2c0.4-0.3,0.9-0.6,1.4-0.9v-0.1
		c-0.7-0.5-1.4-1.1-1.9-1.9c-0.6-0.7-0.8-1.6-0.8-2.7c0-0.8,0.1-1.5,0.4-2.1c0.3-0.6,0.7-1.1,1.2-1.6c0.5-0.4,1.1-0.8,1.8-1
		s1.4-0.4,2.2-0.4c0.9,0,1.6,0.1,2.3,0.4s1.3,0.6,1.7,1.1c0.5,0.5,0.9,1,1.1,1.7c0.3,0.6,0.4,1.4,0.4,2.1c0,0.5-0.1,1-0.3,1.5
		s-0.4,0.9-0.6,1.3c-0.3,0.4-0.5,0.8-0.9,1.1c-0.3,0.3-0.6,0.6-0.9,0.8v0.1c0.4,0.2,0.9,0.5,1.3,0.8c0.4,0.3,0.8,0.7,1.1,1.1
		s0.6,0.9,0.8,1.4s0.3,1.1,0.3,1.8c0,0.7-0.2,1.4-0.5,2.1c-0.3,0.6-0.7,1.2-1.3,1.7s-1.2,0.8-2,1.1c-0.8,0.3-1.6,0.4-2.6,0.4
		c-0.9,0-1.8-0.1-2.6-0.4s-1.5-0.6-2-1.1c-0.6-0.5-1-1.1-1.3-1.7C152.1,310.7,151.9,310,151.9,309.2z M154.2,308.9
		c0,0.6,0.1,1.1,0.3,1.5c0.2,0.5,0.5,0.8,0.9,1.2c0.4,0.3,0.8,0.6,1.3,0.8s1.1,0.3,1.7,0.3c1.2,0,2.1-0.3,2.8-1
		c0.7-0.6,1.1-1.5,1.1-2.5c0-0.6-0.1-1.2-0.4-1.6c-0.3-0.5-0.7-0.8-1.2-1.2c-0.5-0.3-1.1-0.6-1.7-0.9c-0.6-0.3-1.3-0.6-2-0.8
		c-0.8,0.5-1.4,1.2-2,1.9C154.5,307.2,154.2,308,154.2,308.9z M159.8,303.5c0.7-0.6,1.2-1.2,1.5-1.9c0.4-0.7,0.5-1.3,0.5-2.1
		c0-1-0.3-1.8-0.9-2.5c-0.6-0.7-1.4-1-2.5-1c-0.9,0-1.7,0.3-2.3,0.9s-0.9,1.3-0.9,2.3c0,0.6,0.1,1.1,0.4,1.5s0.6,0.8,1,1.1
		c0.4,0.3,0.9,0.6,1.5,0.9C158.6,303,159.2,303.2,159.8,303.5z"/>
	<path d="M168.5,312.1h4.5v-14.5h-3.6V296c0.9-0.2,1.7-0.4,2.4-0.6s1.3-0.5,1.8-0.8h1.9v17.6h4.1v2.1h-11.1L168.5,312.1L168.5,312.1
		z"/>
</g>
<path d="M196.5,311.7c-0.7,0.9-1.5,1.6-2.3,2.1c-0.9,0.5-1.9,0.8-3,0.8c-0.9,0-1.8-0.2-2.6-0.5s-1.5-0.8-2.1-1.5s-1.1-1.5-1.6-2.4
	c-0.4-0.9-0.7-2-0.9-3.2h-2v-1.3l1.8-0.1c0-0.2,0-0.4,0-0.6s0-0.4,0-0.6s0-0.3,0-0.5s0-0.3,0-0.5H182V302l2-0.2
	c0.2-1.2,0.5-2.3,0.9-3.3s1-1.8,1.6-2.4c0.6-0.7,1.4-1.2,2.3-1.5c0.9-0.3,1.8-0.5,2.8-0.5c0.9,0,1.8,0.2,2.6,0.7s1.5,1,2,1.7
	l-1.5,1.5c-0.4-0.5-0.9-1-1.4-1.3s-1.1-0.5-1.8-0.5c-1.4,0-2.5,0.5-3.3,1.5s-1.4,2.4-1.6,4.2h7.8v1.5h-8c0,0.1,0,0.3,0,0.4
	s0,0.3,0,0.5s0,0.4,0,0.6s0,0.4,0,0.6h6.7v1.5h-6.6c0.3,1.8,0.8,3.1,1.6,4.1s1.8,1.5,3.1,1.5c0.8,0,1.4-0.2,2-0.6s1.1-0.9,1.7-1.6
	L196.5,311.7z"/>
<g class="st6">
	<path d="M283.4,261.1h2.2V254h-1.7v-0.8c0.4-0.1,0.8-0.2,1.1-0.3c0.3-0.1,0.6-0.3,0.9-0.4h0.9v8.6h2v1h-5.4V261.1z"/>
	<path d="M290.4,263.9c0.4-0.2,0.8-0.4,1-0.8c0.2-0.3,0.4-0.7,0.4-1.1c0,0-0.1,0-0.2,0c-0.2,0-0.4-0.1-0.6-0.2s-0.3-0.4-0.3-0.6
		c0-0.3,0.1-0.5,0.3-0.6s0.4-0.2,0.6-0.2c0.3,0,0.6,0.1,0.8,0.4c0.2,0.3,0.3,0.6,0.3,1.1c0,0.6-0.2,1.2-0.5,1.7
		c-0.4,0.5-0.8,0.8-1.4,1.1L290.4,263.9z"/>
	<path d="M294.4,260.2c0.3,0.3,0.6,0.5,1,0.8c0.4,0.2,0.9,0.3,1.4,0.3c0.3,0,0.6-0.1,0.8-0.2c0.3-0.1,0.5-0.3,0.7-0.4
		c0.2-0.2,0.3-0.4,0.5-0.7c0.1-0.3,0.2-0.6,0.2-0.9c0-0.7-0.2-1.2-0.6-1.5c-0.4-0.4-0.9-0.6-1.5-0.6c-0.3,0-0.6,0-0.8,0.1
		c-0.2,0.1-0.5,0.2-0.8,0.4l-0.7-0.4l0.3-4.6h4.8v1.1H296l-0.3,2.8c0.2-0.1,0.5-0.2,0.7-0.3c0.2-0.1,0.5-0.1,0.8-0.1
		c0.4,0,0.8,0.1,1.2,0.2s0.7,0.3,0.9,0.5c0.3,0.2,0.5,0.6,0.6,0.9c0.2,0.4,0.2,0.8,0.2,1.3s-0.1,1-0.3,1.4c-0.2,0.4-0.4,0.7-0.7,1
		c-0.3,0.3-0.6,0.5-1,0.6s-0.8,0.2-1.2,0.2c-0.4,0-0.7,0-1-0.1s-0.6-0.2-0.9-0.3c-0.3-0.1-0.5-0.3-0.7-0.4c-0.2-0.2-0.4-0.3-0.5-0.5
		L294.4,260.2z"/>
	<path d="M307.9,259.5h-1.3v2.6h-1.2v-2.6h-4.3v-0.8l4.1-6.1h1.4v5.9h1.3V259.5z M305.4,258.5v-2.8c0-0.3,0-0.6,0-0.9
		c0-0.4,0-0.7,0.1-0.9h-0.1c-0.1,0.2-0.2,0.5-0.4,0.7c-0.1,0.2-0.3,0.4-0.4,0.7l-2.2,3.3h3V258.5z"/>
	<path d="M311.1,258.3c-0.7,0-1.2-0.3-1.6-0.8s-0.6-1.3-0.6-2.3c0-1,0.2-1.8,0.6-2.3s0.9-0.8,1.6-0.8s1.2,0.3,1.6,0.8
		s0.6,1.3,0.6,2.3c0,1-0.2,1.8-0.6,2.3S311.8,258.3,311.1,258.3z M311.1,257.5c0.4,0,0.7-0.2,0.9-0.6c0.2-0.4,0.4-1,0.4-1.8
		s-0.1-1.4-0.4-1.7c-0.2-0.4-0.5-0.6-0.9-0.6s-0.7,0.2-0.9,0.6c-0.2,0.4-0.4,1-0.4,1.7c0,0.8,0.1,1.4,0.4,1.8
		C310.4,257.3,310.7,257.5,311.1,257.5z M311.4,262.3l5.4-10.2h0.8l-5.4,10.2H311.4z M317.9,262.3c-0.7,0-1.2-0.3-1.6-0.8
		s-0.6-1.3-0.6-2.3s0.2-1.8,0.6-2.3s0.9-0.8,1.6-0.8s1.2,0.3,1.6,0.8s0.6,1.3,0.6,2.3s-0.2,1.8-0.6,2.3S318.6,262.3,317.9,262.3z
		 M317.9,261.5c0.4,0,0.7-0.2,0.9-0.6c0.2-0.4,0.4-1,0.4-1.8s-0.1-1.4-0.4-1.7c-0.2-0.4-0.5-0.6-0.9-0.6s-0.7,0.2-0.9,0.6
		c-0.2,0.4-0.4,1-0.4,1.7c0,0.8,0.1,1.4,0.4,1.8C317.2,261.3,317.6,261.5,317.9,261.5z"/>
</g>
<g class="st6">
	<path d="M407.8,257.2c0-0.8,0.1-1.5,0.3-2.1c0.2-0.6,0.5-1.2,0.9-1.6c0.4-0.4,0.9-0.8,1.4-1s1.2-0.4,1.8-0.4c0.7,0,1.2,0.1,1.7,0.4
		c0.5,0.3,0.8,0.5,1.1,0.8l-0.7,0.8c-0.2-0.3-0.5-0.5-0.9-0.7c-0.3-0.2-0.7-0.3-1.2-0.3s-1,0.1-1.4,0.3s-0.7,0.5-1,0.8
		s-0.5,0.8-0.7,1.3c-0.2,0.5-0.2,1-0.2,1.6s0.1,1.2,0.2,1.7s0.4,0.9,0.6,1.3c0.3,0.3,0.6,0.6,1,0.8c0.4,0.2,0.9,0.3,1.4,0.3
		c0.4,0,0.7-0.1,1-0.2s0.6-0.2,0.8-0.4V258H412v-1h3.2v4.1c-0.3,0.3-0.7,0.6-1.3,0.8s-1.1,0.3-1.8,0.3c-0.7,0-1.2-0.1-1.8-0.3
		s-1-0.6-1.4-1s-0.7-1-0.9-1.6C407.9,258.7,407.8,258,407.8,257.2z"/>
	<path d="M417.1,260.2c0-0.8,0.4-1.4,1.1-1.8s1.9-0.7,3.4-0.9c0-0.2,0-0.5-0.1-0.7s-0.1-0.4-0.2-0.6s-0.3-0.3-0.5-0.4
		c-0.2-0.1-0.4-0.2-0.7-0.2c-0.4,0-0.8,0.1-1.2,0.2c-0.4,0.2-0.7,0.3-1,0.5l-0.5-0.9c0.3-0.2,0.8-0.4,1.2-0.6c0.5-0.2,1-0.3,1.6-0.3
		c0.9,0,1.5,0.3,1.9,0.8s0.6,1.3,0.6,2.2v4.5h-1l-0.1-0.9l0,0c-0.4,0.3-0.7,0.5-1.1,0.7s-0.8,0.3-1.3,0.3c-0.6,0-1.1-0.2-1.5-0.5
		C417.3,261.4,417.1,260.9,417.1,260.2z M418.3,260.1c0,0.4,0.1,0.7,0.4,0.9c0.2,0.2,0.5,0.3,0.9,0.3s0.7-0.1,1-0.2s0.6-0.4,1-0.7
		v-2c-0.6,0.1-1.1,0.2-1.5,0.3c-0.4,0.1-0.8,0.2-1,0.4c-0.3,0.1-0.4,0.3-0.5,0.5C418.4,259.7,418.3,259.9,418.3,260.1z"/>
	<path d="M425,260.4c0.3,0.3,0.6,0.5,1,0.6c0.3,0.2,0.7,0.2,1.2,0.2s0.8-0.1,1.1-0.3c0.2-0.2,0.4-0.5,0.4-0.8c0-0.2-0.1-0.4-0.1-0.5
		c-0.1-0.1-0.2-0.3-0.4-0.4c-0.2-0.1-0.3-0.2-0.5-0.3c-0.2-0.1-0.4-0.2-0.6-0.2c-0.3-0.1-0.5-0.2-0.8-0.3c-0.3-0.1-0.5-0.3-0.7-0.4
		c-0.2-0.2-0.4-0.4-0.5-0.6s-0.2-0.5-0.2-0.8s0.1-0.6,0.2-0.8c0.1-0.3,0.3-0.5,0.5-0.7s0.5-0.3,0.8-0.4s0.7-0.2,1.1-0.2
		c0.5,0,0.9,0.1,1.3,0.2c0.4,0.2,0.7,0.4,1,0.6l-0.6,0.8c-0.2-0.2-0.5-0.3-0.8-0.5s-0.6-0.2-0.9-0.2c-0.5,0-0.8,0.1-1,0.3
		s-0.3,0.5-0.3,0.7s0,0.3,0.1,0.4s0.2,0.2,0.4,0.3s0.3,0.2,0.5,0.3s0.4,0.2,0.6,0.2c0.3,0.1,0.5,0.2,0.8,0.3
		c0.3,0.1,0.5,0.2,0.7,0.4s0.4,0.4,0.5,0.6s0.2,0.5,0.2,0.9c0,0.3-0.1,0.6-0.2,0.8c-0.1,0.3-0.3,0.5-0.5,0.7s-0.5,0.4-0.8,0.5
		s-0.7,0.2-1.1,0.2c-0.5,0-1-0.1-1.5-0.3c-0.5-0.2-0.9-0.4-1.2-0.7L425,260.4z"/>
</g>
<g class="st6">
	<path d="M431.7,255.8h-1.1v-0.9l1.1-0.1l0.1-2h1v2h2v1h-2v4c0,0.5,0.1,0.8,0.2,1s0.5,0.4,0.9,0.4c0.1,0,0.3,0,0.4-0.1
		s0.3-0.1,0.4-0.1l0.2,0.9c-0.2,0.1-0.4,0.1-0.7,0.2c-0.2,0.1-0.5,0.1-0.7,0.1c-0.4,0-0.7-0.1-1-0.2s-0.5-0.3-0.6-0.5
		s-0.3-0.5-0.4-0.8s-0.1-0.6-0.1-1v-3.9H431.7z"/>
</g>
<g class="st6">
	<path d="M435.7,258.5c0-0.6,0.1-1.2,0.3-1.6c0.2-0.5,0.4-0.9,0.7-1.2s0.7-0.6,1.1-0.8s0.8-0.3,1.3-0.3s0.9,0.1,1.3,0.3
		s0.8,0.4,1.1,0.8s0.6,0.7,0.7,1.2c0.2,0.5,0.3,1,0.3,1.6s-0.1,1.1-0.3,1.6c-0.2,0.5-0.4,0.9-0.7,1.2s-0.7,0.6-1.1,0.7
		c-0.4,0.2-0.8,0.3-1.3,0.3c-0.4,0-0.9-0.1-1.3-0.3c-0.4-0.2-0.8-0.4-1.1-0.7s-0.6-0.7-0.7-1.2C435.8,259.6,435.7,259.1,435.7,258.5
		z M437,258.5c0,0.4,0.1,0.8,0.2,1.1c0.1,0.3,0.2,0.6,0.4,0.9s0.4,0.4,0.7,0.6c0.3,0.1,0.5,0.2,0.9,0.2s0.6-0.1,0.9-0.2
		s0.5-0.3,0.7-0.6s0.3-0.5,0.4-0.9c0.1-0.3,0.1-0.7,0.1-1.1s-0.1-0.8-0.1-1.1c-0.1-0.3-0.2-0.6-0.4-0.9s-0.4-0.4-0.7-0.6
		c-0.3-0.1-0.5-0.2-0.9-0.2s-0.6,0.1-0.9,0.2c-0.3,0.1-0.5,0.3-0.7,0.6s-0.3,0.5-0.4,0.9C437,257.7,437,258,437,258.5z"/>
</g>
<g class="st6">
	<path d="M447.6,255.8h-1.1v-0.9l1.1-0.1l0.1-2h1v2h2v1h-2v4c0,0.5,0.1,0.8,0.2,1s0.5,0.4,0.9,0.4c0.1,0,0.3,0,0.4-0.1
		s0.3-0.1,0.4-0.1l0.2,0.9c-0.2,0.1-0.4,0.1-0.7,0.2c-0.2,0.1-0.5,0.1-0.7,0.1c-0.4,0-0.7-0.1-1-0.2s-0.5-0.3-0.6-0.5
		s-0.3-0.5-0.4-0.8s-0.1-0.6-0.1-1v-3.9H447.6z"/>
</g>
<g class="st6">
	<path d="M451.6,258.5c0-0.6,0.1-1.2,0.3-1.6c0.2-0.5,0.4-0.9,0.7-1.2s0.7-0.6,1.1-0.8s0.8-0.3,1.3-0.3s0.9,0.1,1.3,0.3
		s0.8,0.4,1.1,0.8s0.6,0.7,0.7,1.2c0.2,0.5,0.3,1,0.3,1.6s-0.1,1.1-0.3,1.6c-0.2,0.5-0.4,0.9-0.7,1.2s-0.7,0.6-1.1,0.7
		c-0.4,0.2-0.8,0.3-1.3,0.3c-0.4,0-0.9-0.1-1.3-0.3c-0.4-0.2-0.8-0.4-1.1-0.7s-0.6-0.7-0.7-1.2C451.7,259.6,451.6,259.1,451.6,258.5
		z M452.9,258.5c0,0.4,0.1,0.8,0.2,1.1c0.1,0.3,0.2,0.6,0.4,0.9s0.4,0.4,0.7,0.6c0.3,0.1,0.5,0.2,0.9,0.2s0.6-0.1,0.9-0.2
		s0.5-0.3,0.7-0.6s0.3-0.5,0.4-0.9c0.1-0.3,0.1-0.7,0.1-1.1s-0.1-0.8-0.1-1.1c-0.1-0.3-0.2-0.6-0.4-0.9s-0.4-0.4-0.7-0.6
		c-0.3-0.1-0.5-0.2-0.9-0.2s-0.6,0.1-0.9,0.2c-0.3,0.1-0.5,0.3-0.7,0.6s-0.3,0.5-0.4,0.9C452.9,257.7,452.9,258,452.9,258.5z"/>
</g>
<g class="st6">
	<path d="M460.5,255.8h-1.1v-0.9l1.1-0.1l0.1-2h1v2h2v1h-2v4c0,0.5,0.1,0.8,0.2,1s0.5,0.4,0.9,0.4c0.1,0,0.3,0,0.4-0.1
		s0.3-0.1,0.4-0.1l0.2,0.9c-0.2,0.1-0.4,0.1-0.7,0.2c-0.2,0.1-0.5,0.1-0.7,0.1c-0.4,0-0.7-0.1-1-0.2s-0.5-0.3-0.6-0.5
		s-0.3-0.5-0.4-0.8s-0.1-0.6-0.1-1v-3.9H460.5z"/>
</g>
<g class="st6">
	<path d="M464.5,260.2c0-0.8,0.4-1.4,1.1-1.8s1.9-0.7,3.4-0.9c0-0.2,0-0.5-0.1-0.7s-0.1-0.4-0.2-0.6s-0.3-0.3-0.5-0.4
		c-0.2-0.1-0.4-0.2-0.7-0.2c-0.4,0-0.8,0.1-1.2,0.2c-0.4,0.2-0.7,0.3-1,0.5l-0.5-0.9c0.3-0.2,0.8-0.4,1.2-0.6c0.5-0.2,1-0.3,1.6-0.3
		c0.9,0,1.5,0.3,1.9,0.8s0.6,1.3,0.6,2.2v4.5h-1l-0.1-0.9l0,0c-0.4,0.3-0.7,0.5-1.1,0.7s-0.8,0.3-1.3,0.3c-0.6,0-1.1-0.2-1.5-0.5
		C464.7,261.4,464.5,260.9,464.5,260.2z M465.7,260.1c0,0.4,0.1,0.7,0.4,0.9c0.2,0.2,0.5,0.3,0.9,0.3s0.7-0.1,1-0.2s0.6-0.4,1-0.7
		v-2c-0.6,0.1-1.1,0.2-1.5,0.3c-0.4,0.1-0.8,0.2-1,0.4c-0.3,0.1-0.4,0.3-0.5,0.5C465.7,259.7,465.7,259.9,465.7,260.1z"/>
	<path d="M472.5,251.4h1.2v9.3c0,0.2,0,0.3,0.1,0.4s0.1,0.1,0.2,0.1h0.1c0,0,0.1,0,0.2,0l0.2,0.9c-0.1,0-0.2,0.1-0.3,0.1
		c-0.1,0-0.2,0-0.4,0c-0.5,0-0.8-0.1-1-0.4s-0.3-0.7-0.3-1.2L472.5,251.4L472.5,251.4z"/>
</g>
<g class="st6">
	<path d="M412.3,310.9c0.4,0.5,0.9,0.9,1.5,1.1c0.6,0.3,1.2,0.4,1.8,0.4c0.7,0,1.4-0.1,2-0.4s1.2-0.8,1.6-1.4
		c0.5-0.7,0.9-1.5,1.1-2.6c0.3-1.1,0.4-2.4,0.5-4c-0.6,0.8-1.3,1.4-2.2,1.9c-0.8,0.5-1.6,0.7-2.5,0.7c-1.7,0-3.1-0.5-4.1-1.5
		s-1.5-2.5-1.5-4.6c0-0.9,0.2-1.8,0.5-2.6c0.3-0.8,0.7-1.4,1.3-2s1.1-1,1.9-1.3c0.7-0.3,1.5-0.5,2.2-0.5c1,0,1.9,0.2,2.7,0.6
		c0.8,0.4,1.6,1,2.2,1.8s1.1,1.8,1.4,3s0.5,2.6,0.5,4.2c0,2-0.2,3.7-0.6,5s-1,2.5-1.7,3.4s-1.5,1.5-2.4,1.9s-1.8,0.6-2.8,0.6
		s-2-0.2-2.8-0.6s-1.5-0.9-2-1.5L412.3,310.9z M416.5,304.6c0.6,0,1.3-0.2,2.1-0.6c0.7-0.4,1.4-1.1,2.1-2c-0.2-1.9-0.6-3.4-1.4-4.4
		s-1.7-1.5-3-1.5c-0.5,0-0.9,0.1-1.3,0.3c-0.4,0.2-0.8,0.5-1.1,0.9c-0.3,0.4-0.6,0.8-0.7,1.4c-0.2,0.5-0.3,1.1-0.3,1.8
		c0,1.3,0.3,2.3,0.9,3.1C414.4,304.3,415.3,304.6,416.5,304.6z"/>
	<path d="M425.9,312.7c1.5-1.5,2.8-2.8,4-4s2.1-2.3,2.9-3.3s1.4-2,1.8-2.8c0.4-0.9,0.6-1.7,0.6-2.5c0-1.1-0.3-2.1-0.9-2.8
		s-1.6-1.1-2.8-1.1c-0.8,0-1.6,0.2-2.3,0.7s-1.3,1-1.9,1.7l-1.5-1.5c0.8-0.9,1.7-1.6,2.6-2.2c0.9-0.5,2-0.8,3.3-0.8
		c1.8,0,3.3,0.5,4.3,1.6s1.6,2.5,1.6,4.2c0,0.9-0.2,1.9-0.6,2.8s-1,1.9-1.7,2.9s-1.6,2-2.5,3.1c-1,1.1-2.1,2.2-3.2,3.4
		c0.5,0,1.1-0.1,1.7-0.1s1.1-0.1,1.6-0.1h5.7v2.2h-12.7V312.7z"/>
	<path d="M452.3,297.8c-0.4-0.5-0.9-0.8-1.5-1.1c-0.6-0.3-1.2-0.4-1.8-0.4c-0.7,0-1.3,0.1-1.9,0.4s-1.2,0.8-1.6,1.4
		s-0.9,1.5-1.1,2.6c-0.3,1.1-0.4,2.4-0.5,3.9c0.6-0.8,1.3-1.4,2.2-1.8c0.8-0.4,1.6-0.7,2.4-0.7c1.7,0,3.1,0.5,4.1,1.5
		s1.5,2.5,1.5,4.6c0,0.9-0.2,1.8-0.5,2.6c-0.3,0.8-0.7,1.4-1.3,2c-0.5,0.6-1.2,1-1.9,1.3c-0.7,0.3-1.5,0.5-2.3,0.5
		c-1,0-1.9-0.2-2.7-0.6c-0.8-0.4-1.5-1-2.1-1.8s-1.1-1.8-1.4-3c-0.4-1.2-0.5-2.6-0.5-4.2c0-2,0.2-3.7,0.6-5c0.4-1.4,1-2.5,1.7-3.4
		s1.5-1.5,2.4-1.9s1.8-0.6,2.8-0.6c1.1,0,2,0.2,2.8,0.6s1.4,0.9,2,1.5L452.3,297.8z M448.3,312.6c0.5,0,0.9-0.1,1.4-0.3
		c0.4-0.2,0.8-0.5,1.1-0.9c0.3-0.4,0.6-0.8,0.7-1.4c0.2-0.5,0.3-1.1,0.3-1.8c0-1.3-0.3-2.3-0.9-3.1s-1.5-1.1-2.7-1.1
		c-0.6,0-1.3,0.2-2,0.6s-1.4,1.1-2.1,2c0.2,1.9,0.6,3.4,1.3,4.4C446,312.1,447,312.6,448.3,312.6z"/>
	<path d="M457.3,312.7c0-0.6,0.2-1.1,0.5-1.4c0.4-0.4,0.8-0.5,1.3-0.5s0.9,0.2,1.3,0.5c0.4,0.4,0.5,0.8,0.5,1.4s-0.2,1-0.5,1.4
		c-0.4,0.4-0.8,0.5-1.3,0.5s-1-0.2-1.3-0.5C457.5,313.7,457.3,313.2,457.3,312.7z"/>
	<path d="M466,310.9c0.4,0.5,0.9,0.9,1.5,1.1c0.6,0.3,1.2,0.4,1.8,0.4c0.7,0,1.4-0.1,2-0.4s1.2-0.8,1.6-1.4c0.5-0.7,0.9-1.5,1.1-2.6
		c0.3-1.1,0.4-2.4,0.5-4c-0.6,0.8-1.3,1.4-2.2,1.9c-0.8,0.5-1.6,0.7-2.5,0.7c-1.7,0-3.1-0.5-4.1-1.5s-1.5-2.5-1.5-4.6
		c0-0.9,0.2-1.8,0.5-2.6c0.3-0.8,0.7-1.4,1.3-2s1.1-1,1.9-1.3c0.7-0.3,1.5-0.5,2.2-0.5c1,0,1.9,0.2,2.7,0.6c0.8,0.4,1.6,1,2.2,1.8
		s1.1,1.8,1.4,3s0.5,2.6,0.5,4.2c0,2-0.2,3.7-0.6,5s-1,2.5-1.7,3.4s-1.5,1.5-2.4,1.9s-1.8,0.6-2.8,0.6s-2-0.2-2.8-0.6
		s-1.5-0.9-2-1.5L466,310.9z M470.3,304.6c0.6,0,1.3-0.2,2.1-0.6c0.7-0.4,1.4-1.1,2.1-2c-0.2-1.9-0.6-3.4-1.4-4.4s-1.7-1.5-3-1.5
		c-0.5,0-0.9,0.1-1.3,0.3c-0.4,0.2-0.8,0.5-1.1,0.9c-0.3,0.4-0.6,0.8-0.7,1.4c-0.2,0.5-0.3,1.1-0.3,1.8c0,1.3,0.3,2.3,0.9,3.1
		C468.1,304.3,469,304.6,470.3,304.6z"/>
	<path d="M479.6,312.7c1.5-1.5,2.8-2.8,4-4s2.1-2.3,2.9-3.3s1.4-2,1.8-2.8c0.4-0.9,0.6-1.7,0.6-2.5c0-1.1-0.3-2.1-0.9-2.8
		s-1.6-1.1-2.8-1.1c-0.8,0-1.6,0.2-2.3,0.7s-1.3,1-1.9,1.7l-1.5-1.5c0.8-0.9,1.7-1.6,2.6-2.2c0.9-0.5,2-0.8,3.3-0.8
		c1.8,0,3.3,0.5,4.3,1.6s1.6,2.5,1.6,4.2c0,0.9-0.2,1.9-0.6,2.8s-1,1.9-1.7,2.9s-1.6,2-2.5,3.1c-1,1.1-2.1,2.2-3.2,3.4
		c0.5,0,1.1-0.1,1.7-0.1s1.1-0.1,1.6-0.1h5.7v2.2h-12.7V312.7z"/>
	<path d="M496.7,310.9c0.4,0.5,0.9,0.9,1.5,1.1c0.6,0.3,1.2,0.4,1.8,0.4c0.7,0,1.4-0.1,2-0.4s1.2-0.8,1.6-1.4
		c0.5-0.7,0.9-1.5,1.1-2.6c0.3-1.1,0.4-2.4,0.5-4c-0.6,0.8-1.3,1.4-2.2,1.9c-0.8,0.5-1.6,0.7-2.5,0.7c-1.7,0-3.1-0.5-4.1-1.5
		s-1.5-2.5-1.5-4.6c0-0.9,0.2-1.8,0.5-2.6c0.3-0.8,0.7-1.4,1.3-2s1.1-1,1.9-1.3c0.7-0.3,1.5-0.5,2.2-0.5c1,0,1.9,0.2,2.7,0.6
		c0.8,0.4,1.6,1,2.2,1.8s1.1,1.8,1.4,3s0.5,2.6,0.5,4.2c0,2-0.2,3.7-0.6,5s-1,2.5-1.7,3.4s-1.5,1.5-2.4,1.9s-1.8,0.6-2.8,0.6
		s-2-0.2-2.8-0.6s-1.5-0.9-2-1.5L496.7,310.9z M501,304.6c0.6,0,1.3-0.2,2.1-0.6c0.7-0.4,1.4-1.1,2.1-2c-0.2-1.9-0.6-3.4-1.4-4.4
		s-1.7-1.5-3-1.5c-0.5,0-0.9,0.1-1.3,0.3c-0.4,0.2-0.8,0.5-1.1,0.9c-0.3,0.4-0.6,0.8-0.7,1.4c-0.2,0.5-0.3,1.1-0.3,1.8
		c0,1.3,0.3,2.3,0.9,3.1C498.8,304.3,499.7,304.6,501,304.6z"/>
</g>
<path d="M524.2,311.7c-0.7,0.9-1.5,1.6-2.3,2.1c-0.9,0.5-1.9,0.8-3,0.8c-0.9,0-1.8-0.2-2.6-0.5s-1.5-0.8-2.1-1.5s-1.1-1.5-1.6-2.4
	c-0.4-0.9-0.7-2-0.9-3.2h-2v-1.3l1.8-0.1c0-0.2,0-0.4,0-0.6s0-0.4,0-0.6s0-0.3,0-0.5s0-0.3,0-0.5h-1.8V302l2-0.2
	c0.2-1.2,0.5-2.3,0.9-3.3s1-1.8,1.6-2.4c0.6-0.7,1.4-1.2,2.3-1.5c0.9-0.3,1.8-0.5,2.8-0.5c0.9,0,1.8,0.2,2.6,0.7s1.5,1,2,1.7
	l-1.5,1.5c-0.4-0.5-0.9-1-1.4-1.3s-1.1-0.5-1.8-0.5c-1.4,0-2.5,0.5-3.3,1.5s-1.4,2.4-1.6,4.2h7.8v1.5h-8c0,0.1,0,0.3,0,0.4
	s0,0.3,0,0.5s0,0.4,0,0.6s0,0.4,0,0.6h6.7v1.5h-6.6c0.3,1.8,0.8,3.1,1.6,4.1s1.8,1.5,3.1,1.5c0.8,0,1.4-0.2,2-0.6s1.1-0.9,1.7-1.6
	L524.2,311.7z"/>
<g class="st6">
	<path d="M576.8,257.9h3.5v0.9h-3.5V257.9z"/>
	<path d="M586.9,254.1c-0.2-0.2-0.4-0.4-0.7-0.5s-0.6-0.2-0.9-0.2c-0.3,0-0.6,0.1-0.9,0.2c-0.3,0.1-0.6,0.4-0.8,0.7
		s-0.4,0.7-0.6,1.3c-0.1,0.5-0.2,1.2-0.2,1.9c0.3-0.4,0.6-0.7,1-0.9c0.4-0.2,0.8-0.3,1.2-0.3c0.8,0,1.5,0.2,2,0.7s0.7,1.2,0.7,2.2
		c0,0.5-0.1,0.9-0.2,1.3s-0.4,0.7-0.6,1c-0.3,0.3-0.6,0.5-0.9,0.6s-0.7,0.2-1.1,0.2c-0.5,0-0.9-0.1-1.3-0.3c-0.4-0.2-0.7-0.5-1-0.9
		s-0.5-0.9-0.7-1.4s-0.3-1.2-0.3-2c0-1,0.1-1.8,0.3-2.5s0.5-1.2,0.8-1.6s0.7-0.7,1.2-0.9c0.4-0.2,0.9-0.3,1.4-0.3s1,0.1,1.3,0.3
		c0.4,0.2,0.7,0.4,1,0.7L586.9,254.1z M584.9,261.3c0.2,0,0.5,0,0.7-0.2c0.2-0.1,0.4-0.2,0.5-0.4c0.2-0.2,0.3-0.4,0.4-0.7
		s0.1-0.5,0.1-0.9c0-0.6-0.1-1.1-0.4-1.5s-0.7-0.5-1.3-0.5c-0.3,0-0.6,0.1-1,0.3c-0.4,0.2-0.7,0.5-1,1c0.1,0.9,0.3,1.7,0.7,2.1
		S584.3,261.3,584.9,261.3z"/>
	<path d="M589.1,263.9c0.4-0.2,0.8-0.4,1-0.8c0.2-0.3,0.4-0.7,0.4-1.1c0,0-0.1,0-0.2,0c-0.2,0-0.4-0.1-0.6-0.2
		c-0.2-0.1-0.3-0.4-0.3-0.6c0-0.3,0.1-0.5,0.3-0.6c0.2-0.2,0.4-0.2,0.6-0.2c0.3,0,0.6,0.1,0.8,0.4s0.3,0.6,0.3,1.1
		c0,0.6-0.2,1.2-0.5,1.7c-0.4,0.5-0.8,0.8-1.4,1.1L589.1,263.9z"/>
	<path d="M593.1,260.1c0.3,0.3,0.6,0.6,1,0.8c0.4,0.2,0.9,0.3,1.4,0.3c0.6,0,1.1-0.2,1.4-0.5c0.4-0.3,0.6-0.7,0.6-1.3
		c0-0.3-0.1-0.5-0.2-0.8c-0.1-0.2-0.3-0.4-0.5-0.6s-0.6-0.3-0.9-0.4s-0.9-0.1-1.4-0.1v-0.9c0.5,0,0.9,0,1.3-0.1
		c0.3-0.1,0.6-0.2,0.8-0.4s0.4-0.3,0.5-0.6c0.1-0.2,0.1-0.5,0.1-0.7c0-0.5-0.1-0.8-0.4-1.1c-0.3-0.3-0.7-0.4-1.2-0.4
		c-0.4,0-0.8,0.1-1.1,0.3s-0.6,0.4-0.9,0.7l-0.7-0.8c0.4-0.4,0.8-0.6,1.2-0.9c0.4-0.2,1-0.3,1.5-0.3c0.4,0,0.8,0.1,1.2,0.2
		c0.3,0.1,0.7,0.3,0.9,0.5s0.5,0.5,0.6,0.8s0.2,0.6,0.2,1c0,0.6-0.2,1.1-0.5,1.4c-0.3,0.4-0.7,0.7-1.3,0.9v0.1
		c0.3,0.1,0.6,0.2,0.8,0.3c0.2,0.1,0.5,0.3,0.7,0.5s0.3,0.4,0.4,0.7c0.1,0.3,0.2,0.6,0.2,0.9c0,0.4-0.1,0.8-0.2,1.1
		s-0.4,0.6-0.7,0.9c-0.3,0.2-0.6,0.4-1,0.5s-0.8,0.2-1.2,0.2s-0.7,0-1-0.1s-0.6-0.2-0.9-0.3s-0.5-0.3-0.7-0.4s-0.4-0.3-0.5-0.5
		L593.1,260.1z"/>
	<path d="M600.2,259.7c0-0.3,0.1-0.6,0.2-0.9c0.1-0.3,0.2-0.5,0.4-0.7s0.4-0.4,0.6-0.6c0.2-0.2,0.4-0.3,0.7-0.4V257
		c-0.4-0.2-0.7-0.6-0.9-0.9c-0.3-0.4-0.4-0.8-0.4-1.3c0-0.4,0.1-0.7,0.2-1s0.3-0.6,0.6-0.8c0.2-0.2,0.5-0.4,0.9-0.5s0.7-0.2,1.1-0.2
		c0.4,0,0.8,0.1,1.1,0.2s0.6,0.3,0.8,0.5s0.4,0.5,0.5,0.8s0.2,0.7,0.2,1c0,0.2,0,0.5-0.1,0.7s-0.2,0.4-0.3,0.6s-0.3,0.4-0.4,0.5
		c-0.2,0.2-0.3,0.3-0.5,0.4v0.1c0.2,0.1,0.4,0.3,0.6,0.4c0.2,0.2,0.4,0.3,0.5,0.5c0.2,0.2,0.3,0.4,0.4,0.7c0.1,0.2,0.1,0.5,0.1,0.9
		s-0.1,0.7-0.2,1c-0.2,0.3-0.4,0.6-0.6,0.8c-0.3,0.2-0.6,0.4-1,0.5s-0.8,0.2-1.3,0.2s-0.9-0.1-1.3-0.2c-0.4-0.1-0.7-0.3-1-0.5
		s-0.5-0.5-0.7-0.8C600.2,260.4,600.2,260,600.2,259.7z M601.3,259.5c0,0.3,0.1,0.5,0.2,0.7c0.1,0.2,0.2,0.4,0.4,0.6
		s0.4,0.3,0.7,0.4c0.2,0.1,0.5,0.1,0.8,0.1c0.6,0,1-0.2,1.4-0.5c0.3-0.3,0.5-0.7,0.5-1.2c0-0.3-0.1-0.6-0.2-0.8
		c-0.1-0.2-0.3-0.4-0.6-0.6s-0.5-0.3-0.8-0.5c-0.3-0.1-0.6-0.3-1-0.4c-0.4,0.3-0.7,0.6-1,0.9C601.4,258.7,601.3,259.1,601.3,259.5z
		 M604,256.9c0.3-0.3,0.6-0.6,0.7-0.9c0.2-0.3,0.3-0.7,0.3-1c0-0.5-0.1-0.9-0.4-1.2c-0.3-0.3-0.7-0.5-1.2-0.5s-0.8,0.1-1.1,0.4
		c-0.3,0.3-0.4,0.7-0.4,1.1c0,0.3,0.1,0.5,0.2,0.7c0.1,0.2,0.3,0.4,0.5,0.5c0.2,0.2,0.4,0.3,0.7,0.4
		C603.4,256.7,603.7,256.8,604,256.9z"/>
	<path d="M609.8,258.3c-0.7,0-1.2-0.3-1.6-0.8c-0.4-0.5-0.6-1.3-0.6-2.3c0-1,0.2-1.8,0.6-2.3c0.4-0.5,0.9-0.8,1.6-0.8
		c0.7,0,1.2,0.3,1.6,0.8c0.4,0.5,0.6,1.3,0.6,2.3c0,1-0.2,1.8-0.6,2.3S610.4,258.3,609.8,258.3z M609.8,257.5c0.4,0,0.7-0.2,0.9-0.6
		s0.4-1,0.4-1.8s-0.1-1.4-0.4-1.7c-0.2-0.4-0.5-0.6-0.9-0.6s-0.7,0.2-0.9,0.6c-0.2,0.4-0.4,1-0.4,1.7c0,0.8,0.1,1.4,0.4,1.8
		C609,257.3,609.4,257.5,609.8,257.5z M610,262.3l5.4-10.2h0.8l-5.4,10.2H610z M616.6,262.3c-0.7,0-1.2-0.3-1.6-0.8
		s-0.6-1.3-0.6-2.3s0.2-1.8,0.6-2.3s0.9-0.8,1.6-0.8c0.7,0,1.2,0.3,1.6,0.8s0.6,1.3,0.6,2.3s-0.2,1.8-0.6,2.3
		S617.3,262.3,616.6,262.3z M616.6,261.5c0.4,0,0.7-0.2,0.9-0.6s0.4-1,0.4-1.8s-0.1-1.4-0.4-1.7s-0.5-0.6-0.9-0.6s-0.7,0.2-0.9,0.6
		s-0.4,1-0.4,1.7c0,0.8,0.1,1.4,0.4,1.8C615.9,261.3,616.2,261.5,616.6,261.5z"/>
</g>
<g class="st6">
	<path d="M705.3,252.2h1.2v4.1h4.6v-4.1h1.3v9.8h-1.3v-4.6h-4.6v4.6h-1.2V252.2z"/>
	<path d="M714.7,260.2c0-0.8,0.4-1.4,1.1-1.8s1.9-0.7,3.4-0.9c0-0.2,0-0.5-0.1-0.7s-0.1-0.4-0.2-0.6s-0.3-0.3-0.5-0.4
		c-0.2-0.1-0.4-0.2-0.7-0.2c-0.4,0-0.8,0.1-1.2,0.2c-0.4,0.2-0.7,0.3-1,0.5l-0.5-0.9c0.3-0.2,0.8-0.4,1.2-0.6c0.5-0.2,1-0.3,1.6-0.3
		c0.9,0,1.5,0.3,1.9,0.8s0.6,1.3,0.6,2.2v4.5h-1l-0.1-0.9l0,0c-0.4,0.3-0.7,0.5-1.1,0.7c-0.4,0.2-0.8,0.3-1.3,0.3
		c-0.6,0-1.1-0.2-1.5-0.5C714.9,261.4,714.7,260.9,714.7,260.2z M715.9,260.1c0,0.4,0.1,0.7,0.4,0.9c0.2,0.2,0.5,0.3,0.9,0.3
		s0.7-0.1,1-0.2c0.3-0.2,0.6-0.4,1-0.7v-2c-0.6,0.1-1.1,0.2-1.5,0.3c-0.4,0.1-0.8,0.2-1,0.4c-0.3,0.1-0.4,0.3-0.5,0.5
		C715.9,259.7,715.9,259.9,715.9,260.1z"/>
	<path d="M722.7,251.4h1.2v2.9v1.3c0.3-0.3,0.7-0.5,1.1-0.7c0.4-0.2,0.8-0.3,1.2-0.3c0.5,0,0.9,0.1,1.2,0.3c0.4,0.2,0.7,0.4,0.9,0.8
		c0.2,0.3,0.4,0.7,0.6,1.2s0.2,1,0.2,1.5c0,0.6-0.1,1.2-0.3,1.7s-0.4,0.9-0.7,1.2c-0.3,0.3-0.6,0.6-1,0.8c-0.4,0.2-0.8,0.3-1.2,0.3
		c-0.3,0-0.7-0.1-1.1-0.2c-0.4-0.2-0.7-0.4-1-0.7l0,0l-0.1,0.7h-1L722.7,251.4L722.7,251.4z M723.9,260.5c0.3,0.3,0.6,0.5,1,0.6
		c0.3,0.1,0.6,0.2,0.8,0.2c0.3,0,0.6-0.1,0.8-0.2c0.3-0.1,0.5-0.3,0.7-0.6c0.2-0.2,0.3-0.5,0.4-0.9c0.1-0.4,0.2-0.8,0.2-1.2
		c0-0.4,0-0.8-0.1-1.1c-0.1-0.3-0.2-0.6-0.3-0.8c-0.2-0.2-0.4-0.4-0.6-0.5c-0.2-0.1-0.5-0.2-0.9-0.2c-0.6,0-1.2,0.3-2,1L723.9,260.5
		L723.9,260.5z"/>
	<path d="M731.6,253.3c-0.2,0-0.4-0.1-0.6-0.2c-0.2-0.2-0.2-0.3-0.2-0.6c0-0.2,0.1-0.4,0.2-0.6c0.2-0.1,0.4-0.2,0.6-0.2
		s0.4,0.1,0.6,0.2c0.2,0.1,0.2,0.3,0.2,0.6c0,0.2-0.1,0.4-0.2,0.6C732.1,253.2,731.9,253.3,731.6,253.3z M731,254.8h1.2v7.3H731
		V254.8z"/>
</g>
<g class="st6">
	<path d="M734.9,255.8h-1.1v-0.9l1.1-0.1l0.2-2h1v2h2v1h-2v4c0,0.5,0.1,0.8,0.2,1c0.2,0.2,0.5,0.4,0.9,0.4c0.1,0,0.3,0,0.4-0.1
		s0.3-0.1,0.4-0.1l0.2,0.9c-0.2,0.1-0.4,0.1-0.7,0.2c-0.2,0.1-0.5,0.1-0.7,0.1c-0.4,0-0.7-0.1-1-0.2s-0.5-0.3-0.6-0.5
		c-0.2-0.2-0.3-0.5-0.4-0.8c-0.1-0.3-0.1-0.6-0.1-1v-3.9H734.9z"/>
</g>
<g class="st6">
	<path d="M738.9,260.2c0-0.8,0.4-1.4,1.1-1.8s1.9-0.7,3.4-0.9c0-0.2,0-0.5-0.1-0.7s-0.1-0.4-0.2-0.6c-0.1-0.2-0.3-0.3-0.5-0.4
		c-0.2-0.1-0.4-0.2-0.7-0.2c-0.4,0-0.8,0.1-1.2,0.2c-0.4,0.2-0.7,0.3-1,0.5l-0.5-0.9c0.3-0.2,0.8-0.4,1.2-0.6c0.5-0.2,1-0.3,1.6-0.3
		c0.9,0,1.5,0.3,1.9,0.8s0.6,1.3,0.6,2.2v4.5h-1l-0.1-0.9l0,0c-0.4,0.3-0.7,0.5-1.1,0.7c-0.4,0.2-0.8,0.3-1.3,0.3
		c-0.6,0-1.1-0.2-1.5-0.5C739.1,261.4,738.9,260.9,738.9,260.2z M740.1,260.1c0,0.4,0.1,0.7,0.4,0.9c0.2,0.2,0.5,0.3,0.9,0.3
		c0.3,0,0.7-0.1,1-0.2s0.6-0.4,1-0.7v-2c-0.6,0.1-1.1,0.2-1.5,0.3c-0.4,0.1-0.8,0.2-1,0.4c-0.3,0.1-0.4,0.3-0.5,0.5
		C740.1,259.7,740.1,259.9,740.1,260.1z"/>
	<path d="M746.9,254.8h1l0.1,1l0,0c0.4-0.3,0.7-0.6,1.1-0.9c0.4-0.2,0.8-0.4,1.3-0.4c0.8,0,1.3,0.2,1.7,0.7s0.5,1.2,0.5,2.1v4.6
		h-1.2v-4.5c0-0.7-0.1-1.2-0.3-1.5s-0.6-0.5-1-0.5s-0.7,0.1-1,0.3s-0.6,0.5-1,0.8v5.3h-1.2L746.9,254.8L746.9,254.8z"/>
</g>
<g class="st6">
	<path d="M755.3,255.8h-1.1v-0.9l1.1-0.1l0.2-2h1v2h2v1h-2v4c0,0.5,0.1,0.8,0.2,1s0.5,0.4,0.9,0.4c0.1,0,0.3,0,0.4-0.1
		c0.1,0,0.3-0.1,0.4-0.1l0.2,0.9c-0.2,0.1-0.4,0.1-0.7,0.2c-0.2,0.1-0.5,0.1-0.7,0.1c-0.4,0-0.7-0.1-1-0.2s-0.5-0.3-0.6-0.5
		s-0.3-0.5-0.4-0.8c-0.1-0.3-0.1-0.6-0.1-1v-3.9H755.3z"/>
</g>
<g class="st6">
	<path d="M759.4,258.5c0-0.6,0.1-1.1,0.3-1.6s0.4-0.9,0.7-1.2s0.7-0.6,1-0.8c0.4-0.2,0.8-0.3,1.2-0.3c0.5,0,0.9,0.1,1.2,0.2
		c0.4,0.2,0.7,0.4,0.9,0.7s0.4,0.7,0.6,1.1s0.2,0.9,0.2,1.4c0,0.3,0,0.5,0,0.7h-4.9c0,0.8,0.3,1.4,0.7,1.9s1,0.7,1.7,0.7
		c0.4,0,0.7-0.1,1-0.2s0.6-0.2,0.8-0.4l0.4,0.8c-0.3,0.2-0.7,0.4-1.1,0.5c-0.4,0.2-0.8,0.2-1.3,0.2s-0.9-0.1-1.4-0.3
		c-0.4-0.2-0.8-0.4-1.1-0.8c-0.3-0.3-0.6-0.7-0.7-1.2C759.4,259.6,759.4,259.1,759.4,258.5z M764.5,257.9c0-0.8-0.2-1.3-0.5-1.7
		c-0.3-0.4-0.8-0.6-1.3-0.6c-0.3,0-0.5,0.1-0.7,0.2c-0.2,0.1-0.4,0.3-0.6,0.5c-0.2,0.2-0.3,0.4-0.5,0.7c-0.1,0.3-0.2,0.6-0.2,1h3.8
		V257.9z"/>
	<path d="M767.1,260.4c0.3,0.3,0.6,0.5,1,0.6c0.3,0.2,0.7,0.2,1.2,0.2s0.8-0.1,1.1-0.3c0.2-0.2,0.4-0.5,0.4-0.8
		c0-0.2-0.1-0.4-0.2-0.5c-0.1-0.1-0.2-0.3-0.4-0.4s-0.3-0.2-0.5-0.3s-0.4-0.2-0.6-0.2c-0.3-0.1-0.5-0.2-0.8-0.3s-0.5-0.3-0.7-0.4
		c-0.2-0.2-0.4-0.4-0.5-0.6s-0.2-0.5-0.2-0.8s0.1-0.6,0.2-0.8s0.3-0.5,0.5-0.7s0.5-0.3,0.8-0.4c0.3-0.1,0.7-0.2,1.1-0.2
		c0.5,0,0.9,0.1,1.3,0.2c0.4,0.2,0.7,0.4,1,0.6l-0.6,0.8c-0.2-0.2-0.5-0.3-0.8-0.5c-0.3-0.1-0.6-0.2-0.9-0.2c-0.5,0-0.8,0.1-1,0.3
		s-0.3,0.5-0.3,0.7s0,0.3,0.1,0.4s0.2,0.2,0.4,0.3c0.1,0.1,0.3,0.2,0.5,0.3c0.2,0.1,0.4,0.2,0.6,0.2c0.3,0.1,0.5,0.2,0.8,0.3
		s0.5,0.2,0.7,0.4s0.4,0.4,0.5,0.6s0.2,0.5,0.2,0.9c0,0.3-0.1,0.6-0.2,0.8c-0.1,0.3-0.3,0.5-0.5,0.7s-0.5,0.4-0.8,0.5
		s-0.7,0.2-1.1,0.2c-0.5,0-1-0.1-1.5-0.3c-0.5-0.2-0.9-0.4-1.2-0.7L767.1,260.4z"/>
</g>
<g class="st6">
	<path d="M708.7,312.1h4.5v-14.5h-3.6V296c0.9-0.2,1.7-0.4,2.4-0.6s1.3-0.5,1.8-0.8h1.9v17.6h4.1v2.1h-11.1L708.7,312.1L708.7,312.1
		z"/>
	<path d="M727.6,309.1c0.2-1.5,0.6-3,1-4.4s1-2.7,1.7-4s1.5-2.6,2.5-4H723v-2.2h12.7v1.6c-1.2,1.5-2.1,2.9-2.9,4.3
		c-0.7,1.4-1.3,2.7-1.7,4.2c-0.4,1.4-0.7,2.9-0.9,4.5s-0.3,3.3-0.4,5.2h-2.6C727.2,312.4,727.4,310.7,727.6,309.1z"/>
	<path d="M739.1,310.1c0.6,0.6,1.3,1.2,2.1,1.6c0.8,0.5,1.8,0.7,2.9,0.7c1.2,0,2.2-0.3,2.9-1c0.8-0.6,1.1-1.5,1.1-2.6
		c0-0.6-0.1-1.1-0.3-1.6s-0.6-0.9-1.1-1.3c-0.5-0.3-1.1-0.6-1.9-0.8s-1.8-0.3-3-0.3V303c1,0,1.9-0.1,2.6-0.3
		c0.7-0.2,1.3-0.4,1.7-0.8c0.4-0.3,0.8-0.7,0.9-1.2c0.2-0.5,0.3-0.9,0.3-1.5c0-1-0.3-1.7-0.9-2.3s-1.4-0.8-2.5-0.8
		c-0.8,0-1.6,0.2-2.3,0.6s-1.3,0.9-1.9,1.5l-1.4-1.6c0.8-0.7,1.6-1.3,2.5-1.8s2-0.7,3.1-0.7c0.9,0,1.7,0.1,2.4,0.3
		c0.7,0.2,1.3,0.6,1.9,1s0.9,0.9,1.2,1.6c0.3,0.6,0.4,1.3,0.4,2.1c0,1.2-0.3,2.2-1,2.9c-0.7,0.8-1.5,1.3-2.6,1.8v0.1
		c0.6,0.1,1.2,0.4,1.7,0.6c0.5,0.3,1,0.6,1.4,1s0.7,0.9,0.9,1.5s0.3,1.2,0.3,1.9c0,0.9-0.2,1.6-0.5,2.3c-0.3,0.7-0.8,1.3-1.4,1.8
		c-0.6,0.5-1.3,0.9-2.1,1.1c-0.8,0.3-1.6,0.4-2.5,0.4c-0.8,0-1.5-0.1-2.1-0.2s-1.2-0.4-1.8-0.6c-0.5-0.3-1-0.6-1.4-0.9
		s-0.8-0.7-1.1-1.1L739.1,310.1z"/>
	<path d="M754.3,312.7c0-0.6,0.2-1.1,0.5-1.4c0.4-0.4,0.8-0.5,1.3-0.5s0.9,0.2,1.3,0.5c0.4,0.4,0.5,0.8,0.5,1.4s-0.2,1-0.5,1.4
		s-0.8,0.5-1.3,0.5s-1-0.2-1.3-0.5S754.3,313.2,754.3,312.7z"/>
	<path d="M763,310.9c0.4,0.5,0.9,0.9,1.5,1.1c0.6,0.3,1.2,0.4,1.8,0.4c0.7,0,1.4-0.1,2-0.4s1.2-0.8,1.6-1.4s0.9-1.5,1.1-2.6
		s0.4-2.4,0.5-4c-0.6,0.8-1.3,1.4-2.2,1.9c-0.8,0.5-1.6,0.7-2.5,0.7c-1.7,0-3.1-0.5-4.1-1.5s-1.5-2.5-1.5-4.6c0-0.9,0.2-1.8,0.5-2.6
		c0.3-0.8,0.7-1.4,1.3-2c0.5-0.6,1.1-1,1.9-1.3c0.7-0.3,1.5-0.5,2.2-0.5c1,0,1.9,0.2,2.7,0.6s1.6,1,2.2,1.8s1.1,1.8,1.4,3
		c0.3,1.2,0.5,2.6,0.5,4.2c0,2-0.2,3.7-0.6,5c-0.4,1.4-1,2.5-1.7,3.4s-1.5,1.5-2.4,1.9s-1.8,0.6-2.8,0.6s-2-0.2-2.8-0.6
		s-1.5-0.9-2-1.5L763,310.9z M767.3,304.6c0.6,0,1.3-0.2,2.1-0.6c0.7-0.4,1.4-1.1,2.1-2c-0.2-1.9-0.6-3.4-1.4-4.4
		c-0.7-1-1.7-1.5-3-1.5c-0.5,0-0.9,0.1-1.3,0.3c-0.4,0.2-0.8,0.5-1.1,0.9s-0.6,0.8-0.7,1.4c-0.2,0.5-0.3,1.1-0.3,1.8
		c0,1.3,0.3,2.3,0.9,3.1S766,304.6,767.3,304.6z"/>
	<path d="M777.4,310.2c0.6,0.6,1.3,1.1,2.1,1.6s1.8,0.7,2.9,0.7c0.6,0,1.2-0.1,1.7-0.3c0.5-0.2,1-0.5,1.4-0.9s0.7-0.9,0.9-1.4
		c0.2-0.6,0.3-1.2,0.3-1.9c0-1.4-0.4-2.4-1.1-3.2c-0.8-0.8-1.8-1.1-3.1-1.1c-0.7,0-1.3,0.1-1.7,0.3c-0.5,0.2-1,0.5-1.6,0.9l-1.4-0.9
		l0.6-9.5h9.9v2.2h-7.6l-0.5,5.8c0.5-0.2,0.9-0.4,1.4-0.6c0.5-0.1,1-0.2,1.6-0.2c0.8,0,1.6,0.1,2.4,0.4c0.7,0.2,1.4,0.6,1.9,1.1
		c0.6,0.5,1,1.1,1.3,1.9s0.5,1.7,0.5,2.8s-0.2,2-0.6,2.8c-0.4,0.8-0.9,1.5-1.5,2.1s-1.3,1-2.1,1.3s-1.6,0.4-2.5,0.4
		c-0.8,0-1.5-0.1-2.1-0.2s-1.2-0.4-1.8-0.6s-1-0.5-1.4-0.8s-0.8-0.7-1.1-1L777.4,310.2z"/>
	<path d="M796.7,309.1c0.2-1.5,0.6-3,1-4.4s1-2.7,1.7-4s1.5-2.6,2.5-4h-9.8v-2.2h12.7v1.6c-1.2,1.5-2.1,2.9-2.9,4.3
		c-0.7,1.4-1.3,2.7-1.7,4.2c-0.4,1.4-0.7,2.9-0.9,4.5s-0.3,3.3-0.4,5.2h-2.6C796.3,312.4,796.4,310.7,796.7,309.1z"/>
</g>
<path class="st17" d="M188.1,14.8h1.2l1.5,4.2l0.6,1.6l0,0L192,19l1.5-4.2h1.2v7.9h-0.9v-4.3c0-0.4,0-0.7,0-1.2
	c0-0.4,0.1-0.8,0.1-1.2l0,0l-0.6,1.8l-1.5,4.1h-0.6l-1.5-4.1l-0.6-1.8l0,0c0,0.4,0.1,0.7,0.1,1.2c0,0.4,0,0.8,0,1.2v4.3h-0.9v-7.9
	H188.1z"/>
<path class="st17" d="M196.8,14.8h1v4.6c0,0.5,0,0.9,0.1,1.2c0.1,0.3,0.2,0.6,0.4,0.8c0.2,0.2,0.4,0.3,0.6,0.4
	c0.2,0.1,0.5,0.1,0.7,0.1c0.3,0,0.5,0,0.7-0.1s0.4-0.2,0.6-0.4c0.2-0.2,0.3-0.4,0.4-0.8c0.1-0.3,0.1-0.7,0.1-1.2v-4.6h1v4.6
	c0,0.6-0.1,1.2-0.2,1.6c-0.1,0.4-0.3,0.8-0.6,1c-0.3,0.3-0.6,0.5-0.9,0.6c-0.3,0.1-0.7,0.2-1.1,0.2s-0.8-0.1-1.1-0.2
	s-0.6-0.3-0.9-0.6c-0.3-0.3-0.5-0.6-0.6-1s-0.2-1-0.2-1.6V14.8z"/>
<path class="st17" d="M204.5,14.8h1l2.8,4.9l0.9,1.6l0,0c0-0.4,0-0.8-0.1-1.2c0-0.4,0-0.8,0-1.3v-4.1h0.9v7.9h-1l-2.9-5l-0.9-1.6
	l0,0c0,0.4,0.1,0.8,0.1,1.2c0,0.4,0,0.8,0,1.2v4.1h-0.9L204.5,14.8L204.5,14.8z"/>
<path class="st17" d="M212.3,14.8h1v7.9h-1V14.8z"/>
<path class="st17" d="M215,18.7c0-0.6,0.1-1.2,0.3-1.7s0.4-0.9,0.7-1.3c0.3-0.4,0.7-0.6,1.1-0.8c0.4-0.2,0.9-0.3,1.4-0.3
	s0.9,0.1,1.3,0.3c0.4,0.2,0.7,0.4,0.9,0.7l-0.6,0.6c-0.2-0.2-0.4-0.4-0.7-0.5s-0.5-0.2-0.9-0.2s-0.7,0.1-1,0.2
	c-0.3,0.1-0.6,0.4-0.8,0.6c-0.2,0.3-0.4,0.6-0.5,1s-0.2,0.8-0.2,1.3s0.1,0.9,0.2,1.3c0.1,0.4,0.3,0.7,0.5,1s0.5,0.5,0.8,0.6
	c0.3,0.2,0.6,0.2,1,0.2s0.7-0.1,1-0.2c0.3-0.2,0.6-0.4,0.8-0.6l0.6,0.6c-0.3,0.4-0.7,0.6-1.1,0.8c-0.4,0.2-0.8,0.3-1.3,0.3
	s-1-0.1-1.4-0.3c-0.4-0.2-0.8-0.5-1.1-0.8s-0.5-0.8-0.7-1.3S215,19.4,215,18.7z"/>
<path class="st17" d="M222.3,14.8h1v7.9h-1V14.8z"/>
<path class="st17" d="M225.5,14.8h2.4c0.4,0,0.8,0,1.2,0.1s0.7,0.2,0.9,0.4c0.3,0.2,0.4,0.4,0.6,0.7c0.1,0.3,0.2,0.7,0.2,1.1
	s-0.1,0.8-0.2,1.1c-0.1,0.3-0.3,0.6-0.6,0.8c-0.3,0.2-0.6,0.3-0.9,0.5c-0.4,0.1-0.8,0.1-1.2,0.1h-1.4v3.1h-1V14.8z M227.8,18.7
	c0.7,0,1.2-0.1,1.5-0.4s0.5-0.7,0.5-1.2c0-0.6-0.2-1-0.5-1.2s-0.8-0.3-1.5-0.3h-1.3v3.1H227.8z"/>
<path class="st17" d="M232.4,14.8h1v7.9h-1V14.8z"/>
<path class="st17" d="M238.4,22.8c-0.5,0-0.9-0.1-1.4-0.3c-0.4-0.2-0.8-0.5-1.1-0.8c-0.3-0.4-0.5-0.8-0.7-1.3s-0.2-1.1-0.2-1.7
	s0.1-1.2,0.2-1.7c0.2-0.5,0.4-0.9,0.7-1.3c0.3-0.3,0.6-0.6,1.1-0.8c0.4-0.2,0.9-0.3,1.4-0.3s1,0.1,1.4,0.3s0.8,0.5,1.1,0.8
	s0.5,0.8,0.7,1.3s0.2,1.1,0.2,1.7s-0.1,1.2-0.2,1.7s-0.4,0.9-0.7,1.3s-0.7,0.6-1.1,0.8C239.4,22.7,238.9,22.8,238.4,22.8z
	 M238.4,21.9c0.4,0,0.7-0.1,1-0.2c0.3-0.2,0.5-0.4,0.7-0.7c0.2-0.3,0.4-0.6,0.5-1s0.2-0.8,0.2-1.3s-0.1-0.9-0.2-1.3
	c-0.1-0.4-0.3-0.7-0.5-1s-0.4-0.5-0.7-0.6s-0.6-0.2-1-0.2s-0.7,0.1-1,0.2c-0.3,0.1-0.5,0.4-0.7,0.6c-0.2,0.3-0.4,0.6-0.5,1
	s-0.2,0.8-0.2,1.3s0.1,0.9,0.2,1.3c0.1,0.4,0.3,0.7,0.5,1s0.4,0.5,0.7,0.7C237.8,21.9,238.1,21.9,238.4,21.9z"/>
<path class="st17" d="M243.5,21c0.3,0.3,0.6,0.5,1,0.7s0.8,0.3,1.2,0.3c0.5,0,0.9-0.1,1.2-0.4c0.3-0.2,0.4-0.5,0.4-0.9
	c0-0.2,0-0.4-0.1-0.5s-0.2-0.3-0.3-0.4s-0.3-0.2-0.4-0.3s-0.3-0.2-0.5-0.3l-1.1-0.5c-0.2-0.1-0.4-0.2-0.6-0.3
	c-0.2-0.1-0.4-0.2-0.5-0.4s-0.3-0.4-0.4-0.6c-0.1-0.2-0.1-0.5-0.1-0.8s0.1-0.6,0.2-0.8c0.1-0.3,0.3-0.5,0.5-0.7s0.5-0.3,0.8-0.4
	c0.3-0.1,0.6-0.2,1-0.2c0.5,0,0.9,0.1,1.3,0.3s0.7,0.4,1,0.7l-0.5,0.6c-0.2-0.2-0.5-0.4-0.8-0.5s-0.6-0.2-1-0.2s-0.8,0.1-1.1,0.3
	s-0.4,0.5-0.4,0.8c0,0.2,0,0.4,0.1,0.5s0.2,0.2,0.3,0.3c0.1,0.1,0.3,0.2,0.4,0.3s0.3,0.1,0.5,0.2l1.1,0.5c0.2,0.1,0.4,0.2,0.6,0.3
	c0.2,0.1,0.4,0.3,0.5,0.4c0.1,0.2,0.3,0.4,0.3,0.6c0.1,0.2,0.1,0.5,0.1,0.8s-0.1,0.6-0.2,0.9c-0.1,0.3-0.3,0.5-0.5,0.7
	s-0.5,0.4-0.8,0.5s-0.7,0.2-1.1,0.2c-0.6,0-1.1-0.1-1.5-0.3c-0.5-0.2-0.9-0.5-1.2-0.9L243.5,21z"/>
<path class="st17" d="M273.6,18.7c0-0.6,0.1-1.2,0.3-1.7c0.2-0.5,0.4-0.9,0.7-1.3c0.3-0.4,0.7-0.6,1.1-0.8s0.9-0.3,1.4-0.3
	s0.9,0.1,1.3,0.3s0.7,0.4,0.9,0.7l-0.6,0.6c-0.2-0.2-0.4-0.4-0.7-0.5c-0.3-0.1-0.5-0.2-0.9-0.2s-0.7,0.1-1,0.2
	c-0.3,0.1-0.6,0.4-0.8,0.6c-0.2,0.3-0.4,0.6-0.5,1s-0.2,0.8-0.2,1.3s0.1,0.9,0.2,1.3s0.3,0.7,0.5,1s0.5,0.5,0.8,0.6
	c0.3,0.2,0.6,0.2,1,0.2s0.7-0.1,1-0.2c0.3-0.2,0.6-0.4,0.8-0.6l0.6,0.6c-0.3,0.4-0.7,0.6-1.1,0.8c-0.4,0.2-0.8,0.3-1.3,0.3
	s-1-0.1-1.4-0.3c-0.4-0.2-0.8-0.5-1.1-0.8c-0.3-0.3-0.5-0.8-0.7-1.3S273.6,19.4,273.6,18.7z"/>
<path class="st17" d="M283.1,22.8c-0.5,0-0.9-0.1-1.4-0.3c-0.4-0.2-0.8-0.5-1.1-0.8c-0.3-0.4-0.5-0.8-0.7-1.3s-0.2-1.1-0.2-1.7
	s0.1-1.2,0.2-1.7c0.2-0.5,0.4-0.9,0.7-1.3c0.3-0.3,0.6-0.6,1.1-0.8c0.4-0.2,0.9-0.3,1.4-0.3s1,0.1,1.4,0.3s0.8,0.5,1.1,0.8
	c0.3,0.3,0.5,0.8,0.7,1.3s0.2,1.1,0.2,1.7s-0.1,1.2-0.2,1.7s-0.4,0.9-0.7,1.3c-0.3,0.4-0.7,0.6-1.1,0.8
	C284.1,22.7,283.6,22.8,283.1,22.8z M283.1,21.9c0.4,0,0.7-0.1,1-0.2c0.3-0.2,0.5-0.4,0.7-0.7c0.2-0.3,0.4-0.6,0.5-1
	s0.2-0.8,0.2-1.3s-0.1-0.9-0.2-1.3s-0.3-0.7-0.5-1s-0.4-0.5-0.7-0.6c-0.3-0.1-0.6-0.2-1-0.2s-0.7,0.1-1,0.2
	c-0.3,0.1-0.5,0.4-0.7,0.6c-0.2,0.3-0.4,0.6-0.5,1s-0.2,0.8-0.2,1.3s0.1,0.9,0.2,1.3s0.3,0.7,0.5,1s0.4,0.5,0.7,0.7
	C282.5,21.9,282.8,21.9,283.1,21.9z"/>
<path class="st17" d="M288.2,14.8h1.2l1.5,4.2l0.6,1.6l0,0l0.6-1.6l1.5-4.2h1.2v7.9h-0.9v-4.3c0-0.4,0-0.7,0-1.2
	c0-0.4,0.1-0.8,0.1-1.2l0,0l-0.6,1.8l-1.5,4.1h-0.6l-1.5-4.1L289,16l0,0c0,0.4,0.1,0.7,0.1,1.2c0,0.4,0,0.8,0,1.2v4.3h-0.9V14.8z"/>
<path class="st17" d="M296.3,14.8h2.4c0.4,0,0.8,0,1.2,0.1c0.4,0.1,0.7,0.2,0.9,0.4c0.3,0.2,0.4,0.4,0.6,0.7
	c0.1,0.3,0.2,0.7,0.2,1.1s-0.1,0.8-0.2,1.1c-0.1,0.3-0.3,0.6-0.6,0.8c-0.3,0.2-0.6,0.3-0.9,0.5c-0.4,0.1-0.8,0.1-1.2,0.1h-1.4v3.1
	h-1V14.8z M298.6,18.7c0.7,0,1.2-0.1,1.5-0.4s0.5-0.7,0.5-1.2c0-0.6-0.2-1-0.5-1.2s-0.8-0.3-1.5-0.3h-1.3v3.1H298.6z"/>
<path class="st17" d="M306,20.3h-2.9l-0.8,2.4h-1l2.7-7.9h1.1l2.7,7.9h-1.1L306,20.3z M305.8,19.5l-0.4-1.2
	c-0.1-0.4-0.3-0.9-0.4-1.3s-0.3-0.9-0.4-1.3l0,0c-0.1,0.5-0.2,0.9-0.4,1.3c-0.1,0.4-0.3,0.9-0.4,1.3l-0.4,1.2H305.8z"/>
<path class="st17" d="M313,22.7l-1.9-3.3h-1.4v3.3h-1v-7.9h2.5c0.4,0,0.8,0,1.1,0.1s0.6,0.2,0.9,0.4s0.4,0.4,0.6,0.7
	c0.1,0.3,0.2,0.6,0.2,1c0,0.6-0.2,1.1-0.5,1.5s-0.7,0.6-1.3,0.8l2,3.4H313z M309.6,18.5h1.3c0.6,0,1.1-0.1,1.4-0.4s0.5-0.6,0.5-1.1
	s-0.2-0.9-0.5-1.1s-0.8-0.3-1.4-0.3h-1.3V18.5z"/>
<path class="st17" d="M318.8,20.3H316l-0.8,2.4h-1l2.7-7.9h1.1l2.7,7.9h-1.1L318.8,20.3z M318.6,19.5l-0.4-1.2
	c-0.1-0.4-0.3-0.9-0.4-1.3s-0.3-0.9-0.4-1.3l0,0c-0.1,0.5-0.2,0.9-0.4,1.3c-0.1,0.4-0.3,0.9-0.4,1.3l-0.4,1.2H318.6z"/>
<path class="st17" d="M350.4,22.7l-1.9-3.3h-1.4v3.3h-1v-7.9h2.5c0.4,0,0.8,0,1.1,0.1s0.6,0.2,0.9,0.4s0.4,0.4,0.6,0.7
	c0.1,0.3,0.2,0.6,0.2,1c0,0.6-0.2,1.1-0.5,1.5s-0.7,0.6-1.3,0.8l2,3.4H350.4z M347.1,18.5h1.3c0.6,0,1.1-0.1,1.4-0.4
	s0.5-0.6,0.5-1.1s-0.2-0.9-0.5-1.1s-0.8-0.3-1.4-0.3h-1.3V18.5z"/>
<path class="st17" d="M356.4,20.3h-2.9l-0.8,2.4h-1l2.7-7.9h1.1l2.7,7.9h-1.1L356.4,20.3z M356.2,19.5l-0.4-1.2
	c-0.1-0.4-0.3-0.9-0.4-1.3s-0.3-0.9-0.4-1.3l0,0c-0.1,0.5-0.2,0.9-0.4,1.3c-0.1,0.4-0.3,0.9-0.4,1.3l-0.4,1.2H356.2z"/>
<path class="st17" d="M359.3,14.8h1l2.8,4.9l0.9,1.6l0,0c0-0.4,0-0.8-0.1-1.2c0-0.4,0-0.8,0-1.3v-4.1h0.9v7.9h-1l-2.9-5L360,16l0,0
	c0,0.4,0.1,0.8,0.1,1.2c0,0.4,0,0.8,0,1.2v4.1h-0.9v-7.7H359.3z"/>
<path class="st17" d="M367.1,14.8h1v3.9l0,0l3.3-3.9h1.1l-2.5,3l2.8,4.9h-1.1l-2.4-4.1l-1.4,1.6v2.5h-1v-7.9H367.1z"/>
<path class="st17" d="M374.1,14.8h1v7.9h-1V14.8z"/>
<path class="st17" d="M377.2,14.8h1l2.8,4.9l0.9,1.6l0,0c0-0.4,0-0.8-0.1-1.2c0-0.4,0-0.8,0-1.3v-4.1h0.9v7.9h-1l-2.9-5l-0.9-1.6
	l0,0c0,0.4,0.1,0.8,0.1,1.2c0,0.4,0,0.8,0,1.2v4.1h-0.9v-7.7H377.2z"/>
<path class="st17" d="M384.1,18.7c0-0.6,0.1-1.2,0.3-1.7s0.4-0.9,0.8-1.3c0.3-0.4,0.7-0.6,1.1-0.8s0.9-0.3,1.5-0.3
	c0.5,0,1,0.1,1.4,0.3s0.7,0.4,0.9,0.7l-0.6,0.6c-0.2-0.2-0.4-0.4-0.7-0.5c-0.3-0.1-0.6-0.2-1-0.2s-0.8,0.1-1.1,0.2
	c-0.3,0.1-0.6,0.4-0.8,0.6c-0.2,0.3-0.4,0.6-0.5,1s-0.2,0.8-0.2,1.3s0.1,0.9,0.2,1.3s0.3,0.7,0.5,1s0.5,0.5,0.8,0.6
	c0.3,0.2,0.7,0.2,1.1,0.2c0.3,0,0.5,0,0.8-0.1s0.5-0.2,0.6-0.3v-2.1h-1.7v-0.8h2.6v3.3c-0.3,0.3-0.6,0.5-1,0.7s-0.9,0.3-1.4,0.3
	s-1-0.1-1.4-0.3c-0.4-0.2-0.8-0.5-1.1-0.8c-0.3-0.3-0.6-0.8-0.7-1.3C384.1,20,384.1,19.4,384.1,18.7z"/>
<path class="st17" d="M416.1,21c0.3,0.3,0.6,0.5,1,0.7s0.8,0.3,1.2,0.3c0.5,0,0.9-0.1,1.2-0.4c0.3-0.2,0.4-0.5,0.4-0.9
	c0-0.2,0-0.4-0.1-0.5s-0.2-0.3-0.3-0.4c-0.1-0.1-0.3-0.2-0.4-0.3s-0.3-0.2-0.5-0.3l-1.1-0.5c-0.2-0.1-0.4-0.2-0.6-0.3
	c-0.2-0.1-0.4-0.2-0.5-0.4s-0.3-0.4-0.4-0.6s-0.1-0.5-0.1-0.8s0.1-0.6,0.2-0.8c0.1-0.3,0.3-0.5,0.5-0.7s0.5-0.3,0.8-0.4
	c0.3-0.1,0.6-0.2,1-0.2c0.5,0,0.9,0.1,1.3,0.3s0.7,0.4,1,0.7l-0.5,0.6c-0.2-0.2-0.5-0.4-0.8-0.5s-0.6-0.2-1-0.2s-0.8,0.1-1.1,0.3
	s-0.4,0.5-0.4,0.8c0,0.2,0,0.4,0.1,0.5s0.2,0.2,0.3,0.3c0.1,0.1,0.3,0.2,0.4,0.3s0.3,0.1,0.5,0.2l1.1,0.5c0.2,0.1,0.4,0.2,0.6,0.3
	c0.2,0.1,0.4,0.3,0.5,0.4c0.1,0.2,0.3,0.4,0.3,0.6c0.1,0.2,0.1,0.5,0.1,0.8s-0.1,0.6-0.2,0.9s-0.3,0.5-0.5,0.7s-0.5,0.4-0.8,0.5
	s-0.7,0.2-1.1,0.2c-0.6,0-1.1-0.1-1.5-0.3c-0.5-0.2-0.9-0.5-1.2-0.9L416.1,21z"/>
<path class="st17" d="M422.5,14.8h4.5v0.8h-3.5v2.5h3V19h-3v2.9h3.7v0.9h-4.7V14.8z"/>
<path class="st17" d="M433.1,22.7l-1.9-3.3h-1.4v3.3h-1v-7.9h2.5c0.4,0,0.8,0,1.1,0.1s0.6,0.2,0.9,0.4s0.4,0.4,0.6,0.7
	c0.1,0.3,0.2,0.6,0.2,1c0,0.6-0.2,1.1-0.5,1.5s-0.7,0.6-1.3,0.8l2,3.4H433.1z M429.8,18.5h1.3c0.6,0,1.1-0.1,1.4-0.4
	s0.5-0.6,0.5-1.1s-0.2-0.9-0.5-1.1s-0.8-0.3-1.4-0.3h-1.3V18.5z"/>
<path class="st17" d="M434.3,14.8h1.1l1.3,4.2c0.1,0.5,0.3,0.9,0.4,1.3s0.2,0.8,0.4,1.3l0,0c0.1-0.5,0.3-0.9,0.4-1.3
	s0.2-0.8,0.4-1.3l1.3-4.2h1l-2.5,7.9h-1.2L434.3,14.8z"/>
<path class="st17" d="M441.6,14.8h1v7.9h-1V14.8z"/>
<path class="st17" d="M444.3,18.7c0-0.6,0.1-1.2,0.3-1.7c0.2-0.5,0.4-0.9,0.7-1.3c0.3-0.4,0.7-0.6,1.1-0.8s0.9-0.3,1.4-0.3
	s0.9,0.1,1.3,0.3s0.7,0.4,0.9,0.7l-0.6,0.6c-0.2-0.2-0.4-0.4-0.7-0.5c-0.3-0.1-0.5-0.2-0.9-0.2s-0.7,0.1-1,0.2
	c-0.3,0.1-0.6,0.4-0.8,0.6c-0.2,0.3-0.4,0.6-0.5,1s-0.2,0.8-0.2,1.3s0.1,0.9,0.2,1.3s0.3,0.7,0.5,1s0.5,0.5,0.8,0.6
	c0.3,0.2,0.6,0.2,1,0.2s0.7-0.1,1-0.2c0.3-0.2,0.6-0.4,0.8-0.6l0.6,0.6c-0.3,0.4-0.7,0.6-1.1,0.8c-0.4,0.2-0.8,0.3-1.3,0.3
	s-1-0.1-1.4-0.3c-0.4-0.2-0.8-0.5-1.1-0.8c-0.3-0.3-0.5-0.8-0.7-1.3S444.3,19.4,444.3,18.7z"/>
<path class="st17" d="M451.6,14.8h1v7.9h-1V14.8z"/>
<path class="st17" d="M457.7,22.8c-0.5,0-0.9-0.1-1.4-0.3c-0.4-0.2-0.8-0.5-1.1-0.8c-0.3-0.4-0.5-0.8-0.7-1.3s-0.2-1.1-0.2-1.7
	s0.1-1.2,0.2-1.7c0.2-0.5,0.4-0.9,0.7-1.3c0.3-0.3,0.6-0.6,1.1-0.8c0.4-0.2,0.9-0.3,1.4-0.3s1,0.1,1.4,0.3s0.8,0.5,1.1,0.8
	c0.3,0.3,0.5,0.8,0.7,1.3s0.2,1.1,0.2,1.7s-0.1,1.2-0.2,1.7s-0.4,0.9-0.7,1.3c-0.3,0.4-0.7,0.6-1.1,0.8
	C458.6,22.7,458.2,22.8,457.7,22.8z M457.7,21.9c0.4,0,0.7-0.1,1-0.2c0.3-0.2,0.5-0.4,0.7-0.7c0.2-0.3,0.4-0.6,0.5-1
	s0.2-0.8,0.2-1.3s-0.1-0.9-0.2-1.3s-0.3-0.7-0.5-1s-0.4-0.5-0.7-0.6c-0.3-0.1-0.6-0.2-1-0.2s-0.7,0.1-1,0.2
	c-0.3,0.1-0.5,0.4-0.7,0.6c-0.2,0.3-0.4,0.6-0.5,1s-0.2,0.8-0.2,1.3s0.1,0.9,0.2,1.3s0.3,0.7,0.5,1s0.4,0.5,0.7,0.7
	C457,21.9,457.3,21.9,457.7,21.9z"/>
<path class="st17" d="M462.7,21c0.3,0.3,0.6,0.5,1,0.7s0.8,0.3,1.2,0.3c0.5,0,0.9-0.1,1.2-0.4c0.3-0.2,0.4-0.5,0.4-0.9
	c0-0.2,0-0.4-0.1-0.5s-0.2-0.3-0.3-0.4c-0.1-0.1-0.3-0.2-0.4-0.3s-0.3-0.2-0.5-0.3l-1.1-0.5c-0.2-0.1-0.4-0.2-0.6-0.3
	c-0.2-0.1-0.4-0.2-0.5-0.4s-0.3-0.4-0.4-0.6s-0.1-0.5-0.1-0.8s0.1-0.6,0.2-0.8c0.1-0.3,0.3-0.5,0.5-0.7s0.5-0.3,0.8-0.4
	c0.3-0.1,0.6-0.2,1-0.2c0.5,0,0.9,0.1,1.3,0.3s0.7,0.4,1,0.7l-0.5,0.6c-0.2-0.2-0.5-0.4-0.8-0.5s-0.6-0.2-1-0.2s-0.8,0.1-1.1,0.3
	s-0.4,0.5-0.4,0.8c0,0.2,0,0.4,0.1,0.5s0.2,0.2,0.3,0.3c0.1,0.1,0.3,0.2,0.4,0.3s0.3,0.1,0.5,0.2l1.1,0.5c0.2,0.1,0.4,0.2,0.6,0.3
	c0.2,0.1,0.4,0.3,0.5,0.4c0.1,0.2,0.3,0.4,0.3,0.6c0.1,0.2,0.1,0.5,0.1,0.8s-0.1,0.6-0.2,0.9s-0.3,0.5-0.5,0.7s-0.5,0.4-0.8,0.5
	s-0.7,0.2-1.1,0.2c-0.6,0-1.1-0.1-1.5-0.3c-0.5-0.2-0.9-0.5-1.2-0.9L462.7,21z"/>
<g class="st17">
	<g class="st6">
		<path d="M931.4,16.3h-2.1v-1.5h6.1v1.5h-2.1v6.3h-1.8v-6.3H931.4z"/>
		<path d="M936.5,14.9h1.8v4.4c0,0.8,0.1,1.3,0.3,1.6s0.6,0.5,1,0.5s0.8-0.2,1-0.5s0.4-0.8,0.4-1.6v-4.4h1.7v4.2
			c0,1.3-0.3,2.3-0.8,2.9s-1.3,0.9-2.3,0.9s-1.8-0.3-2.3-0.9s-0.8-1.6-0.8-2.9L936.5,14.9L936.5,14.9z"/>
	</g>
	<g class="st6">
		<path d="M946.7,18.8c0-0.6,0.1-1.2,0.3-1.7s0.5-0.9,0.8-1.3c0.3-0.4,0.7-0.6,1.2-0.8s0.9-0.3,1.4-0.3s0.9,0.1,1.3,0.3
			c0.4,0.2,0.7,0.4,1,0.7l-1,1.1c-0.2-0.2-0.4-0.3-0.6-0.4c-0.2-0.1-0.4-0.2-0.7-0.2s-0.5,0.1-0.8,0.2c-0.2,0.1-0.4,0.3-0.6,0.5
			c-0.2,0.2-0.3,0.5-0.4,0.8c-0.1,0.3-0.2,0.7-0.2,1.1c0,0.8,0.2,1.4,0.5,1.9s0.8,0.7,1.4,0.7c0.3,0,0.6-0.1,0.8-0.2
			s0.5-0.3,0.6-0.5l1,1.1c-0.3,0.4-0.7,0.7-1.1,0.9c-0.4,0.2-0.9,0.3-1.4,0.3s-1-0.1-1.4-0.3c-0.4-0.2-0.8-0.4-1.2-0.8
			s-0.6-0.8-0.8-1.3C946.7,20,946.7,19.5,946.7,18.8z"/>
	</g>
	<g class="st6">
		<path d="M953.8,14.9h1.8v4.4c0,0.8,0.1,1.3,0.3,1.6c0.2,0.3,0.6,0.5,1,0.5s0.8-0.2,1-0.5s0.4-0.8,0.4-1.6v-4.4h1.7v4.2
			c0,1.3-0.3,2.3-0.8,2.9s-1.3,0.9-2.3,0.9s-1.8-0.3-2.3-0.9s-0.8-1.6-0.8-2.9L953.8,14.9L953.8,14.9z"/>
		<path d="M961.8,14.9h4.9v1.5h-3.1V18h2.7v1.5h-2.7v1.8h3.3v1.5h-5v-7.9H961.8z"/>
		<path d="M968.4,14.9h1.8l2,3.9l0.8,1.7l0,0c0-0.4-0.1-0.9-0.1-1.4c-0.1-0.5-0.1-1-0.1-1.5v-2.8h1.7v7.8h-1.8l-2-3.9l-0.8-1.7l0,0
			c0,0.4,0.1,0.9,0.1,1.4c0.1,0.5,0.1,1,0.1,1.4v2.8h-1.7V14.9z"/>
	</g>
	<g class="st6">
		<path d="M977.9,16.3h-2.1v-1.5h6.1v1.5h-2.1v6.3H978v-6.3H977.9z"/>
	</g>
	<g class="st6">
		<path d="M986.3,20.8h-2.4l-0.5,1.9h-1.8l2.4-7.8h2.1l2.4,7.8h-1.9L986.3,20.8z M985.9,19.4l-0.2-0.7c-0.1-0.4-0.2-0.8-0.3-1.2
			c-0.1-0.4-0.2-0.9-0.3-1.3l0,0c-0.1,0.4-0.2,0.8-0.3,1.3c-0.1,0.4-0.2,0.9-0.3,1.2l-0.2,0.7H985.9z"/>
	</g>
</g>
<g>
	<g class="st6">
		<path d="M774.1,21.3c0.3,0.3,0.6,0.5,1,0.7s0.8,0.3,1.2,0.3c0.5,0,0.9-0.1,1.2-0.4c0.3-0.2,0.4-0.5,0.4-0.9c0-0.2,0-0.4-0.1-0.5
			s-0.2-0.3-0.3-0.4s-0.3-0.2-0.4-0.3s-0.3-0.2-0.5-0.3l-1.1-0.5c-0.2-0.1-0.4-0.2-0.6-0.3c-0.2-0.1-0.4-0.2-0.5-0.4
			c-0.2-0.2-0.3-0.4-0.4-0.6c-0.1-0.2-0.1-0.5-0.1-0.8s0.1-0.6,0.2-0.8c0.1-0.3,0.3-0.5,0.5-0.7s0.5-0.3,0.8-0.4
			c0.3-0.1,0.6-0.2,1-0.2c0.5,0,0.9,0.1,1.3,0.3s0.7,0.4,1,0.7l-0.5,0.6c-0.2-0.2-0.5-0.4-0.8-0.5s-0.6-0.2-1-0.2s-0.8,0.1-1.1,0.3
			c-0.3,0.2-0.4,0.5-0.4,0.8c0,0.2,0,0.4,0.1,0.5s0.2,0.2,0.3,0.3c0.1,0.1,0.3,0.2,0.4,0.3c0.2,0.1,0.3,0.1,0.5,0.2l1.1,0.5
			c0.2,0.1,0.4,0.2,0.6,0.3s0.4,0.3,0.5,0.4c0.1,0.2,0.3,0.4,0.3,0.6c0.1,0.2,0.1,0.5,0.1,0.8s-0.1,0.6-0.2,0.9
			c-0.1,0.3-0.3,0.5-0.5,0.7s-0.5,0.4-0.8,0.5s-0.7,0.2-1.1,0.2c-0.6,0-1.1-0.1-1.5-0.3c-0.5-0.2-0.9-0.5-1.2-0.9L774.1,21.3z"/>
		<path d="M780.5,15.1h1V23h-1V15.1z"/>
		<path d="M783.2,19.1c0-0.6,0.1-1.2,0.3-1.7s0.4-0.9,0.8-1.3c0.3-0.4,0.7-0.6,1.1-0.8c0.4-0.2,0.9-0.3,1.5-0.3c0.5,0,1,0.1,1.4,0.3
			s0.7,0.4,0.9,0.7l-0.6,0.6c-0.2-0.2-0.4-0.4-0.7-0.5s-0.6-0.2-1-0.2s-0.8,0.1-1.1,0.2s-0.6,0.4-0.8,0.6c-0.2,0.3-0.4,0.6-0.5,1
			s-0.2,0.8-0.2,1.3s0.1,0.9,0.2,1.3c0.1,0.4,0.3,0.7,0.5,1s0.5,0.5,0.8,0.6c0.3,0.2,0.7,0.2,1.1,0.2c0.3,0,0.5,0,0.8-0.1
			s0.5-0.2,0.6-0.3v-2.1h-1.7v-0.8h2.6v3.3c-0.3,0.3-0.6,0.5-1,0.7s-0.9,0.3-1.4,0.3s-1-0.1-1.4-0.3c-0.4-0.2-0.8-0.5-1.1-0.8
			s-0.6-0.8-0.7-1.3C783.3,20.3,783.2,19.7,783.2,19.1z"/>
		<path d="M791,15.1h1v4.6c0,0.5,0,0.9,0.1,1.2c0.1,0.3,0.2,0.6,0.4,0.8c0.2,0.2,0.4,0.3,0.6,0.4c0.2,0.1,0.5,0.1,0.7,0.1
			c0.3,0,0.5,0,0.7-0.1s0.4-0.2,0.6-0.4c0.2-0.2,0.3-0.4,0.4-0.8c0.1-0.3,0.1-0.7,0.1-1.2v-4.6h1v4.6c0,0.6-0.1,1.2-0.2,1.6
			c-0.1,0.4-0.3,0.8-0.6,1c-0.3,0.3-0.5,0.5-0.9,0.6c-0.3,0.1-0.7,0.2-1.1,0.2s-0.8-0.1-1.1-0.2s-0.6-0.3-0.9-0.6
			c-0.3-0.3-0.5-0.6-0.6-1s-0.2-1-0.2-1.6V15.1z"/>
	</g>
	<g class="st6">
		<path d="M797.5,15.1h4.5V16h-3.5v2.5h3v0.9h-3v2.9h3.7V23h-4.7V15.1z"/>
	</g>
	<g class="st6">
		<path d="M809.1,20.6h-2.9l-0.8,2.4h-1l2.7-7.9h1.1l2.7,7.9h-1.1L809.1,20.6z M808.8,19.8l-0.4-1.2c-0.1-0.4-0.3-0.9-0.4-1.3
			c-0.1-0.4-0.3-0.9-0.4-1.3l0,0c-0.1,0.5-0.2,0.9-0.4,1.3c-0.1,0.4-0.3,0.9-0.4,1.3l-0.4,1.2H808.8z"/>
	</g>
	<g class="st6">
		<path d="M815.4,16H813v-0.8h5.8V16h-2.4v7h-1L815.4,16L815.4,16z"/>
	</g>
	<g class="st6">
		<path d="M819.8,15.1h1v4.6c0,0.5,0,0.9,0.1,1.2c0.1,0.3,0.2,0.6,0.4,0.8c0.2,0.2,0.4,0.3,0.6,0.4s0.5,0.1,0.7,0.1
			c0.3,0,0.5,0,0.7-0.1s0.4-0.2,0.6-0.4c0.2-0.2,0.3-0.4,0.4-0.8c0.1-0.3,0.1-0.7,0.1-1.2v-4.6h1v4.6c0,0.6-0.1,1.2-0.2,1.6
			c-0.1,0.4-0.3,0.8-0.6,1c-0.3,0.3-0.6,0.5-0.9,0.6c-0.3,0.1-0.7,0.2-1.1,0.2c-0.4,0-0.8-0.1-1.1-0.2s-0.6-0.3-0.9-0.6
			c-0.3-0.3-0.5-0.6-0.6-1s-0.2-1-0.2-1.6V15.1z"/>
	</g>
	<g class="st6">
		<path d="M833,20.6h-2.9l-0.8,2.4h-1l2.7-7.9h1.1l2.7,7.9h-1.1L833,20.6z M832.7,19.8l-0.4-1.2c-0.1-0.4-0.3-0.9-0.4-1.3
			c-0.1-0.4-0.3-0.9-0.4-1.3l0,0c-0.1,0.5-0.2,0.9-0.4,1.3c-0.1,0.4-0.3,0.9-0.4,1.3l-0.4,1.2H832.7z"/>
	</g>
	<g class="st6">
		<path d="M836.7,20l-2.4-4.8h1.1l1,2.2c0.1,0.3,0.3,0.6,0.4,0.9s0.2,0.6,0.4,0.9l0,0c0.1-0.3,0.3-0.6,0.4-0.9s0.3-0.6,0.4-0.9
			l1-2.2h1l-2.4,4.8v3h-1L836.7,20L836.7,20z"/>
	</g>
	<g class="st6">
		<path d="M840.5,15.1h1v4.6c0,0.5,0,0.9,0.1,1.2s0.2,0.6,0.4,0.8c0.2,0.2,0.4,0.3,0.6,0.4c0.2,0.1,0.5,0.1,0.7,0.1
			c0.3,0,0.5,0,0.7-0.1s0.4-0.2,0.6-0.4c0.2-0.2,0.3-0.4,0.4-0.8s0.1-0.7,0.1-1.2v-4.6h1v4.6c0,0.6-0.1,1.2-0.2,1.6
			c-0.1,0.4-0.3,0.8-0.6,1c-0.3,0.3-0.6,0.5-0.9,0.6c-0.3,0.1-0.7,0.2-1.1,0.2s-0.8-0.1-1.1-0.2s-0.6-0.3-0.9-0.6
			c-0.3-0.3-0.4-0.6-0.6-1c-0.1-0.4-0.2-1-0.2-1.6V15.1z"/>
		<path d="M848.3,15.1h1l2.8,4.9l0.9,1.6l0,0c0-0.4,0-0.8-0.1-1.2c0-0.4,0-0.8,0-1.3V15h0.9v8h-1l-2.9-5l-0.9-1.6l0,0
			c0,0.4,0.1,0.8,0.1,1.2c0,0.4,0,0.8,0,1.2V23h-0.9v-7.9H848.3z"/>
	</g>
	<g class="st6">
		<path d="M857.1,16h-2.4v-0.8h5.8V16h-2.4v7h-1L857.1,16L857.1,16z"/>
	</g>
	<g class="st6">
		<path d="M864.7,20.6h-2.9L861,23h-1l2.7-7.9h1.1l2.7,7.9h-1.1L864.7,20.6z M864.4,19.8l-0.4-1.2c-0.1-0.4-0.3-0.9-0.4-1.3
			c-0.1-0.4-0.3-0.9-0.4-1.3l0,0c-0.1,0.5-0.2,0.9-0.4,1.3c-0.1,0.4-0.3,0.9-0.4,1.3l-0.4,1.2H864.4z"/>
		<path d="M867.6,15.1h1.2l1.5,4.2l0.6,1.6l0,0l0.6-1.6l1.5-4.2h1.2V23h-0.9v-4.3c0-0.4,0-0.7,0-1.2c0-0.4,0.1-0.8,0.1-1.2l0,0
			l-0.6,1.8l-1.5,4.1h-0.6l-1.5-4.1l-0.6-1.8l0,0c0,0.4,0.1,0.7,0.1,1.2c0,0.4,0,0.8,0,1.2V23h-0.9v-7.9H867.6z"/>
		<path d="M876.3,15.1h1V23h-1V15.1z"/>
		<path d="M879.5,15.1h4.5V16h-3.5v2.5h3v0.9h-3v2.9h3.7V23h-4.7V15.1z"/>
		<path d="M885.8,15.1h1l2.8,4.9l0.9,1.6l0,0c0-0.4-0.1-0.8-0.1-1.2c0-0.4,0-0.8,0-1.3V15h0.9v8h-1l-2.9-5l-0.9-1.6l0,0
			c0,0.4,0.1,0.8,0.1,1.2c0,0.4,0,0.8,0,1.2V23h-0.9v-7.9H885.8z"/>
	</g>
	<g class="st6">
		<path d="M893.5,16h-2.4v-0.8h5.8V16h-2.4v7h-1L893.5,16L893.5,16z"/>
	</g>
	<g class="st6">
		<path d="M900.6,23.1c-0.5,0-1-0.1-1.4-0.3c-0.4-0.2-0.8-0.5-1.1-0.8c-0.3-0.4-0.5-0.8-0.7-1.3s-0.2-1.1-0.2-1.7s0.1-1.2,0.2-1.7
			s0.4-0.9,0.7-1.3c0.3-0.3,0.6-0.6,1.1-0.8c0.4-0.2,0.9-0.3,1.4-0.3s1,0.1,1.4,0.3s0.8,0.5,1.1,0.8c0.3,0.3,0.5,0.8,0.7,1.3
			s0.2,1.1,0.2,1.7s-0.1,1.2-0.2,1.7s-0.4,0.9-0.7,1.3s-0.7,0.6-1.1,0.8C901.5,23,901.1,23.1,900.6,23.1z M900.6,22.3
			c0.4,0,0.7-0.1,1-0.2c0.3-0.2,0.5-0.4,0.7-0.7c0.2-0.3,0.4-0.6,0.5-1s0.2-0.8,0.2-1.3s-0.1-0.9-0.2-1.3c-0.1-0.4-0.3-0.7-0.5-1
			s-0.4-0.5-0.7-0.6s-0.6-0.2-1-0.2s-0.7,0.1-1,0.2s-0.5,0.4-0.7,0.6c-0.2,0.3-0.4,0.6-0.5,1s-0.2,0.8-0.2,1.3s0.1,0.9,0.2,1.3
			c0.1,0.4,0.3,0.7,0.5,1s0.4,0.5,0.7,0.7S900.2,22.3,900.6,22.3z"/>
	</g>
</g>
<g>
	<g class="st18">
		<path class="st7" d="M64.4,180.7l-1.9-3.3h-1.4v3.3h-1v-7.9h2.5c0.4,0,0.8,0,1.1,0.1s0.6,0.2,0.9,0.4s0.4,0.4,0.6,0.7
			c0.1,0.3,0.2,0.6,0.2,1c0,0.6-0.2,1.1-0.5,1.5s-0.7,0.6-1.3,0.8l2,3.4H64.4z M61.1,176.5h1.3c0.6,0,1.1-0.1,1.4-0.4
			c0.3-0.3,0.5-0.6,0.5-1.1s-0.2-0.9-0.5-1.1s-0.8-0.3-1.4-0.3h-1.3C61.1,173.6,61.1,176.5,61.1,176.5z"/>
		<path class="st7" d="M67.1,172.8h4.5v0.8H68v2.5h3v0.9h-3v2.9h3.7v0.9H67L67.1,172.8L67.1,172.8z"/>
		<path class="st7" d="M73.4,179c0.3,0.3,0.6,0.5,1,0.7s0.8,0.3,1.2,0.3c0.5,0,0.9-0.1,1.2-0.4c0.3-0.2,0.4-0.5,0.4-0.9
			c0-0.2,0-0.4-0.1-0.5s-0.2-0.3-0.3-0.4c-0.1-0.1-0.3-0.2-0.4-0.3s-0.3-0.2-0.5-0.3l-1.1-0.5c-0.2-0.1-0.4-0.2-0.6-0.3
			s-0.4-0.2-0.5-0.4s-0.3-0.4-0.4-0.6c-0.1-0.2-0.1-0.5-0.1-0.8s0.1-0.6,0.2-0.8c0.1-0.3,0.3-0.5,0.5-0.7s0.5-0.3,0.8-0.4
			c0.3-0.1,0.6-0.2,1-0.2c0.5,0,0.9,0.1,1.3,0.3s0.7,0.4,1,0.7l-0.5,0.6c-0.2-0.2-0.5-0.4-0.8-0.5s-0.6-0.2-1-0.2s-0.8,0.1-1.1,0.3
			s-0.4,0.5-0.4,0.8c0,0.2,0,0.4,0.1,0.5s0.2,0.2,0.3,0.3c0.1,0.1,0.3,0.2,0.4,0.3s0.3,0.1,0.5,0.2l1.1,0.5c0.2,0.1,0.4,0.2,0.6,0.3
			s0.4,0.3,0.5,0.4c0.1,0.2,0.3,0.4,0.3,0.6c0.1,0.2,0.1,0.5,0.1,0.8s-0.1,0.6-0.2,0.9c-0.1,0.3-0.3,0.5-0.5,0.7s-0.5,0.4-0.8,0.5
			s-0.7,0.2-1.1,0.2c-0.6,0-1.1-0.1-1.5-0.3c-0.5-0.2-0.9-0.5-1.2-0.9L73.4,179z"/>
		<path class="st7" d="M79.7,172.8h1v4.6c0,0.5,0,0.9,0.1,1.2s0.2,0.6,0.4,0.8c0.2,0.2,0.4,0.3,0.6,0.4c0.2,0.1,0.5,0.1,0.7,0.1
			c0.3,0,0.5,0,0.7-0.1s0.4-0.2,0.6-0.4s0.3-0.4,0.4-0.8c0.1-0.3,0.1-0.7,0.1-1.2v-4.6h1v4.6c0,0.6-0.1,1.2-0.2,1.6
			c-0.1,0.4-0.3,0.8-0.6,1c-0.3,0.3-0.6,0.5-0.9,0.6s-0.7,0.2-1.1,0.2s-0.8-0.1-1.1-0.2c-0.3-0.1-0.6-0.3-0.9-0.6s-0.5-0.6-0.6-1
			s-0.2-1-0.2-1.6V172.8z"/>
		<path class="st7" d="M87.5,172.8h1.2l1.5,4.2l0.6,1.6l0,0l0.6-1.6l1.5-4.2h1.2v7.9h-0.9v-4.3c0-0.4,0-0.7,0-1.2
			c0-0.4,0.1-0.8,0.1-1.2l0,0l-0.6,1.8l-1.5,4.1h-0.6l-1.5-4.1l-0.6-1.8l0,0c0,0.4,0.1,0.7,0.1,1.2c0,0.4,0,0.8,0,1.2v4.3h-0.9v-7.9
			H87.5z"/>
		<path class="st7" d="M96.2,172.8h4.5v0.8h-3.5v2.5h3v0.9h-3v2.9h3.7v0.9h-4.7V172.8z"/>
		<path class="st7" d="M102.6,172.8h1l2.8,4.9l0.9,1.6l0,0c0-0.4,0-0.8-0.1-1.2c0-0.4,0-0.8,0-1.3v-4.1h0.9v7.9h-1l-2.9-5l-0.9-1.6
			l0,0c0,0.4,0.1,0.8,0.1,1.2s0,0.8,0,1.2v4.1h-0.9L102.6,172.8L102.6,172.8z"/>
	</g>
</g>
<g>
	<g class="st18">
		<path class="st7" d="M143.1,172.8h2.4c0.4,0,0.8,0,1.2,0.1s0.7,0.2,0.9,0.4c0.3,0.2,0.4,0.4,0.6,0.7c0.1,0.3,0.2,0.7,0.2,1.1
			c0,0.4-0.1,0.8-0.2,1.1c-0.1,0.3-0.3,0.6-0.6,0.8s-0.6,0.3-0.9,0.5c-0.4,0.1-0.8,0.1-1.2,0.1h-1.4v3.1h-1V172.8z M145.4,176.7
			c0.7,0,1.2-0.1,1.5-0.4s0.5-0.7,0.5-1.2c0-0.6-0.2-1-0.5-1.2s-0.8-0.3-1.5-0.3h-1.3v3.1L145.4,176.7L145.4,176.7z"/>
		<path class="st7" d="M154.3,180.7l-1.9-3.3H151v3.3h-1v-7.9h2.5c0.4,0,0.8,0,1.1,0.1s0.6,0.2,0.9,0.4s0.4,0.4,0.6,0.7
			c0.1,0.3,0.2,0.6,0.2,1c0,0.6-0.2,1.1-0.5,1.5s-0.7,0.6-1.3,0.8l2,3.4H154.3z M151,176.5h1.3c0.6,0,1.1-0.1,1.4-0.4
			s0.5-0.6,0.5-1.1s-0.2-0.9-0.5-1.1s-0.8-0.3-1.4-0.3H151V176.5z"/>
		<path class="st7" d="M157,172.8h4.5v0.8H158v2.5h3v0.9h-3v2.9h3.7v0.9H157V172.8z"/>
		<path class="st7" d="M163.3,179c0.3,0.3,0.6,0.5,1,0.7s0.8,0.3,1.2,0.3c0.5,0,0.9-0.1,1.2-0.4c0.3-0.2,0.4-0.5,0.4-0.9
			c0-0.2,0-0.4-0.1-0.5s-0.2-0.3-0.3-0.4c-0.1-0.1-0.3-0.2-0.4-0.3s-0.3-0.2-0.5-0.3l-1.1-0.5c-0.2-0.1-0.4-0.2-0.6-0.3
			c-0.2-0.1-0.4-0.2-0.5-0.4s-0.3-0.4-0.4-0.6c-0.1-0.2-0.1-0.5-0.1-0.8s0.1-0.6,0.2-0.8c0.1-0.3,0.3-0.5,0.5-0.7s0.5-0.3,0.8-0.4
			c0.3-0.1,0.6-0.2,1-0.2c0.5,0,0.9,0.1,1.3,0.3s0.7,0.4,1,0.7l-0.5,0.6c-0.2-0.2-0.5-0.4-0.8-0.5s-0.6-0.2-1-0.2s-0.8,0.1-1.1,0.3
			s-0.4,0.5-0.4,0.8c0,0.2,0,0.4,0.1,0.5s0.2,0.2,0.3,0.3s0.3,0.2,0.4,0.3s0.3,0.1,0.5,0.2l1.1,0.5c0.2,0.1,0.4,0.2,0.6,0.3
			c0.2,0.1,0.4,0.3,0.5,0.4c0.1,0.2,0.3,0.4,0.3,0.6c0.1,0.2,0.1,0.5,0.1,0.8s-0.1,0.6-0.2,0.9c-0.1,0.3-0.3,0.5-0.5,0.7
			s-0.5,0.4-0.8,0.5s-0.7,0.2-1.1,0.2c-0.6,0-1.1-0.1-1.5-0.3c-0.5-0.2-0.9-0.5-1.2-0.9L163.3,179z"/>
		<path class="st7" d="M169.7,172.8h1v4.6c0,0.5,0,0.9,0.1,1.2s0.2,0.6,0.4,0.8s0.4,0.3,0.6,0.4c0.2,0.1,0.5,0.1,0.7,0.1
			c0.3,0,0.5,0,0.7-0.1s0.4-0.2,0.6-0.4c0.2-0.2,0.3-0.4,0.4-0.8c0.1-0.3,0.1-0.7,0.1-1.2v-4.6h1v4.6c0,0.6-0.1,1.2-0.2,1.6
			c-0.1,0.4-0.3,0.8-0.6,1c-0.3,0.3-0.6,0.5-0.9,0.6c-0.3,0.1-0.7,0.2-1.1,0.2s-0.8-0.1-1.1-0.2c-0.3-0.1-0.6-0.3-0.9-0.6
			c-0.3-0.3-0.5-0.6-0.6-1s-0.2-1-0.2-1.6V172.8z"/>
		<path class="st7" d="M177.4,172.8h2.4c0.4,0,0.8,0,1.2,0.1s0.7,0.2,0.9,0.4c0.3,0.2,0.4,0.4,0.6,0.7c0.1,0.3,0.2,0.7,0.2,1.1
			c0,0.4-0.1,0.8-0.2,1.1c-0.1,0.3-0.3,0.6-0.6,0.8s-0.6,0.3-0.9,0.5c-0.4,0.1-0.8,0.1-1.2,0.1h-1.4v3.1h-1V172.8z M179.7,176.7
			c0.7,0,1.2-0.1,1.5-0.4s0.5-0.7,0.5-1.2c0-0.6-0.2-1-0.5-1.2s-0.8-0.3-1.5-0.3h-1.3v3.1L179.7,176.7L179.7,176.7z"/>
		<path class="st7" d="M184.3,172.8h1v4.6c0,0.5,0,0.9,0.1,1.2s0.2,0.6,0.4,0.8s0.4,0.3,0.6,0.4c0.2,0.1,0.5,0.1,0.7,0.1
			c0.3,0,0.5,0,0.7-0.1s0.4-0.2,0.6-0.4c0.2-0.2,0.3-0.4,0.4-0.8c0.1-0.3,0.1-0.7,0.1-1.2v-4.6h1v4.6c0,0.6-0.1,1.2-0.2,1.6
			c-0.1,0.4-0.3,0.8-0.6,1c-0.3,0.3-0.6,0.5-0.9,0.6c-0.3,0.1-0.7,0.2-1.1,0.2s-0.8-0.1-1.1-0.2c-0.3-0.1-0.6-0.3-0.9-0.6
			c-0.3-0.3-0.5-0.6-0.6-1s-0.2-1-0.2-1.6V172.8z"/>
		<path class="st7" d="M192.1,172.8h4.5v0.8h-3.5v2.5h3v0.9h-3v2.9h3.7v0.9h-4.7V172.8z"/>
	</g>
</g>
<g>
	<g class="st18">
		<path class="st7" d="M198.4,179c0.3,0.3,0.6,0.5,1,0.7s0.8,0.3,1.2,0.3c0.5,0,0.9-0.1,1.2-0.4c0.3-0.2,0.4-0.5,0.4-0.9
			c0-0.2,0-0.4-0.1-0.5s-0.2-0.3-0.3-0.4c-0.1-0.1-0.3-0.2-0.4-0.3s-0.3-0.2-0.5-0.3l-1.1-0.5c-0.2-0.1-0.4-0.2-0.6-0.3
			c-0.2-0.1-0.4-0.2-0.5-0.4s-0.3-0.4-0.4-0.6c-0.1-0.2-0.1-0.5-0.1-0.8s0.1-0.6,0.2-0.8c0.1-0.3,0.3-0.5,0.5-0.7s0.5-0.3,0.8-0.4
			c0.3-0.1,0.6-0.2,1-0.2c0.5,0,0.9,0.1,1.3,0.3s0.7,0.4,1,0.7l-0.5,0.6c-0.2-0.2-0.5-0.4-0.8-0.5s-0.6-0.2-1-0.2s-0.8,0.1-1.1,0.3
			s-0.4,0.5-0.4,0.8c0,0.2,0,0.4,0.1,0.5s0.2,0.2,0.3,0.3s0.3,0.2,0.4,0.3s0.3,0.1,0.5,0.2l1.1,0.5c0.2,0.1,0.4,0.2,0.6,0.3
			c0.2,0.1,0.4,0.3,0.5,0.4c0.1,0.2,0.3,0.4,0.3,0.6c0.1,0.2,0.1,0.5,0.1,0.8s-0.1,0.6-0.2,0.9c-0.1,0.3-0.3,0.5-0.5,0.7
			s-0.5,0.4-0.8,0.5s-0.7,0.2-1.1,0.2c-0.6,0-1.1-0.1-1.5-0.3c-0.5-0.2-0.9-0.5-1.2-0.9L198.4,179z"/>
	</g>
</g>
<g>
	<g class="st18">
		<path class="st7" d="M205.9,173.6h-2.4v-0.8h5.8v0.8h-2.4v7h-1L205.9,173.6L205.9,173.6z"/>
	</g>
</g>
<g>
	<g class="st18">
		<path class="st7" d="M213,180.8c-0.5,0-0.9-0.1-1.4-0.3c-0.4-0.2-0.8-0.5-1.1-0.8c-0.3-0.4-0.5-0.8-0.7-1.3s-0.2-1.1-0.2-1.7
			s0.1-1.2,0.2-1.7c0.2-0.5,0.4-0.9,0.7-1.3c0.3-0.3,0.6-0.6,1.1-0.8c0.4-0.2,0.9-0.3,1.4-0.3s1,0.1,1.4,0.3s0.8,0.5,1.1,0.8
			s0.5,0.8,0.7,1.3s0.2,1.1,0.2,1.7c0,0.6-0.1,1.2-0.2,1.7s-0.4,0.9-0.7,1.3c-0.3,0.4-0.7,0.6-1.1,0.8
			C213.9,180.7,213.5,180.8,213,180.8z M213,179.9c0.4,0,0.7-0.1,1-0.2c0.3-0.2,0.5-0.4,0.7-0.7s0.4-0.6,0.5-1s0.2-0.8,0.2-1.3
			s-0.1-0.9-0.2-1.3c-0.1-0.4-0.3-0.7-0.5-1s-0.4-0.5-0.7-0.6s-0.6-0.2-1-0.2s-0.7,0.1-1,0.2c-0.3,0.1-0.5,0.4-0.7,0.6
			c-0.2,0.3-0.4,0.6-0.5,1s-0.2,0.8-0.2,1.3s0.1,0.9,0.2,1.3c0.1,0.4,0.3,0.7,0.5,1s0.4,0.5,0.7,0.7S212.6,179.9,213,179.9z"/>
	</g>
</g>
<g>
	<g class="st18">
		<path class="st7" d="M250.1,172.8h4.5v0.8h-3.5v2.5h3v0.9h-3v2.9h3.7v0.9h-4.7V172.8z"/>
		<path class="st7" d="M256.4,179.1c0.2,0.3,0.4,0.5,0.6,0.7c0.2,0.1,0.5,0.2,0.8,0.2c0.4,0,0.7-0.1,0.9-0.4s0.3-0.7,0.3-1.3v-5.5h1
			v5.6c0,0.3,0,0.7-0.1,1s-0.2,0.6-0.4,0.8c-0.2,0.2-0.4,0.4-0.7,0.5c-0.3,0.1-0.6,0.2-1,0.2c-1,0-1.7-0.4-2.2-1.3L256.4,179.1z"/>
		<path class="st7" d="M262.2,172.8h4.5v0.8h-3.5v2.5h3v0.9h-3v2.9h3.7v0.9h-4.7V172.8z"/>
	</g>
</g>
<g>
	<g class="st18">
		<path class="st7" d="M268,176.7c0-0.6,0.1-1.2,0.3-1.7c0.2-0.5,0.4-0.9,0.7-1.3c0.3-0.4,0.7-0.6,1.1-0.8s0.9-0.3,1.4-0.3
			s0.9,0.1,1.3,0.3s0.7,0.4,0.9,0.7l-0.6,0.6c-0.2-0.2-0.4-0.4-0.7-0.5c-0.3-0.1-0.5-0.2-0.9-0.2s-0.7,0.1-1,0.2
			c-0.3,0.1-0.6,0.4-0.8,0.6c-0.2,0.3-0.4,0.6-0.5,1s-0.2,0.8-0.2,1.3s0.1,0.9,0.2,1.3c0.1,0.4,0.3,0.7,0.5,1s0.5,0.5,0.8,0.6
			c0.3,0.2,0.6,0.2,1,0.2s0.7-0.1,1-0.2c0.3-0.2,0.6-0.4,0.8-0.6l0.6,0.6c-0.3,0.4-0.7,0.6-1.1,0.8s-0.8,0.3-1.3,0.3s-1-0.1-1.4-0.3
			s-0.8-0.5-1.1-0.8c-0.3-0.3-0.5-0.8-0.7-1.3S268,177.4,268,176.7z"/>
	</g>
</g>
<g>
	<g class="st18">
		<path class="st7" d="M274.9,172.8h1v4.6c0,0.5,0,0.9,0.1,1.2s0.2,0.6,0.4,0.8c0.2,0.2,0.4,0.3,0.6,0.4c0.2,0.1,0.5,0.1,0.7,0.1
			c0.3,0,0.5,0,0.7-0.1s0.4-0.2,0.6-0.4s0.3-0.4,0.4-0.8c0.1-0.3,0.1-0.7,0.1-1.2v-4.6h1v4.6c0,0.6-0.1,1.2-0.2,1.6
			c-0.1,0.4-0.3,0.8-0.6,1c-0.3,0.3-0.6,0.5-0.9,0.6s-0.7,0.2-1.1,0.2s-0.8-0.1-1.1-0.2c-0.3-0.1-0.6-0.3-0.9-0.6s-0.5-0.6-0.6-1
			s-0.2-1-0.2-1.6V172.8z"/>
		<path class="st7" d="M282.3,176.7c0-0.6,0.1-1.2,0.3-1.7c0.2-0.5,0.4-0.9,0.7-1.3c0.3-0.4,0.7-0.6,1.1-0.8s0.9-0.3,1.4-0.3
			s0.9,0.1,1.3,0.3s0.7,0.4,0.9,0.7l-0.6,0.6c-0.2-0.2-0.4-0.4-0.7-0.5c-0.3-0.1-0.5-0.2-0.9-0.2s-0.7,0.1-1,0.2
			c-0.3,0.1-0.6,0.4-0.8,0.6c-0.2,0.3-0.4,0.6-0.5,1s-0.2,0.8-0.2,1.3s0.1,0.9,0.2,1.3c0.1,0.4,0.3,0.7,0.5,1s0.5,0.5,0.8,0.6
			c0.3,0.2,0.6,0.2,1,0.2s0.7-0.1,1-0.2c0.3-0.2,0.6-0.4,0.8-0.6l0.6,0.6c-0.3,0.4-0.7,0.6-1.1,0.8s-0.8,0.3-1.3,0.3s-1-0.1-1.4-0.3
			s-0.8-0.5-1.1-0.8c-0.3-0.3-0.5-0.8-0.7-1.3S282.3,177.4,282.3,176.7z"/>
		<path class="st7" d="M289.6,172.8h1v7.9h-1V172.8z"/>
		<path class="st7" d="M295.6,180.8c-0.5,0-0.9-0.1-1.4-0.3c-0.4-0.2-0.8-0.5-1.1-0.8c-0.3-0.4-0.5-0.8-0.7-1.3s-0.2-1.1-0.2-1.7
			s0.1-1.2,0.2-1.7c0.2-0.5,0.4-0.9,0.7-1.3c0.3-0.3,0.6-0.6,1.1-0.8c0.4-0.2,0.9-0.3,1.4-0.3s1,0.1,1.4,0.3s0.8,0.5,1.1,0.8
			c0.3,0.3,0.5,0.8,0.7,1.3s0.2,1.1,0.2,1.7c0,0.6-0.1,1.2-0.2,1.7s-0.4,0.9-0.7,1.3c-0.3,0.4-0.7,0.6-1.1,0.8
			S296.1,180.8,295.6,180.8z M295.6,179.9c0.4,0,0.7-0.1,1-0.2c0.3-0.2,0.5-0.4,0.7-0.7s0.4-0.6,0.5-1s0.2-0.8,0.2-1.3
			s-0.1-0.9-0.2-1.3c-0.1-0.4-0.3-0.7-0.5-1s-0.4-0.5-0.7-0.6c-0.3-0.1-0.6-0.2-1-0.2s-0.7,0.1-1,0.2c-0.3,0.1-0.5,0.4-0.7,0.6
			c-0.2,0.3-0.4,0.6-0.5,1s-0.2,0.8-0.2,1.3s0.1,0.9,0.2,1.3c0.1,0.4,0.3,0.7,0.5,1s0.4,0.5,0.7,0.7
			C295,179.9,295.3,179.9,295.6,179.9z M295.8,172.2H295l1.1-1.3h1.1L295.8,172.2z"/>
		<path class="st7" d="M300.7,172.8h1l2.8,4.9l0.9,1.6l0,0c0-0.4,0-0.8-0.1-1.2c0-0.4,0-0.8,0-1.3v-4.1h0.9v7.9h-1l-2.9-5l-0.9-1.6
			l0,0c0,0.4,0.1,0.8,0.1,1.2s0,0.8,0,1.2v4.1h-0.9v-7.7H300.7z"/>
	</g>
</g>
<g>
	<g class="st18">
		<path class="st7" d="M340.6,176.7c0-0.6,0.1-1.2,0.3-1.7c0.2-0.5,0.4-0.9,0.7-1.3c0.3-0.4,0.7-0.6,1.1-0.8s0.9-0.3,1.4-0.3
			s0.9,0.1,1.3,0.3s0.7,0.4,0.9,0.7l-0.6,0.6c-0.2-0.2-0.4-0.4-0.7-0.5c-0.3-0.1-0.5-0.2-0.9-0.2s-0.7,0.1-1,0.2
			c-0.3,0.1-0.6,0.4-0.8,0.6c-0.2,0.3-0.4,0.6-0.5,1s-0.2,0.8-0.2,1.3s0.1,0.9,0.2,1.3c0.1,0.4,0.3,0.7,0.5,1s0.5,0.5,0.8,0.6
			c0.3,0.2,0.6,0.2,1,0.2s0.7-0.1,1-0.2c0.3-0.2,0.6-0.4,0.8-0.6l0.6,0.6c-0.3,0.4-0.7,0.6-1.1,0.8s-0.8,0.3-1.3,0.3s-1-0.1-1.4-0.3
			s-0.8-0.5-1.1-0.8c-0.3-0.3-0.5-0.8-0.7-1.3S340.6,177.4,340.6,176.7z"/>
	</g>
</g>
<g class="st19">
	<g class="st6">
		<path class="st7" d="M350.1,180.8c-0.5,0-0.9-0.1-1.4-0.3c-0.4-0.2-0.8-0.5-1.1-0.8c-0.3-0.4-0.5-0.8-0.7-1.3s-0.2-1.1-0.2-1.7
			s0.1-1.2,0.2-1.7c0.2-0.5,0.4-0.9,0.7-1.3c0.3-0.3,0.6-0.6,1.1-0.8c0.4-0.2,0.9-0.3,1.4-0.3s1,0.1,1.4,0.3s0.8,0.5,1.1,0.8
			c0.3,0.3,0.5,0.8,0.7,1.3s0.2,1.1,0.2,1.7c0,0.6-0.1,1.2-0.2,1.7s-0.4,0.9-0.7,1.3c-0.3,0.4-0.7,0.6-1.1,0.8
			S350.6,180.8,350.1,180.8z M350.1,179.9c0.4,0,0.7-0.1,1-0.2c0.3-0.2,0.5-0.4,0.7-0.7s0.4-0.6,0.5-1s0.2-0.8,0.2-1.3
			s-0.1-0.9-0.2-1.3c-0.1-0.4-0.3-0.7-0.5-1s-0.4-0.5-0.7-0.6c-0.3-0.1-0.6-0.2-1-0.2s-0.7,0.1-1,0.2c-0.3,0.1-0.5,0.4-0.7,0.6
			c-0.2,0.3-0.4,0.6-0.5,1s-0.2,0.8-0.2,1.3s0.1,0.9,0.2,1.3c0.1,0.4,0.3,0.7,0.5,1s0.4,0.5,0.7,0.7
			C349.5,179.9,349.8,179.9,350.1,179.9z"/>
		<path class="st7" d="M355.2,172.8h1l2.8,4.9l0.9,1.6l0,0c0-0.4,0-0.8-0.1-1.2c0-0.4,0-0.8,0-1.3v-4.1h0.9v7.9h-1l-2.9-5l-0.9-1.6
			l0,0c0,0.4,0.1,0.8,0.1,1.2s0,0.8,0,1.2v4.1h-0.9v-7.7H355.2z"/>
	</g>
	<g class="st6">
		<path class="st7" d="M362.5,179c0.3,0.3,0.6,0.5,1,0.7s0.8,0.3,1.2,0.3c0.5,0,0.9-0.1,1.2-0.4c0.3-0.2,0.4-0.5,0.4-0.9
			c0-0.2,0-0.4-0.1-0.5s-0.2-0.3-0.3-0.4c-0.1-0.1-0.3-0.2-0.4-0.3s-0.3-0.2-0.5-0.3l-1.1-0.5c-0.2-0.1-0.4-0.2-0.6-0.3
			s-0.4-0.2-0.5-0.4s-0.3-0.4-0.4-0.6c-0.1-0.2-0.1-0.5-0.1-0.8s0.1-0.6,0.2-0.8c0.1-0.3,0.3-0.5,0.5-0.7s0.5-0.3,0.8-0.4
			c0.3-0.1,0.6-0.2,1-0.2c0.5,0,0.9,0.1,1.3,0.3s0.7,0.4,1,0.7l-0.5,0.6c-0.2-0.2-0.5-0.4-0.8-0.5s-0.6-0.2-1-0.2s-0.8,0.1-1.1,0.3
			s-0.4,0.5-0.4,0.8c0,0.2,0,0.4,0.1,0.5s0.2,0.2,0.3,0.3c0.1,0.1,0.3,0.2,0.4,0.3s0.3,0.1,0.5,0.2l1.1,0.5c0.2,0.1,0.4,0.2,0.6,0.3
			s0.4,0.3,0.5,0.4c0.1,0.2,0.3,0.4,0.3,0.6c0.1,0.2,0.1,0.5,0.1,0.8s-0.1,0.6-0.2,0.9c-0.1,0.3-0.3,0.5-0.5,0.7s-0.5,0.4-0.8,0.5
			s-0.7,0.2-1.1,0.2c-0.6,0-1.1-0.1-1.5-0.3c-0.5-0.2-0.9-0.5-1.2-0.9L362.5,179z"/>
	</g>
	<g class="st6">
		<path class="st7" d="M368.5,172.8h1v4.6c0,0.5,0,0.9,0.1,1.2s0.2,0.6,0.4,0.8c0.2,0.2,0.4,0.3,0.6,0.4c0.2,0.1,0.5,0.1,0.7,0.1
			c0.3,0,0.5,0,0.7-0.1s0.4-0.2,0.6-0.4s0.3-0.4,0.4-0.8c0.1-0.3,0.1-0.7,0.1-1.2v-4.6h1v4.6c0,0.6-0.1,1.2-0.2,1.6
			c-0.1,0.4-0.3,0.8-0.6,1c-0.3,0.3-0.6,0.5-0.9,0.6s-0.7,0.2-1.1,0.2s-0.8-0.1-1.1-0.2c-0.3-0.1-0.6-0.3-0.9-0.6s-0.5-0.6-0.6-1
			s-0.2-1-0.2-1.6V172.8z"/>
	</g>
	<g class="st6">
		<path class="st7" d="M376,172.8h1v7h3.4v0.9H376V172.8z"/>
	</g>
	<g class="st6">
		<path class="st7" d="M381.8,173.6h-2.4v-0.8h5.8v0.8h-2.4v7h-1V173.6z"/>
	</g>
	<g class="st6">
		<path class="st7" d="M389.4,178.3h-2.9l-0.8,2.4h-1l2.7-7.9h1.1l2.7,7.9h-1.1L389.4,178.3z M389.2,177.5l-0.4-1.2
			c-0.1-0.4-0.3-0.9-0.4-1.3c-0.1-0.4-0.3-0.9-0.4-1.3l0,0c-0.1,0.5-0.2,0.9-0.4,1.3c-0.1,0.4-0.3,0.9-0.4,1.3l-0.4,1.2H389.2z"/>
	</g>
	<g class="st6">
		<path class="st7" d="M392.1,179c0.3,0.3,0.6,0.5,1,0.7s0.8,0.3,1.2,0.3c0.5,0,0.9-0.1,1.2-0.4c0.3-0.2,0.4-0.5,0.4-0.9
			c0-0.2,0-0.4-0.1-0.5s-0.2-0.3-0.3-0.4c-0.1-0.1-0.3-0.2-0.4-0.3s-0.3-0.2-0.5-0.3l-1.1-0.5c-0.2-0.1-0.4-0.2-0.6-0.3
			s-0.4-0.2-0.5-0.4s-0.3-0.4-0.4-0.6c-0.1-0.2-0.1-0.5-0.1-0.8s0.1-0.6,0.2-0.8c0.1-0.3,0.3-0.5,0.5-0.7s0.5-0.3,0.8-0.4
			c0.3-0.1,0.6-0.2,1-0.2c0.5,0,0.9,0.1,1.3,0.3s0.7,0.4,1,0.7l-0.5,0.6c-0.2-0.2-0.5-0.4-0.8-0.5s-0.6-0.2-1-0.2s-0.8,0.1-1.1,0.3
			s-0.4,0.5-0.4,0.8c0,0.2,0,0.4,0.1,0.5s0.2,0.2,0.3,0.3c0.1,0.1,0.3,0.2,0.4,0.3s0.3,0.1,0.5,0.2l1.1,0.5c0.2,0.1,0.4,0.2,0.6,0.3
			s0.4,0.3,0.5,0.4c0.1,0.2,0.3,0.4,0.3,0.6c0.1,0.2,0.1,0.5,0.1,0.8s-0.1,0.6-0.2,0.9c-0.1,0.3-0.3,0.5-0.5,0.7s-0.5,0.4-0.8,0.5
			s-0.7,0.2-1.1,0.2c-0.6,0-1.1-0.1-1.5-0.3c-0.5-0.2-0.9-0.5-1.2-0.9L392.1,179z"/>
	</g>
</g>
<g>
	<g class="st18">
		<path class="st7" d="M431.1,173.1h1v3.3h3.7v-3.3h1v7.9h-1v-3.7h-3.7v3.7h-1V173.1z"/>
		<path class="st7" d="M438.9,173.1h1v7.9h-1V173.1z"/>
	</g>
</g>
<g>
	<g class="st18">
		<path class="st7" d="M442.1,179.3c0.3,0.3,0.6,0.5,1,0.7s0.8,0.3,1.2,0.3c0.5,0,0.9-0.1,1.2-0.4c0.3-0.2,0.4-0.5,0.4-0.9
			c0-0.2,0-0.4-0.1-0.5s-0.2-0.3-0.3-0.4c-0.1-0.1-0.3-0.2-0.4-0.3s-0.3-0.2-0.5-0.3l-1.1-0.5c-0.2-0.1-0.4-0.2-0.6-0.3
			s-0.4-0.2-0.5-0.4s-0.3-0.4-0.4-0.6c-0.1-0.2-0.1-0.5-0.1-0.8s0.1-0.6,0.2-0.8c0.1-0.3,0.3-0.5,0.5-0.7s0.5-0.3,0.8-0.4
			c0.3-0.1,0.6-0.2,1-0.2c0.5,0,0.9,0.1,1.3,0.3s0.7,0.4,1,0.7l-0.5,0.6c-0.2-0.2-0.5-0.4-0.8-0.5s-0.6-0.2-1-0.2s-0.8,0.1-1.1,0.3
			s-0.4,0.5-0.4,0.8c0,0.2,0,0.4,0.1,0.5s0.2,0.2,0.3,0.3c0.1,0.1,0.3,0.2,0.4,0.3s0.3,0.1,0.5,0.2l1.1,0.5c0.2,0.1,0.4,0.2,0.6,0.3
			s0.4,0.3,0.5,0.4c0.1,0.2,0.3,0.4,0.3,0.6c0.1,0.2,0.1,0.5,0.1,0.8s-0.1,0.6-0.2,0.9c-0.1,0.3-0.3,0.5-0.5,0.7s-0.5,0.4-0.8,0.5
			s-0.7,0.2-1.1,0.2c-0.6,0-1.1-0.1-1.5-0.3c-0.5-0.2-0.9-0.5-1.2-0.9L442.1,179.3z"/>
	</g>
</g>
<g>
	<g class="st18">
		<path class="st7" d="M449.6,174h-2.4v-0.8h5.8v0.8h-2.4v7h-1V174z"/>
	</g>
</g>
<g>
	<g class="st18">
		<path class="st7" d="M456.6,181.1c-0.5,0-0.9-0.1-1.4-0.3c-0.4-0.2-0.8-0.5-1.1-0.8c-0.3-0.4-0.5-0.8-0.7-1.3s-0.2-1.1-0.2-1.7
			s0.1-1.2,0.2-1.7c0.2-0.5,0.4-0.9,0.7-1.3c0.3-0.3,0.6-0.6,1.1-0.8c0.4-0.2,0.9-0.3,1.4-0.3s1,0.1,1.4,0.3s0.8,0.5,1.1,0.8
			c0.3,0.3,0.5,0.8,0.7,1.3s0.2,1.1,0.2,1.7c0,0.6-0.1,1.2-0.2,1.7s-0.4,0.9-0.7,1.3c-0.3,0.4-0.7,0.6-1.1,0.8
			S457.1,181.1,456.6,181.1z M456.6,180.3c0.4,0,0.7-0.1,1-0.2c0.3-0.2,0.5-0.4,0.7-0.7s0.4-0.6,0.5-1s0.2-0.8,0.2-1.3
			s-0.1-0.9-0.2-1.3c-0.1-0.4-0.3-0.7-0.5-1s-0.4-0.5-0.7-0.6c-0.3-0.1-0.6-0.2-1-0.2s-0.7,0.1-1,0.2c-0.3,0.1-0.5,0.4-0.7,0.6
			c-0.2,0.3-0.4,0.6-0.5,1s-0.2,0.8-0.2,1.3s0.1,0.9,0.2,1.3c0.1,0.4,0.3,0.7,0.5,1s0.4,0.5,0.7,0.7
			C456,180.2,456.3,180.3,456.6,180.3z"/>
		<path class="st7" d="M466,181l-1.9-3.3h-1.4v3.3h-1v-7.9h2.5c0.4,0,0.8,0,1.1,0.1s0.6,0.2,0.9,0.4s0.4,0.4,0.6,0.7
			c0.1,0.3,0.2,0.6,0.2,1c0,0.6-0.2,1.1-0.5,1.5s-0.7,0.6-1.3,0.8l2,3.4H466z M462.7,176.9h1.3c0.6,0,1.1-0.1,1.4-0.4
			s0.5-0.6,0.5-1.1s-0.2-0.9-0.5-1.1s-0.8-0.3-1.4-0.3h-1.3V176.9z"/>
		<path class="st7" d="M468.7,173.1h1v7.9h-1V173.1z"/>
		<path class="st7" d="M475.4,178.6h-2.9l-0.8,2.4h-1l2.7-7.9h1.1l2.7,7.9h-1.1L475.4,178.6z M475.2,177.8l-0.4-1.2
			c-0.1-0.4-0.3-0.9-0.4-1.3c-0.1-0.4-0.3-0.9-0.4-1.3l0,0c-0.1,0.5-0.2,0.9-0.4,1.3c-0.1,0.4-0.3,0.9-0.4,1.3l-0.4,1.2H475.2z"/>
		<path class="st7" d="M478.4,179.3c0.3,0.3,0.6,0.5,1,0.7s0.8,0.3,1.2,0.3c0.5,0,0.9-0.1,1.2-0.4c0.3-0.2,0.4-0.5,0.4-0.9
			c0-0.2,0-0.4-0.1-0.5s-0.2-0.3-0.3-0.4c-0.1-0.1-0.3-0.2-0.4-0.3s-0.3-0.2-0.5-0.3l-1.1-0.5c-0.2-0.1-0.4-0.2-0.6-0.3
			s-0.4-0.2-0.5-0.4s-0.3-0.4-0.4-0.6c-0.1-0.2-0.1-0.5-0.1-0.8s0.1-0.6,0.2-0.8c0.1-0.3,0.3-0.5,0.5-0.7s0.5-0.3,0.8-0.4
			c0.3-0.1,0.6-0.2,1-0.2c0.5,0,0.9,0.1,1.3,0.3s0.7,0.4,1,0.7l-0.5,0.6c-0.2-0.2-0.5-0.4-0.8-0.5s-0.6-0.2-1-0.2s-0.8,0.1-1.1,0.3
			s-0.4,0.5-0.4,0.8c0,0.2,0,0.4,0.1,0.5s0.2,0.2,0.3,0.3c0.1,0.1,0.3,0.2,0.4,0.3s0.3,0.1,0.5,0.2l1.1,0.5c0.2,0.1,0.4,0.2,0.6,0.3
			s0.4,0.3,0.5,0.4c0.1,0.2,0.3,0.4,0.3,0.6c0.1,0.2,0.1,0.5,0.1,0.8s-0.1,0.6-0.2,0.9c-0.1,0.3-0.3,0.5-0.5,0.7s-0.5,0.4-0.8,0.5
			s-0.7,0.2-1.1,0.2c-0.6,0-1.1-0.1-1.5-0.3c-0.5-0.2-0.9-0.5-1.2-0.9L478.4,179.3z"/>
	</g>
</g>
<g>
	<g class="st6">
		<path class="st7" d="M518.4,181l-1.9-3.3h-1.4v3.3h-1v-7.9h2.5c0.4,0,0.8,0,1.1,0.1s0.6,0.2,0.9,0.4s0.4,0.4,0.6,0.7
			c0.1,0.3,0.2,0.6,0.2,1c0,0.6-0.2,1.1-0.5,1.5s-0.7,0.6-1.3,0.8l2,3.4H518.4z M515.1,176.9h1.3c0.6,0,1.1-0.1,1.4-0.4
			s0.5-0.6,0.5-1.1s-0.2-0.9-0.5-1.1s-0.8-0.3-1.4-0.3h-1.3V176.9z"/>
	</g>
	<g class="st6">
		<path class="st7" d="M524.6,178.6h-2.9L521,181h-1l2.7-7.9h1.1l2.7,7.9h-1.1L524.6,178.6z M524.3,177.8l-0.4-1.2
			c-0.1-0.4-0.3-0.9-0.4-1.3c-0.1-0.4-0.3-0.9-0.4-1.3l0,0c-0.1,0.5-0.2,0.9-0.4,1.3c-0.1,0.4-0.3,0.9-0.4,1.3l-0.4,1.2H524.3z"/>
		<path class="st7" d="M527.5,173.1h1l2.8,4.9l0.9,1.6l0,0c0-0.4,0-0.8-0.1-1.2s0-0.8,0-1.3V173h0.9v7.9h-1l-2.9-5l-0.9-1.6l0,0
			c0,0.4,0.1,0.8,0.1,1.2s0,0.8,0,1.2v4.1h-0.9v-7.7H527.5z"/>
		<path class="st7" d="M535.3,173.1h1v3.9l0,0l3.3-3.9h1.1l-2.5,3l2.8,4.9h-1l-2.4-4.1l-1.4,1.6v2.5h-1v-7.9H535.3z"/>
		<path class="st7" d="M542.2,173.1h1v7.9h-1V173.1z"/>
		<path class="st7" d="M545.4,173.1h1l2.8,4.9l0.9,1.6l0,0c0-0.4,0-0.8-0.1-1.2c0-0.4,0-0.8,0-1.3V173h0.9v7.9h-1l-2.9-5l-0.9-1.6
			l0,0c0,0.4,0.1,0.8,0.1,1.2s0,0.8,0,1.2v4.1h-0.9v-7.7H545.4z"/>
		<path class="st7" d="M552.7,177.1c0-0.6,0.1-1.2,0.3-1.7s0.4-0.9,0.8-1.3c0.3-0.4,0.7-0.6,1.1-0.8c0.4-0.2,0.9-0.3,1.5-0.3
			c0.5,0,1,0.1,1.4,0.3s0.7,0.4,0.9,0.7l-0.6,0.6c-0.2-0.2-0.4-0.4-0.7-0.5s-0.6-0.2-1-0.2s-0.8,0.1-1.1,0.2s-0.6,0.4-0.8,0.6
			c-0.2,0.3-0.4,0.6-0.5,1s-0.2,0.8-0.2,1.3s0.1,0.9,0.2,1.3c0.1,0.4,0.3,0.7,0.5,1s0.5,0.5,0.8,0.6c0.3,0.2,0.7,0.2,1.1,0.2
			c0.3,0,0.5,0,0.8-0.1s0.5-0.2,0.6-0.3v-2.1h-1.7v-0.8h2.6v3.3c-0.3,0.3-0.6,0.5-1,0.7s-0.9,0.3-1.4,0.3s-1-0.1-1.4-0.3
			s-0.8-0.5-1.1-0.8s-0.6-0.8-0.7-1.3S552.7,177.7,552.7,177.1z"/>
		<path class="st7" d="M560.6,179.3c0.3,0.3,0.6,0.5,1,0.7s0.8,0.3,1.2,0.3c0.5,0,0.9-0.1,1.2-0.4c0.3-0.2,0.4-0.5,0.4-0.9
			c0-0.2,0-0.4-0.1-0.5s-0.2-0.3-0.3-0.4c-0.1-0.1-0.3-0.2-0.4-0.3s-0.3-0.2-0.5-0.3L562,177c-0.2-0.1-0.4-0.2-0.6-0.3
			c-0.2-0.1-0.4-0.2-0.5-0.4c-0.2-0.2-0.3-0.4-0.4-0.6c-0.1-0.2-0.1-0.5-0.1-0.8s0.1-0.6,0.2-0.8c0.1-0.3,0.3-0.5,0.5-0.7
			s0.5-0.3,0.8-0.4c0.3-0.1,0.6-0.2,1-0.2c0.5,0,0.9,0.1,1.3,0.3c0.4,0.2,0.7,0.4,1,0.7l-0.5,0.6c-0.2-0.2-0.5-0.4-0.8-0.5
			s-0.6-0.2-1-0.2s-0.8,0.1-1.1,0.3s-0.4,0.5-0.4,0.8c0,0.2,0,0.4,0.1,0.5s0.2,0.2,0.3,0.3s0.3,0.2,0.4,0.3c0.2,0.1,0.3,0.1,0.5,0.2
			l1.1,0.5c0.2,0.1,0.4,0.2,0.6,0.3c0.2,0.1,0.4,0.3,0.5,0.4c0.1,0.2,0.3,0.4,0.3,0.6c0.1,0.2,0.1,0.5,0.1,0.8s-0.1,0.6-0.2,0.9
			c-0.1,0.3-0.3,0.5-0.5,0.7s-0.5,0.4-0.8,0.5s-0.7,0.2-1.1,0.2c-0.6,0-1.1-0.1-1.5-0.3s-0.9-0.5-1.2-0.9L560.6,179.3z"/>
	</g>
</g>
<g>
	<g>
		<g>
			<g>
				<g>
					<g>
						<g>
							<g>
								<defs>
									<path id="SVGID_31_" d="M145.4,17.9c-0.3,0.4-0.4,1-0.4,1.8s0.1,1.4,0.4,1.8c0.3,0.4,0.7,0.5,1.2,0.5s1-0.2,1.2-0.5
										c0.3-0.4,0.4-1,0.4-1.8s-0.1-1.4-0.4-1.8c-0.3-0.4-0.7-0.5-1.2-0.5S145.7,17.5,145.4,17.9z M149.8,16.6
										c0.8,0.7,1.2,1.7,1.2,3.1c0,1.3-0.4,2.3-1.2,3.1c-0.8,0.7-1.8,1.1-3.2,1.1s-2.5-0.4-3.2-1.1c-0.8-0.7-1.2-1.7-1.2-3.1
										c0-1.3,0.4-2.3,1.2-3.1s1.8-1.1,3.2-1.1S149.1,15.8,149.8,16.6z M141.8,23.1c-0.3,0.2-0.6,0.3-1.1,0.5
										c-0.4,0.1-0.9,0.2-1.3,0.2c-1,0-1.8-0.2-2.3-0.6s-0.8-1.1-0.8-2v-3.8h-1.4v-2h1.4v-1.9l2.9-0.8v2.6h2.5v2h-2.5v3.3
										c0,0.7,0.4,1.1,1.1,1.1c0.5,0,0.9-0.1,1.2-0.4L141.8,23.1z M134.8,15.6l-0.3,2.3c-0.1-0.1-0.3-0.1-0.4-0.2
										c-0.2,0-0.4-0.1-0.6-0.1c-0.5,0-1,0.2-1.3,0.5c-0.4,0.3-0.5,0.8-0.5,1.4v4.1h-2.8v-8.1h2.5l0.1,1.8
										c0.2-0.6,0.5-1.1,0.9-1.4c0.4-0.3,1-0.5,1.6-0.5C134.3,15.5,134.6,15.5,134.8,15.6z M121.4,18.7h3.2
										c-0.1-0.9-0.7-1.4-1.6-1.4C122.2,17.3,121.6,17.8,121.4,18.7z M126.9,20.4h-5.5c0.1,0.5,0.3,0.9,0.6,1.1
										c0.3,0.2,0.7,0.4,1.1,0.4s0.7-0.1,1-0.2s0.4-0.4,0.5-0.7l2.2,0.7c-0.2,0.7-0.7,1.2-1.3,1.6c-0.7,0.4-1.5,0.5-2.4,0.5
										c-1.4,0-2.5-0.4-3.3-1.1s-1.1-1.7-1.1-3.1c0-1.3,0.4-2.3,1.1-3.1c0.7-0.7,1.8-1.1,3.1-1.1c1.3,0,2.3,0.4,3,1.1s1,1.7,1,3
										C127,19.9,127,20.2,126.9,20.4z M116.8,23.8H114v-8.3h2.8V23.8z M114.4,14.2c-0.3-0.2-0.4-0.6-0.4-1c0-0.5,0.1-0.8,0.4-1.1
										c0.3-0.2,0.7-0.3,1.2-0.3c0.6,0,1,0.1,1.2,0.3c0.3,0.2,0.4,0.6,0.4,1.1s-0.1,0.8-0.4,1s-0.7,0.3-1.2,0.3
										S114.7,14.4,114.4,14.2z M109.5,21.4c0.3-0.4,0.4-1,0.4-1.7c0-0.8-0.1-1.4-0.4-1.7c-0.3-0.4-0.7-0.6-1.2-0.6
										s-0.9,0.2-1.2,0.6c-0.3,0.4-0.4,0.9-0.4,1.6v0.2c0,0.7,0.1,1.3,0.4,1.7c0.3,0.4,0.7,0.6,1.2,0.6
										C108.8,21.9,109.2,21.7,109.5,21.4z M111.7,16.3c0.6,0.8,0.9,1.8,0.9,3.2c0,1.4-0.3,2.4-0.9,3.2c-0.6,0.8-1.4,1.1-2.5,1.1
										c-0.7,0-1.2-0.2-1.7-0.5s-0.8-0.8-1.1-1.4l-0.1,1.8h-2.5V11.8h2.8v4.9c0.2-0.5,0.6-0.9,1-1.1c0.4-0.3,0.9-0.4,1.5-0.4
										C110.3,15.1,111.1,15.5,111.7,16.3z M96.9,17.9c-0.3,0.4-0.4,1-0.4,1.8s0.1,1.4,0.4,1.8s0.7,0.5,1.2,0.5
										c0.6,0,1-0.2,1.2-0.5c0.3-0.4,0.4-1,0.4-1.8s-0.1-1.4-0.4-1.8s-0.7-0.5-1.2-0.5C97.6,17.3,97.2,17.5,96.9,17.9z
										 M101.3,16.6c0.8,0.7,1.2,1.7,1.2,3.1c0,1.3-0.4,2.3-1.2,3.1c-0.8,0.7-1.8,1.1-3.2,1.1s-2.5-0.4-3.2-1.1
										c-0.8-0.7-1.2-1.7-1.2-3.1c0-1.3,0.4-2.3,1.2-3.1s1.8-1.1,3.2-1.1S100.6,15.8,101.3,16.6z M91.9,17.8v5.8h-2l-0.1-1.3
										c-0.6,1-1.7,1.4-3.1,1.4c-1,0-1.9-0.2-2.6-0.6c-0.8-0.4-1.4-1.1-1.8-1.9s-0.6-1.8-0.6-3s0.2-2.1,0.7-3
										c0.4-0.8,1.1-1.5,1.9-1.9s1.8-0.7,2.9-0.7c1.2,0,2.2,0.2,3,0.7c0.8,0.4,1.3,1.1,1.8,2.1l-2.6,1c-0.1-0.5-0.4-0.9-0.7-1.2
										c-0.4-0.3-0.8-0.4-1.3-0.4c-0.8,0-1.5,0.3-1.9,0.8c-0.4,0.6-0.7,1.4-0.7,2.5c0,2.3,0.9,3.4,2.7,3.4c0.7,0,1.2-0.2,1.6-0.5
										s0.6-0.7,0.6-1.3v-0.2H87v-1.9h4.9V17.8z"/>
								</defs>
								<clipPath id="SVGID_32_">
									<use xlink:href="#SVGID_31_"  style="overflow:visible;"/>
								</clipPath>
								<rect x="76.7" y="6.8" class="st20" width="79.3" height="22"/>
							</g>
						</g>
					</g>
				</g>
			</g>
		</g>
	</g>
</g>
<g>
	<path class="st21" d="M64.1,20.9c-1.6,0-2.9-1.3-2.9-2.9s1.3-2.9,2.9-2.9h5.7c1.6,0,2.9,1.3,2.9,2.9s-1.3,2.9-2.9,2.9H64.1z"/>
	<path class="st22" d="M75.2,21.5c0.8,1.4,0.3,3.1-1.1,3.9s-3.1,0.3-3.9-1.1l-2.9-5c-0.8-1.4-0.3-3.1,1.1-3.9
		c1.4-0.8,3.1-0.3,3.9,1.1L75.2,21.5z"/>
	<path class="st23" d="M70.2,11.6c0.8-1.4,2.5-1.8,3.9-1.1c1.4,0.8,1.8,2.5,1.1,3.9l-2.9,5c-0.8,1.4-2.5,1.8-3.9,1.1
		c-1.4-0.8-1.8-2.5-1.1-3.9L70.2,11.6z"/>
	<circle class="st24" cx="69.8" cy="18" r="2.9"/>
</g>
</svg>
