<?xml version="1.0" encoding="utf-8"?>
<!-- Generator: Adobe Illustrator 21.0.0, SVG Export Plug-In . SVG Version: 6.00 Build 0)  -->
<svg version="1.1" id="Layer_1" xmlns="http://www.w3.org/2000/svg" xmlns:xlink="http://www.w3.org/1999/xlink" x="0px" y="0px"
	 viewBox="0 0 1024 787" style="enable-background:new 0 0 1024 787;" xml:space="preserve">
<style type="text/css">
	.st0{clip-path:url(#SVGID_2_);fill:#179FAC;}
	.st1{clip-path:url(#SVGID_4_);fill:#118593;}
	.st2{opacity:0.5;clip-path:url(#SVGID_6_);fill:#FFFFFF;}
	.st3{opacity:0.4;clip-path:url(#SVGID_8_);fill:#FFFFFF;}
	.st4{clip-path:url(#SVGID_10_);fill:#FFFFFF;}
	.st5{fill:#FFFFFF;}
	.st6{font-family:'SourceSansPro-Bold';}
	.st7{font-size:28.5718px;}
	.st8{font-family:'SourceSansPro-Regular';}
	.st9{clip-path:url(#SVGID_14_);fill-rule:evenodd;clip-rule:evenodd;fill:#FFFFFF;}
	.st10{clip-path:url(#SVGID_16_);fill:#F2F9FA;}
	.st11{clip-path:url(#SVGID_18_);fill:#F2F9FA;}
	.st12{clip-path:url(#SVGID_20_);fill:#118593;}
	.st13{clip-path:url(#SVGID_24_);fill-rule:evenodd;clip-rule:evenodd;fill:#FFFFFF;}
	.st14{clip-path:url(#SVGID_26_);fill:#F2F9FA;}
	.st15{clip-path:url(#SVGID_28_);fill:#932711;}
	.st16{clip-path:url(#SVGID_30_);fill:#F2F9FA;}
	.st17{clip-path:url(#SVGID_32_);fill:#F2F9FA;}
	.st18{clip-path:url(#SVGID_34_);fill:#F2F9FA;}
	.st19{clip-path:url(#SVGID_36_);fill:#F2F9FA;}
	.st20{clip-path:url(#SVGID_38_);fill:#F2F9FA;}
	.st21{font-size:15px;}
	.st22{font-size:30.8809px;}
	.st23{clip-path:url(#SVGID_42_);fill-rule:evenodd;clip-rule:evenodd;fill:#FFFFFF;}
	.st24{clip-path:url(#SVGID_44_);fill:#F2F9FA;}
	.st25{opacity:0.5;}
	.st26{font-size:12px;}
	.st27{opacity:0.6;fill:#FFFFFF;}
	.st28{opacity:0.6;}
	.st29{letter-spacing:-1;}
	.st30{clip-path:url(#SVGID_46_);}
	.st31{clip-path:url(#SVGID_48_);fill:#F8B206;}
	.st32{clip-path:url(#SVGID_50_);}
	.st33{clip-path:url(#SVGID_52_);fill:#F69C95;}
	.st34{clip-path:url(#SVGID_54_);}
	.st35{clip-path:url(#SVGID_56_);fill:#008E9C;}
	.st36{clip-path:url(#SVGID_58_);}
	.st37{clip-path:url(#SVGID_60_);fill:#FEF1D6;}
	.st38{clip-path:url(#SVGID_62_);fill:#00909E;}
</style>
<g>
	<g>
		<defs>
			<rect id="SVGID_1_" y="36" width="1024" height="122.5"/>
		</defs>
		<clipPath id="SVGID_2_">
			<use xlink:href="#SVGID_1_"  style="overflow:visible;"/>
		</clipPath>
		<rect x="-5" y="31" class="st0" width="1034" height="132.5"/>
	</g>
	<g>
		<defs>
			<rect id="SVGID_3_" y="158" width="1024" height="36"/>
		</defs>
		<clipPath id="SVGID_4_">
			<use xlink:href="#SVGID_3_"  style="overflow:visible;"/>
		</clipPath>
		<rect x="-5" y="153" class="st1" width="1034" height="46"/>
	</g>
	<g>
		<defs>
			<rect id="SVGID_5_" x="60" y="190" width="48" height="4"/>
		</defs>
		<clipPath id="SVGID_6_">
			<use xlink:href="#SVGID_5_"  style="overflow:visible;"/>
		</clipPath>
		<rect x="55" y="185" class="st2" width="58" height="14"/>
	</g>
	<g>
		<defs>
			<rect id="SVGID_7_" width="1024" height="36"/>
		</defs>
		<clipPath id="SVGID_8_">
			<use xlink:href="#SVGID_7_"  style="overflow:visible;"/>
		</clipPath>
		<rect x="-5" y="-5" class="st3" width="1034" height="46"/>
	</g>
	<g>
		<defs>
			<rect id="SVGID_9_" y="194" width="1024" height="593"/>
		</defs>
		<clipPath id="SVGID_10_">
			<use xlink:href="#SVGID_9_"  style="overflow:visible;"/>
		</clipPath>
		<rect x="-5" y="189" class="st4" width="1034" height="603"/>
	</g>
	<text transform="matrix(1 0 0 1 60 123)" class="st5 st6 st7">T</text>
	<text transform="matrix(1 0 0 1 73.4858 123)" class="st5 st6 st7">u ayun</text>
	<text transform="matrix(1 0 0 1 158.3726 123)" class="st5 st6 st7">t</text>
	<text transform="matrix(1 0 0 1 168.6299 123)" class="st5 st6 st7">amien</text>
	<text transform="matrix(1 0 0 1 247.4023 123)" class="st5 st6 st7">t</text>
	<text transform="matrix(1 0 0 1 257.7739 123)" class="st5 st6 st7">o</text>
	<text transform="matrix(1 0 0 1 282.001 122.609)" class="st5 st8 st7">/ P</text>
	<text transform="matrix(1 0 0 1 314.23 122.609)" class="st5 st8 st7">r</text>
	<text transform="matrix(1 0 0 1 323.5728 122.609)" class="st5 st8 st7">esupues</text>
	<text transform="matrix(1 0 0 1 422.8027 122.609)" class="st5 st8 st7">t</text>
	<text transform="matrix(1 0 0 1 431.8887 122.609)" class="st5 st8 st7">os</text>
	<g>
		<defs>
			<rect id="SVGID_11_" x="87" y="230" width="254" height="124"/>
		</defs>
		<clipPath id="SVGID_12_">
			<use xlink:href="#SVGID_11_"  style="overflow:visible;"/>
		</clipPath>
		<g style="clip-path:url(#SVGID_12_);">
			
				<image style="overflow:visible;" width="254" height="124" xlink:href="C49690AAB49AECF2.png"  transform="matrix(1 0 0 1 87 230)">
			</image>
		</g>
	</g>
	<g>
		<defs>
			<rect id="SVGID_13_" x="80" y="222" width="269" height="141"/>
		</defs>
		<clipPath id="SVGID_14_">
			<use xlink:href="#SVGID_13_"  style="overflow:visible;"/>
		</clipPath>
		<rect x="-450" y="230" class="st9" width="251" height="122"/>
	</g>
	<g>
		<defs>
			<rect id="SVGID_15_" x="88" y="230" width="251" height="122"/>
		</defs>
		<clipPath id="SVGID_16_">
			<use xlink:href="#SVGID_15_"  style="overflow:visible;"/>
		</clipPath>
		<rect x="83" y="225" class="st10" width="261" height="132"/>
	</g>
	<g>
		<defs>
			<rect id="SVGID_17_" x="88" y="407" width="251" height="122"/>
		</defs>
		<clipPath id="SVGID_18_">
			<use xlink:href="#SVGID_17_"  style="overflow:visible;"/>
		</clipPath>
		<rect x="83" y="402" class="st11" width="261" height="132"/>
	</g>
	<g>
		<defs>
			<polygon id="SVGID_19_" points="273.5,254 277,261 270,261 			"/>
		</defs>
		<clipPath id="SVGID_20_">
			<use xlink:href="#SVGID_19_"  style="overflow:visible;"/>
		</clipPath>
		<rect x="265" y="249" class="st12" width="17" height="17"/>
	</g>
	<g>
		<defs>
			<rect id="SVGID_21_" x="387" y="230" width="253" height="124"/>
		</defs>
		<clipPath id="SVGID_22_">
			<use xlink:href="#SVGID_21_"  style="overflow:visible;"/>
		</clipPath>
		<g style="clip-path:url(#SVGID_22_);">
			
				<image style="overflow:visible;" width="253" height="124" xlink:href="C49690AAB49AECF7.png"  transform="matrix(1 0 0 1 387 230)">
			</image>
		</g>
	</g>
	<g>
		<defs>
			<rect id="SVGID_23_" x="380" y="222" width="269" height="141"/>
		</defs>
		<clipPath id="SVGID_24_">
			<use xlink:href="#SVGID_23_"  style="overflow:visible;"/>
		</clipPath>
		<rect x="-150" y="230" class="st13" width="251" height="122"/>
	</g>
	<g>
		<defs>
			<rect id="SVGID_25_" x="388" y="230" width="251" height="122"/>
		</defs>
		<clipPath id="SVGID_26_">
			<use xlink:href="#SVGID_25_"  style="overflow:visible;"/>
		</clipPath>
		<rect x="383" y="225" class="st14" width="261" height="132"/>
	</g>
	<g>
		<defs>
			<polygon id="SVGID_27_" points="566.5,262 570,255 563,255 			"/>
		</defs>
		<clipPath id="SVGID_28_">
			<use xlink:href="#SVGID_27_"  style="overflow:visible;"/>
		</clipPath>
		<rect x="558" y="250" class="st15" width="17" height="17"/>
	</g>
	<g>
		<defs>
			<rect id="SVGID_29_" x="387" y="407" width="251" height="122"/>
		</defs>
		<clipPath id="SVGID_30_">
			<use xlink:href="#SVGID_29_"  style="overflow:visible;"/>
		</clipPath>
		<rect x="382" y="402" class="st16" width="261" height="132"/>
	</g>
	<g>
		<defs>
			<rect id="SVGID_31_" x="686" y="407" width="251" height="122"/>
		</defs>
		<clipPath id="SVGID_32_">
			<use xlink:href="#SVGID_31_"  style="overflow:visible;"/>
		</clipPath>
		<rect x="681" y="402" class="st17" width="261" height="132"/>
	</g>
	<g>
		<defs>
			<rect id="SVGID_33_" x="88.5" y="584" width="251" height="122"/>
		</defs>
		<clipPath id="SVGID_34_">
			<use xlink:href="#SVGID_33_"  style="overflow:visible;"/>
		</clipPath>
		<rect x="83.5" y="579" class="st18" width="261" height="132"/>
	</g>
	<g>
		<defs>
			<rect id="SVGID_35_" x="387.5" y="584" width="251" height="122"/>
		</defs>
		<clipPath id="SVGID_36_">
			<use xlink:href="#SVGID_35_"  style="overflow:visible;"/>
		</clipPath>
		<rect x="382.5" y="579" class="st19" width="261" height="132"/>
	</g>
	<g>
		<defs>
			<rect id="SVGID_37_" x="686.5" y="584" width="251" height="122"/>
		</defs>
		<clipPath id="SVGID_38_">
			<use xlink:href="#SVGID_37_"  style="overflow:visible;"/>
		</clipPath>
		<rect x="681.5" y="579" class="st20" width="261" height="132"/>
	</g>
	<text transform="matrix(1 0 0 1 110 262.0866)" class="st8 st21">Gas</text>
	<text transform="matrix(1 0 0 1 133.2202 262.0866)" class="st8 st21">t</text>
	<text transform="matrix(1 0 0 1 137.9902 262.0866)" class="st8 st21">o por habi</text>
	<text transform="matrix(1 0 0 1 201.6948 262.0866)" class="st8 st21">t</text>
	<text transform="matrix(1 0 0 1 206.2251 262.0866)" class="st8 st21">an</text>
	<text transform="matrix(1 0 0 1 222.1099 262.0866)" class="st8 st21">t</text>
	<text transform="matrix(1 0 0 1 226.8799 262.0866)" class="st8 st21">e</text>
	<text transform="matrix(1 0 0 1 112.291 314.2085)" class="st8 st22">1.081</text>
	<path d="M196.5,311.7c-0.7,0.9-1.5,1.6-2.3,2.1c-0.9,0.5-1.9,0.8-3,0.8c-0.9,0-1.8-0.2-2.6-0.5c-0.8-0.3-1.5-0.8-2.1-1.5
		c-0.6-0.7-1.1-1.5-1.6-2.4c-0.4-0.9-0.7-2-0.9-3.2h-2v-1.3l1.8-0.1c0-0.2,0-0.4,0-0.6c0-0.2,0-0.4,0-0.6c0-0.2,0-0.3,0-0.5
		c0-0.2,0-0.3,0-0.5h-1.8V302l2-0.2c0.2-1.2,0.5-2.3,0.9-3.3s1-1.8,1.6-2.4c0.6-0.7,1.4-1.2,2.3-1.5c0.9-0.3,1.8-0.5,2.8-0.5
		c0.9,0,1.8,0.2,2.6,0.7c0.8,0.5,1.5,1,2,1.7l-1.5,1.5c-0.4-0.5-0.9-1-1.4-1.3c-0.5-0.3-1.1-0.5-1.8-0.5c-1.4,0-2.5,0.5-3.3,1.5
		c-0.8,1-1.4,2.4-1.6,4.2h7.8v1.5h-8c0,0.1,0,0.3,0,0.4c0,0.1,0,0.3,0,0.5c0,0.2,0,0.4,0,0.6c0,0.2,0,0.4,0,0.6h6.7v1.5h-6.6
		c0.3,1.8,0.8,3.1,1.6,4.1c0.8,1,1.8,1.5,3.1,1.5c0.8,0,1.4-0.2,2-0.6c0.6-0.4,1.1-0.9,1.7-1.6L196.5,311.7z"/>
	<text transform="matrix(1 0 0 1 282.2256 262.113)" class="st8 st21">1,54%</text>
	<text transform="matrix(1 0 0 1 407 262.0866)" class="st8 st21">Gas</text>
	<text transform="matrix(1 0 0 1 430.2202 262.0866)" class="st8 st21">t</text>
	<text transform="matrix(1 0 0 1 434.9902 262.0866)" class="st8 st21">o </text>
	<text transform="matrix(1 0 0 1 446.1499 262.0866)" class="st8 st21">t</text>
	<text transform="matrix(1 0 0 1 450.9199 262.0866)" class="st8 st21">o</text>
	<text transform="matrix(1 0 0 1 459.0498 262.0866)" class="st8 st21">t</text>
	<text transform="matrix(1 0 0 1 463.5801 262.0866)" class="st8 st21">al</text>
	<g>
		<defs>
			<rect id="SVGID_39_" x="686" y="230" width="253" height="124"/>
		</defs>
		<clipPath id="SVGID_40_">
			<use xlink:href="#SVGID_39_"  style="overflow:visible;"/>
		</clipPath>
		<g style="clip-path:url(#SVGID_40_);">
			
				<image style="overflow:visible;" width="253" height="124" xlink:href="C49690AAB49AECE9.png"  transform="matrix(1 0 0 1 686 230)">
			</image>
		</g>
	</g>
	<g>
		<defs>
			<rect id="SVGID_41_" x="679" y="222" width="269" height="141"/>
		</defs>
		<clipPath id="SVGID_42_">
			<use xlink:href="#SVGID_41_"  style="overflow:visible;"/>
		</clipPath>
		<rect x="149" y="230" class="st23" width="251" height="122"/>
	</g>
	<g>
		<defs>
			<rect id="SVGID_43_" x="687" y="230" width="251" height="122"/>
		</defs>
		<clipPath id="SVGID_44_">
			<use xlink:href="#SVGID_43_"  style="overflow:visible;"/>
		</clipPath>
		<rect x="682" y="225" class="st24" width="261" height="132"/>
	</g>
	<text transform="matrix(1 0 0 1 409.291 314.2085)" class="st8 st22">926.929</text>
	<path d="M524.2,311.7c-0.7,0.9-1.5,1.6-2.3,2.1c-0.9,0.5-1.9,0.8-3,0.8c-0.9,0-1.8-0.2-2.6-0.5c-0.8-0.3-1.5-0.8-2.1-1.5
		c-0.6-0.7-1.1-1.5-1.6-2.4c-0.4-0.9-0.7-2-0.9-3.2h-2v-1.3l1.8-0.1c0-0.2,0-0.4,0-0.6c0-0.2,0-0.4,0-0.6c0-0.2,0-0.3,0-0.5
		c0-0.2,0-0.3,0-0.5h-1.8V302l2-0.2c0.2-1.2,0.5-2.3,0.9-3.3s1-1.8,1.6-2.4c0.6-0.7,1.4-1.2,2.3-1.5c0.9-0.3,1.8-0.5,2.8-0.5
		c0.9,0,1.8,0.2,2.6,0.7c0.8,0.5,1.5,1,2,1.7l-1.5,1.5c-0.4-0.5-0.9-1-1.4-1.3c-0.5-0.3-1.1-0.5-1.8-0.5c-1.4,0-2.5,0.5-3.3,1.5
		c-0.8,1-1.4,2.4-1.6,4.2h7.8v1.5h-8c0,0.1,0,0.3,0,0.4c0,0.1,0,0.3,0,0.5c0,0.2,0,0.4,0,0.6c0,0.2,0,0.4,0,0.6h6.7v1.5h-6.6
		c0.3,1.8,0.8,3.1,1.6,4.1c0.8,1,1.8,1.5,3.1,1.5c0.8,0,1.4-0.2,2-0.6c0.6-0.4,1.1-0.9,1.7-1.6L524.2,311.7z"/>
	<text transform="matrix(1 0 0 1 576.2256 262.113)" class="st8 st21">-6,38%</text>
	<text transform="matrix(1 0 0 1 704 262.0866)" class="st8 st21">Habi</text>
	<text transform="matrix(1 0 0 1 733.4751 262.0866)" class="st8 st21">t</text>
	<text transform="matrix(1 0 0 1 738.0049 262.0866)" class="st8 st21">an</text>
	<text transform="matrix(1 0 0 1 753.8901 262.0866)" class="st8 st21">t</text>
	<text transform="matrix(1 0 0 1 758.6602 262.0866)" class="st8 st21">es</text>
	<text transform="matrix(1 0 0 1 706.291 314.2085)" class="st8 st22">173.957</text>
	<g>
		<text transform="matrix(1 0 0 1 187 22.6748)" class="st25 st8 st26">MUNICIPIOS</text>
	</g>
	<g>
		<text transform="matrix(1 0 0 1 273 22.6748)" class="st25 st8 st26">C</text>
	</g>
	<g>
		<text transform="matrix(1 0 0 1 279.1558 22.6748)" class="st25"><tspan x="0" y="0" class="st8 st26">OM</tspan><tspan x="16.1" y="0" class="st8 st26">P</tspan><tspan x="22.2" y="0" class="st8 st26">A</tspan><tspan x="28.4" y="0" class="st8 st26">R</tspan><tspan x="35" y="0" class="st8 st26">A</tspan></text>
	</g>
	<g>
		<text transform="matrix(1 0 0 1 345 22.6748)" class="st25 st8 st26">R</text>
	</g>
	<g>
		<text transform="matrix(1 0 0 1 351.7319 22.6748)" class="st25"><tspan x="0" y="0" class="st8 st26">ANKIN</tspan><tspan x="31.7" y="0" class="st8 st26">G</tspan></text>
	</g>
	<g>
		<text transform="matrix(1 0 0 1 415 22.6748)" class="st25 st8 st26">SE</text>
	</g>
	<g>
		<text transform="matrix(1 0 0 1 427.7319 22.6748)" class="st25 st8 st26">R</text>
	</g>
	<g>
		<text transform="matrix(1 0 0 1 434.3335 22.6748)" class="st25 st8 st26">VICIOS</text>
	</g>
	<g>
		<text transform="matrix(1 0 0 1 929 22.6748)" class="st25"><tspan x="0" y="0" class="st6 st26">TU </tspan><tspan x="17.1" y="0" class="st6 st26">C</tspan><tspan x="23.9" y="0" class="st6 st26">UEN</tspan><tspan x="46.5" y="0" class="st6 st26">T</tspan><tspan x="52.7" y="0" class="st6 st26">A</tspan></text>
	</g>
	<g>
		<text transform="matrix(1 0 0 1 773 23)" class="st25"><tspan x="0" y="0" class="st8 st26">SIGU</tspan><tspan x="23.4" y="0" class="st8 st26">E </tspan><tspan x="31.4" y="0" class="st8 st26">A </tspan><tspan x="39.7" y="0" class="st8 st26">T</tspan><tspan x="45.8" y="0" class="st8 st26">U </tspan><tspan x="55.3" y="0" class="st8 st26">A</tspan><tspan x="61.3" y="0" class="st8 st26">Y</tspan><tspan x="66.5" y="0" class="st8 st26">UN</tspan><tspan x="81.4" y="0" class="st8 st26">T</tspan><tspan x="87" y="0" class="st8 st26">AMIEN</tspan><tspan x="117.8" y="0" class="st8 st26">T</tspan><tspan x="123.6" y="0" class="st8 st26">O</tspan></text>
	</g>
	<g>
		<text transform="matrix(1 0 0 1 59 180.6748)" class="st27 st8 st26">RESUMEN</text>
	</g>
	<g>
		<text transform="matrix(1 0 0 1 142 180.6748)" class="st27 st8 st26">PRESUPUE</text>
	</g>
	<g>
		<text transform="matrix(1 0 0 1 197.332 180.6748)" class="st27 st8 st26">S</text>
	</g>
	<g>
		<text transform="matrix(1 0 0 1 203.209 180.6748)" class="st27 st8 st26">T</text>
	</g>
	<g>
		<text transform="matrix(1 0 0 1 209.0073 180.6748)" class="st27 st8 st26">O</text>
	</g>
	<g>
		<text transform="matrix(1 0 0 1 249 180.6748)" class="st27 st8 st26">EJE</text>
	</g>
	<g>
		<text transform="matrix(1 0 0 1 267.4082 180.6748)" class="st27 st8 st26">C</text>
	</g>
	<g>
		<text transform="matrix(1 0 0 1 273.8892 180.6748)" class="st27 st8 st26">UCIÓN</text>
	</g>
	<g>
		<text transform="matrix(1 0 0 1 340 180.6748)" class="st27 st8 st26">C</text>
	</g>
	<g>
		<text transform="matrix(1 0 0 1 346.1558 180.6748)" class="st28"><tspan x="0" y="0" class="st5 st8 st26">ON</tspan><tspan x="15.2" y="0" class="st5 st8 st26">S</tspan><tspan x="21.3" y="0" class="st5 st8 st26">U</tspan><tspan x="28.8" y="0" class="st5 st8 st26 st29">L</tspan><tspan x="32.9" y="0" class="st5 st8 st26">T</tspan><tspan x="38.6" y="0" class="st5 st8 st26">A</tspan><tspan x="44.8" y="0" class="st5 st8 st26">S</tspan></text>
	</g>
	<g>
		<text transform="matrix(1 0 0 1 430 181)" class="st27 st8 st26">HI</text>
	</g>
	<g>
		<text transform="matrix(1 0 0 1 440.98 181)" class="st27 st8 st26">S</text>
	</g>
	<g>
		<text transform="matrix(1 0 0 1 446.8584 181)" class="st27 st8 st26">T</text>
	</g>
	<g>
		<text transform="matrix(1 0 0 1 452.6553 181)" class="st27 st8 st26">ORIAS</text>
	</g>
	<g>
		<text transform="matrix(1 0 0 1 513 181)" class="st28"><tspan x="0" y="0" class="st5 st8 st26">R</tspan><tspan x="6.9" y="0" class="st5 st8 st26">ANKINGS</tspan></text>
	</g>
	<g>
		<defs>
			<path id="SVGID_45_" d="M75,21.3c0.8,1.4,0.3,3.2-1.1,3.9c-1.4,0.8-3.2,0.3-4-1.1l-2.7-4.7c-0.8-1.4-0.3-3.2,1.1-3.9
				c1.4-0.8,3.2-0.3,4,1.1L75,21.3z"/>
		</defs>
		<clipPath id="SVGID_46_">
			<use xlink:href="#SVGID_45_"  style="overflow:visible;"/>
		</clipPath>
		<g class="st30">
			<defs>
				<rect id="SVGID_47_" x="60" y="9" width="18" height="18"/>
			</defs>
			<clipPath id="SVGID_48_">
				<use xlink:href="#SVGID_47_"  style="overflow:visible;"/>
			</clipPath>
			<rect x="61.9" y="10.1" transform="matrix(0.5 -0.866 0.866 0.5 17.9044 71.8072)" class="st31" width="18.5" height="20.5"/>
		</g>
	</g>
	<g>
		<defs>
			<path id="SVGID_49_" d="M72.3,19.6c-0.8,1.4-2.6,1.9-4,1.1c-1.4-0.8-1.9-2.6-1.1-4l2.7-4.7c0.8-1.4,2.6-1.9,4-1.1
				c1.4,0.8,1.9,2.6,1.1,4L72.3,19.6z"/>
		</defs>
		<clipPath id="SVGID_50_">
			<use xlink:href="#SVGID_49_"  style="overflow:visible;"/>
		</clipPath>
		<g class="st32">
			<defs>
				<rect id="SVGID_51_" x="60" y="9" width="18" height="18"/>
			</defs>
			<clipPath id="SVGID_52_">
				<use xlink:href="#SVGID_51_"  style="overflow:visible;"/>
			</clipPath>
			<rect x="60.6" y="7.9" transform="matrix(0.5 -0.866 0.866 0.5 21.9393 69.5451)" class="st33" width="21.3" height="15.8"/>
		</g>
	</g>
	<g>
		<defs>
			<path id="SVGID_53_" d="M64.4,21c-1.6,0-2.9-1.3-2.9-2.9c0-1.6,1.3-2.9,2.9-2.9l5.5,0c1.6,0,2.9,1.3,2.9,2.9
				c0,1.6-1.3,2.9-2.9,2.9L64.4,21z"/>
		</defs>
		<clipPath id="SVGID_54_">
			<use xlink:href="#SVGID_53_"  style="overflow:visible;"/>
		</clipPath>
		<g class="st34">
			<defs>
				<rect id="SVGID_55_" x="60" y="9" width="18" height="18"/>
			</defs>
			<clipPath id="SVGID_56_">
				<use xlink:href="#SVGID_55_"  style="overflow:visible;"/>
			</clipPath>
			<rect x="57.9" y="7.8" transform="matrix(0.5 -0.866 0.866 0.5 17.8929 67.2269)" class="st35" width="18.5" height="20.5"/>
		</g>
	</g>
	<g>
		<defs>
			<ellipse id="SVGID_57_" cx="69.8" cy="18" rx="3" ry="3"/>
		</defs>
		<clipPath id="SVGID_58_">
			<use xlink:href="#SVGID_57_"  style="overflow:visible;"/>
		</clipPath>
		<g class="st36">
			<defs>
				<rect id="SVGID_59_" x="60" y="9" width="18" height="18"/>
			</defs>
			<clipPath id="SVGID_60_">
				<use xlink:href="#SVGID_59_"  style="overflow:visible;"/>
			</clipPath>
			<rect x="61.8" y="10" class="st37" width="16.1" height="16"/>
		</g>
	</g>
	<g>
		<defs>
			<path id="SVGID_61_" d="M145.4,17.9c-0.3,0.4-0.4,1-0.4,1.8c0,0.8,0.1,1.4,0.4,1.8c0.3,0.4,0.7,0.5,1.2,0.5s1-0.2,1.2-0.5
				c0.3-0.4,0.4-1,0.4-1.8c0-0.8-0.1-1.4-0.4-1.8c-0.3-0.4-0.7-0.5-1.2-0.5S145.7,17.5,145.4,17.9z M149.8,16.6
				c0.8,0.7,1.2,1.7,1.2,3.1c0,1.3-0.4,2.3-1.2,3.1c-0.8,0.7-1.8,1.1-3.2,1.1c-1.4,0-2.5-0.4-3.2-1.1c-0.8-0.7-1.2-1.7-1.2-3.1
				c0-1.3,0.4-2.3,1.2-3.1s1.8-1.1,3.2-1.1C148,15.5,149.1,15.8,149.8,16.6z M141.8,23.1c-0.3,0.2-0.6,0.3-1.1,0.5
				c-0.4,0.1-0.9,0.2-1.3,0.2c-1,0-1.8-0.2-2.3-0.6c-0.5-0.4-0.8-1.1-0.8-2v-3.8h-1.4v-2h1.4v-1.9l2.9-0.8v2.6h2.5v2h-2.5v3.3
				c0,0.7,0.4,1.1,1.1,1.1c0.5,0,0.9-0.1,1.2-0.4L141.8,23.1z M134.8,15.6l-0.3,2.3c-0.1-0.1-0.3-0.1-0.4-0.2
				c-0.2,0-0.4-0.1-0.6-0.1c-0.5,0-1,0.2-1.3,0.5c-0.4,0.3-0.5,0.8-0.5,1.4v4.1h-2.8v-8.1h2.5l0.1,1.8c0.2-0.6,0.5-1.1,0.9-1.4
				c0.4-0.3,1-0.5,1.6-0.5C134.3,15.5,134.6,15.5,134.8,15.6z M121.4,18.7h3.2c-0.1-0.9-0.7-1.4-1.6-1.4
				C122.2,17.3,121.6,17.8,121.4,18.7z M126.9,20.4h-5.5c0.1,0.5,0.3,0.9,0.6,1.1c0.3,0.2,0.7,0.4,1.1,0.4c0.4,0,0.7-0.1,1-0.2
				s0.4-0.4,0.5-0.7l2.2,0.7c-0.2,0.7-0.7,1.2-1.3,1.6c-0.7,0.4-1.5,0.5-2.4,0.5c-1.4,0-2.5-0.4-3.3-1.1c-0.8-0.7-1.1-1.7-1.1-3.1
				c0-1.3,0.4-2.3,1.1-3.1c0.7-0.7,1.8-1.1,3.1-1.1c1.3,0,2.3,0.4,3,1.1s1,1.7,1,3C127,19.9,127,20.2,126.9,20.4z M116.8,23.8H114
				v-8.3h2.8V23.8z M114.4,14.2c-0.3-0.2-0.4-0.6-0.4-1c0-0.5,0.1-0.8,0.4-1.1c0.3-0.2,0.7-0.3,1.2-0.3c0.6,0,1,0.1,1.2,0.3
				c0.3,0.2,0.4,0.6,0.4,1.1c0,0.5-0.1,0.8-0.4,1c-0.3,0.2-0.7,0.3-1.2,0.3C115.1,14.5,114.7,14.4,114.4,14.2z M109.5,21.4
				c0.3-0.4,0.4-1,0.4-1.7c0-0.8-0.1-1.4-0.4-1.7c-0.3-0.4-0.7-0.6-1.2-0.6c-0.5,0-0.9,0.2-1.2,0.6c-0.3,0.4-0.4,0.9-0.4,1.6v0.2
				c0,0.7,0.1,1.3,0.4,1.7c0.3,0.4,0.7,0.6,1.2,0.6C108.8,21.9,109.2,21.7,109.5,21.4z M111.7,16.3c0.6,0.8,0.9,1.8,0.9,3.2
				c0,1.4-0.3,2.4-0.9,3.2c-0.6,0.8-1.4,1.1-2.5,1.1c-0.7,0-1.2-0.2-1.7-0.5c-0.5-0.3-0.8-0.8-1.1-1.4l-0.1,1.8h-2.5V11.8h2.8v4.9
				c0.2-0.5,0.6-0.9,1-1.1c0.4-0.3,0.9-0.4,1.5-0.4C110.3,15.1,111.1,15.5,111.7,16.3z M96.9,17.9c-0.3,0.4-0.4,1-0.4,1.8
				c0,0.8,0.1,1.4,0.4,1.8c0.3,0.4,0.7,0.5,1.2,0.5c0.6,0,1-0.2,1.2-0.5c0.3-0.4,0.4-1,0.4-1.8c0-0.8-0.1-1.4-0.4-1.8
				c-0.3-0.4-0.7-0.5-1.2-0.5C97.6,17.3,97.2,17.5,96.9,17.9z M101.3,16.6c0.8,0.7,1.2,1.7,1.2,3.1c0,1.3-0.4,2.3-1.2,3.1
				c-0.8,0.7-1.8,1.1-3.2,1.1s-2.5-0.4-3.2-1.1c-0.8-0.7-1.2-1.7-1.2-3.1c0-1.3,0.4-2.3,1.2-3.1s1.8-1.1,3.2-1.1
				S100.6,15.8,101.3,16.6z M91.9,17.8v5.8h-2l-0.1-1.3c-0.6,1-1.7,1.4-3.1,1.4c-1,0-1.9-0.2-2.6-0.6c-0.8-0.4-1.4-1.1-1.8-1.9
				c-0.4-0.8-0.6-1.8-0.6-3c0-1.2,0.2-2.1,0.7-3c0.4-0.8,1.1-1.5,1.9-1.9c0.8-0.4,1.8-0.7,2.9-0.7c1.2,0,2.2,0.2,3,0.7
				c0.8,0.4,1.3,1.1,1.8,2.1l-2.6,1c-0.1-0.5-0.4-0.9-0.7-1.2c-0.4-0.3-0.8-0.4-1.3-0.4c-0.8,0-1.5,0.3-1.9,0.8
				c-0.4,0.6-0.7,1.4-0.7,2.5c0,2.3,0.9,3.4,2.7,3.4c0.7,0,1.2-0.2,1.6-0.5c0.4-0.3,0.6-0.7,0.6-1.3v-0.2h-2.7v-1.9H91.9z"/>
		</defs>
		<clipPath id="SVGID_62_">
			<use xlink:href="#SVGID_61_"  style="overflow:visible;"/>
		</clipPath>
		<rect x="76.7" y="6.8" class="st38" width="79.3" height="22"/>
	</g>
</g>
</svg>
