<svg xmlns="http://www.w3.org/2000/svg" viewBox="0 0 1024 787"><defs><style>.cls-1{fill:#179fac;}.cls-2{fill:#118593;}.cls-3{fill:#ccc;}.cls-13,.cls-18,.cls-20,.cls-25,.cls-27,.cls-3,.cls-4{opacity:0.5;}.cls-10,.cls-27,.cls-4,.cls-5{fill:#fff;}.cls-10,.cls-5{font-size:28.57px;}.cls-17,.cls-5{font-family:SourceSansPro-Bold, Source Sans Pro;font-weight:700;}.cls-6{letter-spacing:-0.04em;}.cls-7{letter-spacing:-0.01em;}.cls-8{letter-spacing:-0.01em;}.cls-9{letter-spacing:0em;}.cls-10{opacity:0.7;}.cls-10,.cls-13,.cls-19,.cls-20,.cls-25,.cls-27{font-family:SourceSansPro-Regular, Source Sans Pro;}.cls-11{letter-spacing:0em;}.cls-12{fill:#f2f9fa;}.cls-13,.cls-19{font-size:15px;}.cls-14{letter-spacing:-0.01em;}.cls-15{letter-spacing:-0.02em;}.cls-16{letter-spacing:-0.01em;}.cls-17{font-size:30.88px;}.cls-20,.cls-25,.cls-27{font-size:14.47px;}.cls-21{letter-spacing:-0.03em;}.cls-22{letter-spacing:-0.05em;}.cls-23{letter-spacing:0em;}.cls-24,.cls-25{letter-spacing:-0.01em;}.cls-26{letter-spacing:-0.01em;}.cls-28{letter-spacing:-0.02em;}.cls-29{letter-spacing:-0.02em;}.cls-30{letter-spacing:-0.12em;}.cls-31{letter-spacing:-0.04em;}.cls-32{letter-spacing:-0.02em;}.cls-33{letter-spacing:0em;}</style></defs><title>Asset 3</title><g id="Layer_2" data-name="Layer 2"><g id="Layer_1-2" data-name="Layer 1"><rect class="cls-1" y="36" width="1024" height="122.5"/><rect class="cls-2" y="158" width="1024" height="36"/><rect class="cls-3" width="1024" height="36"/><rect class="cls-4" y="194" width="1024" height="593"/><text class="cls-5" transform="translate(60 129.52)"><tspan class="cls-6">T</tspan><tspan x="14.69" y="0">u ayun</tspan><tspan class="cls-7" x="99.57" y="0">t</tspan><tspan x="110.17" y="0">amien</tspan><tspan class="cls-8" x="188.94" y="0">t</tspan><tspan class="cls-9" x="199.6" y="0">o</tspan></text><text class="cls-10" transform="translate(282 129.52)">/ P<tspan class="cls-8" x="32.09" y="0">r</tspan><tspan class="cls-11" x="41.71" y="0">esupues</tspan><tspan class="cls-8" x="140.94" y="0">t</tspan><tspan x="150.31" y="0">os</tspan></text><rect class="cls-12" x="87.5" y="230" width="251" height="122"/><rect class="cls-12" x="386.5" y="230" width="251" height="122"/><rect class="cls-12" x="685.5" y="230" width="251" height="122"/><rect class="cls-12" x="88" y="407" width="251" height="122"/><rect class="cls-12" x="387" y="407" width="251" height="122"/><rect class="cls-12" x="686" y="407" width="251" height="122"/><rect class="cls-12" x="88.5" y="584" width="251" height="122"/><rect class="cls-12" x="387.5" y="584" width="251" height="122"/><rect class="cls-12" x="686.5" y="584" width="251" height="122"/><text class="cls-13" transform="translate(110 265.94)">Gas<tspan class="cls-14" x="23.14" y="0">t</tspan><tspan x="28.06" y="0">o por habi</tspan><tspan class="cls-15" x="91.77" y="0">t</tspan><tspan x="96.57" y="0">an</tspan><tspan class="cls-16" x="112.45" y="0">t</tspan><tspan x="117.37" y="0">e</tspan></text><text class="cls-17" transform="translate(112.29 323.03)">1.081€</text><g class="cls-18"><text class="cls-19" transform="translate(282.23 265.97)">1,54%</text></g><text class="cls-13" transform="translate(407 265.94)">Gas<tspan class="cls-14" x="23.14" y="0">t</tspan><tspan x="28.06" y="0">o </tspan><tspan class="cls-16" x="39.22" y="0">t</tspan><tspan x="44.14" y="0">o</tspan><tspan class="cls-15" x="52.27" y="0">t</tspan><tspan x="57.07" y="0">al</tspan></text><text class="cls-17" transform="translate(409.29 323.03)">926.929€</text><g class="cls-18"><text class="cls-19" transform="translate(576.23 265.97)">-6,38%</text></g><text class="cls-13" transform="translate(704 265.94)">Habi<tspan class="cls-15" x="29.4" y="0">t</tspan><tspan x="34.2" y="0">an</tspan><tspan class="cls-16" x="50.08" y="0">t</tspan><tspan x="55" y="0">es</tspan></text><text class="cls-17" transform="translate(706.29 323.03)">173.957</text><g class="cls-18"><text class="cls-19" transform="translate(872.23 265.97)">-1,14%</text></g><text class="cls-20" transform="translate(60 22.87)">MUNICIPIOS</text><text class="cls-20" transform="translate(176.87 22.87)"><tspan class="cls-21">C</tspan><tspan x="7.77" y="0">OM</tspan><tspan class="cls-22" x="27.76" y="0">P</tspan><tspan class="cls-23" x="35.3" y="0">A</tspan><tspan class="cls-24" x="43.08" y="0">R</tspan><tspan x="51.27" y="0">A</tspan></text><text class="cls-25" transform="translate(278.95 22.87)">R<tspan class="cls-23" x="8.19" y="0">ANKING</tspan></text><text class="cls-20" transform="translate(377.42 22.87)">SE<tspan class="cls-26" x="15.21" y="0">R</tspan><tspan x="23.34" y="0">VICIOS</tspan></text><text class="cls-27" transform="translate(59 180.87)">RESUMEN</text><text class="cls-27" transform="translate(152.77 180.87)">PRESUPUE<tspan class="cls-28" x="66.15" y="0">S</tspan><tspan class="cls-29" x="73.52" y="0">T</tspan><tspan x="80.86" y="0">O</tspan></text><text class="cls-27" transform="translate(276.83 180.87)">EJE<tspan class="cls-26" x="21.97" y="0">C</tspan><tspan x="29.96" y="0">UCIÓN</tspan></text><text class="cls-27" transform="translate(380.47 180.87)"><tspan class="cls-21">C</tspan><tspan x="7.77" y="0">ONSU</tspan><tspan class="cls-30" x="43.52" y="0">L</tspan><tspan class="cls-31" x="48.74" y="0">T</tspan><tspan class="cls-23" x="55.85" y="0">AS</tspan></text><text class="cls-27" transform="translate(485.42 180.87)">HI<tspan class="cls-28" x="13.1" y="0">S</tspan><tspan class="cls-32" x="20.46" y="0">T</tspan><tspan class="cls-33" x="27.8" y="0">ORIAS</tspan></text></g></g></svg>