<?xml version="1.0" encoding="utf-8"?>
<!-- Generator: Adobe Illustrator 21.0.0, SVG Export Plug-In . SVG Version: 6.00 Build 0)  -->
<svg version="1.1" id="Layer_1" xmlns="http://www.w3.org/2000/svg" xmlns:xlink="http://www.w3.org/1999/xlink" x="0px" y="0px"
	 viewBox="0 0 1024 787" style="enable-background:new 0 0 1024 787;" xml:space="preserve">
<style type="text/css">
	.st0{clip-path:url(#SVGID_2_);fill:#179FAC;}
	.st1{clip-path:url(#SVGID_4_);fill:#118593;}
	.st2{opacity:0.5;clip-path:url(#SVGID_6_);fill:#FFFFFF;}
	.st3{opacity:0.4;clip-path:url(#SVGID_8_);fill:#FFFFFF;}
	.st4{fill:#FFFFFF;}
	.st5{clip-path:url(#SVGID_10_);fill:#118593;}
	.st6{opacity:0.5;}
	.st7{opacity:0.6;}
	.st8{clip-path:url(#SVGID_12_);}
	.st9{clip-path:url(#SVGID_14_);fill:#F8B206;}
	.st10{clip-path:url(#SVGID_16_);}
	.st11{clip-path:url(#SVGID_18_);fill:#F69C95;}
	.st12{clip-path:url(#SVGID_20_);}
	.st13{clip-path:url(#SVGID_22_);fill:#008E9C;}
	.st14{clip-path:url(#SVGID_24_);}
	.st15{clip-path:url(#SVGID_26_);fill:#FEF1D6;}
	.st16{clip-path:url(#SVGID_28_);fill:#00909E;}
	.st17{clip-path:url(#SVGID_30_);enable-background:new    ;}
	.st18{clip-path:url(#SVGID_32_);}
	.st19{clip-path:url(#SVGID_34_);fill:#FFFFFF;}
	.st20{clip-path:url(#SVGID_34_);}
</style>
<g>
	<g>
		<defs>
			<rect id="SVGID_1_" y="36" width="1024" height="122.5"/>
		</defs>
		<clipPath id="SVGID_2_">
			<use xlink:href="#SVGID_1_"  style="overflow:visible;"/>
		</clipPath>
		<rect x="-5" y="31" class="st0" width="1034" height="132.5"/>
	</g>
	<g>
		<defs>
			<rect id="SVGID_3_" y="158" width="1024" height="36"/>
		</defs>
		<clipPath id="SVGID_4_">
			<use xlink:href="#SVGID_3_"  style="overflow:visible;"/>
		</clipPath>
		<rect x="-5" y="153" class="st1" width="1034" height="46"/>
	</g>
	<g>
		<defs>
			<rect id="SVGID_5_" x="60" y="190" width="48" height="4"/>
		</defs>
		<clipPath id="SVGID_6_">
			<use xlink:href="#SVGID_5_"  style="overflow:visible;"/>
		</clipPath>
		<rect x="55" y="185" class="st2" width="58" height="14"/>
	</g>
	<g>
		<defs>
			<rect id="SVGID_7_" width="1024" height="36"/>
		</defs>
		<clipPath id="SVGID_8_">
			<use xlink:href="#SVGID_7_"  style="overflow:visible;"/>
		</clipPath>
		<rect x="-5" y="-5" class="st3" width="1034" height="46"/>
	</g>
	<g>
		<path class="st4" d="M65.8,107.9h-5.1v-3.5h14.5v3.5h-5.1V123h-4.2V107.9z"/>
	</g>
	<g>
		<path class="st4" d="M75.2,108.8h4.2v8.3c0,1,0.1,1.7,0.4,2.1s0.7,0.6,1.3,0.6c0.5,0,1-0.1,1.3-0.4c0.4-0.2,0.8-0.6,1.2-1.2v-9.4
			h4.2V123h-3.4l-0.3-2h-0.1c-0.6,0.7-1.3,1.3-2,1.7s-1.5,0.6-2.5,0.6c-1.5,0-2.7-0.5-3.4-1.5c-0.7-1-1-2.4-1-4.2V108.8z"/>
		<path class="st4" d="M97,119.1c0-1.5,0.6-2.6,1.9-3.5c1.3-0.8,3.3-1.4,6.1-1.7c0-0.6-0.2-1.1-0.6-1.5c-0.3-0.4-0.9-0.6-1.7-0.6
			c-0.6,0-1.2,0.1-1.8,0.3c-0.6,0.2-1.3,0.5-1.9,0.9l-1.5-2.8c0.9-0.6,1.9-1,2.9-1.3s2.1-0.5,3.2-0.5c1.8,0,3.2,0.5,4.2,1.6
			c1,1,1.4,2.7,1.4,4.8v8.1h-3.4l-0.3-1.5h-0.1c-0.6,0.5-1.3,1-1.9,1.3c-0.7,0.3-1.4,0.5-2.2,0.5c-0.6,0-1.2-0.1-1.7-0.3
			c-0.5-0.2-1-0.5-1.3-0.9c-0.4-0.4-0.6-0.8-0.8-1.4C97.1,120.2,97,119.7,97,119.1z M101,118.7c0,0.5,0.1,0.8,0.4,1
			c0.3,0.2,0.7,0.3,1.2,0.3c0.5,0,0.9-0.1,1.3-0.3c0.3-0.2,0.7-0.5,1.1-0.9v-2.5c-1.5,0.2-2.5,0.5-3.1,0.9
			C101.3,117.7,101,118.2,101,118.7z"/>
		<path class="st4" d="M113.5,125.2c0.2,0,0.3,0.1,0.5,0.1c0.7,0,1.2-0.2,1.6-0.5c0.4-0.3,0.7-0.8,0.9-1.3l0.2-0.7l-5.5-13.8h4.2
			l2,6.1c0.2,0.6,0.4,1.3,0.6,2s0.4,1.4,0.5,2.1h0.1c0.2-0.7,0.3-1.3,0.5-2c0.2-0.7,0.3-1.3,0.5-2l1.7-6.1h4l-4.9,14.3
			c-0.3,0.9-0.7,1.7-1.1,2.4c-0.4,0.7-0.8,1.2-1.3,1.7s-1,0.8-1.7,1c-0.6,0.2-1.3,0.3-2.2,0.3c-0.4,0-0.8,0-1.1-0.1
			c-0.3,0-0.6-0.1-0.9-0.2l0.7-3.2C113.2,125.1,113.4,125.1,113.5,125.2z"/>
		<path class="st4" d="M127.5,108.8h4.2v8.3c0,1,0.1,1.7,0.4,2.1s0.7,0.6,1.3,0.6c0.5,0,1-0.1,1.3-0.4c0.4-0.2,0.8-0.6,1.2-1.2v-9.4
			h4.2V123h-3.4l-0.3-2h-0.1c-0.6,0.7-1.3,1.3-2,1.7s-1.5,0.6-2.5,0.6c-1.5,0-2.7-0.5-3.4-1.5c-0.7-1-1-2.4-1-4.2V108.8z"/>
		<path class="st4" d="M143.9,108.8h3.4l0.3,1.8h0.1c0.6-0.6,1.3-1.1,2-1.5c0.7-0.4,1.6-0.6,2.5-0.6c1.5,0,2.7,0.5,3.4,1.5
			c0.7,1,1,2.4,1,4.2v8.8h-4.2v-8.3c0-1-0.1-1.7-0.4-2.1c-0.3-0.4-0.7-0.6-1.3-0.6c-0.5,0-1,0.1-1.4,0.4c-0.4,0.2-0.8,0.6-1.3,1v9.6
			h-4.2V108.8z"/>
	</g>
	<g>
		<path class="st4" d="M160.8,112.1h-1.9V109l2.2-0.2l0.5-3.8h3.5v3.8h3.4v3.3H165v5.7c0,0.8,0.2,1.4,0.5,1.7
			c0.3,0.4,0.8,0.5,1.3,0.5c0.2,0,0.5,0,0.7-0.1c0.2-0.1,0.5-0.1,0.6-0.2l0.7,3.1c-0.4,0.1-0.8,0.2-1.3,0.3
			c-0.5,0.1-1.1,0.2-1.8,0.2c-0.9,0-1.6-0.1-2.2-0.4c-0.6-0.3-1.1-0.6-1.5-1.1c-0.4-0.5-0.7-1.1-0.9-1.7c-0.2-0.7-0.3-1.4-0.3-2.2
			V112.1z"/>
	</g>
	<g>
		<path class="st4" d="M170,119.1c0-1.5,0.6-2.6,1.9-3.5c1.3-0.8,3.3-1.4,6.1-1.7c0-0.6-0.2-1.1-0.6-1.5c-0.3-0.4-0.9-0.6-1.7-0.6
			c-0.6,0-1.2,0.1-1.8,0.3c-0.6,0.2-1.3,0.5-1.9,0.9l-1.5-2.8c0.9-0.6,1.9-1,2.9-1.3s2.1-0.5,3.2-0.5c1.8,0,3.2,0.5,4.2,1.6
			c1,1,1.4,2.7,1.4,4.8v8.1h-3.4l-0.3-1.5h-0.1c-0.6,0.5-1.3,1-1.9,1.3c-0.7,0.3-1.4,0.5-2.2,0.5c-0.6,0-1.2-0.1-1.7-0.3
			c-0.5-0.2-1-0.5-1.3-0.9c-0.4-0.4-0.6-0.8-0.8-1.4C170.1,120.2,170,119.7,170,119.1z M174,118.7c0,0.5,0.1,0.8,0.4,1
			c0.3,0.2,0.7,0.3,1.2,0.3c0.5,0,0.9-0.1,1.3-0.3c0.3-0.2,0.7-0.5,1.1-0.9v-2.5c-1.5,0.2-2.5,0.5-3.1,0.9
			C174.3,117.7,174,118.2,174,118.7z"/>
		<path class="st4" d="M185.7,108.8h3.4l0.3,1.8h0.1c0.6-0.6,1.2-1.1,1.9-1.5c0.7-0.4,1.5-0.6,2.4-0.6c1,0,1.8,0.2,2.4,0.6
			c0.6,0.4,1.1,1,1.5,1.8c0.6-0.6,1.3-1.2,2-1.7s1.5-0.7,2.5-0.7c1.5,0,2.6,0.5,3.4,1.5c0.7,1,1.1,2.4,1.1,4.2v8.8h-4.2v-8.3
			c0-1-0.1-1.7-0.4-2.1c-0.3-0.4-0.7-0.6-1.3-0.6c-0.7,0-1.5,0.5-2.4,1.4v9.6h-4.2v-8.3c0-1-0.1-1.7-0.4-2.1
			c-0.3-0.4-0.7-0.6-1.3-0.6c-0.7,0-1.5,0.5-2.4,1.4v9.6h-4.2V108.8z"/>
		<path class="st4" d="M212.3,106.7c-0.7,0-1.3-0.2-1.7-0.6c-0.5-0.4-0.7-0.9-0.7-1.6s0.2-1.2,0.7-1.6c0.5-0.4,1-0.6,1.7-0.6
			c0.7,0,1.3,0.2,1.8,0.6c0.4,0.4,0.7,0.9,0.7,1.6s-0.2,1.2-0.7,1.6C213.6,106.5,213,106.7,212.3,106.7z M210.2,108.8h4.2V123h-4.2
			V108.8z"/>
		<path class="st4" d="M217.3,115.9c0-1.1,0.2-2.2,0.6-3.1c0.4-0.9,0.9-1.7,1.5-2.3c0.6-0.6,1.3-1.1,2.1-1.5
			c0.8-0.3,1.6-0.5,2.5-0.5c1,0,1.9,0.2,2.6,0.5c0.8,0.3,1.4,0.8,1.9,1.4c0.5,0.6,0.9,1.3,1.1,2.2c0.2,0.8,0.4,1.7,0.4,2.7
			c0,0.4,0,0.7-0.1,1c0,0.3-0.1,0.6-0.1,0.7h-8.5c0.2,1.1,0.6,1.9,1.3,2.4c0.7,0.5,1.5,0.7,2.4,0.7c1,0,2-0.3,3.1-0.9l1.4,2.5
			c-0.7,0.5-1.5,0.9-2.4,1.2c-0.9,0.3-1.8,0.4-2.6,0.4c-1,0-2-0.2-2.8-0.5c-0.9-0.3-1.6-0.8-2.3-1.5c-0.6-0.6-1.2-1.4-1.5-2.3
			C217.5,118.1,217.3,117.1,217.3,115.9z M226.4,114.5c0-0.8-0.2-1.5-0.5-2c-0.4-0.5-1-0.8-1.8-0.8c-0.7,0-1.3,0.2-1.8,0.7
			c-0.5,0.4-0.8,1.1-1,2.1H226.4z"/>
		<path class="st4" d="M232.9,108.8h3.4l0.3,1.8h0.1c0.6-0.6,1.3-1.1,2-1.5c0.7-0.4,1.6-0.6,2.5-0.6c1.5,0,2.7,0.5,3.4,1.5
			c0.7,1,1,2.4,1,4.2v8.8h-4.2v-8.3c0-1-0.1-1.7-0.4-2.1c-0.3-0.4-0.7-0.6-1.3-0.6c-0.5,0-1,0.1-1.4,0.4c-0.4,0.2-0.8,0.6-1.3,1v9.6
			h-4.2V108.8z"/>
	</g>
	<g>
		<path class="st4" d="M249.8,112.1h-1.9V109l2.2-0.2l0.5-3.8h3.5v3.8h3.4v3.3H254v5.7c0,0.8,0.2,1.4,0.5,1.7
			c0.3,0.4,0.8,0.5,1.3,0.5c0.2,0,0.5,0,0.7-0.1c0.2-0.1,0.5-0.1,0.6-0.2l0.7,3.1c-0.4,0.1-0.8,0.2-1.3,0.3
			c-0.5,0.1-1.1,0.2-1.8,0.2c-0.9,0-1.6-0.1-2.2-0.4c-0.6-0.3-1.1-0.6-1.5-1.1c-0.4-0.5-0.7-1.1-0.9-1.7c-0.2-0.7-0.3-1.4-0.3-2.2
			V112.1z"/>
	</g>
	<g>
		<path class="st4" d="M258.8,115.9c0-1.2,0.2-2.2,0.6-3.2c0.4-0.9,0.9-1.7,1.5-2.3c0.6-0.6,1.4-1.1,2.2-1.4
			c0.8-0.3,1.7-0.5,2.6-0.5c0.9,0,1.8,0.2,2.6,0.5c0.8,0.3,1.6,0.8,2.2,1.4c0.6,0.6,1.1,1.4,1.5,2.3c0.4,0.9,0.6,2,0.6,3.2
			c0,1.2-0.2,2.2-0.6,3.2c-0.4,0.9-0.9,1.7-1.5,2.3c-0.6,0.6-1.4,1.1-2.2,1.4s-1.7,0.5-2.6,0.5c-0.9,0-1.8-0.2-2.6-0.5
			c-0.8-0.3-1.6-0.8-2.2-1.4c-0.6-0.6-1.1-1.4-1.5-2.3C259,118.1,258.8,117.1,258.8,115.9z M263.1,115.9c0,1.2,0.2,2.2,0.6,2.9
			s1.1,1.1,2,1.1c0.9,0,1.5-0.4,1.9-1.1c0.4-0.7,0.7-1.7,0.7-2.9s-0.2-2.2-0.7-2.9c-0.4-0.7-1.1-1.1-1.9-1.1c-0.9,0-1.5,0.4-2,1.1
			S263.1,114.7,263.1,115.9z"/>
	</g>
	<g>
		<path class="st4" d="M289.9,102.7h1.7l-7.6,24.9h-1.7L289.9,102.7z"/>
		<path class="st4" d="M300.3,104.3h2.4V123h-2.4V104.3z"/>
		<path class="st4" d="M307.6,109.1h1.9l0.2,2h0.1c0.7-0.7,1.4-1.2,2.1-1.7c0.7-0.4,1.6-0.7,2.6-0.7c1.5,0,2.5,0.5,3.2,1.4
			s1,2.3,1,4.1v8.8h-2.3v-8.5c0-1.3-0.2-2.3-0.6-2.8c-0.4-0.6-1.1-0.9-2-0.9c-0.7,0-1.4,0.2-1.9,0.5c-0.6,0.4-1.2,0.9-1.9,1.6V123
			h-2.3V109.1z"/>
		<path class="st4" d="M322.3,116.1c0-1.1,0.2-2.1,0.5-3c0.3-0.9,0.8-1.7,1.3-2.3c0.6-0.6,1.2-1.1,1.9-1.5c0.7-0.3,1.5-0.5,2.3-0.5
			c0.8,0,1.5,0.1,2.1,0.4c0.6,0.3,1.2,0.7,1.8,1.2l-0.1-2.4v-5.3h2.4V123h-1.9l-0.2-1.6h-0.1c-0.6,0.5-1.2,1-1.9,1.4
			c-0.7,0.4-1.5,0.6-2.3,0.6c-1.8,0-3.1-0.6-4.2-1.9S322.3,118.4,322.3,116.1z M324.7,116.1c0,1.7,0.3,3,1,3.9
			c0.7,0.9,1.6,1.4,2.8,1.4c0.6,0,1.3-0.2,1.8-0.5c0.6-0.3,1.1-0.8,1.7-1.4v-7.3c-0.6-0.5-1.2-0.9-1.7-1.1s-1.1-0.3-1.7-0.3
			c-0.6,0-1.1,0.1-1.6,0.4c-0.5,0.3-0.9,0.6-1.3,1.1c-0.4,0.5-0.6,1-0.9,1.7C324.8,114.5,324.7,115.3,324.7,116.1z"/>
		<path class="st4" d="M340.3,106.3c-0.5,0-0.8-0.1-1.2-0.4c-0.3-0.3-0.5-0.6-0.5-1.1c0-0.5,0.2-0.8,0.5-1.1
			c0.3-0.3,0.7-0.4,1.2-0.4s0.8,0.1,1.2,0.4c0.3,0.3,0.5,0.6,0.5,1.1c0,0.4-0.2,0.8-0.5,1.1C341.2,106.1,340.8,106.3,340.3,106.3z
			 M339.1,109.1h2.3V123h-2.3V109.1z"/>
		<path class="st4" d="M345.1,116.1c0-1.2,0.2-2.2,0.5-3.1c0.4-0.9,0.8-1.7,1.5-2.3c0.6-0.6,1.3-1.1,2.1-1.4
			c0.8-0.3,1.7-0.5,2.6-0.5c0.9,0,1.7,0.2,2.4,0.5s1.2,0.7,1.7,1.2l-1.2,1.5c-0.4-0.4-0.9-0.7-1.3-0.9c-0.4-0.2-0.9-0.3-1.5-0.3
			c-0.6,0-1.2,0.1-1.7,0.4c-0.5,0.3-1,0.6-1.4,1.1c-0.4,0.5-0.7,1-0.9,1.7c-0.2,0.7-0.3,1.4-0.3,2.2c0,0.8,0.1,1.5,0.3,2.2
			c0.2,0.6,0.5,1.2,0.9,1.7s0.8,0.8,1.4,1.1c0.5,0.3,1.1,0.4,1.7,0.4c0.7,0,1.3-0.1,1.8-0.4c0.5-0.3,1-0.6,1.4-1l1.1,1.5
			c-0.6,0.6-1.3,1-2.1,1.3c-0.8,0.3-1.6,0.5-2.4,0.5c-0.9,0-1.8-0.2-2.6-0.5c-0.8-0.3-1.5-0.8-2.1-1.4c-0.6-0.6-1-1.4-1.4-2.3
			C345.3,118.3,345.1,117.2,345.1,116.1z"/>
		<path class="st4" d="M358.2,119.4c0-1.5,0.7-2.7,2-3.5c1.4-0.8,3.5-1.4,6.5-1.7c0-0.4,0-0.9-0.1-1.3c-0.1-0.4-0.2-0.8-0.5-1.1
			c-0.2-0.3-0.5-0.6-0.9-0.8c-0.4-0.2-0.8-0.3-1.4-0.3c-0.8,0-1.6,0.2-2.3,0.5c-0.7,0.3-1.3,0.6-1.9,1l-0.9-1.6
			c0.6-0.4,1.4-0.8,2.4-1.2s2-0.6,3.1-0.6c1.7,0,2.9,0.5,3.7,1.6c0.8,1,1.1,2.4,1.1,4.2v8.5h-1.9l-0.2-1.7h-0.1
			c-0.7,0.6-1.4,1-2.2,1.4c-0.8,0.4-1.6,0.6-2.4,0.6c-1.2,0-2.2-0.3-2.9-1S358.2,120.7,358.2,119.4z M360.5,119.2
			c0,0.8,0.2,1.4,0.7,1.7c0.5,0.3,1,0.5,1.7,0.5c0.7,0,1.3-0.2,1.9-0.5c0.6-0.3,1.2-0.8,1.9-1.4v-3.9c-1.2,0.2-2.1,0.3-2.9,0.5
			c-0.8,0.2-1.4,0.5-1.9,0.7c-0.5,0.3-0.8,0.6-1,1C360.6,118.4,360.5,118.8,360.5,119.2z"/>
		<path class="st4" d="M372.5,116.1c0-1.1,0.2-2.1,0.5-3c0.3-0.9,0.8-1.7,1.3-2.3c0.6-0.6,1.2-1.1,1.9-1.5c0.7-0.3,1.5-0.5,2.3-0.5
			c0.8,0,1.5,0.1,2.1,0.4c0.6,0.3,1.2,0.7,1.8,1.2l-0.1-2.4v-5.3h2.4V123h-1.9l-0.2-1.6h-0.1c-0.6,0.5-1.2,1-1.9,1.4
			c-0.7,0.4-1.5,0.6-2.3,0.6c-1.8,0-3.1-0.6-4.2-1.9S372.5,118.4,372.5,116.1z M375,116.1c0,1.7,0.3,3,1,3.9
			c0.7,0.9,1.6,1.4,2.8,1.4c0.6,0,1.3-0.2,1.8-0.5c0.6-0.3,1.1-0.8,1.7-1.4v-7.3c-0.6-0.5-1.2-0.9-1.7-1.1s-1.1-0.3-1.7-0.3
			c-0.6,0-1.1,0.1-1.6,0.4c-0.5,0.3-0.9,0.6-1.3,1.1c-0.4,0.5-0.6,1-0.9,1.7C375.1,114.5,375,115.3,375,116.1z"/>
		<path class="st4" d="M388.4,116.1c0-1.2,0.2-2.2,0.5-3.1c0.4-0.9,0.8-1.7,1.4-2.3c0.6-0.6,1.3-1.1,2-1.4c0.8-0.3,1.6-0.5,2.4-0.5
			c0.9,0,1.7,0.2,2.4,0.5c0.8,0.3,1.5,0.8,2,1.4s1.1,1.4,1.4,2.3c0.4,0.9,0.5,1.9,0.5,3.1c0,1.1-0.2,2.2-0.5,3.1
			c-0.4,0.9-0.8,1.7-1.4,2.3c-0.6,0.6-1.3,1.1-2,1.4c-0.8,0.3-1.6,0.5-2.4,0.5c-0.9,0-1.7-0.2-2.4-0.5c-0.8-0.3-1.5-0.8-2-1.4
			c-0.6-0.6-1.1-1.4-1.4-2.3C388.5,118.3,388.4,117.2,388.4,116.1z M390.8,116.1c0,0.8,0.1,1.5,0.3,2.2c0.2,0.6,0.5,1.2,0.8,1.7
			s0.8,0.8,1.3,1.1c0.5,0.3,1,0.4,1.6,0.4c0.6,0,1.1-0.1,1.6-0.4c0.5-0.3,0.9-0.6,1.3-1.1c0.4-0.5,0.6-1,0.8-1.7
			c0.2-0.6,0.3-1.4,0.3-2.2c0-0.8-0.1-1.5-0.3-2.2c-0.2-0.7-0.5-1.2-0.8-1.7c-0.4-0.5-0.8-0.8-1.3-1.1c-0.5-0.3-1-0.4-1.6-0.4
			c-0.6,0-1.1,0.1-1.6,0.4c-0.5,0.3-0.9,0.6-1.3,1.1c-0.4,0.5-0.6,1-0.8,1.7C390.9,114.6,390.8,115.3,390.8,116.1z"/>
		<path class="st4" d="M404.9,109.1h1.9l0.2,2.5h0.1c0.5-0.9,1.1-1.6,1.7-2.1c0.7-0.5,1.4-0.8,2.2-0.8c0.6,0,1,0.1,1.5,0.3l-0.5,2.1
			c-0.2-0.1-0.4-0.1-0.6-0.2c-0.2,0-0.4-0.1-0.7-0.1c-0.6,0-1.2,0.2-1.8,0.7c-0.6,0.5-1.2,1.3-1.7,2.5v8.9h-2.3V109.1z"/>
		<path class="st4" d="M413.5,116.1c0-1.1,0.2-2.2,0.5-3.1c0.4-0.9,0.8-1.7,1.4-2.3c0.6-0.6,1.2-1.1,2-1.4c0.7-0.3,1.5-0.5,2.3-0.5
			c0.9,0,1.7,0.2,2.4,0.5s1.3,0.7,1.7,1.3c0.5,0.6,0.8,1.3,1.1,2.1s0.4,1.7,0.4,2.7c0,0.5,0,0.9-0.1,1.3h-9.4
			c0.1,1.5,0.6,2.7,1.4,3.6c0.8,0.9,1.9,1.3,3.2,1.3c0.7,0,1.3-0.1,1.8-0.3c0.6-0.2,1.1-0.5,1.6-0.8l0.8,1.5c-0.6,0.4-1.3,0.7-2,1
			c-0.7,0.3-1.6,0.4-2.5,0.4c-0.9,0-1.8-0.2-2.6-0.5c-0.8-0.3-1.5-0.8-2.1-1.4c-0.6-0.6-1.1-1.4-1.4-2.3
			C413.7,118.2,413.5,117.2,413.5,116.1z M423.2,115c0-1.4-0.3-2.5-0.9-3.3c-0.6-0.8-1.4-1.1-2.5-1.1c-0.5,0-1,0.1-1.4,0.3
			c-0.4,0.2-0.9,0.5-1.2,0.9c-0.4,0.4-0.7,0.8-0.9,1.4s-0.4,1.2-0.5,1.9H423.2z"/>
		<path class="st4" d="M428.3,119.9c0.6,0.5,1.2,0.9,1.9,1.2c0.6,0.3,1.4,0.5,2.2,0.5c0.9,0,1.6-0.2,2.1-0.6
			c0.5-0.4,0.7-0.9,0.7-1.5c0-0.4-0.1-0.7-0.3-0.9s-0.4-0.5-0.7-0.7s-0.6-0.4-1-0.5c-0.4-0.2-0.8-0.3-1.1-0.5
			c-0.5-0.2-1-0.4-1.5-0.6c-0.5-0.2-0.9-0.5-1.3-0.8c-0.4-0.3-0.7-0.7-1-1.1s-0.4-0.9-0.4-1.5c0-0.6,0.1-1.1,0.3-1.6
			c0.2-0.5,0.5-0.9,0.9-1.3c0.4-0.4,0.9-0.6,1.5-0.8c0.6-0.2,1.3-0.3,2-0.3c0.9,0,1.7,0.2,2.4,0.5s1.4,0.7,1.9,1.1l-1.1,1.5
			c-0.5-0.4-1-0.7-1.5-0.9c-0.5-0.2-1.1-0.3-1.7-0.3c-0.9,0-1.5,0.2-1.9,0.6c-0.4,0.4-0.6,0.9-0.6,1.4c0,0.3,0.1,0.6,0.3,0.8
			c0.2,0.2,0.4,0.4,0.7,0.6c0.3,0.2,0.6,0.3,1,0.5c0.4,0.1,0.8,0.3,1.2,0.4c0.5,0.2,1,0.4,1.5,0.6c0.5,0.2,1,0.5,1.4,0.8
			c0.4,0.3,0.7,0.7,1,1.2c0.3,0.5,0.4,1,0.4,1.7c0,0.6-0.1,1.1-0.3,1.6c-0.2,0.5-0.5,0.9-1,1.3s-1,0.7-1.6,0.9s-1.4,0.3-2.2,0.3
			c-1,0-1.9-0.2-2.8-0.5c-0.9-0.4-1.7-0.8-2.3-1.4L428.3,119.9z"/>
	</g>
	<g>
		<defs>
			<polygon id="SVGID_9_" points="273.5,254 277,261 270,261 			"/>
		</defs>
		<clipPath id="SVGID_10_">
			<use xlink:href="#SVGID_9_"  style="overflow:visible;"/>
		</clipPath>
		<rect x="265" y="249" class="st5" width="17" height="17"/>
	</g>
	<g>
		<g class="st6">
			<path d="M188.1,14.8h1.2l1.5,4.2l0.6,1.6h0L192,19l1.5-4.2h1.2v7.9h-0.9v-4.3c0-0.4,0-0.7,0-1.2c0-0.4,0.1-0.8,0.1-1.2h0
				l-0.6,1.8l-1.5,4.1h-0.6l-1.5-4.1l-0.6-1.8h0c0,0.4,0.1,0.7,0.1,1.2c0,0.4,0,0.8,0,1.2v4.3h-0.9V14.8z"/>
			<path d="M196.8,14.8h1v4.6c0,0.5,0,0.9,0.1,1.2c0.1,0.3,0.2,0.6,0.4,0.8c0.2,0.2,0.4,0.3,0.6,0.4c0.2,0.1,0.5,0.1,0.7,0.1
				c0.3,0,0.5,0,0.7-0.1s0.4-0.2,0.6-0.4c0.2-0.2,0.3-0.4,0.4-0.8c0.1-0.3,0.1-0.7,0.1-1.2v-4.6h1v4.6c0,0.6-0.1,1.2-0.2,1.6
				c-0.1,0.4-0.3,0.8-0.6,1c-0.3,0.3-0.6,0.5-0.9,0.6c-0.3,0.1-0.7,0.2-1.1,0.2s-0.8-0.1-1.1-0.2c-0.3-0.1-0.6-0.3-0.9-0.6
				c-0.3-0.3-0.5-0.6-0.6-1c-0.1-0.4-0.2-1-0.2-1.6V14.8z"/>
			<path d="M204.5,14.8h1l2.8,4.9l0.9,1.6h0c0-0.4,0-0.8-0.1-1.2c0-0.4,0-0.8,0-1.3v-4.1h0.9v7.9h-1l-2.9-5l-0.9-1.6h0
				c0,0.4,0.1,0.8,0.1,1.2c0,0.4,0,0.8,0,1.2v4.1h-0.9V14.8z"/>
			<path d="M212.3,14.8h1v7.9h-1V14.8z"/>
			<path d="M215,18.7c0-0.6,0.1-1.2,0.3-1.7c0.2-0.5,0.4-0.9,0.7-1.3c0.3-0.4,0.7-0.6,1.1-0.8c0.4-0.2,0.9-0.3,1.4-0.3
				c0.5,0,0.9,0.1,1.3,0.3c0.4,0.2,0.7,0.4,0.9,0.7l-0.6,0.6c-0.2-0.2-0.4-0.4-0.7-0.5c-0.3-0.1-0.5-0.2-0.9-0.2
				c-0.4,0-0.7,0.1-1,0.2c-0.3,0.1-0.6,0.4-0.8,0.6c-0.2,0.3-0.4,0.6-0.5,1c-0.1,0.4-0.2,0.8-0.2,1.3c0,0.5,0.1,0.9,0.2,1.3
				c0.1,0.4,0.3,0.7,0.5,1c0.2,0.3,0.5,0.5,0.8,0.6c0.3,0.2,0.6,0.2,1,0.2c0.4,0,0.7-0.1,1-0.2c0.3-0.2,0.6-0.4,0.8-0.6l0.6,0.6
				c-0.3,0.4-0.7,0.6-1.1,0.8c-0.4,0.2-0.8,0.3-1.3,0.3c-0.5,0-1-0.1-1.4-0.3c-0.4-0.2-0.8-0.5-1.1-0.8c-0.3-0.3-0.5-0.8-0.7-1.3
				S215,19.4,215,18.7z"/>
			<path d="M222.3,14.8h1v7.9h-1V14.8z"/>
			<path d="M225.5,14.8h2.4c0.4,0,0.8,0,1.2,0.1c0.4,0.1,0.7,0.2,0.9,0.4c0.3,0.2,0.4,0.4,0.6,0.7c0.1,0.3,0.2,0.7,0.2,1.1
				c0,0.4-0.1,0.8-0.2,1.1c-0.1,0.3-0.3,0.6-0.6,0.8c-0.3,0.2-0.6,0.3-0.9,0.5c-0.4,0.1-0.8,0.1-1.2,0.1h-1.4v3.1h-1V14.8z
				 M227.8,18.7c0.7,0,1.2-0.1,1.5-0.4s0.5-0.7,0.5-1.2c0-0.6-0.2-1-0.5-1.2c-0.3-0.2-0.8-0.3-1.5-0.3h-1.3v3.1H227.8z"/>
			<path d="M232.4,14.8h1v7.9h-1V14.8z"/>
			<path d="M238.4,22.8c-0.5,0-0.9-0.1-1.4-0.3c-0.4-0.2-0.8-0.5-1.1-0.8c-0.3-0.4-0.5-0.8-0.7-1.3c-0.2-0.5-0.2-1.1-0.2-1.7
				s0.1-1.2,0.2-1.7c0.2-0.5,0.4-0.9,0.7-1.3c0.3-0.3,0.6-0.6,1.1-0.8c0.4-0.2,0.9-0.3,1.4-0.3s1,0.1,1.4,0.3
				c0.4,0.2,0.8,0.5,1.1,0.8c0.3,0.3,0.5,0.8,0.7,1.3s0.2,1.1,0.2,1.7c0,0.6-0.1,1.2-0.2,1.7s-0.4,0.9-0.7,1.3
				c-0.3,0.4-0.7,0.6-1.1,0.8C239.4,22.7,238.9,22.8,238.4,22.8z M238.4,21.9c0.4,0,0.7-0.1,1-0.2c0.3-0.2,0.5-0.4,0.7-0.7
				c0.2-0.3,0.4-0.6,0.5-1c0.1-0.4,0.2-0.8,0.2-1.3c0-0.5-0.1-0.9-0.2-1.3c-0.1-0.4-0.3-0.7-0.5-1c-0.2-0.3-0.4-0.5-0.7-0.6
				c-0.3-0.1-0.6-0.2-1-0.2s-0.7,0.1-1,0.2c-0.3,0.1-0.5,0.4-0.7,0.6c-0.2,0.3-0.4,0.6-0.5,1c-0.1,0.4-0.2,0.8-0.2,1.3
				c0,0.5,0.1,0.9,0.2,1.3c0.1,0.4,0.3,0.7,0.5,1c0.2,0.3,0.4,0.5,0.7,0.7C237.8,21.9,238.1,21.9,238.4,21.9z"/>
			<path d="M243.5,21c0.3,0.3,0.6,0.5,1,0.7c0.4,0.2,0.8,0.3,1.2,0.3c0.5,0,0.9-0.1,1.2-0.4c0.3-0.2,0.4-0.5,0.4-0.9
				c0-0.2,0-0.4-0.1-0.5c-0.1-0.1-0.2-0.3-0.3-0.4c-0.1-0.1-0.3-0.2-0.4-0.3s-0.3-0.2-0.5-0.3l-1.1-0.5c-0.2-0.1-0.4-0.2-0.6-0.3
				c-0.2-0.1-0.4-0.2-0.5-0.4s-0.3-0.4-0.4-0.6c-0.1-0.2-0.1-0.5-0.1-0.8c0-0.3,0.1-0.6,0.2-0.8c0.1-0.3,0.3-0.5,0.5-0.7
				c0.2-0.2,0.5-0.3,0.8-0.4c0.3-0.1,0.6-0.2,1-0.2c0.5,0,0.9,0.1,1.3,0.3s0.7,0.4,1,0.7l-0.5,0.6c-0.2-0.2-0.5-0.4-0.8-0.5
				c-0.3-0.1-0.6-0.2-1-0.2c-0.4,0-0.8,0.1-1.1,0.3s-0.4,0.5-0.4,0.8c0,0.2,0,0.4,0.1,0.5c0.1,0.1,0.2,0.2,0.3,0.3
				c0.1,0.1,0.3,0.2,0.4,0.3s0.3,0.1,0.5,0.2l1.1,0.5c0.2,0.1,0.4,0.2,0.6,0.3c0.2,0.1,0.4,0.3,0.5,0.4c0.1,0.2,0.3,0.4,0.3,0.6
				c0.1,0.2,0.1,0.5,0.1,0.8c0,0.3-0.1,0.6-0.2,0.9c-0.1,0.3-0.3,0.5-0.5,0.7c-0.2,0.2-0.5,0.4-0.8,0.5c-0.3,0.1-0.7,0.2-1.1,0.2
				c-0.6,0-1.1-0.1-1.5-0.3c-0.5-0.2-0.9-0.5-1.2-0.9L243.5,21z"/>
		</g>
	</g>
	<g>
		<g class="st6">
			<path d="M273.6,18.7c0-0.6,0.1-1.2,0.3-1.7c0.2-0.5,0.4-0.9,0.7-1.3c0.3-0.4,0.7-0.6,1.1-0.8c0.4-0.2,0.9-0.3,1.4-0.3
				c0.5,0,0.9,0.1,1.3,0.3c0.4,0.2,0.7,0.4,0.9,0.7l-0.6,0.6c-0.2-0.2-0.4-0.4-0.7-0.5c-0.3-0.1-0.5-0.2-0.9-0.2
				c-0.4,0-0.7,0.1-1,0.2c-0.3,0.1-0.6,0.4-0.8,0.6c-0.2,0.3-0.4,0.6-0.5,1c-0.1,0.4-0.2,0.8-0.2,1.3c0,0.5,0.1,0.9,0.2,1.3
				c0.1,0.4,0.3,0.7,0.5,1c0.2,0.3,0.5,0.5,0.8,0.6c0.3,0.2,0.6,0.2,1,0.2c0.4,0,0.7-0.1,1-0.2c0.3-0.2,0.6-0.4,0.8-0.6l0.6,0.6
				c-0.3,0.4-0.7,0.6-1.1,0.8c-0.4,0.2-0.8,0.3-1.3,0.3c-0.5,0-1-0.1-1.4-0.3c-0.4-0.2-0.8-0.5-1.1-0.8c-0.3-0.3-0.5-0.8-0.7-1.3
				S273.6,19.4,273.6,18.7z"/>
		</g>
	</g>
	<g>
		<g class="st6">
			<path d="M283.1,22.8c-0.5,0-0.9-0.1-1.4-0.3c-0.4-0.2-0.8-0.5-1.1-0.8c-0.3-0.4-0.5-0.8-0.7-1.3c-0.2-0.5-0.2-1.1-0.2-1.7
				s0.1-1.2,0.2-1.7c0.2-0.5,0.4-0.9,0.7-1.3c0.3-0.3,0.6-0.6,1.1-0.8c0.4-0.2,0.9-0.3,1.4-0.3s1,0.1,1.4,0.3
				c0.4,0.2,0.8,0.5,1.1,0.8c0.3,0.3,0.5,0.8,0.7,1.3s0.2,1.1,0.2,1.7c0,0.6-0.1,1.2-0.2,1.7s-0.4,0.9-0.7,1.3
				c-0.3,0.4-0.7,0.6-1.1,0.8C284.1,22.7,283.6,22.8,283.1,22.8z M283.1,21.9c0.4,0,0.7-0.1,1-0.2c0.3-0.2,0.5-0.4,0.7-0.7
				c0.2-0.3,0.4-0.6,0.5-1c0.1-0.4,0.2-0.8,0.2-1.3c0-0.5-0.1-0.9-0.2-1.3c-0.1-0.4-0.3-0.7-0.5-1c-0.2-0.3-0.4-0.5-0.7-0.6
				c-0.3-0.1-0.6-0.2-1-0.2s-0.7,0.1-1,0.2c-0.3,0.1-0.5,0.4-0.7,0.6c-0.2,0.3-0.4,0.6-0.5,1c-0.1,0.4-0.2,0.8-0.2,1.3
				c0,0.5,0.1,0.9,0.2,1.3c0.1,0.4,0.3,0.7,0.5,1c0.2,0.3,0.4,0.5,0.7,0.7C282.5,21.9,282.8,21.9,283.1,21.9z"/>
			<path d="M287.9,14.8h1.2l1.5,4.2l0.6,1.6h0l0.6-1.6l1.5-4.2h1.2v7.9h-0.9v-4.3c0-0.4,0-0.7,0-1.2c0-0.4,0.1-0.8,0.1-1.2h0
				l-0.6,1.8l-1.5,4.1h-0.6l-1.5-4.1l-0.6-1.8h0c0,0.4,0.1,0.7,0.1,1.2c0,0.4,0,0.8,0,1.2v4.3h-0.9V14.8z"/>
			<path d="M296.4,14.8h2.4c0.4,0,0.8,0,1.2,0.1c0.4,0.1,0.7,0.2,0.9,0.4c0.3,0.2,0.4,0.4,0.6,0.7c0.1,0.3,0.2,0.7,0.2,1.1
				c0,0.4-0.1,0.8-0.2,1.1c-0.1,0.3-0.3,0.6-0.6,0.8c-0.3,0.2-0.6,0.3-0.9,0.5c-0.4,0.1-0.8,0.1-1.2,0.1h-1.4v3.1h-1V14.8z
				 M298.7,18.7c0.7,0,1.2-0.1,1.5-0.4s0.5-0.7,0.5-1.2c0-0.6-0.2-1-0.5-1.2c-0.3-0.2-0.8-0.3-1.5-0.3h-1.3v3.1H298.7z"/>
			<path d="M306,20.3h-2.9l-0.8,2.4h-1l2.7-7.9h1.1l2.7,7.9h-1.1L306,20.3z M305.8,19.5l-0.4-1.2c-0.1-0.4-0.3-0.9-0.4-1.3
				c-0.1-0.4-0.3-0.9-0.4-1.3h0c-0.1,0.5-0.2,0.9-0.4,1.3c-0.1,0.4-0.3,0.9-0.4,1.3l-0.4,1.2H305.8z"/>
			<path d="M313,22.7l-1.9-3.3h-1.4v3.3h-1v-7.9h2.5c0.4,0,0.8,0,1.1,0.1s0.6,0.2,0.9,0.4s0.4,0.4,0.6,0.7c0.1,0.3,0.2,0.6,0.2,1
				c0,0.6-0.2,1.1-0.5,1.5c-0.3,0.4-0.7,0.6-1.3,0.8l2,3.4H313z M309.7,18.5h1.3c0.6,0,1.1-0.1,1.4-0.4s0.5-0.6,0.5-1.1
				c0-0.5-0.2-0.9-0.5-1.1s-0.8-0.3-1.4-0.3h-1.3V18.5z"/>
			<path d="M318.8,20.3H316l-0.8,2.4h-1l2.7-7.9h1.1l2.7,7.9h-1.1L318.8,20.3z M318.6,19.5l-0.4-1.2c-0.1-0.4-0.3-0.9-0.4-1.3
				c-0.1-0.4-0.3-0.9-0.4-1.3h0c-0.1,0.5-0.2,0.9-0.4,1.3c-0.1,0.4-0.3,0.9-0.4,1.3l-0.4,1.2H318.6z"/>
		</g>
	</g>
	<g>
		<g class="st6">
			<path d="M350.4,22.7l-1.9-3.3h-1.4v3.3h-1v-7.9h2.5c0.4,0,0.8,0,1.1,0.1s0.6,0.2,0.9,0.4s0.4,0.4,0.6,0.7c0.1,0.3,0.2,0.6,0.2,1
				c0,0.6-0.2,1.1-0.5,1.5c-0.3,0.4-0.7,0.6-1.3,0.8l2,3.4H350.4z M347.1,18.5h1.3c0.6,0,1.1-0.1,1.4-0.4s0.5-0.6,0.5-1.1
				c0-0.5-0.2-0.9-0.5-1.1s-0.8-0.3-1.4-0.3h-1.3V18.5z"/>
		</g>
	</g>
	<g>
		<g class="st6">
			<path d="M356.4,20.3h-2.9l-0.8,2.4h-1l2.7-7.9h1.1l2.7,7.9h-1.1L356.4,20.3z M356.2,19.5l-0.4-1.2c-0.1-0.4-0.3-0.9-0.4-1.3
				c-0.1-0.4-0.3-0.9-0.4-1.3h0c-0.1,0.5-0.2,0.9-0.4,1.3c-0.1,0.4-0.3,0.9-0.4,1.3l-0.4,1.2H356.2z"/>
			<path d="M359.2,14.8h1l2.8,4.9l0.9,1.6h0c0-0.4,0-0.8-0.1-1.2c0-0.4,0-0.8,0-1.3v-4.1h0.9v7.9h-1l-2.9-5l-0.9-1.6h0
				c0,0.4,0.1,0.8,0.1,1.2c0,0.4,0,0.8,0,1.2v4.1h-0.9V14.8z"/>
			<path d="M366.9,14.8h1v3.9h0l3.3-3.9h1.1l-2.5,3l2.8,4.9h-1.1l-2.4-4.1l-1.4,1.6v2.5h-1V14.8z"/>
			<path d="M373.8,14.8h1v7.9h-1V14.8z"/>
			<path d="M376.8,14.8h1l2.8,4.9l0.9,1.6h0c0-0.4,0-0.8-0.1-1.2c0-0.4,0-0.8,0-1.3v-4.1h0.9v7.9h-1l-2.9-5l-0.9-1.6h0
				c0,0.4,0.1,0.8,0.1,1.2c0,0.4,0,0.8,0,1.2v4.1h-0.9V14.8z"/>
			<path d="M384,18.7c0-0.6,0.1-1.2,0.3-1.7s0.4-0.9,0.8-1.3c0.3-0.4,0.7-0.6,1.1-0.8c0.4-0.2,0.9-0.3,1.5-0.3c0.5,0,1,0.1,1.4,0.3
				c0.4,0.2,0.7,0.4,0.9,0.7l-0.6,0.6c-0.2-0.2-0.4-0.4-0.7-0.5c-0.3-0.1-0.6-0.2-1-0.2c-0.4,0-0.8,0.1-1.1,0.2
				c-0.3,0.1-0.6,0.4-0.8,0.6c-0.2,0.3-0.4,0.6-0.5,1c-0.1,0.4-0.2,0.8-0.2,1.3c0,0.5,0.1,0.9,0.2,1.3c0.1,0.4,0.3,0.7,0.5,1
				c0.2,0.3,0.5,0.5,0.8,0.6c0.3,0.2,0.7,0.2,1.1,0.2c0.3,0,0.5,0,0.8-0.1s0.5-0.2,0.6-0.3v-2.1h-1.7v-0.8h2.6v3.3
				c-0.3,0.3-0.6,0.5-1,0.7s-0.9,0.3-1.4,0.3c-0.5,0-1-0.1-1.4-0.3c-0.4-0.2-0.8-0.5-1.1-0.8c-0.3-0.3-0.6-0.8-0.7-1.3
				C384.1,20,384,19.4,384,18.7z"/>
		</g>
	</g>
	<g>
		<g class="st6">
			<path d="M416.1,21c0.3,0.3,0.6,0.5,1,0.7c0.4,0.2,0.8,0.3,1.2,0.3c0.5,0,0.9-0.1,1.2-0.4c0.3-0.2,0.4-0.5,0.4-0.9
				c0-0.2,0-0.4-0.1-0.5c-0.1-0.1-0.2-0.3-0.3-0.4c-0.1-0.1-0.3-0.2-0.4-0.3s-0.3-0.2-0.5-0.3l-1.1-0.5c-0.2-0.1-0.4-0.2-0.6-0.3
				c-0.2-0.1-0.4-0.2-0.5-0.4s-0.3-0.4-0.4-0.6c-0.1-0.2-0.1-0.5-0.1-0.8c0-0.3,0.1-0.6,0.2-0.8c0.1-0.3,0.3-0.5,0.5-0.7
				c0.2-0.2,0.5-0.3,0.8-0.4c0.3-0.1,0.6-0.2,1-0.2c0.5,0,0.9,0.1,1.3,0.3s0.7,0.4,1,0.7l-0.5,0.6c-0.2-0.2-0.5-0.4-0.8-0.5
				c-0.3-0.1-0.6-0.2-1-0.2c-0.4,0-0.8,0.1-1.1,0.3s-0.4,0.5-0.4,0.8c0,0.2,0,0.4,0.1,0.5c0.1,0.1,0.2,0.2,0.3,0.3
				c0.1,0.1,0.3,0.2,0.4,0.3s0.3,0.1,0.5,0.2l1.1,0.5c0.2,0.1,0.4,0.2,0.6,0.3c0.2,0.1,0.4,0.3,0.5,0.4c0.1,0.2,0.3,0.4,0.3,0.6
				c0.1,0.2,0.1,0.5,0.1,0.8c0,0.3-0.1,0.6-0.2,0.9c-0.1,0.3-0.3,0.5-0.5,0.7c-0.2,0.2-0.5,0.4-0.8,0.5c-0.3,0.1-0.7,0.2-1.1,0.2
				c-0.6,0-1.1-0.1-1.5-0.3c-0.5-0.2-0.9-0.5-1.2-0.9L416.1,21z"/>
			<path d="M422.5,14.8h4.5v0.8h-3.5v2.5h3V19h-3v2.9h3.7v0.9h-4.7V14.8z"/>
		</g>
	</g>
	<g>
		<g class="st6">
			<path d="M433.1,22.7l-1.9-3.3h-1.4v3.3h-1v-7.9h2.5c0.4,0,0.8,0,1.1,0.1s0.6,0.2,0.9,0.4s0.4,0.4,0.6,0.7c0.1,0.3,0.2,0.6,0.2,1
				c0,0.6-0.2,1.1-0.5,1.5c-0.3,0.4-0.7,0.6-1.3,0.8l2,3.4H433.1z M429.8,18.5h1.3c0.6,0,1.1-0.1,1.4-0.4s0.5-0.6,0.5-1.1
				c0-0.5-0.2-0.9-0.5-1.1s-0.8-0.3-1.4-0.3h-1.3V18.5z"/>
		</g>
	</g>
	<g>
		<g class="st6">
			<path d="M434.3,14.8h1.1l1.3,4.2c0.1,0.5,0.3,0.9,0.4,1.3c0.1,0.4,0.2,0.8,0.4,1.3h0c0.1-0.5,0.3-0.9,0.4-1.3
				c0.1-0.4,0.2-0.8,0.4-1.3l1.3-4.2h1l-2.5,7.9h-1.2L434.3,14.8z"/>
			<path d="M441.6,14.8h1v7.9h-1V14.8z"/>
			<path d="M444.3,18.7c0-0.6,0.1-1.2,0.3-1.7c0.2-0.5,0.4-0.9,0.7-1.3c0.3-0.4,0.7-0.6,1.1-0.8c0.4-0.2,0.9-0.3,1.4-0.3
				c0.5,0,0.9,0.1,1.3,0.3c0.4,0.2,0.7,0.4,0.9,0.7l-0.6,0.6c-0.2-0.2-0.4-0.4-0.7-0.5c-0.3-0.1-0.5-0.2-0.9-0.2
				c-0.4,0-0.7,0.1-1,0.2c-0.3,0.1-0.6,0.4-0.8,0.6c-0.2,0.3-0.4,0.6-0.5,1c-0.1,0.4-0.2,0.8-0.2,1.3c0,0.5,0.1,0.9,0.2,1.3
				c0.1,0.4,0.3,0.7,0.5,1c0.2,0.3,0.5,0.5,0.8,0.6c0.3,0.2,0.6,0.2,1,0.2c0.4,0,0.7-0.1,1-0.2c0.3-0.2,0.6-0.4,0.8-0.6l0.6,0.6
				c-0.3,0.4-0.7,0.6-1.1,0.8c-0.4,0.2-0.8,0.3-1.3,0.3c-0.5,0-1-0.1-1.4-0.3c-0.4-0.2-0.8-0.5-1.1-0.8c-0.3-0.3-0.5-0.8-0.7-1.3
				S444.3,19.4,444.3,18.7z"/>
			<path d="M451.6,14.8h1v7.9h-1V14.8z"/>
			<path d="M457.7,22.8c-0.5,0-0.9-0.1-1.4-0.3c-0.4-0.2-0.8-0.5-1.1-0.8c-0.3-0.4-0.5-0.8-0.7-1.3c-0.2-0.5-0.2-1.1-0.2-1.7
				s0.1-1.2,0.2-1.7c0.2-0.5,0.4-0.9,0.7-1.3c0.3-0.3,0.6-0.6,1.1-0.8c0.4-0.2,0.9-0.3,1.4-0.3s1,0.1,1.4,0.3
				c0.4,0.2,0.8,0.5,1.1,0.8c0.3,0.3,0.5,0.8,0.7,1.3s0.2,1.1,0.2,1.7c0,0.6-0.1,1.2-0.2,1.7s-0.4,0.9-0.7,1.3
				c-0.3,0.4-0.7,0.6-1.1,0.8C458.6,22.7,458.2,22.8,457.7,22.8z M457.7,21.9c0.4,0,0.7-0.1,1-0.2c0.3-0.2,0.5-0.4,0.7-0.7
				c0.2-0.3,0.4-0.6,0.5-1c0.1-0.4,0.2-0.8,0.2-1.3c0-0.5-0.1-0.9-0.2-1.3c-0.1-0.4-0.3-0.7-0.5-1c-0.2-0.3-0.4-0.5-0.7-0.6
				c-0.3-0.1-0.6-0.2-1-0.2s-0.7,0.1-1,0.2c-0.3,0.1-0.5,0.4-0.7,0.6c-0.2,0.3-0.4,0.6-0.5,1c-0.1,0.4-0.2,0.8-0.2,1.3
				c0,0.5,0.1,0.9,0.2,1.3c0.1,0.4,0.3,0.7,0.5,1c0.2,0.3,0.4,0.5,0.7,0.7C457,21.9,457.3,21.9,457.7,21.9z"/>
			<path d="M462.7,21c0.3,0.3,0.6,0.5,1,0.7c0.4,0.2,0.8,0.3,1.2,0.3c0.5,0,0.9-0.1,1.2-0.4c0.3-0.2,0.4-0.5,0.4-0.9
				c0-0.2,0-0.4-0.1-0.5c-0.1-0.1-0.2-0.3-0.3-0.4c-0.1-0.1-0.3-0.2-0.4-0.3s-0.3-0.2-0.5-0.3l-1.1-0.5c-0.2-0.1-0.4-0.2-0.6-0.3
				c-0.2-0.1-0.4-0.2-0.5-0.4s-0.3-0.4-0.4-0.6c-0.1-0.2-0.1-0.5-0.1-0.8c0-0.3,0.1-0.6,0.2-0.8c0.1-0.3,0.3-0.5,0.5-0.7
				c0.2-0.2,0.5-0.3,0.8-0.4c0.3-0.1,0.6-0.2,1-0.2c0.5,0,0.9,0.1,1.3,0.3s0.7,0.4,1,0.7l-0.5,0.6c-0.2-0.2-0.5-0.4-0.8-0.5
				c-0.3-0.1-0.6-0.2-1-0.2c-0.4,0-0.8,0.1-1.1,0.3s-0.4,0.5-0.4,0.8c0,0.2,0,0.4,0.1,0.5c0.1,0.1,0.2,0.2,0.3,0.3
				c0.1,0.1,0.3,0.2,0.4,0.3s0.3,0.1,0.5,0.2l1.1,0.5c0.2,0.1,0.4,0.2,0.6,0.3c0.2,0.1,0.4,0.3,0.5,0.4c0.1,0.2,0.3,0.4,0.3,0.6
				c0.1,0.2,0.1,0.5,0.1,0.8c0,0.3-0.1,0.6-0.2,0.9c-0.1,0.3-0.3,0.5-0.5,0.7c-0.2,0.2-0.5,0.4-0.8,0.5c-0.3,0.1-0.7,0.2-1.1,0.2
				c-0.6,0-1.1-0.1-1.5-0.3c-0.5-0.2-0.9-0.5-1.2-0.9L462.7,21z"/>
		</g>
	</g>
	<g>
		<g class="st6">
			<path d="M931.4,16.3h-2.1v-1.5h6.1v1.5h-2.1v6.3h-1.8V16.3z"/>
			<path d="M936.5,14.9h1.8v4.4c0,0.8,0.1,1.3,0.3,1.6s0.6,0.5,1,0.5s0.8-0.2,1-0.5c0.2-0.3,0.4-0.8,0.4-1.6v-4.4h1.7v4.2
				c0,1.3-0.3,2.3-0.8,2.9c-0.5,0.6-1.3,0.9-2.3,0.9c-1,0-1.8-0.3-2.3-0.9c-0.5-0.6-0.8-1.6-0.8-2.9V14.9z"/>
			<path d="M946.7,18.8c0-0.6,0.1-1.2,0.3-1.7c0.2-0.5,0.5-0.9,0.8-1.3c0.3-0.4,0.7-0.6,1.2-0.8c0.5-0.2,0.9-0.3,1.4-0.3
				c0.5,0,0.9,0.1,1.3,0.3s0.7,0.4,1,0.7l-1,1.1c-0.2-0.2-0.4-0.3-0.6-0.4c-0.2-0.1-0.4-0.2-0.7-0.2s-0.5,0.1-0.8,0.2
				c-0.2,0.1-0.4,0.3-0.6,0.5c-0.2,0.2-0.3,0.5-0.4,0.8c-0.1,0.3-0.2,0.7-0.2,1.1c0,0.8,0.2,1.4,0.5,1.9s0.8,0.7,1.4,0.7
				c0.3,0,0.6-0.1,0.8-0.2s0.5-0.3,0.6-0.5l1,1.1c-0.3,0.4-0.7,0.7-1.1,0.9c-0.4,0.2-0.9,0.3-1.4,0.3c-0.5,0-1-0.1-1.4-0.3
				s-0.8-0.4-1.2-0.8s-0.6-0.8-0.8-1.3C946.8,20,946.7,19.5,946.7,18.8z"/>
			<path d="M953.8,14.9h1.8v4.4c0,0.8,0.1,1.3,0.3,1.6s0.6,0.5,1,0.5s0.8-0.2,1-0.5c0.2-0.3,0.4-0.8,0.4-1.6v-4.4h1.7v4.2
				c0,1.3-0.3,2.3-0.8,2.9c-0.5,0.6-1.3,0.9-2.3,0.9c-1,0-1.8-0.3-2.3-0.9c-0.5-0.6-0.8-1.6-0.8-2.9V14.9z"/>
			<path d="M961.8,14.9h4.9v1.5h-3.1v1.6h2.7v1.5h-2.7v1.8h3.3v1.5h-5V14.9z"/>
			<path d="M968.4,14.9h1.8l2,3.9l0.8,1.7h0c0-0.4-0.1-0.9-0.1-1.4c-0.1-0.5-0.1-1-0.1-1.5v-2.8h1.7v7.8h-1.8l-2-3.9l-0.8-1.7h0
				c0,0.4,0.1,0.9,0.1,1.4c0.1,0.5,0.1,1,0.1,1.4v2.8h-1.7V14.9z"/>
			<path d="M977.9,16.3h-2.1v-1.5h6.1v1.5h-2.1v6.3h-1.8V16.3z"/>
			<path d="M986.3,20.8h-2.4l-0.5,1.9h-1.8l2.4-7.8h2.1l2.4,7.8h-1.9L986.3,20.8z M985.9,19.4l-0.2-0.7c-0.1-0.4-0.2-0.8-0.3-1.2
				c-0.1-0.4-0.2-0.9-0.3-1.3h0c-0.1,0.4-0.2,0.8-0.3,1.3c-0.1,0.4-0.2,0.9-0.3,1.2l-0.2,0.7H985.9z"/>
		</g>
	</g>
	<g>
		<g class="st6">
			<path d="M774.1,21.3c0.3,0.3,0.6,0.5,1,0.7s0.8,0.3,1.2,0.3c0.5,0,0.9-0.1,1.2-0.4c0.3-0.2,0.4-0.5,0.4-0.9c0-0.2,0-0.4-0.1-0.5
				c-0.1-0.1-0.2-0.3-0.3-0.4c-0.1-0.1-0.3-0.2-0.4-0.3s-0.3-0.2-0.5-0.3l-1.1-0.5c-0.2-0.1-0.4-0.2-0.6-0.3
				c-0.2-0.1-0.4-0.2-0.5-0.4c-0.2-0.2-0.3-0.4-0.4-0.6c-0.1-0.2-0.1-0.5-0.1-0.8c0-0.3,0.1-0.6,0.2-0.8c0.1-0.3,0.3-0.5,0.5-0.7
				c0.2-0.2,0.5-0.3,0.8-0.4c0.3-0.1,0.6-0.2,1-0.2c0.5,0,0.9,0.1,1.3,0.3s0.7,0.4,1,0.7l-0.5,0.6c-0.2-0.2-0.5-0.4-0.8-0.5
				c-0.3-0.1-0.6-0.2-1-0.2c-0.4,0-0.8,0.1-1.1,0.3s-0.4,0.5-0.4,0.8c0,0.2,0,0.4,0.1,0.5s0.2,0.2,0.3,0.3c0.1,0.1,0.3,0.2,0.4,0.3
				c0.2,0.1,0.3,0.1,0.5,0.2l1.1,0.5c0.2,0.1,0.4,0.2,0.6,0.3s0.4,0.3,0.5,0.4c0.1,0.2,0.3,0.4,0.3,0.6c0.1,0.2,0.1,0.5,0.1,0.8
				c0,0.3-0.1,0.6-0.2,0.9c-0.1,0.3-0.3,0.5-0.5,0.7c-0.2,0.2-0.5,0.4-0.8,0.5c-0.3,0.1-0.7,0.2-1.1,0.2c-0.6,0-1.1-0.1-1.5-0.3
				c-0.5-0.2-0.9-0.5-1.2-0.9L774.1,21.3z"/>
			<path d="M780.2,15.1h1V23h-1V15.1z"/>
			<path d="M782.5,19.1c0-0.6,0.1-1.2,0.3-1.7c0.2-0.5,0.4-0.9,0.8-1.3c0.3-0.4,0.7-0.6,1.1-0.8c0.4-0.2,0.9-0.3,1.5-0.3
				c0.5,0,1,0.1,1.4,0.3c0.4,0.2,0.7,0.4,0.9,0.7l-0.6,0.6c-0.2-0.2-0.4-0.4-0.7-0.5c-0.3-0.1-0.6-0.2-1-0.2c-0.4,0-0.8,0.1-1.1,0.2
				c-0.3,0.1-0.6,0.4-0.8,0.6c-0.2,0.3-0.4,0.6-0.5,1c-0.1,0.4-0.2,0.8-0.2,1.3c0,0.5,0.1,0.9,0.2,1.3c0.1,0.4,0.3,0.7,0.5,1
				c0.2,0.3,0.5,0.5,0.8,0.6c0.3,0.2,0.7,0.2,1.1,0.2c0.3,0,0.5,0,0.8-0.1s0.5-0.2,0.6-0.3v-2.1h-1.7v-0.8h2.6v3.3
				c-0.3,0.3-0.6,0.5-1,0.7s-0.9,0.3-1.4,0.3c-0.5,0-1-0.1-1.4-0.3c-0.4-0.2-0.8-0.5-1.1-0.8c-0.3-0.3-0.6-0.8-0.7-1.3
				S782.5,19.7,782.5,19.1z"/>
			<path d="M790,15.1h1v4.6c0,0.5,0,0.9,0.1,1.2c0.1,0.3,0.2,0.6,0.4,0.8c0.2,0.2,0.4,0.3,0.6,0.4c0.2,0.1,0.5,0.1,0.7,0.1
				c0.3,0,0.5,0,0.7-0.1s0.4-0.2,0.6-0.4c0.2-0.2,0.3-0.4,0.4-0.8c0.1-0.3,0.1-0.7,0.1-1.2v-4.6h1v4.6c0,0.6-0.1,1.2-0.2,1.6
				c-0.1,0.4-0.3,0.8-0.6,1c-0.3,0.3-0.6,0.5-0.9,0.6c-0.3,0.1-0.7,0.2-1.1,0.2c-0.4,0-0.8-0.1-1.1-0.2c-0.3-0.1-0.6-0.3-0.9-0.6
				c-0.3-0.3-0.5-0.6-0.6-1c-0.1-0.4-0.2-1-0.2-1.6V15.1z"/>
			<path d="M797.4,15.1h4.5V16h-3.5v2.5h3v0.9h-3v2.9h3.7V23h-4.7V15.1z"/>
			<path d="M809.1,20.6h-2.9l-0.8,2.4h-1l2.7-7.9h1.1l2.7,7.9h-1.1L809.1,20.6z M808.8,19.8l-0.4-1.2c-0.1-0.4-0.3-0.9-0.4-1.3
				c-0.1-0.4-0.3-0.9-0.4-1.3h0c-0.1,0.5-0.2,0.9-0.4,1.3c-0.1,0.4-0.3,0.9-0.4,1.3l-0.4,1.2H808.8z"/>
			<path d="M815.4,16H813v-0.8h5.8V16h-2.4v7h-1V16z"/>
			<path d="M819.8,15.1h1v4.6c0,0.5,0,0.9,0.1,1.2s0.2,0.6,0.4,0.8c0.2,0.2,0.4,0.3,0.6,0.4c0.2,0.1,0.5,0.1,0.7,0.1
				c0.3,0,0.5,0,0.7-0.1c0.2-0.1,0.4-0.2,0.6-0.4c0.2-0.2,0.3-0.4,0.4-0.8s0.1-0.7,0.1-1.2v-4.6h1v4.6c0,0.6-0.1,1.2-0.2,1.6
				c-0.1,0.4-0.3,0.8-0.6,1c-0.3,0.3-0.6,0.5-0.9,0.6c-0.3,0.1-0.7,0.2-1.1,0.2s-0.8-0.1-1.1-0.2c-0.3-0.1-0.6-0.3-0.9-0.6
				c-0.3-0.3-0.4-0.6-0.6-1c-0.1-0.4-0.2-1-0.2-1.6V15.1z"/>
			<path d="M833,20.6h-2.9l-0.8,2.4h-1l2.7-7.9h1.1l2.7,7.9h-1.1L833,20.6z M832.7,19.8l-0.4-1.2c-0.1-0.4-0.3-0.9-0.4-1.3
				c-0.1-0.4-0.3-0.9-0.4-1.3h0c-0.1,0.5-0.2,0.9-0.4,1.3c-0.1,0.4-0.3,0.9-0.4,1.3l-0.4,1.2H832.7z"/>
			<path d="M836.6,20l-2.4-4.8h1.1l1,2.2c0.1,0.3,0.3,0.6,0.4,0.9s0.2,0.6,0.4,0.9h0c0.1-0.3,0.3-0.6,0.4-0.9s0.3-0.6,0.4-0.9l1-2.2
				h1l-2.4,4.8v3h-1V20z"/>
			<path d="M840.6,15.1h1v4.6c0,0.5,0,0.9,0.1,1.2s0.2,0.6,0.4,0.8c0.2,0.2,0.4,0.3,0.6,0.4c0.2,0.1,0.5,0.1,0.7,0.1
				c0.3,0,0.5,0,0.7-0.1c0.2-0.1,0.4-0.2,0.6-0.4c0.2-0.2,0.3-0.4,0.4-0.8s0.1-0.7,0.1-1.2v-4.6h1v4.6c0,0.6-0.1,1.2-0.2,1.6
				c-0.1,0.4-0.3,0.8-0.6,1c-0.3,0.3-0.6,0.5-0.9,0.6c-0.3,0.1-0.7,0.2-1.1,0.2s-0.8-0.1-1.1-0.2c-0.3-0.1-0.6-0.3-0.9-0.6
				c-0.3-0.3-0.4-0.6-0.6-1c-0.1-0.4-0.2-1-0.2-1.6V15.1z"/>
			<path d="M848,15.1h1l2.8,4.9l0.9,1.6h0c0-0.4,0-0.8-0.1-1.2c0-0.4,0-0.8,0-1.3v-4.1h0.9V23h-1l-2.9-5l-0.9-1.6h0
				c0,0.4,0.1,0.8,0.1,1.2c0,0.4,0,0.8,0,1.2V23H848V15.1z"/>
			<path d="M857.1,16h-2.4v-0.8h5.8V16h-2.4v7h-1V16z"/>
			<path d="M864.7,20.6h-2.9L861,23h-1l2.7-7.9h1.1l2.7,7.9h-1.1L864.7,20.6z M864.4,19.8l-0.4-1.2c-0.1-0.4-0.3-0.9-0.4-1.3
				c-0.1-0.4-0.3-0.9-0.4-1.3h0c-0.1,0.5-0.2,0.9-0.4,1.3c-0.1,0.4-0.3,0.9-0.4,1.3l-0.4,1.2H864.4z"/>
			<path d="M867.3,15.1h1.2l1.5,4.2l0.6,1.6h0l0.6-1.6l1.5-4.2h1.2V23h-0.9v-4.3c0-0.4,0-0.7,0-1.2c0-0.4,0.1-0.8,0.1-1.2h0
				l-0.6,1.8l-1.5,4.1h-0.6l-1.5-4.1l-0.6-1.8h0c0,0.4,0.1,0.7,0.1,1.2c0,0.4,0,0.8,0,1.2V23h-0.9V15.1z"/>
			<path d="M875.6,15.1h1V23h-1V15.1z"/>
			<path d="M878.5,15.1h4.5V16h-3.5v2.5h3v0.9h-3v2.9h3.7V23h-4.7V15.1z"/>
			<path d="M884.5,15.1h1l2.8,4.9l0.9,1.6h0c0-0.4-0.1-0.8-0.1-1.2c0-0.4,0-0.8,0-1.3v-4.1h0.9V23h-1l-2.9-5l-0.9-1.6h0
				c0,0.4,0.1,0.8,0.1,1.2c0,0.4,0,0.8,0,1.2V23h-0.9V15.1z"/>
			<path d="M893.5,16h-2.4v-0.8h5.8V16h-2.4v7h-1V16z"/>
			<path d="M900.6,23.1c-0.5,0-1-0.1-1.4-0.3c-0.4-0.2-0.8-0.5-1.1-0.8c-0.3-0.4-0.5-0.8-0.7-1.3c-0.2-0.5-0.2-1.1-0.2-1.7
				s0.1-1.2,0.2-1.7c0.2-0.5,0.4-0.9,0.7-1.3c0.3-0.3,0.6-0.6,1.1-0.8c0.4-0.2,0.9-0.3,1.4-0.3s0.9,0.1,1.4,0.3
				c0.4,0.2,0.8,0.5,1.1,0.8c0.3,0.3,0.5,0.8,0.7,1.3s0.2,1.1,0.2,1.7c0,0.6-0.1,1.2-0.2,1.7s-0.4,0.9-0.7,1.3
				c-0.3,0.4-0.7,0.6-1.1,0.8C901.5,23,901.1,23.1,900.6,23.1z M900.6,22.3c0.4,0,0.7-0.1,1-0.2c0.3-0.2,0.5-0.4,0.7-0.7
				c0.2-0.3,0.4-0.6,0.5-1c0.1-0.4,0.2-0.8,0.2-1.3c0-0.5-0.1-0.9-0.2-1.3c-0.1-0.4-0.3-0.7-0.5-1c-0.2-0.3-0.4-0.5-0.7-0.6
				c-0.3-0.1-0.6-0.2-1-0.2c-0.4,0-0.7,0.1-1,0.2c-0.3,0.1-0.5,0.4-0.7,0.6c-0.2,0.3-0.4,0.6-0.5,1c-0.1,0.4-0.2,0.8-0.2,1.3
				c0,0.5,0.1,0.9,0.2,1.3c0.1,0.4,0.3,0.7,0.5,1c0.2,0.3,0.4,0.5,0.7,0.7C899.9,22.2,900.2,22.3,900.6,22.3z"/>
		</g>
	</g>
	<g>
		<g class="st7">
			<path class="st4" d="M64.4,181l-1.9-3.3h-1.4v3.3h-1v-7.9h2.5c0.4,0,0.8,0,1.1,0.1s0.6,0.2,0.9,0.4s0.4,0.4,0.6,0.7
				c0.1,0.3,0.2,0.6,0.2,1c0,0.6-0.2,1.1-0.5,1.5c-0.3,0.4-0.7,0.6-1.3,0.8l2,3.4H64.4z M61.1,176.9h1.3c0.6,0,1.1-0.1,1.4-0.4
				s0.5-0.6,0.5-1.1c0-0.5-0.2-0.9-0.5-1.1s-0.8-0.3-1.4-0.3h-1.3V176.9z"/>
			<path class="st4" d="M67.1,173.1h4.5v0.8H68v2.5h3v0.9h-3v2.9h3.7v0.9h-4.7V173.1z"/>
			<path class="st4" d="M73.4,179.3c0.3,0.3,0.6,0.5,1,0.7c0.4,0.2,0.8,0.3,1.2,0.3c0.5,0,0.9-0.1,1.2-0.4c0.3-0.2,0.4-0.5,0.4-0.9
				c0-0.2,0-0.4-0.1-0.5c-0.1-0.1-0.2-0.3-0.3-0.4c-0.1-0.1-0.3-0.2-0.4-0.3s-0.3-0.2-0.5-0.3l-1.1-0.5c-0.2-0.1-0.4-0.2-0.6-0.3
				c-0.2-0.1-0.4-0.2-0.5-0.4s-0.3-0.4-0.4-0.6c-0.1-0.2-0.1-0.5-0.1-0.8c0-0.3,0.1-0.6,0.2-0.8c0.1-0.3,0.3-0.5,0.5-0.7
				c0.2-0.2,0.5-0.3,0.8-0.4c0.3-0.1,0.6-0.2,1-0.2c0.5,0,0.9,0.1,1.3,0.3s0.7,0.4,1,0.7l-0.5,0.6c-0.2-0.2-0.5-0.4-0.8-0.5
				c-0.3-0.1-0.6-0.2-1-0.2c-0.4,0-0.8,0.1-1.1,0.3s-0.4,0.5-0.4,0.8c0,0.2,0,0.4,0.1,0.5c0.1,0.1,0.2,0.2,0.3,0.3
				c0.1,0.1,0.3,0.2,0.4,0.3s0.3,0.1,0.5,0.2l1.1,0.5c0.2,0.1,0.4,0.2,0.6,0.3c0.2,0.1,0.4,0.3,0.5,0.4c0.1,0.2,0.3,0.4,0.3,0.6
				c0.1,0.2,0.1,0.5,0.1,0.8c0,0.3-0.1,0.6-0.2,0.9c-0.1,0.3-0.3,0.5-0.5,0.7c-0.2,0.2-0.5,0.4-0.8,0.5c-0.3,0.1-0.7,0.2-1.1,0.2
				c-0.6,0-1.1-0.1-1.5-0.3c-0.5-0.2-0.9-0.5-1.2-0.9L73.4,179.3z"/>
			<path class="st4" d="M79.7,173.1h1v4.6c0,0.5,0,0.9,0.1,1.2c0.1,0.3,0.2,0.6,0.4,0.8c0.2,0.2,0.4,0.3,0.6,0.4
				c0.2,0.1,0.5,0.1,0.7,0.1c0.3,0,0.5,0,0.7-0.1s0.4-0.2,0.6-0.4c0.2-0.2,0.3-0.4,0.4-0.8c0.1-0.3,0.1-0.7,0.1-1.2v-4.6h1v4.6
				c0,0.6-0.1,1.2-0.2,1.6c-0.1,0.4-0.3,0.8-0.6,1c-0.3,0.3-0.6,0.5-0.9,0.6c-0.3,0.1-0.7,0.2-1.1,0.2s-0.8-0.1-1.1-0.2
				c-0.3-0.1-0.6-0.3-0.9-0.6c-0.3-0.3-0.5-0.6-0.6-1c-0.1-0.4-0.2-1-0.2-1.6V173.1z"/>
			<path class="st4" d="M87.5,173.1h1.2l1.5,4.2l0.6,1.6h0l0.6-1.6l1.5-4.2h1.2v7.9h-0.9v-4.3c0-0.4,0-0.7,0-1.2
				c0-0.4,0.1-0.8,0.1-1.2h0l-0.6,1.8l-1.5,4.1h-0.6l-1.5-4.1l-0.6-1.8h0c0,0.4,0.1,0.7,0.1,1.2c0,0.4,0,0.8,0,1.2v4.3h-0.9V173.1z"
				/>
			<path class="st4" d="M96.2,173.1h4.5v0.8h-3.5v2.5h3v0.9h-3v2.9h3.7v0.9h-4.7V173.1z"/>
			<path class="st4" d="M102.6,173.1h1l2.8,4.9l0.9,1.6h0c0-0.4,0-0.8-0.1-1.2c0-0.4,0-0.8,0-1.3v-4.1h0.9v7.9h-1l-2.9-5l-0.9-1.6h0
				c0,0.4,0.1,0.8,0.1,1.2c0,0.4,0,0.8,0,1.2v4.1h-0.9V173.1z"/>
		</g>
	</g>
	<g>
		<g class="st7">
			<path class="st4" d="M143.1,173.1h2.4c0.4,0,0.8,0,1.2,0.1c0.4,0.1,0.7,0.2,0.9,0.4c0.3,0.2,0.4,0.4,0.6,0.7
				c0.1,0.3,0.2,0.7,0.2,1.1c0,0.4-0.1,0.8-0.2,1.1c-0.1,0.3-0.3,0.6-0.6,0.8c-0.3,0.2-0.6,0.3-0.9,0.5c-0.4,0.1-0.8,0.1-1.2,0.1
				h-1.4v3.1h-1V173.1z M145.4,177.1c0.7,0,1.2-0.1,1.5-0.4s0.5-0.7,0.5-1.2c0-0.6-0.2-1-0.5-1.2c-0.3-0.2-0.8-0.3-1.5-0.3h-1.3v3.1
				H145.4z"/>
			<path class="st4" d="M154.3,181l-1.9-3.3H151v3.3h-1v-7.9h2.5c0.4,0,0.8,0,1.1,0.1s0.6,0.2,0.9,0.4s0.4,0.4,0.6,0.7
				c0.1,0.3,0.2,0.6,0.2,1c0,0.6-0.2,1.1-0.5,1.5c-0.3,0.4-0.7,0.6-1.3,0.8l2,3.4H154.3z M151,176.9h1.3c0.6,0,1.1-0.1,1.4-0.4
				s0.5-0.6,0.5-1.1c0-0.5-0.2-0.9-0.5-1.1s-0.8-0.3-1.4-0.3H151V176.9z"/>
			<path class="st4" d="M157,173.1h4.5v0.8H158v2.5h3v0.9h-3v2.9h3.7v0.9H157V173.1z"/>
			<path class="st4" d="M163.3,179.3c0.3,0.3,0.6,0.5,1,0.7c0.4,0.2,0.8,0.3,1.2,0.3c0.5,0,0.9-0.1,1.2-0.4c0.3-0.2,0.4-0.5,0.4-0.9
				c0-0.2,0-0.4-0.1-0.5c-0.1-0.1-0.2-0.3-0.3-0.4c-0.1-0.1-0.3-0.2-0.4-0.3s-0.3-0.2-0.5-0.3l-1.1-0.5c-0.2-0.1-0.4-0.2-0.6-0.3
				c-0.2-0.1-0.4-0.2-0.5-0.4s-0.3-0.4-0.4-0.6c-0.1-0.2-0.1-0.5-0.1-0.8c0-0.3,0.1-0.6,0.2-0.8c0.1-0.3,0.3-0.5,0.5-0.7
				c0.2-0.2,0.5-0.3,0.8-0.4c0.3-0.1,0.6-0.2,1-0.2c0.5,0,0.9,0.1,1.3,0.3s0.7,0.4,1,0.7l-0.5,0.6c-0.2-0.2-0.5-0.4-0.8-0.5
				c-0.3-0.1-0.6-0.2-1-0.2c-0.4,0-0.8,0.1-1.1,0.3s-0.4,0.5-0.4,0.8c0,0.2,0,0.4,0.1,0.5c0.1,0.1,0.2,0.2,0.3,0.3
				c0.1,0.1,0.3,0.2,0.4,0.3s0.3,0.1,0.5,0.2l1.1,0.5c0.2,0.1,0.4,0.2,0.6,0.3c0.2,0.1,0.4,0.3,0.5,0.4c0.1,0.2,0.3,0.4,0.3,0.6
				c0.1,0.2,0.1,0.5,0.1,0.8c0,0.3-0.1,0.6-0.2,0.9c-0.1,0.3-0.3,0.5-0.5,0.7c-0.2,0.2-0.5,0.4-0.8,0.5c-0.3,0.1-0.7,0.2-1.1,0.2
				c-0.6,0-1.1-0.1-1.5-0.3c-0.5-0.2-0.9-0.5-1.2-0.9L163.3,179.3z"/>
			<path class="st4" d="M169.7,173.1h1v4.6c0,0.5,0,0.9,0.1,1.2c0.1,0.3,0.2,0.6,0.4,0.8c0.2,0.2,0.4,0.3,0.6,0.4
				c0.2,0.1,0.5,0.1,0.7,0.1c0.3,0,0.5,0,0.7-0.1s0.4-0.2,0.6-0.4c0.2-0.2,0.3-0.4,0.4-0.8c0.1-0.3,0.1-0.7,0.1-1.2v-4.6h1v4.6
				c0,0.6-0.1,1.2-0.2,1.6c-0.1,0.4-0.3,0.8-0.6,1c-0.3,0.3-0.6,0.5-0.9,0.6c-0.3,0.1-0.7,0.2-1.1,0.2s-0.8-0.1-1.1-0.2
				c-0.3-0.1-0.6-0.3-0.9-0.6c-0.3-0.3-0.5-0.6-0.6-1c-0.1-0.4-0.2-1-0.2-1.6V173.1z"/>
			<path class="st4" d="M177.4,173.1h2.4c0.4,0,0.8,0,1.2,0.1c0.4,0.1,0.7,0.2,0.9,0.4c0.3,0.2,0.4,0.4,0.6,0.7
				c0.1,0.3,0.2,0.7,0.2,1.1c0,0.4-0.1,0.8-0.2,1.1c-0.1,0.3-0.3,0.6-0.6,0.8c-0.3,0.2-0.6,0.3-0.9,0.5c-0.4,0.1-0.8,0.1-1.2,0.1
				h-1.4v3.1h-1V173.1z M179.7,177.1c0.7,0,1.2-0.1,1.5-0.4s0.5-0.7,0.5-1.2c0-0.6-0.2-1-0.5-1.2c-0.3-0.2-0.8-0.3-1.5-0.3h-1.3v3.1
				H179.7z"/>
			<path class="st4" d="M184.3,173.1h1v4.6c0,0.5,0,0.9,0.1,1.2c0.1,0.3,0.2,0.6,0.4,0.8c0.2,0.2,0.4,0.3,0.6,0.4
				c0.2,0.1,0.5,0.1,0.7,0.1c0.3,0,0.5,0,0.7-0.1s0.4-0.2,0.6-0.4c0.2-0.2,0.3-0.4,0.4-0.8c0.1-0.3,0.1-0.7,0.1-1.2v-4.6h1v4.6
				c0,0.6-0.1,1.2-0.2,1.6c-0.1,0.4-0.3,0.8-0.6,1c-0.3,0.3-0.6,0.5-0.9,0.6c-0.3,0.1-0.7,0.2-1.1,0.2s-0.8-0.1-1.1-0.2
				c-0.3-0.1-0.6-0.3-0.9-0.6c-0.3-0.3-0.5-0.6-0.6-1c-0.1-0.4-0.2-1-0.2-1.6V173.1z"/>
			<path class="st4" d="M192.1,173.1h4.5v0.8h-3.5v2.5h3v0.9h-3v2.9h3.7v0.9h-4.7V173.1z"/>
		</g>
	</g>
	<g>
		<g class="st7">
			<path class="st4" d="M198.4,179.3c0.3,0.3,0.6,0.5,1,0.7c0.4,0.2,0.8,0.3,1.2,0.3c0.5,0,0.9-0.1,1.2-0.4c0.3-0.2,0.4-0.5,0.4-0.9
				c0-0.2,0-0.4-0.1-0.5c-0.1-0.1-0.2-0.3-0.3-0.4c-0.1-0.1-0.3-0.2-0.4-0.3s-0.3-0.2-0.5-0.3l-1.1-0.5c-0.2-0.1-0.4-0.2-0.6-0.3
				c-0.2-0.1-0.4-0.2-0.5-0.4s-0.3-0.4-0.4-0.6c-0.1-0.2-0.1-0.5-0.1-0.8c0-0.3,0.1-0.6,0.2-0.8c0.1-0.3,0.3-0.5,0.5-0.7
				c0.2-0.2,0.5-0.3,0.8-0.4c0.3-0.1,0.6-0.2,1-0.2c0.5,0,0.9,0.1,1.3,0.3s0.7,0.4,1,0.7l-0.5,0.6c-0.2-0.2-0.5-0.4-0.8-0.5
				c-0.3-0.1-0.6-0.2-1-0.2c-0.4,0-0.8,0.1-1.1,0.3s-0.4,0.5-0.4,0.8c0,0.2,0,0.4,0.1,0.5c0.1,0.1,0.2,0.2,0.3,0.3
				c0.1,0.1,0.3,0.2,0.4,0.3s0.3,0.1,0.5,0.2l1.1,0.5c0.2,0.1,0.4,0.2,0.6,0.3c0.2,0.1,0.4,0.3,0.5,0.4c0.1,0.2,0.3,0.4,0.3,0.6
				c0.1,0.2,0.1,0.5,0.1,0.8c0,0.3-0.1,0.6-0.2,0.9c-0.1,0.3-0.3,0.5-0.5,0.7c-0.2,0.2-0.5,0.4-0.8,0.5c-0.3,0.1-0.7,0.2-1.1,0.2
				c-0.6,0-1.1-0.1-1.5-0.3c-0.5-0.2-0.9-0.5-1.2-0.9L198.4,179.3z"/>
		</g>
	</g>
	<g>
		<g class="st7">
			<path class="st4" d="M205.9,174h-2.4v-0.8h5.8v0.8h-2.4v7h-1V174z"/>
		</g>
	</g>
	<g>
		<g class="st7">
			<path class="st4" d="M213,181.1c-0.5,0-0.9-0.1-1.4-0.3c-0.4-0.2-0.8-0.5-1.1-0.8c-0.3-0.4-0.5-0.8-0.7-1.3
				c-0.2-0.5-0.2-1.1-0.2-1.7s0.1-1.2,0.2-1.7c0.2-0.5,0.4-0.9,0.7-1.3c0.3-0.3,0.6-0.6,1.1-0.8c0.4-0.2,0.9-0.3,1.4-0.3
				s1,0.1,1.4,0.3c0.4,0.2,0.8,0.5,1.1,0.8c0.3,0.3,0.5,0.8,0.7,1.3s0.2,1.1,0.2,1.7c0,0.6-0.1,1.2-0.2,1.7s-0.4,0.9-0.7,1.3
				c-0.3,0.4-0.7,0.6-1.1,0.8C213.9,181,213.5,181.1,213,181.1z M213,180.3c0.4,0,0.7-0.1,1-0.2c0.3-0.2,0.5-0.4,0.7-0.7
				c0.2-0.3,0.4-0.6,0.5-1c0.1-0.4,0.2-0.8,0.2-1.3c0-0.5-0.1-0.9-0.2-1.3c-0.1-0.4-0.3-0.7-0.5-1c-0.2-0.3-0.4-0.5-0.7-0.6
				c-0.3-0.1-0.6-0.2-1-0.2s-0.7,0.1-1,0.2c-0.3,0.1-0.5,0.4-0.7,0.6c-0.2,0.3-0.4,0.6-0.5,1c-0.1,0.4-0.2,0.8-0.2,1.3
				c0,0.5,0.1,0.9,0.2,1.3c0.1,0.4,0.3,0.7,0.5,1c0.2,0.3,0.4,0.5,0.7,0.7C212.3,180.2,212.6,180.3,213,180.3z"/>
		</g>
	</g>
	<g>
		<g class="st7">
			<path class="st4" d="M250.1,173.1h4.5v0.8h-3.5v2.5h3v0.9h-3v2.9h3.7v0.9h-4.7V173.1z"/>
			<path class="st4" d="M256.4,179.4c0.2,0.3,0.4,0.5,0.6,0.7c0.2,0.1,0.5,0.2,0.8,0.2c0.4,0,0.7-0.1,0.9-0.4s0.3-0.7,0.3-1.3v-5.5
				h1v5.6c0,0.3,0,0.7-0.1,1c-0.1,0.3-0.2,0.6-0.4,0.8c-0.2,0.2-0.4,0.4-0.7,0.5c-0.3,0.1-0.6,0.2-1,0.2c-1,0-1.7-0.4-2.2-1.3
				L256.4,179.4z"/>
			<path class="st4" d="M262.2,173.1h4.5v0.8h-3.5v2.5h3v0.9h-3v2.9h3.7v0.9h-4.7V173.1z"/>
		</g>
	</g>
	<g>
		<g class="st7">
			<path class="st4" d="M268,177.1c0-0.6,0.1-1.2,0.3-1.7c0.2-0.5,0.4-0.9,0.7-1.3c0.3-0.4,0.7-0.6,1.1-0.8c0.4-0.2,0.9-0.3,1.4-0.3
				c0.5,0,0.9,0.1,1.3,0.3c0.4,0.2,0.7,0.4,0.9,0.7l-0.6,0.6c-0.2-0.2-0.4-0.4-0.7-0.5c-0.3-0.1-0.5-0.2-0.9-0.2
				c-0.4,0-0.7,0.1-1,0.2c-0.3,0.1-0.6,0.4-0.8,0.6c-0.2,0.3-0.4,0.6-0.5,1c-0.1,0.4-0.2,0.8-0.2,1.3c0,0.5,0.1,0.9,0.2,1.3
				c0.1,0.4,0.3,0.7,0.5,1c0.2,0.3,0.5,0.5,0.8,0.6c0.3,0.2,0.6,0.2,1,0.2c0.4,0,0.7-0.1,1-0.2c0.3-0.2,0.6-0.4,0.8-0.6l0.6,0.6
				c-0.3,0.4-0.7,0.6-1.1,0.8c-0.4,0.2-0.8,0.3-1.3,0.3c-0.5,0-1-0.1-1.4-0.3c-0.4-0.2-0.8-0.5-1.1-0.8c-0.3-0.3-0.5-0.8-0.7-1.3
				S268,177.7,268,177.1z"/>
		</g>
	</g>
	<g>
		<g class="st7">
			<path class="st4" d="M274.9,173.1h1v4.6c0,0.5,0,0.9,0.1,1.2c0.1,0.3,0.2,0.6,0.4,0.8c0.2,0.2,0.4,0.3,0.6,0.4
				c0.2,0.1,0.5,0.1,0.7,0.1c0.3,0,0.5,0,0.7-0.1s0.4-0.2,0.6-0.4c0.2-0.2,0.3-0.4,0.4-0.8c0.1-0.3,0.1-0.7,0.1-1.2v-4.6h1v4.6
				c0,0.6-0.1,1.2-0.2,1.6c-0.1,0.4-0.3,0.8-0.6,1c-0.3,0.3-0.6,0.5-0.9,0.6c-0.3,0.1-0.7,0.2-1.1,0.2s-0.8-0.1-1.1-0.2
				c-0.3-0.1-0.6-0.3-0.9-0.6c-0.3-0.3-0.5-0.6-0.6-1c-0.1-0.4-0.2-1-0.2-1.6V173.1z"/>
			<path class="st4" d="M282.3,177.1c0-0.6,0.1-1.2,0.3-1.7c0.2-0.5,0.4-0.9,0.7-1.3c0.3-0.4,0.7-0.6,1.1-0.8
				c0.4-0.2,0.9-0.3,1.4-0.3c0.5,0,0.9,0.1,1.3,0.3c0.4,0.2,0.7,0.4,0.9,0.7l-0.6,0.6c-0.2-0.2-0.4-0.4-0.7-0.5
				c-0.3-0.1-0.5-0.2-0.9-0.2c-0.4,0-0.7,0.1-1,0.2c-0.3,0.1-0.6,0.4-0.8,0.6c-0.2,0.3-0.4,0.6-0.5,1c-0.1,0.4-0.2,0.8-0.2,1.3
				c0,0.5,0.1,0.9,0.2,1.3c0.1,0.4,0.3,0.7,0.5,1c0.2,0.3,0.5,0.5,0.8,0.6c0.3,0.2,0.6,0.2,1,0.2c0.4,0,0.7-0.1,1-0.2
				c0.3-0.2,0.6-0.4,0.8-0.6l0.6,0.6c-0.3,0.4-0.7,0.6-1.1,0.8c-0.4,0.2-0.8,0.3-1.3,0.3c-0.5,0-1-0.1-1.4-0.3
				c-0.4-0.2-0.8-0.5-1.1-0.8c-0.3-0.3-0.5-0.8-0.7-1.3S282.3,177.7,282.3,177.1z"/>
			<path class="st4" d="M289.6,173.1h1v7.9h-1V173.1z"/>
			<path class="st4" d="M295.6,181.1c-0.5,0-0.9-0.1-1.4-0.3c-0.4-0.2-0.8-0.5-1.1-0.8c-0.3-0.4-0.5-0.8-0.7-1.3
				c-0.2-0.5-0.2-1.1-0.2-1.7s0.1-1.2,0.2-1.7c0.2-0.5,0.4-0.9,0.7-1.3c0.3-0.3,0.6-0.6,1.1-0.8c0.4-0.2,0.9-0.3,1.4-0.3
				s1,0.1,1.4,0.3c0.4,0.2,0.8,0.5,1.1,0.8c0.3,0.3,0.5,0.8,0.7,1.3s0.2,1.1,0.2,1.7c0,0.6-0.1,1.2-0.2,1.7s-0.4,0.9-0.7,1.3
				c-0.3,0.4-0.7,0.6-1.1,0.8C296.6,181,296.1,181.1,295.6,181.1z M295.6,180.3c0.4,0,0.7-0.1,1-0.2c0.3-0.2,0.5-0.4,0.7-0.7
				c0.2-0.3,0.4-0.6,0.5-1c0.1-0.4,0.2-0.8,0.2-1.3c0-0.5-0.1-0.9-0.2-1.3c-0.1-0.4-0.3-0.7-0.5-1c-0.2-0.3-0.4-0.5-0.7-0.6
				c-0.3-0.1-0.6-0.2-1-0.2s-0.7,0.1-1,0.2c-0.3,0.1-0.5,0.4-0.7,0.6c-0.2,0.3-0.4,0.6-0.5,1c-0.1,0.4-0.2,0.8-0.2,1.3
				c0,0.5,0.1,0.9,0.2,1.3c0.1,0.4,0.3,0.7,0.5,1c0.2,0.3,0.4,0.5,0.7,0.7C295,180.2,295.3,180.3,295.6,180.3z M295.8,172.5H295
				l1.1-1.3h1.1L295.8,172.5z"/>
			<path class="st4" d="M300.7,173.1h1l2.8,4.9l0.9,1.6h0c0-0.4,0-0.8-0.1-1.2c0-0.4,0-0.8,0-1.3v-4.1h0.9v7.9h-1l-2.9-5l-0.9-1.6h0
				c0,0.4,0.1,0.8,0.1,1.2c0,0.4,0,0.8,0,1.2v4.1h-0.9V173.1z"/>
		</g>
	</g>
	<g>
		<g class="st7">
			<path class="st4" d="M340.6,177.1c0-0.6,0.1-1.2,0.3-1.7c0.2-0.5,0.4-0.9,0.7-1.3c0.3-0.4,0.7-0.6,1.1-0.8
				c0.4-0.2,0.9-0.3,1.4-0.3c0.5,0,0.9,0.1,1.3,0.3c0.4,0.2,0.7,0.4,0.9,0.7l-0.6,0.6c-0.2-0.2-0.4-0.4-0.7-0.5
				c-0.3-0.1-0.5-0.2-0.9-0.2c-0.4,0-0.7,0.1-1,0.2c-0.3,0.1-0.6,0.4-0.8,0.6c-0.2,0.3-0.4,0.6-0.5,1c-0.1,0.4-0.2,0.8-0.2,1.3
				c0,0.5,0.1,0.9,0.2,1.3c0.1,0.4,0.3,0.7,0.5,1c0.2,0.3,0.5,0.5,0.8,0.6c0.3,0.2,0.6,0.2,1,0.2c0.4,0,0.7-0.1,1-0.2
				c0.3-0.2,0.6-0.4,0.8-0.6l0.6,0.6c-0.3,0.4-0.7,0.6-1.1,0.8c-0.4,0.2-0.8,0.3-1.3,0.3c-0.5,0-1-0.1-1.4-0.3
				c-0.4-0.2-0.8-0.5-1.1-0.8c-0.3-0.3-0.5-0.8-0.7-1.3S340.6,177.7,340.6,177.1z"/>
		</g>
	</g>
	<g>
		<g class="st7">
			<path class="st4" d="M350.1,181.1c-0.5,0-0.9-0.1-1.4-0.3c-0.4-0.2-0.8-0.5-1.1-0.8c-0.3-0.4-0.5-0.8-0.7-1.3
				c-0.2-0.5-0.2-1.1-0.2-1.7s0.1-1.2,0.2-1.7c0.2-0.5,0.4-0.9,0.7-1.3c0.3-0.3,0.6-0.6,1.1-0.8c0.4-0.2,0.9-0.3,1.4-0.3
				s1,0.1,1.4,0.3c0.4,0.2,0.8,0.5,1.1,0.8c0.3,0.3,0.5,0.8,0.7,1.3s0.2,1.1,0.2,1.7c0,0.6-0.1,1.2-0.2,1.7s-0.4,0.9-0.7,1.3
				c-0.3,0.4-0.7,0.6-1.1,0.8C351.1,181,350.6,181.1,350.1,181.1z M350.1,180.3c0.4,0,0.7-0.1,1-0.2c0.3-0.2,0.5-0.4,0.7-0.7
				c0.2-0.3,0.4-0.6,0.5-1c0.1-0.4,0.2-0.8,0.2-1.3c0-0.5-0.1-0.9-0.2-1.3c-0.1-0.4-0.3-0.7-0.5-1c-0.2-0.3-0.4-0.5-0.7-0.6
				c-0.3-0.1-0.6-0.2-1-0.2s-0.7,0.1-1,0.2c-0.3,0.1-0.5,0.4-0.7,0.6c-0.2,0.3-0.4,0.6-0.5,1c-0.1,0.4-0.2,0.8-0.2,1.3
				c0,0.5,0.1,0.9,0.2,1.3c0.1,0.4,0.3,0.7,0.5,1c0.2,0.3,0.4,0.5,0.7,0.7C349.5,180.2,349.8,180.3,350.1,180.3z"/>
			<path class="st4" d="M354.9,173.1h1l2.8,4.9l0.9,1.6h0c0-0.4,0-0.8-0.1-1.2c0-0.4,0-0.8,0-1.3v-4.1h0.9v7.9h-1l-2.9-5l-0.9-1.6h0
				c0,0.4,0.1,0.8,0.1,1.2c0,0.4,0,0.8,0,1.2v4.1h-0.9V173.1z"/>
			<path class="st4" d="M362.4,179.3c0.3,0.3,0.6,0.5,1,0.7c0.4,0.2,0.8,0.3,1.2,0.3c0.5,0,0.9-0.1,1.2-0.4c0.3-0.2,0.4-0.5,0.4-0.9
				c0-0.2,0-0.4-0.1-0.5c-0.1-0.1-0.2-0.3-0.3-0.4c-0.1-0.1-0.3-0.2-0.4-0.3s-0.3-0.2-0.5-0.3l-1.1-0.5c-0.2-0.1-0.4-0.2-0.6-0.3
				c-0.2-0.1-0.4-0.2-0.5-0.4s-0.3-0.4-0.4-0.6c-0.1-0.2-0.1-0.5-0.1-0.8c0-0.3,0.1-0.6,0.2-0.8c0.1-0.3,0.3-0.5,0.5-0.7
				c0.2-0.2,0.5-0.3,0.8-0.4c0.3-0.1,0.6-0.2,1-0.2c0.5,0,0.9,0.1,1.3,0.3s0.7,0.4,1,0.7l-0.5,0.6c-0.2-0.2-0.5-0.4-0.8-0.5
				c-0.3-0.1-0.6-0.2-1-0.2c-0.4,0-0.8,0.1-1.1,0.3s-0.4,0.5-0.4,0.8c0,0.2,0,0.4,0.1,0.5c0.1,0.1,0.2,0.2,0.3,0.3
				c0.1,0.1,0.3,0.2,0.4,0.3s0.3,0.1,0.5,0.2l1.1,0.5c0.2,0.1,0.4,0.2,0.6,0.3c0.2,0.1,0.4,0.3,0.5,0.4c0.1,0.2,0.3,0.4,0.3,0.6
				c0.1,0.2,0.1,0.5,0.1,0.8c0,0.3-0.1,0.6-0.2,0.9c-0.1,0.3-0.3,0.5-0.5,0.7c-0.2,0.2-0.5,0.4-0.8,0.5c-0.3,0.1-0.7,0.2-1.1,0.2
				c-0.6,0-1.1-0.1-1.5-0.3c-0.5-0.2-0.9-0.5-1.2-0.9L362.4,179.3z"/>
			<path class="st4" d="M368.5,173.1h1v4.6c0,0.5,0,0.9,0.1,1.2c0.1,0.3,0.2,0.6,0.4,0.8c0.2,0.2,0.4,0.3,0.6,0.4
				c0.2,0.1,0.5,0.1,0.7,0.1c0.3,0,0.5,0,0.7-0.1s0.4-0.2,0.6-0.4c0.2-0.2,0.3-0.4,0.4-0.8c0.1-0.3,0.1-0.7,0.1-1.2v-4.6h1v4.6
				c0,0.6-0.1,1.2-0.2,1.6c-0.1,0.4-0.3,0.8-0.6,1c-0.3,0.3-0.6,0.5-0.9,0.6c-0.3,0.1-0.7,0.2-1.1,0.2s-0.8-0.1-1.1-0.2
				c-0.3-0.1-0.6-0.3-0.9-0.6c-0.3-0.3-0.5-0.6-0.6-1c-0.1-0.4-0.2-1-0.2-1.6V173.1z"/>
			<path class="st4" d="M376,173.1h1v7h3.4v0.9H376V173.1z"/>
			<path class="st4" d="M381.7,174h-2.4v-0.8h5.8v0.8h-2.4v7h-1V174z"/>
			<path class="st4" d="M389.4,178.6h-2.9l-0.8,2.4h-1l2.7-7.9h1.1l2.7,7.9h-1.1L389.4,178.6z M389.1,177.8l-0.4-1.2
				c-0.1-0.4-0.3-0.9-0.4-1.3c-0.1-0.4-0.3-0.9-0.4-1.3h0c-0.1,0.5-0.2,0.9-0.4,1.3c-0.1,0.4-0.3,0.9-0.4,1.3l-0.4,1.2H389.1z"/>
			<path class="st4" d="M392.1,179.3c0.3,0.3,0.6,0.5,1,0.7c0.4,0.2,0.8,0.3,1.2,0.3c0.5,0,0.9-0.1,1.2-0.4c0.3-0.2,0.4-0.5,0.4-0.9
				c0-0.2,0-0.4-0.1-0.5c-0.1-0.1-0.2-0.3-0.3-0.4c-0.1-0.1-0.3-0.2-0.4-0.3s-0.3-0.2-0.5-0.3l-1.1-0.5c-0.2-0.1-0.4-0.2-0.6-0.3
				c-0.2-0.1-0.4-0.2-0.5-0.4s-0.3-0.4-0.4-0.6c-0.1-0.2-0.1-0.5-0.1-0.8c0-0.3,0.1-0.6,0.2-0.8c0.1-0.3,0.3-0.5,0.5-0.7
				c0.2-0.2,0.5-0.3,0.8-0.4c0.3-0.1,0.6-0.2,1-0.2c0.5,0,0.9,0.1,1.3,0.3s0.7,0.4,1,0.7l-0.5,0.6c-0.2-0.2-0.5-0.4-0.8-0.5
				c-0.3-0.1-0.6-0.2-1-0.2c-0.4,0-0.8,0.1-1.1,0.3s-0.4,0.5-0.4,0.8c0,0.2,0,0.4,0.1,0.5c0.1,0.1,0.2,0.2,0.3,0.3
				c0.1,0.1,0.3,0.2,0.4,0.3s0.3,0.1,0.5,0.2l1.1,0.5c0.2,0.1,0.4,0.2,0.6,0.3c0.2,0.1,0.4,0.3,0.5,0.4c0.1,0.2,0.3,0.4,0.3,0.6
				c0.1,0.2,0.1,0.5,0.1,0.8c0,0.3-0.1,0.6-0.2,0.9c-0.1,0.3-0.3,0.5-0.5,0.7c-0.2,0.2-0.5,0.4-0.8,0.5c-0.3,0.1-0.7,0.2-1.1,0.2
				c-0.6,0-1.1-0.1-1.5-0.3c-0.5-0.2-0.9-0.5-1.2-0.9L392.1,179.3z"/>
		</g>
	</g>
	<g>
		<g class="st7">
			<path class="st4" d="M431.1,173.1h1v3.3h3.7v-3.3h1v7.9h-1v-3.7h-3.7v3.7h-1V173.1z"/>
			<path class="st4" d="M438.9,173.1h1v7.9h-1V173.1z"/>
		</g>
	</g>
	<g>
		<g class="st7">
			<path class="st4" d="M442.1,179.3c0.3,0.3,0.6,0.5,1,0.7c0.4,0.2,0.8,0.3,1.2,0.3c0.5,0,0.9-0.1,1.2-0.4c0.3-0.2,0.4-0.5,0.4-0.9
				c0-0.2,0-0.4-0.1-0.5c-0.1-0.1-0.2-0.3-0.3-0.4c-0.1-0.1-0.3-0.2-0.4-0.3s-0.3-0.2-0.5-0.3l-1.1-0.5c-0.2-0.1-0.4-0.2-0.6-0.3
				c-0.2-0.1-0.4-0.2-0.5-0.4s-0.3-0.4-0.4-0.6c-0.1-0.2-0.1-0.5-0.1-0.8c0-0.3,0.1-0.6,0.2-0.8c0.1-0.3,0.3-0.5,0.5-0.7
				c0.2-0.2,0.5-0.3,0.8-0.4c0.3-0.1,0.6-0.2,1-0.2c0.5,0,0.9,0.1,1.3,0.3s0.7,0.4,1,0.7l-0.5,0.6c-0.2-0.2-0.5-0.4-0.8-0.5
				c-0.3-0.1-0.6-0.2-1-0.2c-0.4,0-0.8,0.1-1.1,0.3s-0.4,0.5-0.4,0.8c0,0.2,0,0.4,0.1,0.5c0.1,0.1,0.2,0.2,0.3,0.3
				c0.1,0.1,0.3,0.2,0.4,0.3s0.3,0.1,0.5,0.2l1.1,0.5c0.2,0.1,0.4,0.2,0.6,0.3c0.2,0.1,0.4,0.3,0.5,0.4c0.1,0.2,0.3,0.4,0.3,0.6
				c0.1,0.2,0.1,0.5,0.1,0.8c0,0.3-0.1,0.6-0.2,0.9c-0.1,0.3-0.3,0.5-0.5,0.7c-0.2,0.2-0.5,0.4-0.8,0.5c-0.3,0.1-0.7,0.2-1.1,0.2
				c-0.6,0-1.1-0.1-1.5-0.3c-0.5-0.2-0.9-0.5-1.2-0.9L442.1,179.3z"/>
		</g>
	</g>
	<g>
		<g class="st7">
			<path class="st4" d="M449.6,174h-2.4v-0.8h5.8v0.8h-2.4v7h-1V174z"/>
		</g>
	</g>
	<g>
		<g class="st7">
			<path class="st4" d="M456.6,181.1c-0.5,0-0.9-0.1-1.4-0.3c-0.4-0.2-0.8-0.5-1.1-0.8c-0.3-0.4-0.5-0.8-0.7-1.3
				c-0.2-0.5-0.2-1.1-0.2-1.7s0.1-1.2,0.2-1.7c0.2-0.5,0.4-0.9,0.7-1.3c0.3-0.3,0.6-0.6,1.1-0.8c0.4-0.2,0.9-0.3,1.4-0.3
				s1,0.1,1.4,0.3c0.4,0.2,0.8,0.5,1.1,0.8c0.3,0.3,0.5,0.8,0.7,1.3s0.2,1.1,0.2,1.7c0,0.6-0.1,1.2-0.2,1.7s-0.4,0.9-0.7,1.3
				c-0.3,0.4-0.7,0.6-1.1,0.8C457.6,181,457.1,181.1,456.6,181.1z M456.6,180.3c0.4,0,0.7-0.1,1-0.2c0.3-0.2,0.5-0.4,0.7-0.7
				c0.2-0.3,0.4-0.6,0.5-1c0.1-0.4,0.2-0.8,0.2-1.3c0-0.5-0.1-0.9-0.2-1.3c-0.1-0.4-0.3-0.7-0.5-1c-0.2-0.3-0.4-0.5-0.7-0.6
				c-0.3-0.1-0.6-0.2-1-0.2s-0.7,0.1-1,0.2c-0.3,0.1-0.5,0.4-0.7,0.6c-0.2,0.3-0.4,0.6-0.5,1c-0.1,0.4-0.2,0.8-0.2,1.3
				c0,0.5,0.1,0.9,0.2,1.3c0.1,0.4,0.3,0.7,0.5,1c0.2,0.3,0.4,0.5,0.7,0.7C456,180.2,456.3,180.3,456.6,180.3z"/>
			<path class="st4" d="M466,181l-1.9-3.3h-1.4v3.3h-1v-7.9h2.5c0.4,0,0.8,0,1.1,0.1s0.6,0.2,0.9,0.4s0.4,0.4,0.6,0.7
				c0.1,0.3,0.2,0.6,0.2,1c0,0.6-0.2,1.1-0.5,1.5c-0.3,0.4-0.7,0.6-1.3,0.8l2,3.4H466z M462.7,176.9h1.3c0.6,0,1.1-0.1,1.4-0.4
				s0.5-0.6,0.5-1.1c0-0.5-0.2-0.9-0.5-1.1s-0.8-0.3-1.4-0.3h-1.3V176.9z"/>
			<path class="st4" d="M468.7,173.1h1v7.9h-1V173.1z"/>
			<path class="st4" d="M475.4,178.6h-2.9l-0.8,2.4h-1l2.7-7.9h1.1l2.7,7.9h-1.1L475.4,178.6z M475.2,177.8l-0.4-1.2
				c-0.1-0.4-0.3-0.9-0.4-1.3c-0.1-0.4-0.3-0.9-0.4-1.3h0c-0.1,0.5-0.2,0.9-0.4,1.3c-0.1,0.4-0.3,0.9-0.4,1.3l-0.4,1.2H475.2z"/>
			<path class="st4" d="M478.4,179.3c0.3,0.3,0.6,0.5,1,0.7c0.4,0.2,0.8,0.3,1.2,0.3c0.5,0,0.9-0.1,1.2-0.4c0.3-0.2,0.4-0.5,0.4-0.9
				c0-0.2,0-0.4-0.1-0.5c-0.1-0.1-0.2-0.3-0.3-0.4c-0.1-0.1-0.3-0.2-0.4-0.3s-0.3-0.2-0.5-0.3l-1.1-0.5c-0.2-0.1-0.4-0.2-0.6-0.3
				c-0.2-0.1-0.4-0.2-0.5-0.4s-0.3-0.4-0.4-0.6c-0.1-0.2-0.1-0.5-0.1-0.8c0-0.3,0.1-0.6,0.2-0.8c0.1-0.3,0.3-0.5,0.5-0.7
				c0.2-0.2,0.5-0.3,0.8-0.4c0.3-0.1,0.6-0.2,1-0.2c0.5,0,0.9,0.1,1.3,0.3s0.7,0.4,1,0.7l-0.5,0.6c-0.2-0.2-0.5-0.4-0.8-0.5
				c-0.3-0.1-0.6-0.2-1-0.2c-0.4,0-0.8,0.1-1.1,0.3s-0.4,0.5-0.4,0.8c0,0.2,0,0.4,0.1,0.5c0.1,0.1,0.2,0.2,0.3,0.3
				c0.1,0.1,0.3,0.2,0.4,0.3s0.3,0.1,0.5,0.2l1.1,0.5c0.2,0.1,0.4,0.2,0.6,0.3c0.2,0.1,0.4,0.3,0.5,0.4c0.1,0.2,0.3,0.4,0.3,0.6
				c0.1,0.2,0.1,0.5,0.1,0.8c0,0.3-0.1,0.6-0.2,0.9c-0.1,0.3-0.3,0.5-0.5,0.7c-0.2,0.2-0.5,0.4-0.8,0.5c-0.3,0.1-0.7,0.2-1.1,0.2
				c-0.6,0-1.1-0.1-1.5-0.3c-0.5-0.2-0.9-0.5-1.2-0.9L478.4,179.3z"/>
		</g>
	</g>
	<g>
		<g class="st7">
			<path class="st4" d="M518.4,181l-1.9-3.3h-1.4v3.3h-1v-7.9h2.5c0.4,0,0.8,0,1.1,0.1s0.6,0.2,0.9,0.4s0.4,0.4,0.6,0.7
				c0.1,0.3,0.2,0.6,0.2,1c0,0.6-0.2,1.1-0.5,1.5c-0.3,0.4-0.7,0.6-1.3,0.8l2,3.4H518.4z M515.1,176.9h1.3c0.6,0,1.1-0.1,1.4-0.4
				s0.5-0.6,0.5-1.1c0-0.5-0.2-0.9-0.5-1.1s-0.8-0.3-1.4-0.3h-1.3V176.9z"/>
			<path class="st4" d="M524.5,178.6h-2.9l-0.8,2.4h-1l2.7-7.9h1.1l2.7,7.9h-1.1L524.5,178.6z M524.3,177.8l-0.4-1.2
				c-0.1-0.4-0.3-0.9-0.4-1.3c-0.1-0.4-0.3-0.9-0.4-1.3h0c-0.1,0.5-0.2,0.9-0.4,1.3c-0.1,0.4-0.3,0.9-0.4,1.3l-0.4,1.2H524.3z"/>
			<path class="st4" d="M527.5,173.1h1l2.8,4.9l0.9,1.6h0c0-0.4-0.1-0.8-0.1-1.2c0-0.4,0-0.8,0-1.3v-4.1h0.9v7.9h-1l-2.9-5l-0.9-1.6
				h0c0,0.4,0.1,0.8,0.1,1.2c0,0.4,0,0.8,0,1.2v4.1h-0.9V173.1z"/>
			<path class="st4" d="M535.2,173.1h1v3.9h0l3.3-3.9h1.1l-2.5,3l2.8,4.9h-1.1l-2.4-4.1l-1.4,1.6v2.5h-1V173.1z"/>
			<path class="st4" d="M542.2,173.1h1v7.9h-1V173.1z"/>
			<path class="st4" d="M545.3,173.1h1l2.8,4.9l0.9,1.6h0c0-0.4,0-0.8-0.1-1.2c0-0.4,0-0.8,0-1.3v-4.1h0.9v7.9h-1l-2.9-5l-0.9-1.6h0
				c0,0.4,0.1,0.8,0.1,1.2c0,0.4,0,0.8,0,1.2v4.1h-0.9V173.1z"/>
			<path class="st4" d="M552.6,177.1c0-0.6,0.1-1.2,0.3-1.7c0.2-0.5,0.4-0.9,0.8-1.3c0.3-0.4,0.7-0.6,1.1-0.8
				c0.4-0.2,0.9-0.3,1.5-0.3c0.5,0,1,0.1,1.4,0.3c0.4,0.2,0.7,0.4,0.9,0.7l-0.6,0.6c-0.2-0.2-0.4-0.4-0.7-0.5
				c-0.3-0.1-0.6-0.2-1-0.2s-0.8,0.1-1.1,0.2s-0.6,0.4-0.8,0.6c-0.2,0.3-0.4,0.6-0.5,1c-0.1,0.4-0.2,0.8-0.2,1.3
				c0,0.5,0.1,0.9,0.2,1.3c0.1,0.4,0.3,0.7,0.5,1c0.2,0.3,0.5,0.5,0.8,0.6s0.7,0.2,1.1,0.2c0.3,0,0.5,0,0.8-0.1s0.5-0.2,0.6-0.3
				v-2.1H556v-0.8h2.6v3.3c-0.3,0.3-0.6,0.5-1,0.7s-0.9,0.3-1.4,0.3c-0.5,0-1-0.1-1.4-0.3c-0.4-0.2-0.8-0.5-1.1-0.8
				c-0.3-0.3-0.6-0.8-0.7-1.3C552.7,178.3,552.6,177.7,552.6,177.1z"/>
			<path class="st4" d="M560.5,179.3c0.3,0.3,0.6,0.5,1,0.7c0.4,0.2,0.8,0.3,1.2,0.3c0.5,0,0.9-0.1,1.2-0.4s0.4-0.5,0.4-0.9
				c0-0.2,0-0.4-0.1-0.5c-0.1-0.1-0.2-0.3-0.3-0.4c-0.1-0.1-0.3-0.2-0.4-0.3s-0.3-0.2-0.5-0.3l-1.1-0.5c-0.2-0.1-0.4-0.2-0.6-0.3
				c-0.2-0.1-0.4-0.2-0.5-0.4s-0.3-0.4-0.4-0.6s-0.1-0.5-0.1-0.8c0-0.3,0.1-0.6,0.2-0.8c0.1-0.3,0.3-0.5,0.5-0.7
				c0.2-0.2,0.5-0.3,0.8-0.4c0.3-0.1,0.6-0.2,1-0.2c0.5,0,0.9,0.1,1.3,0.3c0.4,0.2,0.7,0.4,1,0.7l-0.5,0.6c-0.2-0.2-0.5-0.4-0.8-0.5
				c-0.3-0.1-0.6-0.2-1-0.2c-0.4,0-0.8,0.1-1.1,0.3c-0.3,0.2-0.4,0.5-0.4,0.8c0,0.2,0,0.4,0.1,0.5s0.2,0.2,0.3,0.3
				c0.1,0.1,0.3,0.2,0.4,0.3s0.3,0.1,0.5,0.2l1.1,0.5c0.2,0.1,0.4,0.2,0.6,0.3c0.2,0.1,0.4,0.3,0.5,0.4c0.1,0.2,0.3,0.4,0.3,0.6
				c0.1,0.2,0.1,0.5,0.1,0.8c0,0.3-0.1,0.6-0.2,0.9c-0.1,0.3-0.3,0.5-0.5,0.7c-0.2,0.2-0.5,0.4-0.8,0.5c-0.3,0.1-0.7,0.2-1.1,0.2
				c-0.6,0-1.1-0.1-1.5-0.3s-0.9-0.5-1.2-0.9L560.5,179.3z"/>
		</g>
	</g>
	<g>
		<defs>
			<path id="SVGID_11_" d="M75,21.3c0.8,1.4,0.3,3.2-1.1,3.9c-1.4,0.8-3.2,0.3-4-1.1l-2.7-4.7c-0.8-1.4-0.3-3.2,1.1-3.9
				c1.4-0.8,3.2-0.3,4,1.1L75,21.3z"/>
		</defs>
		<clipPath id="SVGID_12_">
			<use xlink:href="#SVGID_11_"  style="overflow:visible;"/>
		</clipPath>
		<g class="st8">
			<defs>
				<rect id="SVGID_13_" x="60" y="9" width="18" height="18"/>
			</defs>
			<clipPath id="SVGID_14_">
				<use xlink:href="#SVGID_13_"  style="overflow:visible;"/>
			</clipPath>
			<rect x="61.9" y="10.1" transform="matrix(0.5 -0.866 0.866 0.5 17.9044 71.8072)" class="st9" width="18.5" height="20.5"/>
		</g>
	</g>
	<g>
		<defs>
			<path id="SVGID_15_" d="M72.3,19.6c-0.8,1.4-2.6,1.9-4,1.1c-1.4-0.8-1.9-2.6-1.1-4l2.7-4.7c0.8-1.4,2.6-1.9,4-1.1
				c1.4,0.8,1.9,2.6,1.1,4L72.3,19.6z"/>
		</defs>
		<clipPath id="SVGID_16_">
			<use xlink:href="#SVGID_15_"  style="overflow:visible;"/>
		</clipPath>
		<g class="st10">
			<defs>
				<rect id="SVGID_17_" x="60" y="9" width="18" height="18"/>
			</defs>
			<clipPath id="SVGID_18_">
				<use xlink:href="#SVGID_17_"  style="overflow:visible;"/>
			</clipPath>
			<rect x="60.6" y="7.9" transform="matrix(0.5 -0.866 0.866 0.5 21.9393 69.5451)" class="st11" width="21.3" height="15.8"/>
		</g>
	</g>
	<g>
		<defs>
			<path id="SVGID_19_" d="M64.4,21c-1.6,0-2.9-1.3-2.9-2.9c0-1.6,1.3-2.9,2.9-2.9l5.5,0c1.6,0,2.9,1.3,2.9,2.9
				c0,1.6-1.3,2.9-2.9,2.9L64.4,21z"/>
		</defs>
		<clipPath id="SVGID_20_">
			<use xlink:href="#SVGID_19_"  style="overflow:visible;"/>
		</clipPath>
		<g class="st12">
			<defs>
				<rect id="SVGID_21_" x="60" y="9" width="18" height="18"/>
			</defs>
			<clipPath id="SVGID_22_">
				<use xlink:href="#SVGID_21_"  style="overflow:visible;"/>
			</clipPath>
			<rect x="57.9" y="7.8" transform="matrix(0.5 -0.866 0.866 0.5 17.8929 67.2269)" class="st13" width="18.5" height="20.5"/>
		</g>
	</g>
	<g>
		<defs>
			<ellipse id="SVGID_23_" cx="69.8" cy="18" rx="3" ry="3"/>
		</defs>
		<clipPath id="SVGID_24_">
			<use xlink:href="#SVGID_23_"  style="overflow:visible;"/>
		</clipPath>
		<g class="st14">
			<defs>
				<rect id="SVGID_25_" x="60" y="9" width="18" height="18"/>
			</defs>
			<clipPath id="SVGID_26_">
				<use xlink:href="#SVGID_25_"  style="overflow:visible;"/>
			</clipPath>
			<rect x="61.8" y="10" class="st15" width="16.1" height="16"/>
		</g>
	</g>
	<g>
		<defs>
			<path id="SVGID_27_" d="M145.4,17.9c-0.3,0.4-0.4,1-0.4,1.8c0,0.8,0.1,1.4,0.4,1.8c0.3,0.4,0.7,0.5,1.2,0.5s1-0.2,1.2-0.5
				c0.3-0.4,0.4-1,0.4-1.8c0-0.8-0.1-1.4-0.4-1.8c-0.3-0.4-0.7-0.5-1.2-0.5S145.7,17.5,145.4,17.9z M149.8,16.6
				c0.8,0.7,1.2,1.7,1.2,3.1c0,1.3-0.4,2.3-1.2,3.1c-0.8,0.7-1.8,1.1-3.2,1.1c-1.4,0-2.5-0.4-3.2-1.1c-0.8-0.7-1.2-1.7-1.2-3.1
				c0-1.3,0.4-2.3,1.2-3.1s1.8-1.1,3.2-1.1C148,15.5,149.1,15.8,149.8,16.6z M141.8,23.1c-0.3,0.2-0.6,0.3-1.1,0.5
				c-0.4,0.1-0.9,0.2-1.3,0.2c-1,0-1.8-0.2-2.3-0.6c-0.5-0.4-0.8-1.1-0.8-2v-3.8h-1.4v-2h1.4v-1.9l2.9-0.8v2.6h2.5v2h-2.5v3.3
				c0,0.7,0.4,1.1,1.1,1.1c0.5,0,0.9-0.1,1.2-0.4L141.8,23.1z M134.8,15.6l-0.3,2.3c-0.1-0.1-0.3-0.1-0.4-0.2
				c-0.2,0-0.4-0.1-0.6-0.1c-0.5,0-1,0.2-1.3,0.5c-0.4,0.3-0.5,0.8-0.5,1.4v4.1h-2.8v-8.1h2.5l0.1,1.8c0.2-0.6,0.5-1.1,0.9-1.4
				c0.4-0.3,1-0.5,1.6-0.5C134.3,15.5,134.6,15.5,134.8,15.6z M121.4,18.7h3.2c-0.1-0.9-0.7-1.4-1.6-1.4
				C122.2,17.3,121.6,17.8,121.4,18.7z M126.9,20.4h-5.5c0.1,0.5,0.3,0.9,0.6,1.1c0.3,0.2,0.7,0.4,1.1,0.4c0.4,0,0.7-0.1,1-0.2
				s0.4-0.4,0.5-0.7l2.2,0.7c-0.2,0.7-0.7,1.2-1.3,1.6c-0.7,0.4-1.5,0.5-2.4,0.5c-1.4,0-2.5-0.4-3.3-1.1c-0.8-0.7-1.1-1.7-1.1-3.1
				c0-1.3,0.4-2.3,1.1-3.1c0.7-0.7,1.8-1.1,3.1-1.1c1.3,0,2.3,0.4,3,1.1s1,1.7,1,3C127,19.9,127,20.2,126.9,20.4z M116.8,23.8H114
				v-8.3h2.8V23.8z M114.4,14.2c-0.3-0.2-0.4-0.6-0.4-1c0-0.5,0.1-0.8,0.4-1.1c0.3-0.2,0.7-0.3,1.2-0.3c0.6,0,1,0.1,1.2,0.3
				c0.3,0.2,0.4,0.6,0.4,1.1c0,0.5-0.1,0.8-0.4,1c-0.3,0.2-0.7,0.3-1.2,0.3C115.1,14.5,114.7,14.4,114.4,14.2z M109.5,21.4
				c0.3-0.4,0.4-1,0.4-1.7c0-0.8-0.1-1.4-0.4-1.7c-0.3-0.4-0.7-0.6-1.2-0.6c-0.5,0-0.9,0.2-1.2,0.6c-0.3,0.4-0.4,0.9-0.4,1.6v0.2
				c0,0.7,0.1,1.3,0.4,1.7c0.3,0.4,0.7,0.6,1.2,0.6C108.8,21.9,109.2,21.7,109.5,21.4z M111.7,16.3c0.6,0.8,0.9,1.8,0.9,3.2
				c0,1.4-0.3,2.4-0.9,3.2c-0.6,0.8-1.4,1.1-2.5,1.1c-0.7,0-1.2-0.2-1.7-0.5c-0.5-0.3-0.8-0.8-1.1-1.4l-0.1,1.8h-2.5V11.8h2.8v4.9
				c0.2-0.5,0.6-0.9,1-1.1c0.4-0.3,0.9-0.4,1.5-0.4C110.3,15.1,111.1,15.5,111.7,16.3z M96.9,17.9c-0.3,0.4-0.4,1-0.4,1.8
				c0,0.8,0.1,1.4,0.4,1.8c0.3,0.4,0.7,0.5,1.2,0.5c0.6,0,1-0.2,1.2-0.5c0.3-0.4,0.4-1,0.4-1.8c0-0.8-0.1-1.4-0.4-1.8
				c-0.3-0.4-0.7-0.5-1.2-0.5C97.6,17.3,97.2,17.5,96.9,17.9z M101.3,16.6c0.8,0.7,1.2,1.7,1.2,3.1c0,1.3-0.4,2.3-1.2,3.1
				c-0.8,0.7-1.8,1.1-3.2,1.1s-2.5-0.4-3.2-1.1c-0.8-0.7-1.2-1.7-1.2-3.1c0-1.3,0.4-2.3,1.2-3.1s1.8-1.1,3.2-1.1
				S100.6,15.8,101.3,16.6z M91.9,17.8v5.8h-2l-0.1-1.3c-0.6,1-1.7,1.4-3.1,1.4c-1,0-1.9-0.2-2.6-0.6c-0.8-0.4-1.4-1.1-1.8-1.9
				c-0.4-0.8-0.6-1.8-0.6-3c0-1.2,0.2-2.1,0.7-3c0.4-0.8,1.1-1.5,1.9-1.9c0.8-0.4,1.8-0.7,2.9-0.7c1.2,0,2.2,0.2,3,0.7
				c0.8,0.4,1.3,1.1,1.8,2.1l-2.6,1c-0.1-0.5-0.4-0.9-0.7-1.2c-0.4-0.3-0.8-0.4-1.3-0.4c-0.8,0-1.5,0.3-1.9,0.8
				c-0.4,0.6-0.7,1.4-0.7,2.5c0,2.3,0.9,3.4,2.7,3.4c0.7,0,1.2-0.2,1.6-0.5c0.4-0.3,0.6-0.7,0.6-1.3v-0.2h-2.7v-1.9H91.9z"/>
		</defs>
		<clipPath id="SVGID_28_">
			<use xlink:href="#SVGID_27_"  style="overflow:visible;"/>
		</clipPath>
		<rect x="76.7" y="6.8" class="st16" width="79.3" height="22"/>
	</g>
	<g>
		<defs>
			<rect id="SVGID_29_" y="194" width="1024" height="593"/>
		</defs>
		<clipPath id="SVGID_30_">
			<use xlink:href="#SVGID_29_"  style="overflow:visible;"/>
		</clipPath>
		<g class="st17">
			<g>
				<defs>
					<rect id="SVGID_31_" x="-5" y="189" width="1034" height="781"/>
				</defs>
				<clipPath id="SVGID_32_">
					<use xlink:href="#SVGID_31_"  style="overflow:visible;"/>
				</clipPath>
				<g class="st18">
					<defs>
						<rect id="SVGID_33_" y="194" width="1024" height="593"/>
					</defs>
					<clipPath id="SVGID_34_">
						<use xlink:href="#SVGID_33_"  style="overflow:visible;"/>
					</clipPath>
					<rect x="-5" y="189" class="st19" width="1034" height="603"/>
					<g class="st20">
						<defs>
							<rect id="SVGID_35_" x="38" y="212" width="948" height="758"/>
						</defs>
						<clipPath id="SVGID_36_">
							<use xlink:href="#SVGID_35_"  style="overflow:visible;"/>
						</clipPath>
						<g style="clip-path:url(#SVGID_36_);">
							
								<image style="overflow:visible;" width="2016" height="1611" xlink:href="3B0464C184EFBC12.jpg"  transform="matrix(0.4702 0 0 0.4705 38 212)">
							</image>
						</g>
					</g>
				</g>
			</g>
		</g>
	</g>
</g>
</svg>
