<?xml version="1.0" encoding="UTF-8"?>
<svg width="954px" height="464px" viewBox="0 0 954 464" version="1.1" xmlns="http://www.w3.org/2000/svg" xmlns:xlink="http://www.w3.org/1999/xlink">
    <!-- Generator: Sketch 53.2 (72643) - https://sketchapp.com -->
    <title>ilustra amarilla</title>
    <desc>Created with Sketch.</desc>
    <defs>
        <filter x="-12.4%" y="-150.0%" width="124.8%" height="400.0%" filterUnits="objectBoundingBox" id="filter-1">
            <feGaussianBlur stdDeviation="13" in="SourceGraphic"></feGaussianBlur>
        </filter>
    </defs>
    <g id="Page-1" stroke="none" stroke-width="1" fill="none" fill-rule="evenodd">
        <g id="Gobierto-Contratos-Proto-v2" transform="translate(0.000000, -1676.000000)">
            <g id="ilustra-amarilla" transform="translate(0.000000, 1676.000000)">
                <path d="M-1.70530257e-13,1.07055696 C614.347611,0.762023752 932.079381,0.607757148 953.195313,0.607757148 C682.602811,75.5888292 718.931325,223.84375 554,354 C444.045783,440.770833 259.379117,475.977526 -1.70530257e-13,459.620079 L-1.70530257e-13,1.07055696 Z" id="Rectangle-Copy-6" fill="#01909E"></path>
                <path d="M612.645069,80 C613.14163,85.894777 615.49757,88.6012564 619.712891,88.1194383 C615.244707,88.2826513 613.010615,91.1523438 613.010615,96.7285156 C612.766918,91.1523438 610.430046,88.2826513 606,88.1194383 C610.552144,88.6481032 612.767167,85.9416238 612.645069,80 Z" id="Polygon-Copy-3" fill="#FFFFFF"></path>
                <path d="M343.993836,404.200001 C344.345552,407.980504 346.014273,409.716253 349,409.407248 C345.835169,409.511922 344.252754,411.352345 344.252754,414.928516 C344.080142,411.352345 342.424927,409.511922 339.287109,409.407248 C342.511409,409.746297 344.080318,408.010548 343.993836,404.200001 Z" id="Polygon-Copy-5" fill="#FFFFFF"></path>
                <path d="M71.6450691,406 C72.1416296,412.599535 74.4975701,415.629591 78.7128906,415.090169 C74.2447069,415.272895 72.0106151,418.485677 72.0106151,424.728516 C71.7669178,418.485677 69.4300461,415.272895 65,415.090169 C69.5521437,415.682039 71.7671668,412.651983 71.6450691,406 Z" id="Polygon-Copy-4" fill="#FFFFFF"></path>
                <g id="Group-10" transform="translate(51.000000, 48.000000)" stroke="#FFFFFF" stroke-width="2">
                    <path d="M2.41421356,7 L7,11.5857864 L7,7 L2.41421356,7 Z" id="Rectangle" transform="translate(4.000000, 10.000000) rotate(-90.000000) translate(-4.000000, -10.000000) "></path>
                    <path d="M8.41421356,1 L13,5.58578644 L13,1 L8.41421356,1 Z" id="Rectangle-Copy-11" transform="translate(10.000000, 4.000000) rotate(-90.000000) translate(-10.000000, -4.000000) "></path>
                </g>
                <g id="Group-10-Copy-5" transform="translate(539.000000, 180.000000) rotate(-90.000000) translate(-539.000000, -180.000000) translate(532.000000, 173.000000)" stroke="#FFFFFF" stroke-width="2">
                    <path d="M2.41421356,7 L7,11.5857864 L7,7 L2.41421356,7 Z" id="Rectangle" transform="translate(4.000000, 10.000000) rotate(-90.000000) translate(-4.000000, -10.000000) "></path>
                    <path d="M8.41421356,1 L13,5.58578644 L13,1 L8.41421356,1 Z" id="Rectangle-Copy-11" transform="translate(10.000000, 4.000000) rotate(-90.000000) translate(-10.000000, -4.000000) "></path>
                </g>
                <g id="Group-10-Copy-4" transform="translate(195.000000, 354.000000) rotate(-270.000000) translate(-195.000000, -354.000000) translate(188.000000, 347.000000)" stroke="#FFFFFF" stroke-width="2">
                    <path d="M2.41421356,7 L7,11.5857864 L7,7 L2.41421356,7 Z" id="Rectangle" transform="translate(4.000000, 10.000000) rotate(-90.000000) translate(-4.000000, -10.000000) "></path>
                    <path d="M8.41421356,1 L13,5.58578644 L13,1 L8.41421356,1 Z" id="Rectangle-Copy-11" transform="translate(10.000000, 4.000000) rotate(-90.000000) translate(-10.000000, -4.000000) "></path>
                </g>
                <ellipse id="Oval" fill="#005162" style="mix-blend-mode: multiply;" opacity="0.800000012" filter="url(#filter-1)" cx="309" cy="340.200001" rx="157" ry="13"></ellipse>
                <g id="Group-10-Copy-2" transform="translate(482.000000, 43.000000) rotate(-270.000000) translate(-482.000000, -43.000000) translate(475.000000, 36.000000)" stroke="#FFFFFF" stroke-width="2">
                    <path d="M2.41421356,7 L7,11.5857864 L7,7 L2.41421356,7 Z" id="Rectangle" transform="translate(4.000000, 10.000000) rotate(-90.000000) translate(-4.000000, -10.000000) "></path>
                    <path d="M8.41421356,1 L13,5.58578644 L13,1 L8.41421356,1 Z" id="Rectangle-Copy-11" transform="translate(10.000000, 4.000000) rotate(-90.000000) translate(-10.000000, -4.000000) "></path>
                </g>
                <g id="Group-10-Copy-3" transform="translate(727.000000, 48.000000) rotate(-270.000000) translate(-727.000000, -48.000000) translate(720.000000, 41.000000)" stroke="#FFFFFF" stroke-width="2">
                    <path d="M2.41421356,7 L7,11.5857864 L7,7 L2.41421356,7 Z" id="Rectangle" transform="translate(4.000000, 10.000000) rotate(-90.000000) translate(-4.000000, -10.000000) "></path>
                    <path d="M8.41421356,1 L13,5.58578644 L13,1 L8.41421356,1 Z" id="Rectangle-Copy-11" transform="translate(10.000000, 4.000000) rotate(-90.000000) translate(-10.000000, -4.000000) "></path>
                </g>
                <circle id="Oval" stroke="#F9F9F9" stroke-width="1.5999999" cx="256.5" cy="38.5" r="4.70000005"></circle>
                <circle id="Oval-Copy" stroke="#F9F9F9" stroke-width="2" cx="58" cy="270" r="4"></circle>
                <circle id="Oval-Copy-2" stroke="#F9F9F9" stroke-width="2" cx="507" cy="326" r="4"></circle>
                <rect id="Rectangle" stroke="#F9F9F9" stroke-width="2" transform="translate(97.000000, 171.000000) rotate(-315.000000) translate(-97.000000, -171.000000) " x="92" y="166" width="10" height="10"></rect>
                <rect id="Rectangle-Copy-12" stroke="#F9F9F9" stroke-width="2" transform="translate(617.485281, 243.485281) rotate(-315.000000) translate(-617.485281, -243.485281) " x="612.485281" y="238.485281" width="10" height="10"></rect>
                <rect id="Rectangle-Copy-15" stroke="#F9F9F9" stroke-width="2" transform="translate(232.485281, 433.485281) rotate(-315.000000) translate(-232.485281, -433.485281) " x="227.485281" y="428.485281" width="10" height="10"></rect>
            </g>
        </g>
    </g>
</svg>