<?xml version="1.0" encoding="UTF-8"?>
<svg width="161px" height="60px" viewBox="0 0 161 60" version="1.1" xmlns="http://www.w3.org/2000/svg" xmlns:xlink="http://www.w3.org/1999/xlink">
    <!-- Generator: Sketch 46.2 (44496) - http://www.bohemiancoding.com/sketch -->
    <title>Group 4</title>
    <desc>Created with Sketch.</desc>
    <defs>
        <path d="M0.765,4.229 C5.173,1.719 10.032,0.332 15.445,0.332 C20.698,0.332 25.624,1.673 29.94,4.021 L30.355,4.264 L29.75,5.276 L28.21,4.392 L27.563,5.514 L29.08,6.388 L28.621,7.154 C24.722,4.957 20.234,3.707 15.445,3.707 C10.679,3.707 6.271,4.865 2.385,7.062 L1.893,6.2 L3.411,5.36 L2.783,4.228 L1.254,5.076 L0.765,4.229 Z M14.525,2.668 L16.33,2.668 L16.33,1.374 L14.525,1.374 L14.525,2.668 Z M7.584,2.388 L7.918,3.638 L9.662,3.173 L9.327,1.922 L7.584,2.388 Z M21.124,3.23 L22.875,3.665 L23.188,2.409 L21.437,1.972 L21.124,3.23 Z" id="path-1"></path>
        <path d="M79.968,0.081 C80.141,0.49 80.386,0.842 80.704,1.139 C81.389,1.781 82.331,2.107 83.532,2.117 C83.935,2.116 84.309,2.09 84.654,2.04 C84.998,1.99 85.279,1.916 85.497,1.82 L85.244,0.081 L84.233,0.081 C84.18,0.086 84.125,0.087 84.07,0.087 C84.01,0.087 83.951,0.084 83.895,0.08 L79.968,0.081 Z M5.292,0.081 C5.226,0.206 5.151,0.316 5.068,0.414 C4.66,0.9 4.105,1.139 3.403,1.135 C2.755,1.142 2.229,0.905 1.824,0.425 C1.739,0.324 1.661,0.209 1.592,0.081 L0.267,0.081 C0.427,0.549 0.652,0.926 0.941,1.215 C1.566,1.837 2.37,2.142 3.352,2.125 C4.394,2.137 5.245,1.821 5.902,1.177 C6.195,0.89 6.424,0.524 6.591,0.08 L5.292,0.081 Z M113.361,0.081 C113.508,0.483 113.713,0.834 113.978,1.133 C114.552,1.785 115.267,2.118 116.121,2.132 C116.537,2.134 116.937,2.048 117.323,1.87 C117.709,1.693 118.024,1.406 118.269,1.009 L118.404,1.971 L120.733,1.971 C120.719,1.728 120.705,1.403 120.694,0.999 C120.686,0.706 120.68,0.399 120.677,0.081 L113.361,0.081 Z M97.698,0.081 C97.845,0.483 98.05,0.834 98.313,1.133 C98.889,1.785 99.603,2.118 100.457,2.132 C100.873,2.134 101.274,2.048 101.66,1.87 C102.046,1.693 102.361,1.406 102.606,1.009 L102.741,1.971 L105.07,1.971 C105.054,1.728 105.042,1.403 105.03,0.999 C105.021,0.706 105.016,0.399 105.014,0.081 L97.698,0.081 Z M62.144,0.081 C62.292,0.483 62.497,0.834 62.761,1.133 C63.335,1.785 64.05,2.118 64.905,2.132 C65.319,2.134 65.721,2.048 66.106,1.87 C66.492,1.693 66.807,1.406 67.052,1.009 L67.187,1.971 L69.516,1.971 C69.502,1.728 69.488,1.403 69.477,0.999 C69.469,0.706 69.463,0.399 69.46,0.081 L62.144,0.081 Z M52.479,0.081 C52.636,0.509 52.866,0.879 53.172,1.189 C53.777,1.802 54.547,2.115 55.483,2.125 L55.498,2.125 C56.045,2.128 56.572,2.003 57.081,1.749 C57.588,1.496 58.006,1.103 58.335,0.572 C58.428,0.421 58.508,0.258 58.577,0.082 L57.233,0.081 C57.163,0.219 57.082,0.345 56.99,0.461 C56.611,0.943 56.121,1.191 55.52,1.205 L55.506,1.205 C54.904,1.189 54.417,0.941 54.046,0.46 C53.955,0.342 53.874,0.216 53.806,0.081 L52.479,0.081 Z M43.323,0.081 C43.471,0.495 43.692,0.856 43.985,1.166 C44.566,1.78 45.381,2.096 46.429,2.111 C46.967,2.106 47.423,2.057 47.799,1.969 C48.175,1.88 48.471,1.783 48.686,1.678 L48.471,0.805 C48.248,0.902 47.989,0.983 47.693,1.049 C47.397,1.114 47.031,1.148 46.597,1.15 C45.962,1.157 45.424,0.973 44.986,0.603 C44.818,0.46 44.681,0.287 44.574,0.081 L43.323,0.081 Z M28.906,0.081 C29.062,0.509 29.292,0.879 29.599,1.189 C30.202,1.802 30.974,2.115 31.91,2.125 L31.923,2.125 C32.471,2.128 32.999,2.003 33.506,1.749 C34.014,1.496 34.432,1.103 34.761,0.572 C34.854,0.421 34.935,0.258 35.003,0.082 L33.659,0.081 C33.589,0.219 33.508,0.345 33.416,0.461 C33.037,0.943 32.547,1.191 31.947,1.205 L31.932,1.205 C31.33,1.189 30.843,0.941 30.472,0.46 C30.381,0.342 30.301,0.216 30.231,0.081 L28.906,0.081 Z M109.54,0.081 C109.518,0.102 109.496,0.12 109.472,0.137 C109.302,0.255 109.121,0.316 108.928,0.319 C108.703,0.319 108.524,0.262 108.391,0.146 C108.368,0.127 108.348,0.106 108.33,0.084 L105.63,0.081 C105.676,0.615 105.884,1.072 106.255,1.455 C106.671,1.887 107.249,2.112 107.987,2.131 C108.375,2.133 108.739,2.074 109.079,1.952 C109.418,1.83 109.715,1.627 109.968,1.342 L110.156,1.971 L112.515,1.971 C112.477,1.785 112.448,1.538 112.428,1.233 C112.408,0.926 112.398,0.593 112.398,0.231 L112.398,0.081 L109.54,0.081 Z M89.735,0.081 C89.839,0.61 90.03,1.035 90.306,1.359 C90.746,1.872 91.368,2.131 92.172,2.131 C92.806,2.108 93.295,1.973 93.638,1.726 C93.981,1.477 94.214,1.245 94.337,1.031 L94.505,1.971 L96.766,1.971 C96.751,1.669 96.737,1.313 96.726,0.906 C96.718,0.65 96.714,0.376 96.711,0.081 L89.735,0.081 Z M85.98,1.971 L88.604,1.971 L88.604,0.081 L85.98,0.081 L85.98,1.971 Z M75.813,0.081 C75.691,0.104 75.57,0.125 75.449,0.14 C75.125,0.183 74.796,0.204 74.458,0.203 C74.117,0.202 73.808,0.161 73.533,0.082 L70.432,0.081 C70.601,0.49 70.844,0.845 71.161,1.144 C71.836,1.782 72.807,2.107 74.073,2.117 C74.517,2.119 74.966,2.088 75.42,2.02 C75.874,1.953 76.317,1.837 76.75,1.669 L76.449,0.081 L75.813,0.081 Z M50.023,1.972 L51.25,1.972 L51.25,0.081 L50.023,0.081 L50.023,1.972 Z M40.668,0.081 C40.542,0.347 40.367,0.569 40.146,0.743 C39.819,1 39.444,1.133 39.025,1.135 C38.361,1.118 37.86,0.87 37.523,0.395 C37.454,0.296 37.391,0.192 37.336,0.084 L35.995,0.081 C36.134,0.499 36.34,0.864 36.613,1.176 C37.152,1.793 37.841,2.109 38.679,2.124 C39.233,2.117 39.706,1.991 40.098,1.747 C40.489,1.502 40.78,1.188 40.971,0.801 L41.067,1.972 L42.163,1.972 C42.147,1.733 42.134,1.459 42.123,1.15 C42.113,0.842 42.108,0.534 42.108,0.226 L42.108,0.081 L40.668,0.081 Z M26.508,1.972 L27.709,1.972 L27.709,0.081 L26.508,0.081 L26.508,1.972 Z M22.27,1.972 L23.471,1.972 L23.471,0.081 L22.27,0.081 L22.27,1.972 Z M18.032,1.972 L19.233,1.972 L19.233,0.081 L18.032,0.081 L18.032,1.972 Z M12.956,1.972 L14.183,1.972 L14.183,0.081 L12.956,0.081 L12.956,1.972 Z M8.424,1.972 L9.651,1.972 L9.651,0.081 L8.424,0.081 L8.424,1.972 Z" id="path-3"></path>
        <path d="M80.681,0.022 C80.666,0.169 80.658,0.317 80.658,0.466 C80.666,1.077 80.769,1.617 80.968,2.084 L84.895,2.081 C84.492,2.05 84.148,1.911 83.859,1.663 C83.527,1.38 83.356,0.948 83.341,0.369 C83.342,0.245 83.351,0.13 83.368,0.021 L80.681,0.022 Z M36.817,0.022 C36.791,0.237 36.777,0.457 36.775,0.688 C36.784,1.204 36.858,1.668 36.995,2.081 L38.336,2.081 C38.123,1.668 38.016,1.181 38.016,0.621 C38.017,0.41 38.032,0.21 38.06,0.021 L36.817,0.022 Z M119.051,0.022 L119.051,0.723 C119.051,0.807 119.049,0.889 119.043,0.971 C119.038,1.052 119.027,1.128 119.011,1.202 C118.962,1.448 118.846,1.651 118.665,1.811 C118.484,1.97 118.259,2.052 117.992,2.057 C117.626,2.056 117.326,1.916 117.095,1.635 C116.864,1.355 116.746,0.94 116.738,0.391 C116.738,0.264 116.745,0.141 116.759,0.024 L114.1,0.022 C114.089,0.161 114.083,0.305 114.082,0.452 C114.094,1.067 114.187,1.61 114.361,2.082 L121.677,2.081 C121.676,1.961 121.676,1.839 121.676,1.717 L121.676,0.022 L119.051,0.022 Z M107.439,0.022 C106.91,0.471 106.638,1.091 106.62,1.886 C106.621,1.954 106.624,2.02 106.63,2.086 L109.33,2.081 C109.237,1.972 109.189,1.821 109.187,1.628 C109.189,1.316 109.334,1.084 109.621,0.933 C109.908,0.782 110.321,0.705 110.858,0.704 L110.858,1.289 L110.852,1.482 C110.849,1.546 110.839,1.605 110.825,1.657 C110.768,1.829 110.672,1.973 110.54,2.085 L113.398,2.081 L113.398,0.022 L107.439,0.022 Z M103.387,0.022 L103.387,0.723 C103.388,0.807 103.385,0.889 103.38,0.971 C103.374,1.052 103.364,1.128 103.347,1.202 C103.299,1.448 103.183,1.651 103.002,1.811 C102.82,1.97 102.596,2.052 102.328,2.057 C101.962,2.056 101.662,1.916 101.431,1.635 C101.201,1.355 101.082,0.94 101.074,0.391 C101.074,0.264 101.08,0.141 101.095,0.024 L98.435,0.022 C98.424,0.161 98.419,0.305 98.418,0.452 C98.43,1.067 98.523,1.61 98.698,2.082 L106.014,2.081 C106.012,1.961 106.012,1.839 106.011,1.717 L106.011,0.022 L103.387,0.022 Z M95.083,0.022 L95.083,1.035 C95.083,1.109 95.079,1.181 95.069,1.246 C95.059,1.311 95.043,1.37 95.018,1.423 C94.969,1.566 94.876,1.701 94.742,1.827 C94.608,1.953 94.419,2.021 94.176,2.029 C93.869,2.027 93.64,1.907 93.489,1.667 C93.338,1.426 93.263,1.079 93.263,0.622 L93.263,0.022 L90.638,0.022 L90.638,1.038 C90.64,1.422 90.673,1.769 90.735,2.081 L97.711,2.081 C97.709,1.908 97.708,1.729 97.708,1.541 L97.708,0.022 L95.083,0.022 Z M86.98,2.081 L89.604,2.081 L89.604,0.022 L86.98,0.022 L86.98,2.081 Z M71.137,0.473 C71.137,0.323 71.145,0.173 71.162,0.022 L78.13,0.024 C78.136,0.122 78.137,0.22 78.137,0.321 C78.136,0.542 78.126,0.74 78.107,0.916 C78.087,1.092 78.066,1.225 78.044,1.316 L73.624,1.316 C73.679,1.601 73.88,1.821 74.226,1.973 C74.323,2.016 74.426,2.052 74.533,2.081 L71.432,2.08 C71.239,1.615 71.142,1.08 71.137,0.473 Z M67.834,0.022 L67.834,0.723 C67.834,0.807 67.832,0.889 67.827,0.971 C67.821,1.052 67.81,1.128 67.794,1.202 C67.745,1.448 67.63,1.651 67.449,1.811 C67.267,1.97 67.042,2.052 66.775,2.057 C66.409,2.056 66.11,1.916 65.879,1.635 C65.647,1.355 65.528,0.94 65.521,0.391 C65.521,0.264 65.527,0.141 65.542,0.024 L62.882,0.022 C62.872,0.161 62.866,0.305 62.865,0.452 C62.877,1.067 62.971,1.61 63.144,2.082 L70.46,2.081 C70.459,1.961 70.459,1.839 70.459,1.717 L70.459,0.022 L67.834,0.022 Z M58.577,0.567 C58.568,1.16 58.453,1.666 58.233,2.086 L59.577,2.081 C59.748,1.641 59.837,1.122 59.845,0.525 C59.843,0.352 59.833,0.184 59.815,0.023 L58.535,0.022 C58.564,0.204 58.578,0.386 58.577,0.567 Z M53.279,0.022 C53.253,0.22 53.238,0.426 53.234,0.642 C53.244,1.179 53.325,1.657 53.479,2.079 L54.806,2.081 C54.593,1.667 54.482,1.174 54.474,0.604 C54.474,0.406 54.488,0.211 54.518,0.022 L53.279,0.022 Z M51.023,2.081 L52.25,2.081 L52.25,0.022 L51.023,0.022 L51.023,2.081 Z M44.099,0.707 C44.104,1.215 44.179,1.673 44.323,2.081 L45.574,2.081 C45.398,1.744 45.301,1.322 45.283,0.813 L50.025,0.813 C50.039,0.747 50.049,0.667 50.057,0.573 C50.064,0.479 50.067,0.368 50.067,0.24 C50.068,0.169 50.067,0.096 50.064,0.024 L44.145,0.022 C44.116,0.244 44.099,0.471 44.099,0.707 Z M41.881,0.022 L41.881,1.132 C41.883,1.323 41.863,1.499 41.821,1.659 C41.781,1.81 41.731,1.95 41.668,2.079 L43.108,2.081 L43.108,0.022 L41.881,0.022 Z M35.003,0.567 C34.993,1.16 34.879,1.666 34.659,2.086 L36.003,2.081 C36.174,1.641 36.263,1.122 36.271,0.525 C36.269,0.352 36.26,0.184 36.241,0.023 L34.961,0.022 C34.99,0.204 35.004,0.386 35.003,0.567 Z M29.705,0.022 C29.68,0.22 29.664,0.426 29.66,0.642 C29.671,1.179 29.752,1.657 29.906,2.079 L31.231,2.081 C31.019,1.667 30.908,1.174 30.9,0.604 C30.899,0.406 30.914,0.211 30.944,0.022 L29.705,0.022 Z M27.507,0.022 C27.508,0.065 27.508,0.104 27.508,0.146 L27.508,2.081 L28.708,2.081 L28.708,0.022 L27.507,0.022 Z M23.27,2.081 L24.471,2.081 L24.471,0.022 L23.27,0.022 L23.27,2.081 Z M19.032,2.081 L20.233,2.081 L20.233,0.022 L19.032,0.022 L19.032,2.081 Z M13.956,0.022 L13.956,0.069 L13.956,2.081 L15.182,2.081 L15.182,0.022 L13.956,0.022 Z M9.424,2.081 L10.651,2.081 L10.651,0.022 L9.424,0.022 L9.424,2.081 Z M6.694,0.022 L6.694,0.139 C6.687,0.962 6.553,1.61 6.292,2.085 L7.591,2.081 C7.799,1.526 7.909,0.85 7.92,0.053 L7.92,0.022 L6.694,0.022 Z M0.972,0.022 L0.972,0.105 C0.984,0.884 1.082,1.542 1.267,2.082 L2.592,2.081 C2.34,1.609 2.209,0.962 2.2,0.139 L2.2,0.022 L0.972,0.022 Z M85.687,2.043 C85.545,2.064 85.394,2.079 85.233,2.084 L86.244,2.081 L86.218,1.902 C86.053,1.966 85.876,2.013 85.687,2.043 Z M76.813,2.08 C77.014,2.04 77.217,1.988 77.419,1.925 L77.449,2.081 L76.813,2.08 Z" id="path-5"></path>
        <path d="M107.304,0.964 L107.583,1.97 C107.824,1.833 108.124,1.712 108.484,1.607 C108.842,1.501 109.215,1.446 109.6,1.44 C110.067,1.447 110.38,1.511 110.544,1.634 C110.708,1.756 110.785,1.894 110.774,2.046 C109.537,2.108 108.541,2.331 107.785,2.781 C107.659,2.855 107.544,2.938 107.439,3.026 L113.398,3.022 L113.398,2.815 C113.411,2.094 113.261,1.476 112.946,0.96 L107.304,0.964 Z M54.25,0.964 C54.237,0.973 54.224,0.987 54.212,0.998 C53.702,1.503 53.391,2.178 53.279,3.024 L54.518,3.022 C54.553,2.793 54.61,2.571 54.69,2.353 C54.835,1.953 55.06,1.626 55.366,1.371 C55.671,1.116 56.063,0.983 56.543,0.975 C57.027,0.985 57.418,1.125 57.718,1.392 C58.018,1.66 58.237,1.991 58.373,2.385 C58.447,2.598 58.501,2.809 58.535,3.021 L59.815,3.022 C59.724,2.208 59.434,1.539 58.946,1.016 C58.929,0.998 58.911,0.979 58.893,0.961 L54.25,0.964 Z M30.675,0.964 C30.663,0.973 30.651,0.987 30.638,0.998 C30.128,1.503 29.816,2.178 29.705,3.024 L30.944,3.022 C30.979,2.793 31.037,2.571 31.116,2.353 C31.261,1.953 31.486,1.626 31.792,1.371 C32.097,1.116 32.489,0.983 32.969,0.975 C33.453,0.985 33.845,1.125 34.145,1.392 C34.444,1.66 34.663,1.991 34.8,2.385 C34.874,2.598 34.927,2.809 34.961,3.021 L36.241,3.022 C36.15,2.208 35.86,1.539 35.371,1.016 C35.354,0.998 35.337,0.979 35.319,0.961 L30.675,0.964 Z M24.523,0.964 C24.414,1.094 24.313,1.243 24.218,1.408 C24.149,1.248 24.07,1.101 23.979,0.966 L20.362,0.964 C20.28,1.071 20.207,1.18 20.144,1.294 L20.114,0.964 L19.012,0.964 C19.014,0.996 19.015,1.031 19.016,1.067 C19.025,1.362 19.031,1.684 19.032,2.035 L19.032,3.022 L20.232,3.022 L20.232,2.894 C20.232,2.786 20.24,2.681 20.257,2.578 C20.272,2.475 20.295,2.378 20.326,2.287 C20.431,1.967 20.617,1.684 20.882,1.441 C21.148,1.199 21.475,1.071 21.862,1.059 C22.328,1.068 22.678,1.242 22.915,1.581 C23.151,1.92 23.27,2.364 23.27,2.912 L23.27,3.022 L24.47,3.022 L24.47,2.783 C24.471,2.672 24.48,2.565 24.499,2.46 C24.517,2.354 24.542,2.256 24.572,2.165 C24.684,1.86 24.866,1.601 25.121,1.39 C25.376,1.177 25.681,1.068 26.037,1.059 C26.531,1.063 26.899,1.247 27.142,1.61 C27.372,1.951 27.494,2.423 27.507,3.024 L28.708,3.022 L28.708,2.988 C28.699,2.211 28.573,1.608 28.33,1.182 C28.286,1.104 28.241,1.03 28.194,0.961 L24.523,0.964 Z M37.726,0.964 C37.521,1.186 37.343,1.446 37.194,1.74 C37.002,2.117 36.877,2.545 36.817,3.026 L38.06,3.022 C38.135,2.529 38.3,2.109 38.555,1.761 C38.91,1.28 39.409,1.032 40.049,1.016 C40.516,1.027 40.905,1.166 41.215,1.434 C41.525,1.701 41.73,2.034 41.829,2.433 C41.848,2.516 41.861,2.602 41.868,2.697 C41.877,2.789 41.881,2.877 41.881,2.958 L41.881,3.022 L43.108,3.022 L43.108,0.964 L41.881,0.964 L41.881,1.078 C41.856,1.039 41.829,1.001 41.801,0.963 L37.726,0.964 Z M114.8,0.964 C114.702,1.099 114.613,1.247 114.53,1.405 C114.29,1.863 114.147,2.402 114.1,3.021 L116.759,3.022 C116.797,2.701 116.892,2.419 117.042,2.181 C117.248,1.854 117.568,1.684 118.003,1.671 C118.279,1.678 118.507,1.768 118.688,1.94 C118.868,2.112 118.983,2.325 119.032,2.582 C119.042,2.637 119.047,2.694 119.049,2.752 L119.051,2.92 L119.051,3.022 L121.676,3.022 L121.676,0.964 L114.8,0.964 Z M99.136,0.964 C99.039,1.099 98.948,1.247 98.865,1.405 C98.627,1.863 98.483,2.402 98.435,3.021 L101.095,3.022 C101.134,2.701 101.229,2.419 101.379,2.181 C101.583,1.854 101.905,1.684 102.339,1.671 C102.616,1.678 102.843,1.768 103.023,1.94 C103.204,2.112 103.319,2.325 103.369,2.582 C103.378,2.637 103.382,2.694 103.385,2.752 L103.387,2.92 L103.387,3.022 L106.011,3.022 L106.011,0.964 L99.136,0.964 Z M95.083,3.022 L97.708,3.022 L97.708,0.964 L95.083,0.964 L95.083,3.022 Z M90.638,3.022 L93.262,3.022 L93.262,0.964 L90.638,0.964 L90.638,3.022 Z M86.98,3.022 L89.604,3.022 L89.604,0.964 L86.98,0.964 L86.98,3.022 Z M81.565,0.964 C81.394,1.151 81.248,1.358 81.125,1.583 C80.882,2.027 80.734,2.508 80.681,3.024 L83.368,3.022 C83.425,2.66 83.569,2.365 83.801,2.135 C84.104,1.833 84.505,1.679 85.004,1.672 C85.268,1.673 85.491,1.691 85.674,1.725 C85.857,1.759 86.009,1.799 86.13,1.85 L86.3,0.964 L81.565,0.964 Z M71.512,1.75 C71.636,1.465 71.796,1.202 71.99,0.964 L77.504,0.965 C77.617,1.131 77.714,1.312 77.796,1.507 C77.991,1.972 78.102,2.479 78.13,3.022 L71.162,3.021 C71.209,2.6 71.326,2.175 71.512,1.75 Z M73.877,1.793 C73.704,2.047 73.609,2.298 73.591,2.545 L75.728,2.545 C75.737,2.318 75.671,2.071 75.529,1.808 C75.386,1.546 75.114,1.404 74.712,1.382 C74.329,1.401 74.051,1.539 73.877,1.793 Z M63.583,0.964 C63.485,1.099 63.395,1.247 63.313,1.405 C63.073,1.863 62.929,2.402 62.882,3.021 L65.542,3.022 C65.58,2.701 65.675,2.419 65.825,2.181 C66.031,1.854 66.35,1.684 66.786,1.671 C67.061,1.678 67.29,1.768 67.471,1.94 C67.651,2.112 67.766,2.325 67.816,2.582 C67.824,2.637 67.83,2.694 67.832,2.752 L67.834,2.92 L67.834,3.022 L70.459,3.022 L70.459,0.964 L63.583,0.964 Z M51.023,3.022 L52.25,3.022 L52.25,0.964 L51.023,0.964 L51.023,3.022 Z M48.241,1.278 C48.49,1.499 48.661,1.761 48.754,2.069 C48.848,2.376 48.891,2.664 48.883,2.933 L45.297,2.933 C45.328,2.638 45.413,2.337 45.552,2.033 C45.69,1.727 45.893,1.47 46.16,1.26 C46.352,1.109 46.583,1.011 46.852,0.964 L45.082,0.964 C44.842,1.214 44.643,1.509 44.485,1.848 C44.317,2.209 44.204,2.602 44.145,3.026 L50.064,3.022 C50.047,2.655 49.97,2.267 49.836,1.859 C49.727,1.529 49.563,1.231 49.343,0.965 L47.508,0.964 C47.81,1.006 48.055,1.113 48.241,1.278 Z M10.794,0.964 C10.701,1.075 10.623,1.193 10.559,1.316 L10.528,0.964 L9.404,0.964 C9.405,0.996 9.407,1.031 9.408,1.067 C9.419,1.362 9.424,1.684 9.424,2.035 L9.424,3.022 L10.651,3.022 L10.651,2.894 C10.651,2.79 10.659,2.688 10.673,2.588 C10.689,2.488 10.709,2.4 10.735,2.322 C10.85,1.967 11.053,1.671 11.344,1.431 C11.635,1.193 11.984,1.068 12.392,1.059 C12.961,1.074 13.365,1.272 13.606,1.654 C13.839,2.023 13.956,2.48 13.956,3.02 L15.182,3.022 L15.182,2.934 C15.171,2.166 15.033,1.574 14.77,1.155 C14.729,1.087 14.685,1.024 14.641,0.964 L10.794,0.964 Z M6.694,3.022 L7.921,3.022 L7.921,0.964 L6.694,0.964 L6.694,3.022 Z M0.972,3.022 L2.199,3.022 L2.199,0.964 L0.972,0.964 L0.972,3.022 Z" id="path-7"></path>
        <path d="M87.251,0.785 C86.996,1.029 86.867,1.347 86.864,1.736 C86.867,2.12 86.994,2.438 87.246,2.686 C87.497,2.935 87.839,3.064 88.274,3.073 L88.288,3.073 C88.732,3.064 89.08,2.935 89.335,2.686 C89.589,2.438 89.717,2.12 89.721,1.736 C89.71,1.347 89.581,1.029 89.33,0.785 C89.079,0.54 88.733,0.414 88.292,0.406 C87.853,0.414 87.505,0.54 87.251,0.785 Z M119.051,0.666 L119.051,4.363 C118.86,4.132 118.626,3.96 118.322,3.844 C118.018,3.729 117.667,3.672 117.269,3.673 C116.7,3.674 116.175,3.823 115.693,4.118 C115.347,4.33 115.049,4.612 114.8,4.963 L121.676,4.964 L121.676,0.666 L119.051,0.666 Z M103.387,0.666 L103.387,4.363 C103.195,4.132 102.962,3.96 102.658,3.844 C102.355,3.729 102.004,3.672 101.606,3.673 C101.037,3.674 100.511,3.823 100.03,4.118 C99.683,4.33 99.385,4.612 99.136,4.963 L106.011,4.964 L106.011,0.666 L103.387,0.666 Z M67.834,0.666 L67.834,4.363 C67.642,4.132 67.408,3.96 67.105,3.844 C66.801,3.729 66.45,3.672 66.053,3.673 C65.483,3.674 64.958,3.823 64.476,4.118 C64.131,4.33 63.833,4.612 63.583,4.963 L70.459,4.964 L70.459,0.666 L67.834,0.666 Z M51.023,4.964 L52.25,4.964 L52.25,1.047 L51.023,1.047 L51.023,4.964 Z M41.881,4.964 L43.108,4.964 L43.108,1.047 L41.881,1.047 L41.881,4.964 Z M6.694,4.964 L7.921,4.964 L7.921,1.551 L6.694,1.551 L6.694,4.964 Z M0.972,4.964 L2.199,4.964 L2.199,1.551 L0.972,1.551 L0.972,4.964 Z M108.222,3.903 C107.721,4.046 107.357,4.184 107.125,4.316 L107.304,4.964 L112.946,4.964 C112.864,4.825 112.77,4.698 112.667,4.577 C112.162,3.993 111.302,3.691 110.084,3.671 C109.341,3.682 108.721,3.761 108.222,3.903 Z M72.709,4.288 C72.431,4.489 72.192,4.714 71.99,4.964 L77.504,4.964 C77.297,4.659 77.037,4.398 76.722,4.184 C76.236,3.852 75.608,3.681 74.839,3.672 C73.965,3.689 73.255,3.893 72.709,4.288 Z M82.523,4.214 C82.147,4.421 81.827,4.671 81.565,4.961 L86.3,4.964 L86.5,3.924 C86.24,3.841 85.966,3.779 85.676,3.742 C85.387,3.704 85.112,3.685 84.851,3.685 C83.921,3.695 83.144,3.87 82.523,4.214 Z M95.083,4.964 L97.708,4.964 L97.708,3.831 L95.083,3.831 L95.083,4.964 Z M90.638,4.964 L93.262,4.964 L93.262,3.831 L90.638,3.831 L90.638,4.964 Z M86.98,4.964 L89.604,4.964 L89.604,3.831 L86.98,3.831 L86.98,4.964 Z M54.25,4.961 L58.893,4.964 C58.313,4.372 57.546,4.069 56.59,4.053 C55.653,4.061 54.872,4.364 54.25,4.961 Z M45.58,4.545 C45.398,4.668 45.233,4.807 45.082,4.964 L46.852,4.964 C46.957,4.946 47.068,4.935 47.186,4.933 C47.3,4.935 47.407,4.944 47.508,4.96 L49.343,4.964 C49.237,4.837 49.118,4.716 48.986,4.602 C48.58,4.253 48.013,4.07 47.284,4.053 C46.623,4.06 46.054,4.224 45.58,4.545 Z M38.293,4.493 C38.085,4.625 37.896,4.782 37.726,4.966 L41.801,4.964 C41.629,4.734 41.405,4.534 41.11,4.364 C40.766,4.167 40.335,4.063 39.814,4.053 C39.258,4.057 38.752,4.203 38.293,4.493 Z M30.675,4.961 L35.319,4.964 C34.739,4.372 33.972,4.069 33.017,4.053 C32.079,4.061 31.299,4.364 30.675,4.961 Z M26.474,4.053 C26.158,4.054 25.881,4.095 25.642,4.176 C25.405,4.257 25.184,4.374 24.983,4.528 C24.842,4.63 24.707,4.753 24.578,4.9 C24.559,4.921 24.541,4.941 24.523,4.964 L28.194,4.964 C27.982,4.65 27.736,4.428 27.456,4.292 C27.126,4.132 26.81,4.053 26.508,4.053 C26.497,4.053 26.485,4.053 26.474,4.053 Z M20.931,4.433 C20.708,4.591 20.518,4.77 20.362,4.967 L23.979,4.964 C23.839,4.759 23.672,4.581 23.472,4.432 C23.143,4.186 22.746,4.06 22.282,4.053 C21.723,4.065 21.272,4.191 20.931,4.433 Z M12.797,4.053 C12.235,4.066 11.764,4.198 11.384,4.447 C11.146,4.603 10.95,4.775 10.794,4.963 L14.641,4.964 C14.406,4.646 14.135,4.42 13.828,4.284 C13.477,4.129 13.144,4.053 12.833,4.053 C12.821,4.053 12.809,4.053 12.797,4.053 Z M18.976,4.208 C18.99,4.452 19.002,4.703 19.012,4.961 L20.114,4.964 L20.045,4.208 L18.976,4.208 Z M9.368,4.208 C9.382,4.452 9.395,4.703 9.404,4.961 L10.528,4.964 L10.457,4.208 L9.368,4.208 Z" id="path-9"></path>
        <path d="M46.493,0.763 C45.656,2.014 44.413,2.78 42.981,2.78 C41.543,2.78 40.299,2.014 39.471,0.762 L37.372,0.763 C38.403,3.264 40.427,4.883 42.876,4.883 C45.431,4.883 47.522,3.275 48.585,0.761 L46.493,0.763 Z M24.067,0.763 C24.426,1.623 24.905,2.393 25.487,3.034 C26.632,4.305 27.95,4.883 29.666,4.883 C31.278,4.883 32.665,4.443 33.966,3.497 L33.966,1.024 C32.614,2.18 31.192,2.78 29.77,2.78 C28.255,2.78 26.978,2.023 26.14,0.761 L24.067,0.763 Z M119.14,0.763 L119.14,0.794 C119.14,1.995 118.343,2.873 117.285,2.873 C116.557,2.873 115.743,2.503 115.084,1.856 C114.743,1.525 114.567,1.305 114.237,0.768 L114.113,0.763 L114.113,3.426 C115.084,4.397 116.159,4.883 117.302,4.883 C119.284,4.883 120.669,3.208 120.733,0.763 L119.14,0.763 Z M109.173,0.763 L110.502,4.675 L112.236,4.675 L110.93,0.763 L109.173,0.763 Z M101.925,0.763 L100.672,4.675 L102.405,4.675 L103.661,0.763 L101.925,0.763 Z M95.861,0.763 C95.361,1.506 94.716,2.05 93.97,2.318 C93.207,2.596 92.877,2.642 91.734,2.642 L89.548,2.642 L89.548,0.763 L87.867,0.763 L87.867,4.675 L91.612,4.698 C93.415,4.698 93.796,4.605 94.732,4.189 C96.112,3.568 97.224,2.334 97.923,0.763 L95.861,0.763 Z M82.596,0.763 L82.596,1.14 L82.35,0.763 L80.203,0.763 L82.752,4.675 L84.209,4.675 L84.209,0.763 L82.596,0.763 Z M73.251,4.675 L74.847,4.675 L74.847,0.764 L73.251,0.764 L73.251,4.675 Z M63.413,0.763 L63.413,4.675 L70.278,4.675 L70.278,2.642 L65.113,2.642 L65.113,0.763 L63.413,0.763 Z M58.049,2.18 C57.598,2.572 57.13,2.665 55.9,2.665 L54.218,2.665 L54.218,0.763 L52.536,0.763 L52.536,4.675 L55.814,4.675 L56.542,4.698 C57.598,4.721 58.206,4.49 58.899,4.005 C59.931,3.285 60.528,2.157 60.62,0.764 L58.823,0.763 C58.71,1.332 58.437,1.852 58.049,2.18 Z M14.144,0.763 L14.144,4.675 L21.183,4.675 L21.183,2.619 L15.86,2.619 L15.86,0.763 L14.144,0.763 Z M8.683,0.763 L10.012,4.675 L11.745,4.675 L10.441,0.763 L8.683,0.763 Z M1.436,0.763 L0.182,4.675 L1.915,4.675 L3.171,0.763 L1.436,0.763 Z" id="path-11"></path>
        <path d="M113.061,4.894 C113.061,2.421 114.483,0.711 116.545,0.711 C117.517,0.711 118.418,1.059 119.268,1.82 L119.268,4.384 C118.418,3.299 117.481,2.745 116.51,2.745 C115.402,2.745 114.621,3.507 114.621,4.57 C114.621,5.516 115.106,6.279 116.268,7.203 L117.569,8.219 C119.008,9.329 119.736,10.807 119.736,12.586 C119.736,12.645 119.735,12.705 119.733,12.763 L118.14,12.761 C118.129,11.801 117.574,10.844 116.581,10.068 L115.297,9.028 C113.702,7.757 113.061,6.579 113.061,4.894 Z M35.635,8.843 C35.635,10.289 35.899,11.62 36.372,12.767 L38.471,12.763 C37.788,11.734 37.386,10.375 37.386,8.843 C37.386,5.355 39.327,2.838 42.032,2.838 C44.615,2.838 46.609,5.425 46.609,8.751 C46.609,10.322 46.194,11.713 45.493,12.762 L47.585,12.763 C48.072,11.609 48.342,10.265 48.342,8.798 C48.342,4.154 45.621,0.711 41.963,0.711 C38.304,0.711 35.635,4.13 35.635,8.843 Z M22.303,8.843 C22.303,10.236 22.571,11.582 23.067,12.765 L25.14,12.763 C24.463,11.741 24.072,10.392 24.072,8.843 C24.072,5.401 26.083,2.861 28.787,2.861 C30.139,2.861 31.406,3.346 32.844,4.431 L32.844,2.006 C31.214,1.082 30.001,0.711 28.7,0.711 C25.095,0.711 22.303,4.269 22.303,8.843 Z M104.751,0.827 L105.947,0.827 L109.93,12.763 L108.173,12.763 L107.924,12.031 L102.896,12.031 L102.661,12.763 L100.925,12.763 L104.751,0.827 Z M105.323,4.292 L103.555,9.998 L107.23,9.998 L105.323,4.292 Z M4.262,0.827 L5.458,0.827 L9.441,12.763 L7.683,12.763 L7.434,12.031 L2.408,12.031 L2.171,12.763 L0.436,12.763 L4.262,0.827 Z M4.833,4.292 L3.065,9.998 L6.741,9.998 L4.833,4.292 Z M86.867,0.92 L86.867,12.763 L88.548,12.763 L88.548,2.93 L90.681,2.93 C92.242,2.93 92.727,3.022 93.525,3.507 C95.084,4.431 95.987,6.348 95.987,8.682 C95.987,10.279 95.569,11.718 94.861,12.767 L96.923,12.763 C97.446,11.59 97.737,10.23 97.737,8.798 C97.737,5.84 96.541,3.138 94.651,1.867 C94.183,1.544 93.646,1.289 93.039,1.15 C92.398,0.966 91.877,0.92 90.854,0.92 L86.867,0.92 Z M81.596,12.763 L83.209,12.763 L83.209,0.92 L81.596,0.92 L81.596,12.763 Z M72.251,0.92 L72.251,12.763 L73.847,12.763 L73.847,4.547 L79.203,12.763 L81.35,12.763 L73.622,0.92 L72.251,0.92 Z M62.413,0.92 L62.413,12.763 L64.113,12.763 L64.113,9.744 L68.949,9.744 L68.949,7.734 L64.113,7.734 L64.113,2.93 L69.123,2.93 L69.123,0.92 L62.413,0.92 Z M51.536,0.92 L54.64,0.92 C55.732,0.92 56.339,1.059 56.929,1.451 C58.02,2.143 58.61,3.415 58.61,5.009 C58.61,6.579 58.02,7.665 56.807,8.359 C58.541,8.774 59.633,10.345 59.633,12.378 C59.633,12.508 59.629,12.638 59.62,12.763 L57.823,12.762 C57.862,12.568 57.882,12.369 57.882,12.17 C57.882,11.454 57.622,10.761 57.188,10.345 C56.686,9.86 56.147,9.698 54.814,9.698 L53.218,9.698 L53.218,12.763 L51.536,12.763 L51.536,0.92 Z M53.218,2.93 L53.218,7.665 L54.362,7.665 C54.848,7.665 55.229,7.619 55.576,7.48 C56.356,7.203 56.859,6.302 56.859,5.193 C56.859,3.669 56.147,2.93 54.692,2.93 L53.218,2.93 Z M13.144,12.763 L14.86,12.763 L14.86,0.92 L13.144,0.92 L13.144,12.763 Z M113.113,12.763 L113.113,12.563 C113.157,12.635 113.198,12.703 113.237,12.763 L113.113,12.763 Z" id="path-13"></path>
        <path d="M0.781,0.688 C0.781,10.491 8.733,18.438 18.544,18.438 C28.353,18.438 36.307,10.491 36.307,0.688 L0.781,0.688 Z" id="path-15"></path>
    </defs>
    <g id="Symbols" stroke="none" stroke-width="1" fill="none" fill-rule="evenodd">
        <g id="Module/Clients" transform="translate(-645.000000, -138.000000)">
            <g id="Group-4" transform="translate(645.000000, 138.000000)">
                <g id="Group-123" transform="translate(3.000000, 10.030000)">
                    <mask id="mask-2" fill="white">
                        <use xlink:href="#path-1"></use>
                    </mask>
                    <g id="Clip-122"></g>
                    <polygon id="Fill-121" fill="#000000" mask="url(#mask-2)" points="-11.889 19.808 43.011 19.808 43.011 -12.322 -11.889 -12.322"></polygon>
                </g>
                <g id="Group-126" transform="translate(40.000000, 53.030000)">
                    <mask id="mask-4" fill="white">
                        <use xlink:href="#path-3"></use>
                    </mask>
                    <g id="Clip-125"></g>
                    <polygon id="Fill-124" fill="#000000" mask="url(#mask-4)" points="-12.388 14.786 133.388 14.786 133.388 -12.574 -12.388 -12.574"></polygon>
                </g>
                <g id="Group-129" transform="translate(39.000000, 51.030000)">
                    <mask id="mask-6" fill="white">
                        <use xlink:href="#path-5"></use>
                    </mask>
                    <g id="Clip-128"></g>
                    <polygon id="Fill-127" fill="#000000" mask="url(#mask-6)" points="-11.682 14.741 134.332 14.741 134.332 -12.635 -11.682 -12.635"></polygon>
                </g>
                <g id="Group-132" transform="translate(39.000000, 48.030000)">
                    <mask id="mask-8" fill="white">
                        <use xlink:href="#path-7"></use>
                    </mask>
                    <g id="Clip-131"></g>
                    <polygon id="Fill-130" fill="#000000" mask="url(#mask-8)" points="-11.682 15.68 134.331 15.68 134.331 -11.695 -11.682 -11.695"></polygon>
                </g>
                <g id="Group-135" transform="translate(39.000000, 44.030000)">
                    <mask id="mask-10" fill="white">
                        <use xlink:href="#path-9"></use>
                    </mask>
                    <g id="Clip-134"></g>
                    <polygon id="Fill-133" fill="#000000" mask="url(#mask-10)" points="-11.682 17.622 134.331 17.622 134.331 -12.249 -11.682 -12.249"></polygon>
                </g>
                <g id="Group-138" transform="translate(40.000000, 31.030000)">
                    <mask id="mask-12" fill="white">
                        <use xlink:href="#path-11"></use>
                    </mask>
                    <g id="Clip-137"></g>
                    <polygon id="Fill-136" fill="#000000" mask="url(#mask-12)" points="-12.473 17.537 133.388 17.537 133.388 -11.894 -12.473 -11.894"></polygon>
                </g>
                <g id="Group-141" transform="translate(41.000000, 19.030000)">
                    <mask id="mask-14" fill="white">
                        <use xlink:href="#path-13"></use>
                    </mask>
                    <g id="Clip-140"></g>
                    <polygon id="Fill-139" fill="#000000" mask="url(#mask-14)" points="-12.219 25.421 132.391 25.421 132.391 -11.942 -12.219 -11.942"></polygon>
                </g>
                <polygon id="Fill-142" fill="#000000" points="0.781 39.297 17.386 39.297 17.386 19.576 0.781 19.576"></polygon>
                <polygon id="Fill-143" fill="#000000" points="32.4537 11.2642 34.3747 12.2582 36.3057 8.8262 34.1667 7.7152"></polygon>
                <polygon id="Fill-144" fill="#000000" points="28.8096 9.808 30.8456 10.514 32.2796 6.848 30.0016 6.051"></polygon>
                <polygon id="Fill-145" fill="#000000" points="25.0151 8.7208 27.1091 9.2068 28.1621 5.4148 25.8131 4.8598"></polygon>
                <polygon id="Fill-146" fill="#000000" points="21.1515 8.2006 23.2915 8.4206 23.8705 4.5366 21.4765 4.2716"></polygon>
                <polygon id="Fill-147" fill="#000000" points="17.1843 0.8494 17.4153 8.0734 19.3823 8.0734 19.4983 0.8494"></polygon>
                <polygon id="Fill-148" fill="#000000" points="12.7076 4.606 13.3556 8.501 15.4836 8.19 15.1136 4.294"></polygon>
                <polygon id="Fill-149" fill="#000000" points="8.5668 5.5186 9.6998 9.3116 11.7588 8.7326 10.9268 4.9176"></polygon>
                <polygon id="Fill-150" fill="#000000" points="4.7256 6.9181 6.1716 10.5941 8.1856 9.8421 7.0276 6.1201"></polygon>
                <polygon id="Fill-151" fill="#000000" points="0.7809 8.953 2.7019 12.409 4.6099 11.404 2.9209 7.854"></polygon>
                <g id="Group-154" transform="translate(0.000000, 41.030000)">
                    <mask id="mask-16" fill="white">
                        <use xlink:href="#path-15"></use>
                    </mask>
                    <g id="Clip-153"></g>
                    <polygon id="Fill-152" fill="#000000" mask="url(#mask-16)" points="-11.874 31.094 48.961 31.094 48.961 -11.967 -11.874 -11.967"></polygon>
                </g>
                <polygon id="Fill-155" fill="#000000" points="19.76 39.297 36.365 39.297 36.365 19.576 19.76 19.576"></polygon>
            </g>
        </g>
    </g>
</svg>