<?xml version="1.0" encoding="UTF-8"?>
<svg width="162px" height="44px" viewBox="0 0 162 44" version="1.1" xmlns="http://www.w3.org/2000/svg" xmlns:xlink="http://www.w3.org/1999/xlink">
    <!-- Generator: Sketch 46.2 (44496) - http://www.bohemiancoding.com/sketch -->
    <title>Group 2</title>
    <desc>Created with Sketch.</desc>
    <defs>
        <path d="M74.037,0.884 L74.037,11.551 C74.037,13.342 75.069,14.084 76.609,14.084 C77.062,14.084 77.152,14.049 77.605,13.958 L77.605,12.058 C77.479,12.058 77.424,12.076 77.225,12.076 C76.446,12.076 76.319,11.713 76.319,11.171 L76.319,0.884 L74.037,0.884 Z M7.378,0.902 L9.64,0.902 L9.64,13.975 L7.686,13.975 L7.541,12.944 C6.978,13.813 5.928,14.193 4.894,14.193 C3.952,14.193 3.172,13.867 2.593,13.396 C1.47,12.472 0.927,11.059 0.927,9.285 C0.927,7.438 1.488,6.007 2.61,5.085 C3.19,4.615 3.952,4.325 4.913,4.325 C6.109,4.325 6.978,4.722 7.378,5.211 L7.378,0.902 Z M3.825,11.551 C4.15,11.967 4.64,12.294 5.348,12.294 C7.124,12.294 7.488,10.608 7.488,9.25 C7.488,7.891 7.124,6.224 5.348,6.224 C4.64,6.224 4.15,6.551 3.825,6.967 C3.354,7.582 3.226,8.435 3.226,9.25 C3.226,10.066 3.354,10.935 3.825,11.551 Z M26.058,1.137 L31.167,1.137 C32.201,1.137 33.271,1.282 34.14,1.843 C35.081,2.458 35.624,3.526 35.624,4.631 C35.624,5.683 35.136,6.86 34.05,7.348 C35.262,7.909 35.896,9.047 35.896,10.236 C35.896,11.371 35.515,12.401 34.592,13.107 C33.597,13.867 32.401,13.975 31.167,13.975 L26.058,13.975 L26.058,1.137 Z M28.377,3.146 L28.377,6.372 L31.313,6.372 C32.365,6.372 33.253,5.99 33.253,4.776 C33.253,3.545 32.31,3.146 31.258,3.146 L28.377,3.146 Z M28.377,8.325 L28.377,11.876 L31.258,11.876 C32.346,11.876 33.525,11.48 33.525,10.183 C33.525,8.813 32.564,8.325 31.331,8.325 L28.377,8.325 Z M99.801,7.383 C99.927,5.267 101.61,4.325 103.713,4.325 C105.328,4.325 106.703,4.832 107.245,6.243 C107.481,6.841 107.517,7.51 107.517,8.147 L107.517,11.641 C107.517,12.076 107.663,12.239 108.043,12.239 C108.188,12.239 108.333,12.203 108.333,12.203 L108.333,13.867 C107.952,14.03 107.753,14.12 107.21,14.12 C106.232,14.12 105.689,13.504 105.617,12.8 C105.182,13.56 104.094,14.211 102.753,14.211 C100.506,14.211 99.348,12.8 99.348,11.26 C99.348,9.467 100.741,8.436 102.535,8.31 L105.309,8.11 L105.309,7.53 C105.309,6.641 105.001,6.043 103.713,6.043 C102.662,6.043 102.046,6.514 101.991,7.383 L99.801,7.383 Z M101.557,11.205 C101.557,11.93 102.191,12.384 102.897,12.384 C104.312,12.384 105.309,11.622 105.309,10.227 L105.309,9.792 L102.916,9.974 C102.227,10.027 101.557,10.444 101.557,11.205 Z M91.609,5.773 L91.446,4.56 L89.546,4.56 L89.546,13.975 L91.808,13.975 L91.808,10.137 C91.808,9.341 91.79,8.363 92.116,7.62 C92.424,6.931 92.95,6.423 93.748,6.423 C94.944,6.423 95.307,7.094 95.307,8.199 L95.307,13.975 L97.569,13.975 L97.569,7.691 C97.569,5.736 96.393,4.325 94.383,4.325 C93.294,4.325 92.17,4.777 91.609,5.773 Z M79.796,5.79 C80.448,4.995 81.662,4.325 83.094,4.325 C84.525,4.325 85.739,4.995 86.392,5.79 C87.098,6.678 87.496,7.673 87.496,9.268 C87.496,10.862 87.098,11.859 86.392,12.746 C85.739,13.542 84.525,14.211 83.094,14.211 C81.662,14.211 80.448,13.542 79.796,12.746 C79.091,11.859 78.692,10.862 78.692,9.268 C78.692,7.673 79.091,6.678 79.796,5.79 Z M81.662,11.641 C81.97,11.967 82.477,12.239 83.094,12.239 C83.71,12.239 84.218,11.967 84.525,11.641 C85.069,11.044 85.196,10.156 85.196,9.268 C85.196,8.38 85.069,7.493 84.525,6.894 C84.218,6.568 83.71,6.296 83.094,6.296 C82.477,6.296 81.97,6.568 81.662,6.894 C81.117,7.493 80.991,8.38 80.991,9.268 C80.991,10.156 81.117,11.044 81.662,11.641 Z M64.832,5.519 C65.538,4.796 66.552,4.325 67.839,4.325 C69.234,4.325 70.502,4.885 71.281,6.061 C71.97,7.095 72.134,8.164 72.097,9.341 C72.097,9.341 72.079,9.774 72.079,9.974 L65.772,9.974 C65.755,10.698 66.008,11.387 66.461,11.822 C66.788,12.131 67.24,12.402 67.857,12.402 C68.509,12.402 68.908,12.275 69.234,11.949 C69.433,11.749 69.597,11.496 69.687,11.151 L71.861,11.151 C71.807,11.713 71.426,12.456 71.064,12.891 C70.267,13.831 69.089,14.211 67.894,14.211 C66.607,14.211 65.664,13.758 64.922,13.053 C63.981,12.148 63.474,10.825 63.474,9.286 C63.474,7.783 63.927,6.441 64.832,5.519 Z M66.244,6.859 C65.918,7.276 65.772,7.711 65.755,8.327 L69.831,8.327 C69.813,7.62 69.615,7.076 69.252,6.678 C68.944,6.351 68.473,6.133 67.821,6.133 C67.131,6.133 66.57,6.423 66.244,6.859 Z M55.011,5.809 C54.306,6.696 53.98,7.873 53.98,9.25 C53.98,10.628 54.306,11.803 55.011,12.691 C55.663,13.487 56.858,14.175 58.29,14.175 C59.721,14.175 60.863,13.504 61.516,12.691 C61.95,12.13 62.204,11.388 62.24,10.645 L60.012,10.645 C59.993,10.99 59.884,11.279 59.739,11.515 C59.467,11.931 58.978,12.22 58.29,12.22 C57.673,12.22 57.222,11.949 56.913,11.622 C56.369,11.025 56.278,10.137 56.278,9.25 C56.278,8.362 56.369,7.456 56.913,6.859 C57.222,6.532 57.673,6.278 58.29,6.278 C58.978,6.278 59.467,6.568 59.739,6.985 C59.884,7.221 59.993,7.51 60.012,7.854 L62.24,7.854 C62.204,7.112 61.95,6.37 61.516,5.809 C60.863,4.995 59.721,4.325 58.29,4.325 C56.858,4.325 55.663,5.013 55.011,5.809 Z M37.547,7.383 C37.673,5.267 39.357,4.325 41.459,4.325 C43.074,4.325 44.449,4.832 44.992,6.243 C45.226,6.841 45.263,7.51 45.263,8.147 L45.263,11.641 C45.263,12.076 45.408,12.239 45.789,12.239 C45.934,12.239 46.079,12.203 46.079,12.203 L46.079,13.867 C45.699,14.03 45.499,14.12 44.955,14.12 C43.978,14.12 43.435,13.504 43.362,12.8 C42.928,13.56 41.841,14.211 40.499,14.211 C38.252,14.211 37.094,12.8 37.094,11.26 C37.094,9.467 38.487,8.436 40.281,8.31 L43.055,8.11 L43.055,7.53 C43.055,6.641 42.747,6.043 41.459,6.043 C40.408,6.043 39.791,6.514 39.737,7.383 L37.547,7.383 Z M39.303,11.205 C39.303,11.93 39.937,12.384 40.644,12.384 C42.058,12.384 43.055,11.622 43.055,10.227 L43.055,9.792 L40.662,9.974 C39.972,10.027 39.303,10.444 39.303,11.205 Z M13.049,5.519 C13.754,4.796 14.768,4.325 16.055,4.325 C17.45,4.325 18.718,4.885 19.497,6.061 C20.186,7.095 20.349,8.164 20.313,9.341 C20.313,9.341 20.296,9.774 20.296,9.974 L13.988,9.974 C13.971,10.698 14.225,11.387 14.678,11.822 C15.003,12.131 15.456,12.402 16.074,12.402 C16.725,12.402 17.125,12.275 17.45,11.949 C17.649,11.749 17.812,11.496 17.904,11.151 L20.078,11.151 C20.023,11.713 19.642,12.456 19.28,12.891 C18.483,13.831 17.305,14.211 16.11,14.211 C14.823,14.211 13.881,13.758 13.139,13.053 C12.197,12.148 11.69,10.825 11.69,9.286 C11.69,7.783 12.142,6.441 13.049,5.519 Z M14.461,6.859 C14.134,7.276 13.988,7.711 13.971,8.327 L18.048,8.327 C18.029,7.62 17.83,7.076 17.469,6.678 C17.16,6.351 16.689,6.133 16.037,6.133 C15.348,6.133 14.787,6.423 14.461,6.859 Z M50.047,5.971 L49.848,4.56 L47.93,4.56 L47.93,13.975 L50.21,13.975 L50.21,9.232 C50.21,7.708 51.043,6.568 52.638,6.568 C52.892,6.568 53.163,6.605 53.417,6.659 L53.417,4.488 C53.182,4.452 52.947,4.433 52.711,4.433 C51.605,4.433 50.481,4.887 50.047,5.971 Z" id="path-1"></path>
        <path d="M13.265,3.001 L15.691,3.001 L15.691,0.667 L13.265,0.667 L13.265,3.001 Z M4.677,0.921 L7.232,0.921 L11.744,13.757 L9.297,13.757 L8.464,11.296 L3.354,11.296 L2.521,13.757 L0.165,13.757 L4.677,0.921 Z M5.909,3.782 L4.079,9.197 L7.74,9.197 L5.909,3.782 Z M93.678,1.953 L93.678,4.342 L91.956,4.342 L91.956,6.205 L93.678,6.205 L93.678,10.989 C93.678,12.8 94.619,13.884 96.52,13.884 C97.191,13.884 97.825,13.795 98.459,13.631 L98.459,11.732 C97.843,11.804 97.463,11.823 96.992,11.823 C96.266,11.823 95.941,11.514 95.941,10.79 L95.941,6.205 L98.315,6.205 L98.315,4.342 L95.941,4.342 L95.941,1.391 L93.678,1.953 Z M40.045,1.953 L40.045,4.342 L38.323,4.342 L38.323,6.205 L40.045,6.205 L40.045,10.989 C40.045,12.8 40.986,13.884 42.887,13.884 C43.558,13.884 44.192,13.795 44.826,13.631 L44.826,11.732 C44.21,11.804 43.83,11.823 43.359,11.823 C42.633,11.823 42.308,11.514 42.308,10.79 L42.308,6.205 L44.682,6.205 L44.682,4.342 L42.308,4.342 L42.308,1.391 L40.045,1.953 Z M84.616,5.556 L84.454,4.342 L82.553,4.342 L82.553,13.757 L84.816,13.757 L84.816,9.92 C84.816,9.123 84.798,8.145 85.123,7.403 C85.433,6.714 85.958,6.205 86.755,6.205 C87.953,6.205 88.315,6.876 88.315,7.981 L88.315,13.757 L90.577,13.757 L90.577,7.473 C90.577,5.519 89.401,4.107 87.391,4.107 C86.302,4.107 85.178,4.56 84.616,5.556 Z M73.292,5.302 C73.999,4.578 75.014,4.107 76.3,4.107 C77.696,4.107 78.963,4.669 79.742,5.844 C80.431,6.877 80.594,7.947 80.558,9.123 C80.558,9.123 80.539,9.556 80.539,9.756 L74.234,9.756 C74.215,10.481 74.47,11.17 74.922,11.605 C75.249,11.913 75.701,12.184 76.318,12.184 C76.97,12.184 77.369,12.058 77.696,11.731 C77.894,11.532 78.057,11.278 78.147,10.934 L80.322,10.934 C80.268,11.496 79.888,12.239 79.525,12.673 C78.727,13.614 77.55,13.993 76.354,13.993 C75.068,13.993 74.125,13.542 73.383,12.836 C72.442,11.93 71.935,10.608 71.935,9.068 C71.935,7.566 72.387,6.224 73.292,5.302 Z M74.705,6.641 C74.379,7.059 74.234,7.494 74.215,8.11 L78.293,8.11 C78.275,7.403 78.075,6.859 77.713,6.46 C77.405,6.134 76.933,5.916 76.282,5.916 C75.592,5.916 75.031,6.207 74.705,6.641 Z M64.124,5.646 C63.653,4.686 62.748,4.107 61.426,4.107 C60.174,4.107 59.267,4.723 58.742,5.591 L58.562,4.342 L56.678,4.342 L56.678,13.757 L58.923,13.757 L58.923,8.616 C58.923,7.438 59.503,6.079 60.791,6.079 C61.933,6.079 62.241,6.75 62.241,7.908 L62.241,13.757 L64.485,13.757 L64.485,8.615 C64.485,7.438 65.047,6.079 66.335,6.079 C67.477,6.079 67.786,6.75 67.786,7.908 L67.786,13.757 L70.029,13.757 L70.029,7.402 C70.029,5.446 68.98,4.107 66.97,4.107 C65.7,4.107 64.685,4.669 64.124,5.646 Z M46.296,7.166 C46.422,5.049 48.105,4.107 50.209,4.107 C51.823,4.107 53.199,4.614 53.741,6.026 C53.977,6.623 54.013,7.293 54.013,7.929 L54.013,11.424 C54.013,11.858 54.158,12.022 54.539,12.022 C54.683,12.022 54.828,11.985 54.828,11.985 L54.828,13.649 C54.447,13.812 54.248,13.903 53.705,13.903 C52.728,13.903 52.184,13.288 52.112,12.583 C51.678,13.342 50.589,13.993 49.249,13.993 C47.001,13.993 45.843,12.583 45.843,11.043 C45.843,9.25 47.236,8.219 49.03,8.092 L51.804,7.892 L51.804,7.312 C51.804,6.425 51.496,5.826 50.209,5.826 C49.158,5.826 48.54,6.296 48.486,7.166 L46.296,7.166 Z M48.052,10.988 C48.052,11.713 48.685,12.167 49.393,12.167 C50.807,12.167 51.804,11.405 51.804,10.01 L51.804,9.575 L49.411,9.756 C48.723,9.81 48.052,10.228 48.052,10.988 Z M30.984,5.556 L30.82,4.342 L28.919,4.342 L28.919,13.757 L31.182,13.757 L31.182,9.92 C31.182,9.123 31.165,8.145 31.491,7.403 C31.798,6.714 32.324,6.205 33.122,6.205 C34.318,6.205 34.682,6.876 34.682,7.981 L34.682,13.757 L36.945,13.757 L36.945,7.473 C36.945,5.519 35.768,4.107 33.758,4.107 C32.669,4.107 31.545,4.56 30.984,5.556 Z M23.955,4.342 L23.955,9.322 C23.955,10.083 23.81,10.933 23.266,11.442 C22.994,11.713 22.631,11.913 22.105,11.913 C20.908,11.913 20.474,11.225 20.474,10.12 L20.474,4.342 L18.211,4.342 L18.211,10.627 C18.211,12.637 19.459,13.993 21.471,13.993 C22.667,13.993 23.72,13.451 24.172,12.528 L24.335,13.757 L26.218,13.757 L26.218,4.342 L23.955,4.342 Z M13.355,4.342 L15.636,4.342 L15.636,15.064 C15.636,16.674 14.677,17.689 12.993,17.689 C12.739,17.689 12.485,17.689 12.195,17.652 C11.905,17.616 11.579,17.562 11.162,17.453 L11.162,15.535 C11.833,15.607 11.924,15.644 12.267,15.644 C12.974,15.644 13.355,15.263 13.355,14.629 L13.355,4.342 Z M54.828,13.65 L54.828,13.649 L54.828,13.65 Z" id="path-3"></path>
        <path d="M8.596,0.542 C4.542,0.542 1.224,3.693 0.96,7.68 L0.96,36.624 C1.225,40.413 4.249,43.443 8.038,43.714 L37.054,43.714 C41.025,43.43 44.157,40.121 44.154,36.085 L44.157,8.195 C44.157,3.969 40.73,0.542 36.5,0.542 L8.596,0.542 Z" id="path-5"></path>
        <path d="M13.059,0.76 C13.059,1.032 13.278,1.254 13.555,1.254 C13.828,1.254 14.05,1.032 14.05,0.76 C14.05,0.484 13.828,0.262 13.555,0.262 C13.278,0.262 13.059,0.484 13.059,0.76 Z M13.546,2.021 C13.851,1.85 14.217,1.754 14.601,1.754 C15.232,1.754 15.791,2.012 16.135,2.41 C16.372,2.318 16.634,2.271 16.911,2.271 C17.964,2.271 18.818,2.99 18.818,3.883 C18.818,4.311 18.613,4.702 18.294,4.991 L17.78,4.478 C17.967,4.318 18.084,4.109 18.084,3.88 C18.084,3.398 17.558,3.001 16.911,3.001 C16.756,3.001 16.613,3.025 16.472,3.067 C16.495,3.164 16.505,3.263 16.505,3.367 C16.505,3.686 16.397,3.986 16.206,4.24 L15.679,3.712 C15.743,3.601 15.771,3.488 15.771,3.367 C15.771,2.876 15.249,2.484 14.601,2.484 C14.354,2.484 14.119,2.546 13.93,2.644 L13.93,3.704 L13.194,3.704 L13.194,2.664 C13.003,2.55 12.757,2.484 12.491,2.484 C11.847,2.484 11.322,2.876 11.322,3.367 C11.322,3.488 11.357,3.601 11.414,3.712 L10.887,4.24 C10.696,3.986 10.592,3.686 10.592,3.367 C10.592,3.263 10.601,3.164 10.626,3.067 C10.484,3.025 10.34,3.001 10.19,3.001 C9.535,3.001 9.014,3.398 9.014,3.88 C9.014,4.109 9.131,4.318 9.317,4.478 L8.801,4.991 C8.477,4.702 8.28,4.311 8.28,3.883 C8.28,2.99 9.133,2.271 10.19,2.271 C10.459,2.271 10.723,2.318 10.961,2.41 C11.304,2.012 11.866,1.754 12.494,1.754 C12.883,1.754 13.246,1.85 13.546,2.021 Z M13.26,4.68 C13.26,4.494 13.377,4.331 13.563,4.215 C13.748,4.331 13.868,4.494 13.868,4.68 C13.868,4.862 13.748,5.023 13.563,5.144 C13.671,5.085 13.78,5.053 13.885,5.053 C13.967,5.053 14.046,5.072 14.118,5.114 C14.277,5.206 14.361,5.387 14.37,5.609 C14.175,5.708 13.972,5.731 13.814,5.636 C13.657,5.547 13.572,5.359 13.563,5.144 C13.555,5.359 13.471,5.547 13.31,5.636 C13.152,5.731 12.951,5.708 12.757,5.609 C12.767,5.387 12.851,5.206 13.011,5.114 C13.08,5.072 13.157,5.053 13.239,5.053 C13.344,5.053 13.454,5.085 13.563,5.144 C13.377,5.023 13.26,4.862 13.26,4.68 Z M15.388,4.84 C15.427,4.658 15.575,4.523 15.784,4.448 C15.938,4.599 16.012,4.787 15.976,4.964 C15.938,5.144 15.792,5.281 15.586,5.355 C15.659,5.334 15.731,5.324 15.799,5.324 C15.929,5.324 16.047,5.362 16.135,5.442 C16.269,5.567 16.317,5.765 16.274,5.979 C16.067,6.042 15.866,6.014 15.73,5.896 C15.592,5.769 15.547,5.571 15.586,5.355 C15.535,5.571 15.416,5.731 15.236,5.787 C15.064,5.844 14.871,5.782 14.7,5.644 C14.754,5.43 14.871,5.27 15.054,5.207 C15.094,5.196 15.137,5.189 15.18,5.189 C15.317,5.189 15.46,5.249 15.586,5.355 C15.431,5.206 15.345,5.02 15.388,4.84 Z M11.102,4.964 C11.065,4.787 11.142,4.599 11.304,4.448 C11.513,4.523 11.658,4.658 11.692,4.84 C11.732,5.016 11.656,5.198 11.506,5.345 C11.629,5.245 11.769,5.189 11.902,5.189 C11.946,5.189 11.988,5.196 12.03,5.207 C12.204,5.27 12.326,5.43 12.376,5.644 C12.211,5.782 12.02,5.844 11.845,5.787 C11.665,5.731 11.549,5.571 11.493,5.355 C11.533,5.571 11.486,5.769 11.35,5.896 C11.213,6.014 11.012,6.042 10.804,5.979 C10.765,5.765 10.807,5.567 10.947,5.442 C11.035,5.362 11.153,5.324 11.283,5.324 C11.35,5.324 11.421,5.334 11.493,5.355 C11.493,5.355 11.493,5.355 11.494,5.354 C11.288,5.28 11.141,5.144 11.102,4.964 Z M11.506,5.345 C11.501,5.348 11.498,5.351 11.494,5.354 C11.494,5.355 11.494,5.355 11.495,5.355 C11.499,5.351 11.502,5.348 11.506,5.345 Z M17.444,5.43 C17.525,5.263 17.696,5.159 17.909,5.131 C18.036,5.309 18.075,5.511 18,5.678 C17.924,5.844 17.747,5.95 17.534,5.979 C17.439,6.176 17.289,6.31 17.103,6.329 C16.924,6.341 16.747,6.249 16.613,6.074 C16.705,5.879 16.856,5.746 17.038,5.723 C17.053,5.721 17.068,5.72 17.082,5.72 C17.251,5.72 17.414,5.818 17.534,5.979 C17.413,5.798 17.369,5.602 17.444,5.43 Z M9.081,5.678 C9.005,5.511 9.044,5.309 9.167,5.131 C9.386,5.159 9.561,5.263 9.634,5.43 C9.71,5.602 9.669,5.798 9.544,5.979 C9.666,5.818 9.826,5.72 9.994,5.72 C10.008,5.72 10.023,5.721 10.038,5.723 C10.223,5.746 10.378,5.879 10.473,6.074 C10.337,6.249 10.16,6.341 9.978,6.329 C9.792,6.31 9.642,6.176 9.544,5.979 C9.325,5.95 9.157,5.844 9.081,5.678 Z M9.971,6.926 C11.024,6.42 12.257,6.132 13.56,6.132 C14.865,6.132 16.085,6.426 17.129,6.926 L16.721,7.543 C15.796,7.115 14.705,6.831 13.546,6.831 C12.402,6.831 11.304,7.115 10.379,7.543 L9.971,6.926 Z M13.546,8.132 C13.546,8.132 15.858,9.409 19.829,13.383 C23.855,17.407 25.212,19.783 25.212,19.783 C25.212,19.783 23.855,17.407 19.829,13.383 C15.858,9.409 13.546,8.132 13.546,8.132 Z M7.146,13.505 C3.173,17.477 1.884,19.783 1.884,19.783 C1.884,19.783 3.238,22.156 7.268,26.18 C11.24,30.157 13.546,31.438 13.546,31.438 C13.546,31.438 15.926,30.083 19.956,26.061 C23.927,22.089 25.212,19.783 25.212,19.783 C25.212,19.783 23.927,22.089 19.956,26.061 C15.926,30.083 13.546,31.438 13.546,31.438 C13.546,31.438 11.24,30.157 7.268,26.18 C3.238,22.156 1.884,19.783 1.884,19.783 C1.884,19.783 3.173,17.477 7.146,13.505 C11.174,9.483 13.546,8.132 13.546,8.132 C13.546,8.132 11.174,9.483 7.146,13.505 Z M13.546,8.29 L25.044,19.783 L13.546,8.29 Z M2.05,19.783 L13.546,31.274 L25.044,19.783 L13.546,31.274 L2.05,19.783 L13.546,8.29 L2.05,19.783 Z M13.718,19.619 L13.718,9.25 L14.883,10.411 L14.883,19.619 L13.718,19.619 Z M11.052,11.572 L13.382,9.25 L13.382,15.556 L11.052,15.556 L11.052,11.572 Z M16.051,19.619 L16.051,11.578 L17.214,12.741 L17.214,19.619 L16.051,19.619 Z M3.006,19.619 L9.887,12.735 L9.887,15.556 L7.074,15.556 L5.912,16.72 L9.887,16.72 L9.887,19.619 L3.006,19.619 Z M18.381,19.619 L18.381,13.905 L19.545,15.071 L19.545,19.619 L18.381,19.619 Z M20.708,19.619 L20.708,16.232 L21.872,17.399 L21.872,19.619 L20.708,19.619 Z M11.052,19.619 L11.052,16.72 L13.383,16.72 L13.383,19.619 L11.052,19.619 Z M23.043,19.619 L23.043,18.563 L24.093,19.619 L23.043,19.619 Z M25.799,19.789 C25.799,20.048 26.01,20.264 26.271,20.264 C26.531,20.264 26.748,20.048 26.748,19.789 C26.748,19.523 26.531,19.316 26.271,19.316 C26.01,19.316 25.799,19.523 25.799,19.789 Z M0.349,19.789 C0.349,20.048 0.565,20.264 0.823,20.264 C1.087,20.264 1.299,20.048 1.299,19.789 C1.299,19.523 1.087,19.316 0.823,19.316 C0.565,19.316 0.349,19.523 0.349,19.789 Z M17.218,19.951 L24.093,19.951 L21.194,22.851 L21.195,22.851 L21.053,22.993 L21.194,22.851 L17.218,22.851 L17.218,19.951 Z M13.718,22.851 L13.718,19.951 L16.05,19.951 L16.05,22.851 L13.718,22.851 Z M12.213,19.951 L13.382,19.951 L13.382,30.321 L12.213,29.159 L12.213,19.951 Z M9.887,19.951 L11.052,19.951 L11.052,27.995 L9.887,26.833 L9.887,19.951 Z M7.556,19.951 L8.724,19.951 L8.724,25.666 L7.556,24.503 L7.556,19.951 Z M5.229,19.951 L6.395,19.951 L6.395,23.334 L5.229,22.172 L5.229,19.951 Z M3.006,19.951 L4.065,19.951 L4.065,21.01 L3.006,19.951 Z M20.028,24.015 L21.053,22.993 L16.051,27.997 L17.218,26.825 L17.218,24.015 L20.028,24.015 Z M13.718,24.015 L16.051,24.015 L16.051,27.997 L13.718,30.321 L13.718,24.015 Z M13.077,32.503 C13.077,32.769 13.291,32.977 13.551,32.977 C13.814,32.977 14.023,32.769 14.023,32.503 C14.023,32.244 13.814,32.032 13.551,32.032 C13.291,32.032 13.077,32.244 13.077,32.503 Z" id="path-7"></path>
    </defs>
    <g id="Symbols" stroke="none" stroke-width="1" fill="none" fill-rule="evenodd">
        <g id="Module/Clients" transform="translate(-287.000000, -146.000000)">
            <g id="Group-2" transform="translate(287.000000, 146.000000)">
                <g id="Group-51" transform="translate(53.000000, 24.030000)">
                    <mask id="mask-2" fill="white">
                        <use xlink:href="#path-1"></use>
                    </mask>
                    <g id="Clip-50"></g>
                    <polygon id="Fill-49" fill="#000000" mask="url(#mask-2)" points="-11.728 26.866 120.987 26.866 120.987 -11.771 -11.728 -11.771"></polygon>
                </g>
                <g id="Group-54" transform="translate(53.000000, 6.030000)">
                    <mask id="mask-4" fill="white">
                        <use xlink:href="#path-3"></use>
                    </mask>
                    <g id="Clip-53"></g>
                    <polygon id="Fill-52" fill="#000000" mask="url(#mask-4)" points="-12.49 30.343 111.114 30.343 111.114 -11.988 -12.49 -11.988"></polygon>
                </g>
                <g id="Group-57" transform="translate(0.000000, 0.030000)">
                    <mask id="mask-6" fill="white">
                        <use xlink:href="#path-5"></use>
                    </mask>
                    <g id="Clip-56"></g>
                    <polygon id="Fill-55" fill="#191818" mask="url(#mask-6)" points="-11.714 56.388 56.811 56.388 56.811 -12.113 -11.714 -12.113"></polygon>
                </g>
                <g id="Group-60" transform="translate(9.000000, 5.030000)">
                    <mask id="mask-8" fill="white">
                        <use xlink:href="#path-7"></use>
                    </mask>
                    <g id="Clip-59"></g>
                    <polygon id="Fill-58" fill="#FFFFFF" mask="url(#mask-8)" points="-12.306 45.633 39.402 45.633 39.402 -12.392 -12.306 -12.392"></polygon>
                </g>
            </g>
        </g>
    </g>
</svg>