<?xml version="1.0" encoding="UTF-8"?>
<svg width="145px" height="68px" viewBox="0 0 145 68" version="1.1" xmlns="http://www.w3.org/2000/svg" xmlns:xlink="http://www.w3.org/1999/xlink">
    <!-- Generator: Sketch 46.2 (44496) - http://www.bohemiancoding.com/sketch -->
    <title>Group 7</title>
    <desc>Created with Sketch.</desc>
    <defs>
        <path d="M0.75,28.194 C10.078,18.866 19.37,9.572 28.687,0.256 C38.016,9.538 47.352,18.83 56.67,28.103 C47.371,37.404 38.083,46.694 28.747,56.032 C26.428,53.725 24.124,51.43 21.822,49.136 C19.52,46.843 17.219,44.547 14.916,42.256 C12.611,39.961 10.292,37.679 7.999,35.373 C5.742,33.102 3.414,30.901 1.248,28.561 C1.079,28.436 0.909,28.31 0.75,28.194 Z M27.611,17.494 C27.599,18.076 27.489,18.191 26.885,18.247 C26.853,18.137 26.813,18.022 26.789,17.904 C26.281,15.49 25.774,13.076 25.264,10.662 C25.182,10.273 25.075,10.209 24.7,10.357 C24.205,10.554 23.947,10.997 23.871,11.463 C23.793,11.946 23.865,12.459 23.915,12.954 C24.104,14.859 24.312,16.763 24.517,18.667 C24.578,19.23 24.585,19.229 24.085,19.417 C24.041,19.289 24.012,19.154 23.949,19.038 C23.897,18.946 23.779,18.888 23.738,18.795 C23.237,17.644 22.746,16.487 22.249,15.335 C22.066,14.912 21.874,14.492 21.687,14.072 C21.596,14.102 21.558,14.107 21.53,14.126 C21.488,14.152 21.451,14.185 21.416,14.219 C20.77,14.853 20.638,15.623 20.852,16.464 C21.411,18.659 21.984,20.852 22.553,23.045 C23.162,25.387 23.783,27.727 24.373,30.075 C24.466,30.446 24.607,30.565 24.986,30.562 C27.33,30.546 29.675,30.549 32.018,30.558 C32.305,30.559 32.501,30.465 32.688,30.254 C33.422,29.424 34.164,28.6 34.914,27.786 C35.411,27.247 35.943,26.74 36.432,26.195 C37.033,25.524 37.595,24.82 38.193,24.147 C39.125,23.099 40.076,22.065 41.018,21.024 C41.281,20.733 41.272,20.633 40.904,20.516 C40.569,20.408 40.218,20.328 39.867,20.294 C39.164,20.225 38.622,20.615 38.054,20.956 C36.571,21.849 35.071,22.712 33.577,23.586 C33.271,23.764 33.151,23.701 33.16,23.333 C33.174,22.805 33.211,22.278 33.249,21.751 C33.336,20.536 33.434,19.323 33.519,18.109 C33.581,17.238 33.625,16.366 33.684,15.495 C33.776,14.133 33.888,12.772 33.967,11.41 C34.013,10.58 33.602,9.98 32.914,9.553 C32.616,9.369 32.505,9.419 32.438,9.764 C32.016,11.984 31.595,14.203 31.172,16.421 C31.055,17.033 30.93,17.642 30.809,18.247 C30.088,18.157 29.991,18.061 29.971,17.478 C29.899,15.482 29.824,13.486 29.751,11.49 C29.726,10.788 29.702,10.086 29.676,9.384 C29.66,8.952 29.196,8.541 28.719,8.534 C28.237,8.526 27.857,8.86 27.838,9.331 C27.784,10.61 27.73,11.891 27.695,13.17 C27.656,14.611 27.64,16.052 27.611,17.494 Z M26.608,50.07 C26.715,50.176 26.857,50.247 27.047,50.378 C27.064,50.18 27.081,50.072 27.081,49.964 C27.081,44.825 27.078,39.686 27.084,34.547 C27.085,34.226 26.983,34.123 26.658,34.124 C24.883,34.138 23.107,34.143 21.332,34.121 C20.941,34.116 20.867,34.244 20.869,34.604 C20.882,37.734 20.881,40.864 20.87,43.994 C20.868,44.351 20.933,44.582 21.237,44.851 C22.227,45.719 23.155,46.66 24.098,47.583 C24.94,48.406 25.768,49.245 26.608,50.07 Z M17,34.124 C16.106,34.132 15.213,34.133 14.321,34.133 C13.328,34.133 12.335,34.131 11.343,34.131 L10.647,34.131 C10.626,34.167 10.607,34.203 10.586,34.239 C10.774,34.439 10.955,34.646 11.153,34.838 C13.125,36.764 15.102,38.687 17.073,40.615 C17.164,40.705 17.204,40.846 17.323,41.063 C17.375,40.838 17.45,40.668 17.451,40.499 C17.457,38.527 17.446,36.556 17.46,34.586 C17.462,34.232 17.357,34.121 17,34.124 Z M36.34,34.126 C35.379,34.131 34.417,34.132 33.455,34.132 C32.565,34.132 31.676,34.131 30.787,34.129 C30.577,34.128 30.489,34.169 30.49,34.418 C30.499,39.622 30.497,44.827 30.498,50.031 C30.498,50.124 30.512,50.217 30.52,50.31 C30.55,50.323 30.582,50.337 30.612,50.35 C30.81,50.012 31.158,49.846 31.42,49.568 C32.138,48.807 32.909,48.099 33.671,47.381 C34.136,46.946 34.637,46.55 35.093,46.105 C35.598,45.609 36.077,45.084 36.553,44.556 C36.641,44.459 36.696,44.294 36.697,44.161 C36.704,40.942 36.702,37.723 36.704,34.503 C36.704,34.247 36.621,34.124 36.34,34.126 Z M40.115,40.825 C40.15,40.835 40.183,40.844 40.216,40.854 C42.443,38.628 44.758,36.492 47.014,34.191 C46.848,34.161 46.769,34.133 46.69,34.133 C44.594,34.131 42.498,34.133 40.401,34.127 C40.13,34.126 40.074,34.242 40.075,34.487 C40.083,36.459 40.08,38.43 40.083,40.403 C40.083,40.544 40.104,40.685 40.115,40.825 Z" id="path-1"></path>
        <path d="M18.533,0.596 C18.177,0.596 18.051,0.728 17.963,1.063 C17.6,2.449 16.824,3.564 15.635,4.37 C13.795,5.617 11.749,6 9.574,5.695 C8.626,5.562 7.767,5.17 6.999,4.579 C6.456,4.161 5.995,3.677 5.621,3.102 C5.559,3.007 5.38,2.904 5.288,2.93 C4.911,3.032 4.544,3.177 4.178,3.316 C3.04,3.748 1.904,4.185 0.768,4.617 C0.513,4.715 0.436,4.859 0.542,5.129 C0.681,5.483 0.781,5.853 0.897,6.217 C1.33,7.571 1.762,8.927 2.198,10.281 C2.366,10.806 2.543,11.328 2.737,11.913 C14.754,6.527 26.76,6.512 38.752,11.915 C38.836,11.669 38.899,11.495 38.954,11.32 C39.618,9.249 40.274,7.176 40.952,5.11 C41.041,4.84 40.98,4.722 40.746,4.628 C39.981,4.322 39.225,3.996 38.453,3.71 C37.665,3.417 36.862,3.161 36.094,2.898 C35.754,3.294 35.463,3.678 35.129,4.021 C34.089,5.089 32.799,5.661 31.326,5.773 C30.012,5.874 28.721,5.704 27.484,5.226 C25.481,4.448 24.061,3.116 23.507,0.987 C23.427,0.682 23.29,0.6 22.997,0.602 C21.516,0.612 20.036,0.621 18.555,0.596 C18.548,0.596 18.541,0.596 18.533,0.596 Z" id="path-3"></path>
        <path d="M0.465,0.756 C0.458,0.436 0.55,0.329 0.817,0.329 C0.845,0.329 0.875,0.331 0.906,0.333 C1.823,0.397 2.746,0.4 3.66,0.494 C4.642,0.594 5.95,1.573 6.283,2.836 C6.603,4.051 6.567,5.175 5.863,6.209 C5.217,7.156 4.279,7.678 3.117,7.741 C2.381,7.781 1.643,7.786 0.906,7.83 C0.573,7.85 0.457,7.759 0.464,7.405 C0.487,6.285 0.473,5.165 0.473,4.044 C0.473,2.948 0.487,1.852 0.465,0.756 Z M1.465,6.751 C1.466,6.831 1.645,6.98 1.739,6.98 C1.741,6.98 1.742,6.98 1.744,6.98 C2.355,6.953 2.968,6.903 3.576,6.833 C3.799,6.806 4.045,6.749 4.225,6.626 C5.23,5.933 5.589,4.944 5.511,3.752 C5.432,2.538 4.73,1.599 3.55,1.328 C2.887,1.176 2.192,1.174 1.453,1.098 C1.453,3.06 1.449,4.906 1.465,6.751 Z" id="path-5"></path>
        <path d="M0.338,0.449 C0.337,2.767 0.347,5.083 0.33,7.401 C0.327,7.786 0.52,7.772 0.787,7.773 C1.058,7.774 1.251,7.782 1.245,7.399 C1.223,6.032 1.242,4.663 1.232,3.295 C1.229,2.968 1.176,2.643 1.14,2.266 C2.859,4.165 4.52,6.001 6.188,7.846 C6.237,7.784 6.263,7.765 6.263,7.747 C6.268,5.344 6.271,2.941 6.271,0.537 C6.27,0.245 6.093,0.263 5.924,0.28 C5.873,0.286 5.821,0.291 5.776,0.287 C5.586,0.271 5.365,0.228 5.367,0.551 C5.373,2.041 5.369,3.533 5.377,5.024 C5.378,5.246 5.423,5.467 5.447,5.688 C5.423,5.693 5.397,5.698 5.372,5.704 C3.723,3.873 2.075,2.041 0.356,0.133 C0.345,0.329 0.338,0.388 0.338,0.449 Z" id="path-7"></path>
        <path d="M1.089,2.062 C0.336,3.388 0.315,4.707 1.007,5.976 C2.208,8.172 4.648,8.172 6.298,7.605 C6.468,7.546 6.636,7.468 6.789,7.371 C7.036,7.217 7.4,7.17 7.399,6.765 C7.397,6.012 7.392,5.261 7.401,4.509 C7.402,4.275 7.326,4.178 7.081,4.183 C6.317,4.193 5.553,4.196 4.789,4.185 C4.533,4.18 4.465,4.287 4.484,4.518 C4.5,4.73 4.422,4.98 4.789,4.968 C5.244,4.954 5.7,4.959 6.157,4.97 C6.272,4.972 6.486,5.026 6.487,5.058 C6.494,5.554 6.476,6.053 6.456,6.549 C6.454,6.579 6.384,6.612 6.34,6.635 C5.207,7.262 4.049,7.338 2.89,6.727 C2.57,6.559 2.187,6.347 2.036,6.051 C1.625,5.252 1.364,4.4 1.54,3.461 C1.833,1.902 3.135,0.875 4.756,1.067 C5.407,1.144 5.952,1.401 6.44,1.847 C6.64,1.629 6.82,1.43 7.027,1.202 C6.799,1.037 6.577,0.842 6.326,0.698 C5.801,0.398 5.128,0.232 4.43,0.232 C3.169,0.232 1.821,0.775 1.089,2.062 Z" id="path-9"></path>
        <path d="M5.05,0.331 C3.694,0.343 2.337,0.342 0.981,0.331 C0.977,0.331 0.974,0.331 0.97,0.331 C0.715,0.331 0.647,0.425 0.648,0.672 C0.655,2.939 0.656,5.207 0.648,7.474 C0.646,7.749 0.738,7.834 1.012,7.832 C2.393,7.821 3.775,7.816 5.154,7.837 C5.54,7.841 5.479,7.611 5.487,7.38 C5.496,7.149 5.484,6.986 5.162,6.992 C4.188,7.012 3.214,6.998 2.24,6.997 L1.651,6.997 L1.651,5.163 C2.537,5.163 3.399,5.167 4.26,5.162 C4.348,5.162 4.424,5.164 4.49,5.165 C4.917,5.178 4.898,5.191 4.886,4.534 C4.885,4.51 4.875,4.487 4.855,4.411 L1.636,4.411 L1.636,1.178 C1.717,1.174 1.788,1.167 1.86,1.167 C2.92,1.166 3.981,1.155 5.041,1.171 C5.392,1.177 5.337,0.961 5.331,0.756 C5.324,0.563 5.408,0.331 5.058,0.331 C5.055,0.331 5.052,0.331 5.05,0.331 Z" id="path-11"></path>
        <path d="M1.274,0.329 C0.969,0.329 0.878,0.41 0.881,0.735 C0.896,2.966 0.894,5.196 0.882,7.426 C0.881,7.723 0.951,7.837 1.27,7.834 C2.639,7.818 4.008,7.814 5.376,7.835 C5.741,7.839 5.734,7.65 5.734,7.398 C5.734,7.155 5.732,6.979 5.387,6.989 C4.772,7.006 4.156,7.003 3.54,7.002 C3.207,7.001 2.873,7 2.54,7.002 C2.336,7.002 2.134,7.03 1.898,7.048 L1.898,5.151 L5.107,5.151 L5.107,4.35 C5.05,4.481 5.035,4.516 5.046,4.489 C4.371,4.346 3.704,4.362 3.034,4.378 C2.655,4.387 2.275,4.396 1.893,4.376 C1.885,4.305 1.868,4.212 1.868,4.118 C1.867,3.267 1.884,2.417 1.863,1.567 C1.853,1.232 1.971,1.152 2.287,1.158 C3.272,1.176 4.26,1.17 5.245,1.155 C5.355,1.154 5.537,1.053 5.558,0.965 C5.605,0.774 5.573,0.563 5.573,0.337 C4.103,0.337 2.698,0.347 1.295,0.329 C1.288,0.329 1.281,0.329 1.274,0.329 Z" id="path-13"></path>
        <path d="M0.814,0.277 C0.851,0.274 0.885,0.272 0.917,0.272 C1.158,0.272 1.27,0.359 1.266,0.69 C1.242,2.218 1.252,3.746 1.261,5.274 C1.266,6.001 1.498,6.639 2.241,6.89 C2.975,7.137 3.722,7.161 4.362,6.597 C4.704,6.295 4.865,5.897 4.868,5.45 C4.877,3.885 4.871,2.32 4.883,0.754 C4.884,0.6 4.943,0.327 5.016,0.313 C5.262,0.265 5.526,0.297 5.78,0.328 C5.814,0.331 5.849,0.498 5.849,0.59 C5.852,2.167 5.86,3.744 5.84,5.321 C5.835,5.654 5.717,5.986 5.645,6.355 C5.56,6.243 5.504,6.17 5.449,6.097 C5.415,6.09 5.381,6.081 5.346,6.074 C5.491,6.519 5.545,6.918 4.971,6.996 L4.961,6.982 C4.898,7.006 4.834,7.031 4.771,7.057 L4.771,7.05 L4.759,7.063 C4.763,7.061 4.767,7.059 4.771,7.057 L4.771,7.135 C4.768,7.131 4.764,7.128 4.761,7.125 L4.771,7.139 L4.771,7.135 C4.794,7.157 4.816,7.18 4.839,7.202 L4.884,7.288 C4.193,7.902 3.352,7.931 2.516,7.82 C1.143,7.638 0.288,6.615 0.283,5.227 C0.277,3.711 0.3,2.194 0.269,0.679 C0.26,0.278 0.453,0.279 0.675,0.28 C0.719,0.28 0.767,0.28 0.814,0.277 Z M4.839,7.202 L4.837,7.198 L4.849,7.212 C4.845,7.208 4.842,7.206 4.839,7.202 Z" id="path-15"></path>
        <path d="M5.839,0.328 C5.367,0.359 5.366,0.334 5.364,0.827 C5.364,1.011 5.366,1.197 5.364,1.382 C5.345,2.773 5.339,4.164 5.301,5.554 C5.288,6.037 5.102,6.48 4.682,6.757 C4.01,7.199 3.275,7.214 2.568,6.896 C1.894,6.595 1.689,5.975 1.689,5.276 C1.689,3.822 1.695,2.368 1.69,0.914 C1.688,0.248 1.788,0.355 1.094,0.332 C0.82,0.323 0.703,0.382 0.705,0.694 C0.722,2.259 0.687,3.825 0.723,5.39 C0.742,6.218 1.062,6.939 1.781,7.442 C2.44,7.902 3.179,7.952 3.937,7.895 C5.141,7.804 6.065,7.032 6.204,5.844 C6.311,4.934 6.225,4.002 6.225,3.08 L6.283,3.08 C6.283,2.315 6.267,1.551 6.289,0.788 C6.299,0.466 6.219,0.325 5.915,0.325 C5.89,0.325 5.866,0.326 5.839,0.328 Z" id="path-17"></path>
        <path d="M4.499,0.27 C3.218,0.299 1.934,0.294 0.652,0.272 C0.286,0.267 0.198,0.386 0.2,0.736 C0.214,2.953 0.215,5.172 0.2,7.389 C0.198,7.718 0.315,7.776 0.606,7.773 C1.777,7.759 2.948,7.767 4.119,7.767 L4.99,7.767 C5.106,7.021 5.045,6.944 4.376,6.944 C3.414,6.943 2.451,6.937 1.49,6.948 C1.22,6.952 1.111,6.869 1.127,6.588 C1.146,6.219 1.146,5.849 1.129,5.48 C1.118,5.195 1.212,5.09 1.511,5.097 C2.362,5.115 3.212,5.109 4.063,5.097 C4.175,5.095 4.352,5.034 4.386,4.954 C4.549,4.563 4.36,4.324 3.936,4.326 C3.551,4.327 3.168,4.327 2.784,4.326 C2.342,4.325 1.899,4.324 1.457,4.327 C1.221,4.329 1.134,4.238 1.136,3.998 C1.146,3.148 1.145,2.298 1.134,1.447 C1.13,1.195 1.218,1.104 1.478,1.105 C2.01,1.111 2.543,1.109 3.077,1.107 C3.555,1.105 4.033,1.104 4.511,1.106 C4.743,1.107 4.939,1.122 4.9,0.796 C4.872,0.542 4.946,0.27 4.524,0.27 C4.516,0.27 4.507,0.27 4.499,0.27 Z" id="path-19"></path>
        <path d="M0.934,0.729 C0.93,0.447 1.004,0.328 1.274,0.328 C1.291,0.328 1.31,0.329 1.329,0.33 C2.126,0.373 2.934,0.316 3.72,0.43 C5.264,0.652 6.153,1.827 6.062,3.279 C5.985,4.494 5.374,5.559 3.969,5.843 C3.432,5.953 2.87,5.976 2.321,5.966 C1.927,5.959 1.828,6.099 1.854,6.456 C1.879,6.799 1.844,7.146 1.862,7.49 C1.874,7.748 1.784,7.859 1.524,7.828 C1.438,7.817 1.35,7.817 1.266,7.828 C1.004,7.86 0.928,7.749 0.931,7.492 C0.944,6.358 0.936,5.224 0.936,4.092 L0.939,4.092 C0.939,2.97 0.948,1.851 0.934,0.729 Z M1.855,5.16 C2.129,5.16 2.398,5.168 2.665,5.168 C2.826,5.168 2.987,5.165 3.147,5.156 C4.594,5.071 5.174,4.242 5.084,2.926 C5.035,2.186 4.706,1.606 3.968,1.338 C3.278,1.086 2.567,1.165 1.855,1.183 L1.855,5.16 Z" id="path-21"></path>
        <path d="M1.238,0.333 C1.287,0.325 1.332,0.321 1.372,0.321 C1.632,0.321 1.691,0.497 1.687,0.792 C1.669,1.838 1.676,2.887 1.683,3.934 C1.686,4.475 1.701,5.017 1.727,5.559 C1.77,6.44 2.43,7.048 3.315,7.082 C4.075,7.11 4.762,6.992 5.125,6.231 C5.252,5.963 5.317,5.644 5.329,5.346 C5.357,4.595 5.338,3.842 5.338,3.091 L5.336,3.091 C5.336,2.302 5.35,1.513 5.33,0.726 C5.323,0.416 5.42,0.292 5.728,0.334 C5.812,0.348 5.9,0.345 5.986,0.334 C6.252,0.299 6.32,0.42 6.318,0.673 C6.309,2.213 6.329,3.753 6.312,5.293 C6.294,6.836 5.232,7.879 3.696,7.906 C3.125,7.917 2.569,7.869 2.051,7.595 C1.219,7.155 0.787,6.432 0.76,5.535 C0.708,3.897 0.744,2.258 0.74,0.619 C0.739,0.421 0.8,0.313 1.016,0.334 C1.089,0.342 1.166,0.347 1.238,0.333 Z M1.548,4.955 L1.581,4.955 L1.581,0.546 L1.548,0.546 L1.548,4.955 Z" id="path-23"></path>
        <path d="M3.546,0.637 C3.591,0.531 3.676,0.443 3.742,0.348 C3.826,0.441 3.942,0.52 3.99,0.629 C4.721,2.335 5.463,4.035 6.162,5.754 C6.43,6.414 6.791,7.036 6.981,7.721 C6.957,7.741 6.947,7.755 6.937,7.755 C6.047,7.818 6.031,7.823 5.738,6.993 C5.631,6.691 5.469,6.602 5.172,6.607 C4.506,6.621 3.84,6.608 3.174,6.607 C3.109,6.607 3.043,6.611 2.977,6.613 C2.645,6.63 2.31,6.646 2.053,6.234 C1.882,6.661 1.729,6.971 1.634,7.297 C1.521,7.684 1.297,7.837 0.904,7.77 C0.799,7.753 0.691,7.756 0.542,7.747 C0.877,6.949 1.194,6.184 1.516,5.422 C2.191,3.825 2.866,2.23 3.546,0.637 Z M2.227,5.903 C2.728,5.903 3.202,5.911 3.664,5.911 C3.989,5.911 4.308,5.908 4.627,5.893 C5.027,5.875 5.292,6.001 5.501,6.345 C4.822,4.926 4.308,3.454 3.768,1.937 C3.246,3.281 2.747,4.565 2.227,5.903 Z" id="path-25"></path>
        <path d="M2.869,2.593 C3.185,1.8 3.514,1.013 3.838,0.223 L3.944,0.232 C5,2.718 6.058,5.206 7.145,7.764 C6.811,7.764 6.541,7.791 6.281,7.751 C6.188,7.738 6.093,7.575 6.045,7.462 C5.693,6.608 5.697,6.607 4.763,6.605 C4.543,6.605 4.324,6.606 4.105,6.606 C3.546,6.608 2.988,6.609 2.431,6.597 C2.144,6.592 1.949,6.661 1.892,6.964 C1.882,7.012 1.857,7.057 1.838,7.102 C1.543,7.816 1.543,7.816 0.676,7.738 C0.97,7.018 1.248,6.328 1.535,5.644 C1.86,4.874 2.19,4.105 2.532,3.343 C2.604,3.183 2.758,3.061 2.84,2.905 C2.885,2.819 2.832,2.687 2.869,2.593 Z M3.034,4.181 C2.822,4.739 2.582,5.286 2.35,5.852 L5.482,5.852 C5.378,5.677 5.273,5.56 5.238,5.425 C5.192,5.25 5.131,5.094 5.056,4.93 C4.659,4.048 4.361,3.124 4.025,2.216 C3.996,2.138 3.946,2.067 3.904,1.993 C3.856,2.052 3.787,2.105 3.762,2.174 C3.515,2.842 3.287,3.516 3.034,4.181 Z M6.458,7.328 C6.503,7.41 6.586,7.558 6.669,7.707 C6.717,7.689 6.765,7.672 6.814,7.655 C6.764,7.411 6.714,7.168 6.645,6.835 C6.565,7.047 6.523,7.157 6.458,7.328 Z" id="path-27"></path>
        <path d="M2.086,0.468 C1.962,0.535 1.879,0.682 1.732,0.842 C1.449,0.804 1.306,1.071 1.205,1.356 C0.843,2.387 1.211,3.329 2.191,3.844 C2.777,4.152 3.397,4.396 3.968,4.726 C4.24,4.884 4.504,5.139 4.65,5.414 C4.877,5.84 4.841,6.322 4.477,6.678 C4.025,7.122 3.441,7.221 2.835,7.111 C2.159,6.988 1.646,6.611 1.327,5.976 C0.452,6.368 0.458,6.462 1.077,7.097 C1.907,7.947 3.766,8.106 4.784,7.546 C5.839,6.965 5.965,5.314 5.222,4.562 C4.735,4.069 4.128,3.786 3.513,3.505 C3.125,3.327 2.738,3.133 2.385,2.897 C1.992,2.632 1.887,2.139 2.051,1.637 C2.163,1.293 2.534,1.06 2.978,1.017 C3.645,0.954 4.144,1.235 4.542,1.76 C4.779,1.599 4.998,1.45 5.214,1.304 C4.755,0.542 3.915,0.229 3.154,0.229 C2.754,0.229 2.376,0.315 2.086,0.468 Z" id="path-29"></path>
        <path d="M3.087,0.255 C2.476,0.271 2.02,0.608 1.688,1.035 C1.181,1.687 1.225,2.831 1.93,3.412 C2.284,3.704 2.708,3.914 3.111,4.141 C3.621,4.432 4.18,4.651 4.651,4.995 C5.291,5.463 5.213,6.473 4.529,6.873 C3.821,7.286 3.076,7.236 2.394,6.815 C2.074,6.62 1.833,6.295 1.53,6.002 C1.335,6.107 1.101,6.234 0.862,6.363 C0.892,6.446 0.903,6.494 0.926,6.534 C0.964,6.597 1.005,6.66 1.052,6.716 C1.885,7.744 2.969,8.06 4.246,7.851 C5.648,7.622 6.371,6.394 5.845,5.078 C5.586,4.431 5.01,4.096 4.427,3.797 C3.979,3.568 3.516,3.371 3.059,3.16 C2.253,2.788 1.925,1.802 2.696,1.172 C2.695,1.172 2.695,1.171 2.695,1.171 C2.545,1.264 2.395,1.358 2.166,1.502 C2.183,1.34 2.155,1.192 2.215,1.13 C2.37,0.964 2.544,1.034 2.695,1.171 C2.698,1.17 2.701,1.167 2.705,1.165 C2.702,1.168 2.698,1.17 2.696,1.172 C3.545,0.825 4.255,1.019 4.839,1.754 C5.069,1.601 5.284,1.456 5.543,1.284 C5.342,1.114 5.183,0.983 5.026,0.851 C5.028,0.853 5.03,0.855 5.031,0.857 C5,0.928 4.967,1.001 4.934,1.072 L4.922,1.072 C4.955,0.997 4.987,0.921 5.02,0.846 C5.021,0.847 5.023,0.849 5.026,0.851 C4.586,0.328 4.011,0.25 3.407,0.25 C3.301,0.25 3.194,0.252 3.087,0.255 Z" id="path-31"></path>
        <path d="M0.229,0.317 L0.229,0.713 C0.229,1.946 0.229,3.18 0.229,4.413 C0.229,5.424 0.235,6.435 0.227,7.447 C0.225,7.682 0.293,7.796 0.541,7.77 C0.583,7.765 0.629,7.769 0.674,7.773 C0.744,7.779 0.814,7.784 0.87,7.758 C0.976,7.711 1.129,7.596 1.13,7.511 C1.141,5.97 1.135,4.427 1.125,2.887 C1.125,2.716 1.079,2.546 1.045,2.312 C2.015,3.538 2.93,4.691 3.863,5.867 C4.537,5.055 5.184,4.305 5.792,3.523 C5.913,3.37 5.886,3.102 5.927,2.886 C5.942,2.866 5.957,2.847 5.972,2.828 C6.027,2.599 5.927,2.623 5.8,2.728 C5.663,2.841 5.536,2.966 5.406,3.085 C5.255,3.148 5.058,3.173 4.955,3.283 C4.594,3.676 4.265,4.099 3.892,4.549 C2.676,3.091 1.5,1.68 0.324,0.27 C0.292,0.286 0.261,0.302 0.229,0.317 Z" id="path-33"></path>
        <path d="M0.634,0.276 C0.241,0.276 0.348,0.537 0.33,0.752 C0.312,0.98 0.349,1.122 0.641,1.112 C0.964,1.101 1.288,1.104 1.612,1.105 C1.869,1.107 2.125,1.11 2.382,1.105 C2.623,1.1 2.721,1.195 2.7,1.431 C2.692,1.529 2.701,1.628 2.701,1.727 C2.7,3.614 2.707,5.501 2.694,7.387 C2.692,7.676 2.768,7.809 3.065,7.772 C3.138,7.763 3.215,7.759 3.286,7.77 C3.601,7.818 3.686,7.68 3.68,7.377 C3.663,6.403 3.674,5.428 3.674,4.454 C3.674,3.48 3.692,2.506 3.665,1.531 C3.656,1.175 3.783,1.089 4.107,1.101 C4.372,1.111 4.637,1.109 4.903,1.107 C5.167,1.105 5.433,1.103 5.698,1.112 C6.025,1.123 5.988,0.909 5.976,0.72 C5.965,0.538 6.083,0.277 5.713,0.278 C4.023,0.285 2.332,0.288 0.642,0.276 C0.639,0.276 0.636,0.276 0.634,0.276 Z" id="path-35"></path>
        <path d="M0.48,0.694 C0.479,0.885 0.434,1.11 0.75,1.107 C1.412,1.103 2.073,1.106 2.779,1.106 L2.779,7.768 C2.978,7.768 3.134,7.767 3.29,7.768 C3.772,7.769 3.771,7.769 3.771,7.279 C3.771,5.419 3.771,3.559 3.771,1.698 L3.771,1.106 C3.978,1.106 4.147,1.106 4.317,1.107 C4.462,1.108 4.607,1.107 4.752,1.107 C5.124,1.107 5.497,1.106 5.87,1.114 C6.124,1.119 6.162,0.97 6.131,0.779 C6.102,0.592 6.274,0.284 5.888,0.283 C4.935,0.281 3.983,0.281 3.032,0.281 C2.271,0.281 1.508,0.282 0.747,0.28 C0.426,0.279 0.481,0.506 0.48,0.694 Z" id="path-37"></path>
        <path d="M4.996,0.279 C4.957,0.285 4.915,0.281 4.873,0.277 C4.812,0.272 4.751,0.267 4.705,0.29 C4.608,0.338 4.473,0.446 4.473,0.529 C4.476,2.032 4.497,3.535 4.512,5.038 C4.515,5.26 4.513,5.48 4.513,5.701 C4.478,5.714 4.444,5.729 4.409,5.742 C4.378,5.689 4.355,5.63 4.314,5.584 C3.542,4.697 2.768,3.812 1.995,2.924 C1.862,2.773 1.717,2.676 1.514,2.802 C1.195,2.986 1.101,2.707 0.962,2.53 C0.656,2.744 0.844,2.936 1,3.11 C1.921,4.137 2.845,5.161 3.774,6.181 C4.273,6.731 4.78,7.273 5.284,7.818 C5.366,7.08 5.366,6.38 5.366,5.681 C5.367,4.003 5.362,2.327 5.375,0.649 C5.377,0.393 5.311,0.271 5.101,0.271 C5.069,0.271 5.034,0.274 4.996,0.279 Z" id="path-39"></path>
        <path d="M0.343,0.682 C0.341,0.421 0.417,0.331 0.652,0.33 C0.669,0.33 0.686,0.331 0.705,0.332 C0.824,0.338 0.92,0.338 0.999,0.337 C1.359,0.335 1.325,0.334 1.325,0.971 C1.327,2.844 1.326,4.715 1.325,6.588 L1.325,6.994 C2.412,6.994 3.447,7.006 4.481,6.988 C4.797,6.983 4.879,7.092 4.881,7.391 C4.884,7.693 4.831,7.838 4.481,7.833 C3.224,7.814 1.967,7.819 0.71,7.829 C0.45,7.83 0.341,7.775 0.342,7.483 C0.353,5.216 0.351,2.949 0.343,0.682 Z M1.589,7.358 C1.589,7.366 1.589,7.374 1.589,7.381 L4.342,7.381 C4.342,7.374 4.342,7.366 4.342,7.358 L1.589,7.358 Z" id="path-41"></path>
        <path d="M4.175,0.281 C3.726,0.281 3.726,0.314 3.726,0.814 C3.726,2.48 3.727,4.143 3.726,5.807 C3.726,6.328 3.556,6.751 3.041,6.964 C2.589,7.154 1.978,7.009 1.614,6.628 C1.496,6.504 1.39,6.37 1.264,6.223 C1.018,6.367 0.779,6.507 0.543,6.647 C1.229,8.004 2.774,8.113 3.797,7.556 C4.497,7.176 4.695,6.473 4.701,5.727 C4.714,4.261 4.705,2.793 4.705,1.326 C4.705,0.996 4.705,0.664 4.705,0.303 C4.541,0.295 4.408,0.281 4.276,0.281 C4.24,0.281 4.207,0.281 4.175,0.281 Z" id="path-43"></path>
        <path d="M0.433,0.408 C0.429,2.771 0.428,5.135 0.425,7.498 C0.424,7.808 0.596,7.789 0.765,7.77 C0.825,7.764 0.884,7.757 0.936,7.764 C1.168,7.801 1.334,7.765 1.332,7.451 C1.319,5.986 1.327,4.521 1.321,3.057 C1.319,2.809 1.277,2.563 1.252,2.309 C1.528,2.395 1.746,2.463 1.962,2.53 C2.101,2.707 2.195,2.986 2.514,2.802 C2.705,2.675 2.652,2.546 2.524,2.407 C2.175,2.027 1.831,1.642 1.483,1.259 C1.165,0.912 0.846,0.566 0.489,0.178 C0.459,0.297 0.433,0.353 0.433,0.408 Z" id="path-45"></path>
        <path d="M0.387,2.767 C0.338,2.827 0.399,2.976 0.407,3.085 C0.537,2.966 0.663,2.841 0.8,2.728 C0.927,2.624 1.027,2.599 0.972,2.828 L0.983,2.824 C1.492,2.974 1.387,2.454 1.676,2.187 C1.646,2.59 1.604,2.907 1.603,3.226 C1.594,4.606 1.616,5.986 1.588,7.366 C1.579,7.79 1.791,7.767 2.085,7.775 C2.392,7.784 2.517,7.719 2.514,7.372 C2.499,5.08 2.508,2.787 2.508,0.495 C2.508,0.421 2.488,0.348 2.468,0.214 C1.744,1.097 1.058,1.925 0.387,2.767 Z" id="path-47"></path>
        <path d="M0.619,0.585 C0.403,0.8 0.344,1.364 0.599,1.528 C0.989,1.779 0.844,2.047 0.746,2.342 C0.674,2.56 0.603,2.78 0.539,2.977 C0.691,3.019 0.812,3.053 0.993,3.105 C1.256,2.537 1.495,1.978 1.772,1.436 C1.954,1.08 1.924,0.769 1.613,0.523 C1.456,0.399 1.297,0.337 1.141,0.337 C0.961,0.337 0.785,0.419 0.619,0.585 Z" id="path-49"></path>
        <path d="M8.701,0.534 C8.228,0.534 7.857,0.865 7.838,1.331 C7.784,2.61 7.729,3.891 7.695,5.17 C7.656,6.611 7.64,8.052 7.611,9.494 C7.599,10.076 7.489,10.19 6.885,10.247 C6.853,10.137 6.814,10.022 6.789,9.904 C6.28,7.49 5.774,5.076 5.264,2.662 C5.182,2.273 5.075,2.209 4.7,2.357 C4.204,2.554 3.946,2.997 3.871,3.463 C3.793,3.946 3.865,4.459 3.914,4.954 C4.105,6.859 4.312,8.763 4.517,10.667 C4.578,11.23 4.585,11.229 4.085,11.417 C4.041,11.289 4.012,11.154 3.949,11.038 C3.897,10.946 3.779,10.888 3.737,10.795 C3.236,9.644 2.745,8.487 2.249,7.335 C2.066,6.912 1.874,6.492 1.687,6.072 C1.596,6.102 1.558,6.107 1.53,6.126 C1.488,6.152 1.451,6.185 1.416,6.219 C0.77,6.853 0.638,7.623 0.852,8.464 C1.411,10.659 1.983,12.852 2.553,15.045 C3.162,17.387 3.784,19.727 4.373,22.075 C4.466,22.446 4.608,22.565 4.986,22.562 C7.33,22.546 9.675,22.549 12.018,22.558 C12.305,22.559 12.501,22.465 12.688,22.254 C13.422,21.424 14.164,20.6 14.914,19.786 C15.411,19.247 15.943,18.74 16.432,18.195 C17.033,17.524 17.594,16.82 18.193,16.147 C19.125,15.099 20.076,14.065 21.017,13.024 C21.281,12.733 21.272,12.633 20.904,12.516 C20.569,12.408 20.217,12.328 19.867,12.294 C19.164,12.225 18.622,12.615 18.054,12.956 C16.571,13.849 15.071,14.712 13.577,15.586 C13.271,15.764 13.151,15.701 13.16,15.333 C13.174,14.805 13.211,14.277 13.249,13.749 C13.336,12.536 13.434,11.323 13.519,10.109 C13.58,9.238 13.625,8.366 13.684,7.495 C13.776,6.133 13.889,4.772 13.967,3.41 C14.013,2.58 13.602,1.98 12.914,1.553 C12.616,1.369 12.505,1.419 12.438,1.764 C12.015,3.984 11.595,6.203 11.171,8.421 C11.054,9.033 10.93,9.642 10.81,10.247 C10.088,10.157 9.991,10.061 9.971,9.478 C9.899,7.482 9.824,5.486 9.751,3.49 C9.726,2.789 9.702,2.086 9.676,1.385 C9.66,0.952 9.196,0.541 8.718,0.534 C8.712,0.534 8.706,0.534 8.701,0.534 Z" id="path-51"></path>
        <path d="M1.312,0.121 C0.938,0.121 0.867,0.25 0.87,0.604 C0.882,3.734 0.881,6.864 0.87,9.994 C0.868,10.351 0.932,10.582 1.237,10.851 C2.227,11.719 3.156,12.66 4.098,13.583 C4.94,14.406 5.769,15.243 6.608,16.07 C6.715,16.177 6.857,16.247 7.047,16.378 C7.064,16.18 7.081,16.072 7.081,15.964 C7.082,10.825 7.078,5.686 7.084,0.547 C7.085,0.227 6.983,0.123 6.658,0.124 C4.882,0.139 3.107,0.143 1.332,0.121 C1.325,0.121 1.318,0.121 1.312,0.121 Z" id="path-53"></path>
        <path d="M6.34,0.126 C4.489,0.134 2.638,0.133 0.787,0.129 C0.578,0.129 0.489,0.169 0.49,0.418 C0.5,5.622 0.497,10.827 0.498,16.031 C0.498,16.125 0.512,16.217 0.52,16.31 C0.55,16.323 0.582,16.337 0.612,16.349 C0.81,16.012 1.158,15.846 1.42,15.568 C2.138,14.807 2.91,14.099 3.671,13.381 C4.135,12.946 4.637,12.55 5.092,12.105 C5.598,11.608 6.077,11.083 6.553,10.556 C6.641,10.459 6.696,10.294 6.697,10.161 C6.705,6.942 6.701,3.724 6.704,0.503 C6.704,0.249 6.622,0.126 6.346,0.126 C6.344,0.126 6.342,0.126 6.34,0.126 Z" id="path-55"></path>
        <path d="M0.397,0.127 C0.13,0.127 0.074,0.243 0.075,0.487 C0.083,2.459 0.08,4.43 0.083,6.403 C0.083,6.544 0.105,6.685 0.115,6.825 C0.15,6.835 0.183,6.845 0.216,6.854 C2.443,4.628 4.758,2.492 7.014,0.191 C6.848,0.16 6.769,0.133 6.69,0.133 C4.594,0.131 2.497,0.133 0.401,0.127 C0.4,0.127 0.399,0.127 0.397,0.127 Z" id="path-57"></path>
        <path d="M7,0.124 C5.114,0.14 3.229,0.131 1.343,0.131 L0.647,0.131 C0.626,0.167 0.607,0.203 0.586,0.239 C0.774,0.439 0.955,0.646 1.153,0.838 C3.125,2.764 5.102,4.687 7.073,6.615 C7.164,6.705 7.204,6.846 7.323,7.063 C7.375,6.838 7.45,6.668 7.451,6.499 C7.457,4.527 7.446,2.556 7.46,0.586 C7.462,0.237 7.36,0.124 7.012,0.124 C7.008,0.124 7.003,0.124 7,0.124 Z" id="path-59"></path>
        <path d="M0.465,5.751 C0.466,5.833 0.651,5.985 0.744,5.98 C1.355,5.953 1.968,5.903 2.576,5.833 C2.799,5.806 3.045,5.749 3.225,5.626 C4.23,4.933 4.589,3.944 4.511,2.752 C4.432,1.538 3.73,0.599 2.55,0.328 C1.887,0.176 1.192,0.174 0.453,0.098 C0.453,2.06 0.449,3.906 0.465,5.751 Z" id="path-61"></path>
        <path d="M0.855,0.183 L0.855,4.16 C1.294,4.16 1.722,4.182 2.147,4.156 C3.594,4.071 4.174,3.242 4.084,1.926 C4.035,1.186 3.706,0.606 2.968,0.338 C2.568,0.192 2.162,0.157 1.752,0.157 C1.455,0.157 1.155,0.176 0.855,0.183 Z" id="path-63"></path>
        <path d="M0.227,4.903 C1.082,4.903 1.856,4.928 2.627,4.893 C3.027,4.875 3.292,5.001 3.501,5.345 C2.822,3.926 2.308,2.454 1.768,0.937 C1.246,2.281 0.747,3.565 0.227,4.903 Z" id="path-65"></path>
        <path d="M1.762,1.174 C1.516,1.842 1.287,2.517 1.034,3.181 C0.822,3.739 0.582,4.287 0.35,4.852 L3.482,4.852 C3.378,4.677 3.272,4.56 3.238,4.425 C3.192,4.25 3.131,4.094 3.056,3.93 C2.659,3.048 2.361,2.124 2.025,1.216 C1.996,1.138 1.946,1.068 1.905,0.992 C1.856,1.052 1.787,1.105 1.762,1.174 Z" id="path-67"></path>
    </defs>
    <g id="Symbols" stroke="none" stroke-width="1" fill="none" fill-rule="evenodd">
        <g id="Module/Clients" transform="translate(-1049.000000, -130.000000)">
            <g id="Group-7" transform="translate(1045.000000, 128.000000)">
                <g id="Group-310" transform="translate(0.000000, 0.030000)" fill="#FFFFFF">
                    <polygon id="Fill-308" points="-11.661 92.412 174.096 92.412 174.096 -12.155 -11.661 -12.155"></polygon>
                </g>
                <g id="Group-313" transform="translate(4.000000, 14.030000)">
                    <mask id="mask-2" fill="white">
                        <use xlink:href="#path-1"></use>
                    </mask>
                    <g id="Clip-312"></g>
                    <polygon id="Fill-311" fill="#000000" mask="url(#mask-2)" points="-11.905 68.687 69.325 68.687 69.325 -12.4 -11.905 -12.4"></polygon>
                </g>
                <g id="Group-316" transform="translate(12.000000, 2.030000)">
                    <mask id="mask-4" fill="white">
                        <use xlink:href="#path-3"></use>
                    </mask>
                    <g id="Clip-315"></g>
                    <polygon id="Fill-314" fill="#000000" mask="url(#mask-4)" points="-12.159 24.57 53.645 24.57 53.645 -12.058 -12.159 -12.058"></polygon>
                </g>
                <g id="Group-319" transform="translate(72.000000, 46.030000)">
                    <mask id="mask-6" fill="white">
                        <use xlink:href="#path-5"></use>
                    </mask>
                    <g id="Clip-318"></g>
                    <polygon id="Fill-317" fill="#000000" mask="url(#mask-6)" points="-12.191 20.488 19.131 20.488 19.131 -12.325 -12.191 -12.325"></polygon>
                </g>
                <g id="Group-322" transform="translate(135.000000, 30.030000)">
                    <mask id="mask-8" fill="white">
                        <use xlink:href="#path-7"></use>
                    </mask>
                    <g id="Clip-321"></g>
                    <polygon id="Fill-320" fill="#000000" mask="url(#mask-8)" points="-12.325 20.5 18.925 20.5 18.925 -12.521 -12.325 -12.521"></polygon>
                </g>
                <g id="Group-325" transform="translate(119.000000, 46.030000)">
                    <mask id="mask-10" fill="white">
                        <use xlink:href="#path-9"></use>
                    </mask>
                    <g id="Clip-324"></g>
                    <polygon id="Fill-323" fill="#000000" mask="url(#mask-10)" points="-12.149 20.578 20.056 20.578 20.056 -12.424 -12.149 -12.424"></polygon>
                </g>
                <g id="Group-328" transform="translate(83.000000, 46.030000)">
                    <mask id="mask-12" fill="white">
                        <use xlink:href="#path-11"></use>
                    </mask>
                    <g id="Clip-327"></g>
                    <polygon id="Fill-326" fill="#000000" mask="url(#mask-12)" points="-12.007 20.491 18.144 20.491 18.144 -12.324 -12.007 -12.324"></polygon>
                </g>
                <g id="Group-331" transform="translate(136.000000, 46.030000)">
                    <mask id="mask-14" fill="white">
                        <use xlink:href="#path-13"></use>
                    </mask>
                    <g id="Clip-330"></g>
                    <polygon id="Fill-329" fill="#000000" mask="url(#mask-14)" points="-11.774 20.49 18.389 20.49 18.389 -12.326 -11.774 -12.326"></polygon>
                </g>
                <g id="Group-334" transform="translate(87.000000, 30.030000)">
                    <mask id="mask-16" fill="white">
                        <use xlink:href="#path-15"></use>
                    </mask>
                    <g id="Clip-333"></g>
                    <polygon id="Fill-332" fill="#000000" mask="url(#mask-16)" points="-12.386 20.525 18.508 20.525 18.508 -12.383 -12.386 -12.383"></polygon>
                </g>
                <g id="Group-337" transform="translate(111.000000, 46.030000)">
                    <mask id="mask-18" fill="white">
                        <use xlink:href="#path-17"></use>
                    </mask>
                    <g id="Clip-336"></g>
                    <polygon id="Fill-335" fill="#000000" mask="url(#mask-18)" points="-11.949 20.569 18.946 20.569 18.946 -12.329 -11.949 -12.329"></polygon>
                </g>
                <g id="Group-340" transform="translate(128.000000, 30.030000)">
                    <mask id="mask-20" fill="white">
                        <use xlink:href="#path-19"></use>
                    </mask>
                    <g id="Clip-339"></g>
                    <polygon id="Fill-338" fill="#000000" mask="url(#mask-20)" points="-12.455 20.428 17.692 20.428 17.692 -12.385 -12.455 -12.385"></polygon>
                </g>
                <g id="Group-343" transform="translate(97.000000, 46.030000)">
                    <mask id="mask-22" fill="white">
                        <use xlink:href="#path-21"></use>
                    </mask>
                    <g id="Clip-342"></g>
                    <polygon id="Fill-341" fill="#000000" mask="url(#mask-22)" points="-11.724 20.488 18.723 20.488 18.723 -12.326 -11.724 -12.326"></polygon>
                </g>
                <g id="Group-346" transform="translate(128.000000, 46.030000)">
                    <mask id="mask-24" fill="white">
                        <use xlink:href="#path-23"></use>
                    </mask>
                    <g id="Clip-345"></g>
                    <polygon id="Fill-344" fill="#000000" mask="url(#mask-24)" points="-11.923 20.562 18.974 20.562 18.974 -12.334 -11.923 -12.334"></polygon>
                </g>
                <g id="Group-349" transform="translate(72.000000, 30.030000)">
                    <mask id="mask-26" fill="white">
                        <use xlink:href="#path-25"></use>
                    </mask>
                    <g id="Clip-348"></g>
                    <polygon id="Fill-347" fill="#000000" mask="url(#mask-26)" points="-12.113 20.44 19.637 20.44 19.637 -12.308 -12.113 -12.308"></polygon>
                </g>
                <g id="Group-352" transform="translate(109.000000, 30.030000)">
                    <mask id="mask-28" fill="white">
                        <use xlink:href="#path-27"></use>
                    </mask>
                    <g id="Clip-351"></g>
                    <polygon id="Fill-350" fill="#000000" mask="url(#mask-28)" points="-11.979 20.428 19.8 20.428 19.8 -12.431 -11.979 -12.431"></polygon>
                </g>
                <g id="Group-355" transform="translate(90.000000, 46.030000)">
                    <mask id="mask-30" fill="white">
                        <use xlink:href="#path-29"></use>
                    </mask>
                    <g id="Clip-354"></g>
                    <polygon id="Fill-353" fill="#000000" mask="url(#mask-30)" points="-12.017 20.529 18.349 20.529 18.349 -12.426 -12.017 -12.426"></polygon>
                </g>
                <g id="Group-358" transform="translate(143.000000, 46.030000)">
                    <mask id="mask-32" fill="white">
                        <use xlink:href="#path-31"></use>
                    </mask>
                    <g id="Clip-357"></g>
                    <polygon id="Fill-356" fill="#000000" mask="url(#mask-32)" points="-11.793 20.567 18.672 20.567 18.672 -12.406 -11.793 -12.406"></polygon>
                </g>
                <g id="Group-361" transform="translate(118.000000, 30.030000)">
                    <mask id="mask-34" fill="white">
                        <use xlink:href="#path-33"></use>
                    </mask>
                    <g id="Clip-360"></g>
                    <polygon id="Fill-359" fill="#000000" mask="url(#mask-34)" points="-12.428 20.432 18.643 20.432 18.643 -12.385 -12.428 -12.385"></polygon>
                </g>
                <g id="Group-364" transform="translate(143.000000, 30.030000)">
                    <mask id="mask-36" fill="white">
                        <use xlink:href="#path-35"></use>
                    </mask>
                    <g id="Clip-363"></g>
                    <polygon id="Fill-362" fill="#000000" mask="url(#mask-36)" points="-12.329 20.434 18.64 20.434 18.64 -12.38 -12.329 -12.38"></polygon>
                </g>
                <g id="Group-367" transform="translate(103.000000, 30.030000)">
                    <mask id="mask-38" fill="white">
                        <use xlink:href="#path-37"></use>
                    </mask>
                    <g id="Clip-366"></g>
                    <polygon id="Fill-365" fill="#000000" mask="url(#mask-38)" points="-12.177 20.423 18.8 20.423 18.8 -12.375 -12.177 -12.375"></polygon>
                </g>
                <g id="Group-370" transform="translate(96.000000, 30.030000)">
                    <mask id="mask-40" fill="white">
                        <use xlink:href="#path-39"></use>
                    </mask>
                    <g id="Clip-369"></g>
                    <polygon id="Fill-368" fill="#000000" mask="url(#mask-40)" points="-11.857 20.473 18.03 20.473 18.03 -12.384 -11.857 -12.384"></polygon>
                </g>
                <g id="Group-373" transform="translate(105.000000, 46.030000)">
                    <mask id="mask-42" fill="white">
                        <use xlink:href="#path-41"></use>
                    </mask>
                    <g id="Clip-372"></g>
                    <polygon id="Fill-371" fill="#000000" mask="url(#mask-42)" points="-12.313 20.487 17.537 20.487 17.537 -12.325 -12.313 -12.325"></polygon>
                </g>
                <g id="Group-376" transform="translate(80.000000, 30.030000)">
                    <mask id="mask-44" fill="white">
                        <use xlink:href="#path-43"></use>
                    </mask>
                    <g id="Clip-375"></g>
                    <polygon id="Fill-374" fill="#000000" mask="url(#mask-44)" points="-12.111 20.526 17.363 20.526 17.363 -12.374 -12.111 -12.374"></polygon>
                </g>
                <g id="Group-379" transform="translate(95.000000, 30.030000)">
                    <mask id="mask-46" fill="white">
                        <use xlink:href="#path-45"></use>
                    </mask>
                    <g id="Clip-378"></g>
                    <polygon id="Fill-377" fill="#000000" mask="url(#mask-46)" points="-12.229 20.433 15.295 20.433 15.295 -12.477 -12.229 -12.477"></polygon>
                </g>
                <g id="Group-382" transform="translate(123.000000, 30.030000)">
                    <mask id="mask-48" fill="white">
                        <use xlink:href="#path-47"></use>
                    </mask>
                    <g id="Clip-381"></g>
                    <polygon id="Fill-380" fill="#000000" mask="url(#mask-48)" points="-12.287 20.43 15.17 20.43 15.17 -12.441 -12.287 -12.441"></polygon>
                </g>
                <g id="Group-385" transform="translate(80.000000, 46.030000)">
                    <mask id="mask-50" fill="white">
                        <use xlink:href="#path-49"></use>
                    </mask>
                    <g id="Clip-384"></g>
                    <polygon id="Fill-383" fill="#000000" mask="url(#mask-50)" points="-12.224 15.76 14.539 15.76 14.539 -12.317 -12.224 -12.317"></polygon>
                </g>
                <g id="Group-388" transform="translate(24.000000, 22.030000)">
                    <mask id="mask-52" fill="white">
                        <use xlink:href="#path-51"></use>
                    </mask>
                    <g id="Clip-387"></g>
                    <polygon id="Fill-386" fill="#FFFFFF" mask="url(#mask-52)" points="-11.898 35.218 33.854 35.218 33.854 -12.121 -11.898 -12.121"></polygon>
                </g>
                <g id="Group-391" transform="translate(24.000000, 48.030000)">
                    <mask id="mask-54" fill="white">
                        <use xlink:href="#path-53"></use>
                    </mask>
                    <g id="Clip-390"></g>
                    <polygon id="Fill-389" fill="#FFFFFF" mask="url(#mask-54)" points="-11.786 29.033 19.739 29.033 19.739 -12.533 -11.786 -12.533"></polygon>
                </g>
                <g id="Group-394" transform="translate(34.000000, 48.030000)">
                    <mask id="mask-56" fill="white">
                        <use xlink:href="#path-55"></use>
                    </mask>
                    <g id="Clip-393"></g>
                    <polygon id="Fill-392" fill="#FFFFFF" mask="url(#mask-56)" points="-12.165 29.004 19.359 29.004 19.359 -12.528 -12.165 -12.528"></polygon>
                </g>
                <g id="Group-397" transform="translate(44.000000, 48.030000)">
                    <mask id="mask-58" fill="white">
                        <use xlink:href="#path-57"></use>
                    </mask>
                    <g id="Clip-396"></g>
                    <polygon id="Fill-395" fill="#FFFFFF" mask="url(#mask-58)" points="-12.58 19.509 19.669 19.509 19.669 -12.528 -12.58 -12.528"></polygon>
                </g>
                <g id="Group-400" transform="translate(14.000000, 48.030000)">
                    <mask id="mask-60" fill="white">
                        <use xlink:href="#path-59"></use>
                    </mask>
                    <g id="Clip-399"></g>
                    <polygon id="Fill-398" fill="#FFFFFF" mask="url(#mask-60)" points="-12.068 19.717 20.115 19.717 20.115 -12.53 -12.068 -12.53"></polygon>
                </g>
                <g id="Group-403" transform="translate(73.000000, 47.030000)">
                    <mask id="mask-62" fill="white">
                        <use xlink:href="#path-61"></use>
                    </mask>
                    <g id="Clip-402"></g>
                    <polygon id="Fill-401" fill="#FFFFFF" mask="url(#mask-62)" points="-12.202 18.636 17.175 18.636 17.175 -12.555 -12.202 -12.555"></polygon>
                </g>
                <g id="Group-406" transform="translate(98.000000, 47.030000)">
                    <mask id="mask-64" fill="white">
                        <use xlink:href="#path-63"></use>
                    </mask>
                    <g id="Clip-405"></g>
                    <polygon id="Fill-404" fill="#FFFFFF" mask="url(#mask-64)" points="-11.8 16.824 16.748 16.824 16.748 -12.498 -11.8 -12.498"></polygon>
                </g>
                <g id="Group-409" transform="translate(74.000000, 31.030000)">
                    <mask id="mask-66" fill="white">
                        <use xlink:href="#path-65"></use>
                    </mask>
                    <g id="Clip-408"></g>
                    <polygon id="Fill-407" fill="#FFFFFF" mask="url(#mask-66)" points="-12.428 18 16.156 18 16.156 -11.718 -12.428 -11.718"></polygon>
                </g>
                <g id="Group-412" transform="translate(111.000000, 31.030000)">
                    <mask id="mask-68" fill="white">
                        <use xlink:href="#path-67"></use>
                    </mask>
                    <g id="Clip-411"></g>
                    <polygon id="Fill-410" fill="#FFFFFF" mask="url(#mask-68)" points="-12.305 17.508 16.138 17.508 16.138 -11.662 -12.305 -11.662"></polygon>
                </g>
            </g>
        </g>
    </g>
</svg>