<?xml version="1.0" encoding="UTF-8"?>
<svg width="160px" height="79px" viewBox="0 0 160 79" version="1.1" xmlns="http://www.w3.org/2000/svg" xmlns:xlink="http://www.w3.org/1999/xlink">
    <!-- Generator: Sketch 46.2 (44496) - http://www.bohemiancoding.com/sketch -->
    <title>Group 5</title>
    <desc>Created with Sketch.</desc>
    <defs>
        <path d="M3.332,0.739 L4.798,0.739 L7.503,9.052 L6.186,9.052 L5.443,6.702 L2.528,6.702 L1.798,9.052 L0.579,9.052 L3.332,0.739 Z M3.979,1.893 C3.857,2.365 2.968,5.342 2.823,5.74 L5.187,5.74 C5.041,5.353 4.163,2.377 4.052,1.893 L3.979,1.893 Z" id="path-1"></path>
        <path d="M5.99,0.751 L4.574,3.591 C4.394,3.964 4.235,4.318 4.089,4.656 C3.954,4.282 3.795,3.932 3.626,3.582 L2.236,0.751 L0.797,0.751 L3.456,5.729 L3.456,9.052 L4.673,9.052 L4.673,5.753 L7.356,0.751 L5.99,0.751 Z" id="path-3"></path>
        <path d="M5.22,0.751 L5.22,6.282 C5.22,6.945 5.124,7.389 4.916,7.654 C4.647,8.005 4.186,8.197 3.551,8.197 C2.881,8.197 2.453,7.992 2.221,7.729 C1.979,7.449 1.917,6.713 1.917,6.112 L1.917,0.751 L0.735,0.751 L0.735,6.546 C0.735,7.413 0.785,7.641 1.005,8.03 C1.43,8.788 2.269,9.185 3.538,9.185 C4.831,9.185 5.527,8.727 5.95,8.21 C6.331,7.753 6.391,7.497 6.391,6.447 L6.391,0.751 L5.22,0.751 Z" id="path-5"></path>
        <path d="M5.39,0.751 L5.414,4.825 C5.414,5.74 5.51,7.051 5.536,7.296 L5.464,7.315 C5.403,7.088 4.989,6.018 4.635,5.329 L2.296,0.751 L0.929,0.751 L0.929,9.052 L2.109,9.052 L2.063,4.691 C2.052,3.919 2.026,3.09 1.965,2.377 L2.038,2.365 C2.196,2.847 2.634,3.788 3.062,4.642 L5.268,9.052 L6.524,9.052 L6.524,0.751 L5.39,0.751 Z" id="path-7"></path>
        <path d="M3.206,0.739 L4.669,0.739 L7.372,9.052 L6.059,9.052 L5.317,6.702 L2.4,6.702 L1.668,9.052 L0.454,9.052 L3.206,0.739 Z M3.849,1.893 C3.732,2.365 2.839,5.342 2.693,5.74 L5.061,5.74 C4.911,5.353 4.036,2.377 3.925,1.893 L3.849,1.893 Z" id="path-9"></path>
        <path d="M6.45,0.751 L4.985,5.908 C4.826,6.46 4.731,7.005 4.693,7.21 L4.667,7.21 C4.643,7.027 4.543,6.522 4.364,5.848 L2.949,0.751 L1.306,0.751 L0.547,9.052 L1.691,9.052 L2.121,3.561 C2.155,3.125 2.194,2.365 2.205,2.075 L2.228,2.075 C2.278,2.292 2.425,2.919 2.608,3.561 L4.145,9.052 L5.155,9.052 L6.827,3.292 C6.958,2.847 7.082,2.328 7.131,2.087 L7.157,2.087 C7.166,2.328 7.178,2.956 7.216,3.402 L7.653,9.052 L8.824,9.052 L8.103,0.751 L6.45,0.751 Z" id="path-11"></path>
        <path d="M4.968,0.751 L4.992,4.825 C4.992,5.74 5.092,7.051 5.118,7.296 L5.045,7.315 C4.981,7.088 4.569,6.018 4.213,5.329 L1.871,0.751 L0.508,0.751 L0.508,9.052 L1.69,9.052 L1.641,4.691 C1.626,3.919 1.605,3.09 1.543,2.377 L1.615,2.365 C1.775,2.847 2.212,3.788 2.64,4.642 L4.846,9.052 L6.102,9.052 L6.102,0.751 L4.968,0.751 Z" id="path-13"></path>
        <path d="M0.664,4.871 C0.664,2.136 2.006,0.606 4.064,0.606 C6.536,0.606 7.514,2.642 7.514,4.956 C7.514,7.497 6.26,9.185 4.126,9.185 C1.81,9.185 0.664,7.366 0.664,4.871 Z M1.98,4.738 C1.98,6.858 2.479,8.303 4.126,8.303 C5.432,8.303 6.175,7.378 6.175,5.064 C6.175,2.81 5.649,1.508 4.064,1.508 C2.579,1.508 1.98,2.607 1.98,4.738 Z" id="path-15"></path>
        <path d="M0.747,0.751 L2.697,0.751 C4.15,0.751 5.075,1.075 5.843,2.121 C6.342,2.81 6.583,3.76 6.583,4.908 C6.583,6.257 6.231,7.245 5.671,7.93 C5.086,8.656 4.307,9.052 2.844,9.052 L0.747,9.052 L0.747,0.751 Z M1.943,1.677 L1.943,8.1 L2.872,8.1 C3.831,8.1 4.453,7.847 4.833,7.172 C5.137,6.619 5.283,5.871 5.283,5.051 C5.283,3.894 5.16,3.042 4.661,2.414 C4.196,1.833 3.712,1.677 2.895,1.677 L1.943,1.677 Z" id="path-17"></path>
        <path d="M5.267,1.746 C1.966,3.935 0.336,7.431 0.336,12.376 C0.336,15.874 1.115,18.365 2.849,20.549 C4.75,22.979 7.384,24.121 10.917,24.121 C13.711,24.121 16.362,23.441 18.778,22.028 L18.778,10.863 L9.624,10.863 L9.559,14.698 L13.842,14.698 L13.842,20.013 C13.06,20.421 12.21,20.589 11.153,20.589 C9.624,20.589 8.326,20.113 7.448,19.272 C6.253,18.101 5.677,15.942 5.677,12.611 C5.677,9.114 6.085,6.59 7.684,5.077 C8.5,4.302 9.693,3.901 11.092,3.901 C12.892,3.901 14.493,4.469 16.022,5.715 L18.539,2.786 C16.459,1.005 13.881,0.09 11.02,0.09 C8.77,0.09 7.001,0.601 5.267,1.746 Z" id="path-19"></path>
        <path d="M8.22,0.399 L13.354,0.399 L20.808,23.849 L15.703,23.849 L14.039,18.299 L7.094,18.299 L5.421,23.849 L0.457,23.849 L8.22,0.399 Z M9.513,10.052 C9.067,11.739 8.762,12.852 8.246,14.393 L12.879,14.393 C12.879,14.393 12.1,11.938 11.591,9.686 C11.349,8.604 10.628,5.547 10.628,5.547 C10.628,5.547 9.952,8.308 9.513,10.052 Z" id="path-21"></path>
        <path d="M0.272,0.888 C0.22,0.862 0.171,0.838 0.121,0.808 C0.171,0.838 0.22,0.862 0.272,0.888 Z" id="path-23"></path>
        <path d="M1.281,0.376 C1.185,0.334 1.089,0.288 0.994,0.245 C1.089,0.288 1.185,0.334 1.281,0.376 Z" id="path-25"></path>
        <path d="M0.469,0.458 C0.406,0.431 0.343,0.404 0.281,0.376 C0.343,0.404 0.406,0.431 0.469,0.458 Z M3.799,1.558 L3.799,1.54 C2.609,1.26 1.496,0.9 0.469,0.458 C1.513,0.908 2.625,1.275 3.799,1.558 Z" id="path-27"></path>
        <path d="M0.474,0.809 C0.999,1.173 1.548,1.505 2.121,1.808 C1.542,1.495 0.993,1.152 0.474,0.778 L0.474,0.809 Z" id="path-29"></path>
        <path d="M0.994,1.245 C0.753,1.129 0.509,1.009 0.272,0.888 C0.507,1.012 0.748,1.129 0.994,1.245 Z" id="path-31"></path>
        <path d="M13.256,1.007 C13.213,1.366 13.222,1.525 13.222,1.525 C13.222,1.525 10.163,1.949 10.121,1.951 C10.03,1.957 9.811,2.04 9.811,2.236 C9.811,2.432 10.03,2.493 10.106,2.509 C10.185,2.52 13.053,2.868 13.106,2.879 C13.156,2.891 13.237,2.935 13.237,3.034 C13.237,3.133 13.301,4.399 13.301,4.399 C13.301,4.399 12.237,4.651 12.158,4.679 C12.079,4.705 11.999,4.807 11.999,4.885 C11.999,4.96 12.079,5.036 12.158,5.051 C12.237,5.062 13.222,5.143 13.278,5.147 C13.323,5.155 13.319,5.229 13.319,5.267 C13.319,5.311 13.329,5.602 13.504,5.602 C13.686,5.602 13.696,5.311 13.696,5.267 C13.696,5.229 13.691,5.155 13.733,5.147 C13.79,5.143 14.775,5.062 14.854,5.051 C14.934,5.036 15.011,4.96 15.011,4.885 C15.011,4.807 14.934,4.705 14.854,4.679 C14.775,4.651 13.713,4.399 13.713,4.399 C13.713,4.399 13.775,3.133 13.775,3.034 C13.775,2.935 13.857,2.891 13.909,2.879 C13.961,2.868 16.829,2.52 16.907,2.509 C16.987,2.493 17.205,2.432 17.205,2.236 C17.205,2.04 16.987,1.957 16.894,1.951 C16.843,1.949 13.79,1.525 13.79,1.525 C13.79,1.525 13.802,1.366 13.758,1.007 C13.713,0.647 13.599,0.38 13.504,0.38 C13.417,0.38 13.301,0.647 13.256,1.007 Z M3.491,1.007 C3.444,1.366 3.459,1.525 3.459,1.525 C3.459,1.525 0.402,1.949 0.357,1.951 C0.261,1.957 0.049,2.04 0.049,2.236 C0.049,2.432 0.261,2.493 0.34,2.509 C0.421,2.52 3.289,2.868 3.342,2.879 C3.396,2.891 3.475,2.935 3.475,3.034 C3.475,3.133 3.54,4.399 3.54,4.399 C3.54,4.399 2.472,4.651 2.396,4.679 C2.318,4.705 2.235,4.807 2.235,4.885 C2.235,4.96 2.318,5.036 2.396,5.051 C2.472,5.062 3.461,5.143 3.513,5.147 C3.562,5.155 3.553,5.229 3.553,5.267 C3.553,5.311 3.565,5.602 3.742,5.602 C3.92,5.602 3.934,5.311 3.934,5.267 C3.934,5.229 3.927,5.155 3.972,5.147 C4.026,5.143 5.011,5.062 5.093,5.051 C5.174,5.036 5.252,4.96 5.252,4.885 C5.252,4.807 5.174,4.705 5.093,4.679 C5.011,4.651 3.946,4.399 3.946,4.399 C3.946,4.399 4.014,3.133 4.014,3.034 C4.014,2.935 4.093,2.891 4.145,2.879 C4.194,2.868 7.066,2.52 7.147,2.509 C7.225,2.493 7.437,2.432 7.437,2.236 C7.437,2.04 7.225,1.957 7.13,1.951 C7.083,1.949 4.026,1.525 4.026,1.525 C4.026,1.525 4.036,1.366 3.997,1.007 C3.946,0.647 3.836,0.38 3.742,0.38 C3.652,0.38 3.54,0.647 3.491,1.007 Z M8.377,7.405 C8.332,7.762 8.345,7.926 8.345,7.926 C8.345,7.926 5.288,8.34 5.241,8.345 C5.151,8.349 4.932,8.438 4.932,8.633 C4.932,8.829 5.151,8.894 5.226,8.905 C5.308,8.921 8.175,9.262 8.228,9.275 C8.282,9.29 8.36,9.336 8.36,9.433 C8.36,9.531 8.424,10.8 8.424,10.8 C8.424,10.8 7.358,11.053 7.281,11.079 C7.201,11.103 7.122,11.201 7.122,11.279 C7.122,11.357 7.201,11.439 7.281,11.449 C7.358,11.466 8.349,11.544 8.399,11.548 C8.445,11.551 8.439,11.63 8.439,11.67 C8.439,11.709 8.448,12.003 8.63,12.003 C8.808,12.003 8.817,11.709 8.817,11.67 C8.817,11.63 8.812,11.551 8.859,11.548 C8.907,11.544 9.898,11.466 9.977,11.449 C10.057,11.439 10.138,11.357 10.138,11.279 C10.138,11.201 10.057,11.103 9.977,11.079 C9.898,11.053 8.833,10.8 8.833,10.8 C8.833,10.8 8.898,9.531 8.898,9.433 C8.898,9.336 8.975,9.29 9.033,9.275 C9.085,9.262 11.95,8.921 12.032,8.905 C12.109,8.894 12.324,8.829 12.324,8.633 C12.324,8.438 12.109,8.349 12.016,8.345 C11.966,8.34 8.911,7.926 8.911,7.926 C8.911,7.926 8.924,7.762 8.877,7.405 C8.833,7.042 8.72,6.779 8.63,6.779 C8.536,6.779 8.424,7.042 8.377,7.405 Z M13.256,13.853 C13.213,14.213 13.222,14.375 13.222,14.375 C13.222,14.375 10.163,14.796 10.121,14.798 C10.03,14.806 9.811,14.887 9.811,15.085 C9.811,15.277 10.03,15.343 10.106,15.354 C10.185,15.37 13.053,15.715 13.106,15.727 C13.156,15.742 13.237,15.785 13.237,15.883 C13.237,15.979 13.301,17.248 13.301,17.248 C13.301,17.248 12.237,17.504 12.158,17.527 C12.079,17.555 11.999,17.651 11.999,17.727 C11.999,17.811 12.079,17.881 12.158,17.898 C12.237,17.913 13.222,17.988 13.278,17.998 C13.323,18.005 13.319,18.077 13.319,18.122 C13.319,18.161 13.329,18.453 13.504,18.453 C13.686,18.453 13.696,18.161 13.696,18.122 C13.696,18.077 13.691,18.005 13.733,17.998 C13.79,17.988 14.775,17.913 14.854,17.898 C14.934,17.881 15.011,17.811 15.011,17.727 C15.011,17.651 14.934,17.555 14.854,17.527 C14.775,17.504 13.713,17.248 13.713,17.248 C13.713,17.248 13.775,15.979 13.775,15.883 C13.775,15.785 13.857,15.742 13.909,15.727 C13.961,15.715 16.829,15.37 16.907,15.354 C16.987,15.343 17.205,15.277 17.205,15.085 C17.205,14.887 16.987,14.806 16.894,14.798 C16.843,14.796 13.79,14.375 13.79,14.375 C13.79,14.375 13.802,14.213 13.758,13.853 C13.713,13.494 13.599,13.23 13.504,13.23 C13.417,13.23 13.301,13.494 13.256,13.853 Z M3.491,13.853 C3.444,14.213 3.459,14.375 3.459,14.375 C3.459,14.375 0.402,14.796 0.357,14.798 C0.261,14.806 0.049,14.887 0.049,15.085 C0.049,15.277 0.261,15.343 0.34,15.354 C0.421,15.37 3.289,15.715 3.342,15.727 C3.396,15.742 3.475,15.785 3.475,15.883 C3.475,15.979 3.54,17.248 3.54,17.248 C3.54,17.248 2.472,17.504 2.396,17.527 C2.318,17.555 2.235,17.651 2.235,17.727 C2.235,17.811 2.318,17.881 2.396,17.898 C2.472,17.913 3.461,17.988 3.513,17.998 C3.562,18.005 3.553,18.077 3.553,18.122 C3.553,18.161 3.565,18.453 3.742,18.453 C3.92,18.453 3.934,18.161 3.934,18.122 C3.934,18.077 3.927,18.005 3.972,17.998 C4.026,17.988 5.011,17.913 5.093,17.898 C5.174,17.881 5.252,17.811 5.252,17.727 C5.252,17.651 5.174,17.555 5.093,17.527 C5.011,17.504 3.946,17.248 3.946,17.248 C3.946,17.248 4.014,15.979 4.014,15.883 C4.014,15.785 4.093,15.742 4.145,15.727 C4.194,15.715 7.066,15.37 7.147,15.354 C7.225,15.343 7.437,15.277 7.437,15.085 C7.437,14.887 7.225,14.806 7.13,14.798 C7.083,14.796 4.026,14.375 4.026,14.375 C4.026,14.375 4.036,14.213 3.997,13.853 C3.946,13.494 3.836,13.23 3.742,13.23 C3.652,13.23 3.54,13.494 3.491,13.853 Z M8.377,20.275 C8.332,20.637 8.345,20.803 8.345,20.803 C8.345,20.803 5.288,21.218 5.241,21.223 C5.151,21.227 4.932,21.309 4.932,21.508 C4.932,21.7 5.151,21.768 5.226,21.781 C5.308,21.794 8.175,22.139 8.228,22.151 C8.282,22.165 8.36,22.209 8.36,22.309 C8.36,22.405 8.424,23.673 8.424,23.673 C8.424,23.673 7.358,23.927 7.281,23.952 C7.201,23.978 7.122,24.078 7.122,24.152 C7.122,24.235 7.201,24.31 7.281,24.32 C7.358,24.337 8.349,24.415 8.399,24.422 C8.445,24.422 8.439,24.504 8.439,24.545 C8.439,24.58 8.448,24.876 8.63,24.876 C8.808,24.876 8.817,24.58 8.817,24.545 C8.817,24.504 8.812,24.422 8.859,24.422 C8.907,24.415 9.898,24.337 9.977,24.32 C10.057,24.31 10.138,24.235 10.138,24.152 C10.138,24.078 10.057,23.978 9.977,23.952 C9.898,23.927 8.833,23.673 8.833,23.673 C8.833,23.673 8.898,22.405 8.898,22.309 C8.898,22.209 8.975,22.165 9.033,22.151 C9.085,22.139 11.95,21.794 12.032,21.781 C12.109,21.768 12.324,21.7 12.324,21.508 C12.324,21.309 12.109,21.227 12.016,21.223 C11.966,21.218 8.911,20.803 8.911,20.803 C8.911,20.803 8.924,20.637 8.877,20.275 C8.833,19.924 8.72,19.657 8.63,19.657 C8.536,19.657 8.424,19.924 8.377,20.275 Z M13.256,26.702 C13.213,27.061 13.222,27.227 13.222,27.227 C13.222,27.227 10.163,27.644 10.121,27.646 C10.03,27.652 9.811,27.737 9.811,27.933 C9.811,28.127 10.03,28.192 10.106,28.206 C10.185,28.215 13.053,28.568 13.106,28.574 C13.156,28.586 13.237,28.639 13.237,28.731 C13.237,28.834 13.301,30.095 13.301,30.095 C13.301,30.095 12.237,30.35 12.158,30.376 C12.079,30.402 11.999,30.498 11.999,30.58 C11.999,30.658 12.079,30.733 12.158,30.746 C12.237,30.757 13.222,30.841 13.278,30.844 C13.323,30.853 13.319,30.932 13.319,30.967 C13.319,31.007 13.329,31.301 13.504,31.301 C13.686,31.301 13.696,31.007 13.696,30.967 C13.696,30.932 13.691,30.853 13.733,30.844 C13.79,30.841 14.775,30.757 14.854,30.746 C14.934,30.733 15.011,30.658 15.011,30.58 C15.011,30.498 14.934,30.402 14.854,30.376 C14.775,30.35 13.713,30.095 13.713,30.095 C13.713,30.095 13.775,28.834 13.775,28.731 C13.775,28.639 13.857,28.586 13.909,28.574 C13.961,28.568 16.829,28.215 16.907,28.206 C16.987,28.192 17.205,28.127 17.205,27.933 C17.205,27.737 16.987,27.652 16.894,27.646 C16.843,27.644 13.79,27.227 13.79,27.227 C13.79,27.227 13.802,27.061 13.758,26.702 C13.713,26.344 13.599,26.08 13.504,26.08 C13.417,26.08 13.301,26.344 13.256,26.702 Z M3.491,26.702 C3.444,27.061 3.459,27.227 3.459,27.227 C3.459,27.227 0.402,27.644 0.357,27.646 C0.261,27.652 0.049,27.737 0.049,27.933 C0.049,28.127 0.261,28.192 0.34,28.206 C0.421,28.215 3.289,28.568 3.342,28.574 C3.396,28.586 3.475,28.639 3.475,28.731 C3.475,28.834 3.54,30.095 3.54,30.095 C3.54,30.095 2.472,30.35 2.396,30.376 C2.318,30.402 2.235,30.498 2.235,30.58 C2.235,30.658 2.318,30.733 2.396,30.746 C2.472,30.757 3.461,30.841 3.513,30.844 C3.562,30.853 3.553,30.932 3.553,30.967 C3.553,31.007 3.565,31.301 3.742,31.301 C3.92,31.301 3.934,31.007 3.934,30.967 C3.934,30.932 3.927,30.853 3.972,30.844 C4.026,30.841 5.011,30.757 5.093,30.746 C5.174,30.733 5.252,30.658 5.252,30.58 C5.252,30.498 5.174,30.402 5.093,30.376 C5.011,30.35 3.946,30.095 3.946,30.095 C3.946,30.095 4.014,28.834 4.014,28.731 C4.014,28.639 4.093,28.586 4.145,28.574 C4.194,28.568 7.066,28.215 7.147,28.206 C7.225,28.192 7.437,28.127 7.437,27.933 C7.437,27.737 7.225,27.652 7.13,27.646 C7.083,27.644 4.026,27.227 4.026,27.227 C4.026,27.227 4.036,27.061 3.997,26.702 C3.946,26.344 3.836,26.08 3.742,26.08 C3.652,26.08 3.54,26.344 3.491,26.702 Z M8.377,33.128 C8.332,33.481 8.345,33.648 8.345,33.648 C8.345,33.648 5.288,34.066 5.241,34.069 C5.151,34.076 4.932,34.161 4.932,34.355 C4.932,34.546 5.151,34.613 5.226,34.63 C5.308,34.644 8.175,34.987 8.228,34.999 C8.282,35.012 8.36,35.057 8.36,35.156 C8.36,35.252 8.424,36.519 8.424,36.519 C8.424,36.519 7.358,36.775 7.281,36.799 C7.201,36.828 7.122,36.927 7.122,36.999 C7.122,37.081 7.201,37.156 7.281,37.172 C7.358,37.183 8.349,37.26 8.399,37.265 C8.445,37.272 8.439,37.354 8.439,37.396 C8.439,37.429 8.448,37.726 8.63,37.726 C8.808,37.726 8.817,37.429 8.817,37.396 C8.817,37.354 8.812,37.272 8.859,37.265 C8.907,37.26 9.898,37.183 9.977,37.172 C10.057,37.156 10.138,37.081 10.138,36.999 C10.138,36.927 10.057,36.828 9.977,36.799 C9.898,36.775 8.833,36.519 8.833,36.519 C8.833,36.519 8.898,35.252 8.898,35.156 C8.898,35.057 8.975,35.012 9.033,34.999 C9.085,34.987 11.95,34.644 12.032,34.63 C12.109,34.613 12.324,34.546 12.324,34.355 C12.324,34.161 12.109,34.076 12.016,34.069 C11.966,34.066 8.911,33.648 8.911,33.648 C8.911,33.648 8.924,33.481 8.877,33.128 C8.833,32.765 8.72,32.5 8.63,32.5 C8.536,32.5 8.424,32.765 8.377,33.128 Z" id="path-33"></path>
        <path d="M4.377,1.405 C4.332,1.762 4.345,1.926 4.345,1.926 C4.345,1.926 1.288,2.34 1.241,2.345 C1.151,2.349 0.932,2.438 0.932,2.633 C0.932,2.829 1.151,2.894 1.226,2.905 C1.308,2.921 4.175,3.262 4.228,3.275 C4.282,3.29 4.36,3.336 4.36,3.433 C4.36,3.531 4.424,4.8 4.424,4.8 C4.424,4.8 3.358,5.053 3.281,5.079 C3.201,5.103 3.122,5.201 3.122,5.279 C3.122,5.357 3.201,5.439 3.281,5.449 C3.358,5.466 4.349,5.544 4.399,5.548 C4.445,5.551 4.439,5.63 4.439,5.67 C4.439,5.709 4.448,6.003 4.63,6.003 C4.808,6.003 4.817,5.709 4.817,5.67 C4.817,5.63 4.812,5.551 4.859,5.548 C4.907,5.544 5.898,5.466 5.977,5.449 C6.057,5.439 6.138,5.357 6.138,5.279 C6.138,5.201 6.057,5.103 5.977,5.079 C5.898,5.053 4.833,4.8 4.833,4.8 C4.833,4.8 4.898,3.531 4.898,3.433 C4.898,3.336 4.975,3.29 5.033,3.275 C5.085,3.262 7.95,2.921 8.032,2.905 C8.109,2.894 8.324,2.829 8.324,2.633 C8.324,2.438 8.109,2.349 8.016,2.345 C7.966,2.34 4.911,1.926 4.911,1.926 C4.911,1.926 4.924,1.762 4.877,1.405 C4.833,1.042 4.72,0.779 4.63,0.779 C4.536,0.779 4.424,1.042 4.377,1.405 Z" id="path-35"></path>
        <path d="M4.377,1.275 C4.332,1.637 4.345,1.803 4.345,1.803 C4.345,1.803 1.288,2.218 1.241,2.223 C1.151,2.227 0.932,2.309 0.932,2.508 C0.932,2.7 1.151,2.768 1.226,2.781 C1.308,2.794 4.175,3.139 4.228,3.151 C4.282,3.165 4.36,3.209 4.36,3.309 C4.36,3.405 4.424,4.673 4.424,4.673 C4.424,4.673 3.358,4.927 3.281,4.952 C3.201,4.978 3.122,5.078 3.122,5.152 C3.122,5.235 3.201,5.31 3.281,5.32 C3.358,5.337 4.349,5.415 4.399,5.422 C4.445,5.422 4.439,5.504 4.439,5.545 C4.439,5.58 4.448,5.876 4.63,5.876 C4.808,5.876 4.817,5.58 4.817,5.545 C4.817,5.504 4.812,5.422 4.859,5.422 C4.907,5.415 5.898,5.337 5.977,5.32 C6.057,5.31 6.138,5.235 6.138,5.152 C6.138,5.078 6.057,4.978 5.977,4.952 C5.898,4.927 4.833,4.673 4.833,4.673 C4.833,4.673 4.898,3.405 4.898,3.309 C4.898,3.209 4.975,3.165 5.033,3.151 C5.085,3.139 7.95,2.794 8.032,2.781 C8.109,2.768 8.324,2.7 8.324,2.508 C8.324,2.309 8.109,2.227 8.016,2.223 C7.966,2.218 4.911,1.803 4.911,1.803 C4.911,1.803 4.924,1.637 4.877,1.275 C4.833,0.924 4.72,0.657 4.63,0.657 C4.536,0.657 4.424,0.924 4.377,1.275 Z" id="path-37"></path>
        <path d="M4.377,1.128 C4.332,1.481 4.345,1.648 4.345,1.648 C4.345,1.648 1.288,2.066 1.241,2.069 C1.151,2.076 0.932,2.161 0.932,2.355 C0.932,2.546 1.151,2.613 1.226,2.63 C1.308,2.644 4.175,2.987 4.228,2.999 C4.282,3.012 4.36,3.057 4.36,3.156 C4.36,3.252 4.424,4.519 4.424,4.519 C4.424,4.519 3.358,4.775 3.281,4.799 C3.201,4.828 3.122,4.927 3.122,4.999 C3.122,5.081 3.201,5.156 3.281,5.172 C3.358,5.183 4.349,5.26 4.399,5.265 C4.445,5.272 4.439,5.354 4.439,5.396 C4.439,5.429 4.448,5.726 4.63,5.726 C4.808,5.726 4.817,5.429 4.817,5.396 C4.817,5.354 4.812,5.272 4.859,5.265 C4.907,5.26 5.898,5.183 5.977,5.172 C6.057,5.156 6.138,5.081 6.138,4.999 C6.138,4.927 6.057,4.828 5.977,4.799 C5.898,4.775 4.833,4.519 4.833,4.519 C4.833,4.519 4.898,3.252 4.898,3.156 C4.898,3.057 4.975,3.012 5.033,2.999 C5.085,2.987 7.95,2.644 8.032,2.63 C8.109,2.613 8.324,2.546 8.324,2.355 C8.324,2.161 8.109,2.076 8.016,2.069 C7.966,2.066 4.911,1.648 4.911,1.648 C4.911,1.648 4.924,1.481 4.877,1.128 C4.833,0.765 4.72,0.5 4.63,0.5 C4.536,0.5 4.424,0.765 4.377,1.128 Z" id="path-39"></path>
        <path d="M3.491,1.007 C3.444,1.366 3.459,1.525 3.459,1.525 C3.459,1.525 0.402,1.949 0.357,1.951 C0.261,1.957 0.049,2.04 0.049,2.236 C0.049,2.432 0.261,2.493 0.34,2.509 C0.421,2.52 3.289,2.868 3.342,2.879 C3.396,2.891 3.475,2.935 3.475,3.034 C3.475,3.133 3.54,4.399 3.54,4.399 C3.54,4.399 2.472,4.651 2.396,4.679 C2.318,4.705 2.235,4.807 2.235,4.885 C2.235,4.96 2.318,5.036 2.396,5.051 C2.472,5.062 3.461,5.143 3.513,5.147 C3.562,5.155 3.553,5.229 3.553,5.267 C3.553,5.311 3.565,5.602 3.742,5.602 C3.92,5.602 3.934,5.311 3.934,5.267 C3.934,5.229 3.927,5.155 3.972,5.147 C4.026,5.143 5.011,5.062 5.093,5.051 C5.174,5.036 5.252,4.96 5.252,4.885 C5.252,4.807 5.174,4.705 5.093,4.679 C5.011,4.651 3.946,4.399 3.946,4.399 C3.946,4.399 4.014,3.133 4.014,3.034 C4.014,2.935 4.093,2.891 4.145,2.879 C4.194,2.868 7.066,2.52 7.147,2.509 C7.225,2.493 7.437,2.432 7.437,2.236 C7.437,2.04 7.225,1.957 7.13,1.951 C7.083,1.949 4.026,1.525 4.026,1.525 C4.026,1.525 4.036,1.366 3.997,1.007 C3.946,0.647 3.836,0.38 3.742,0.38 C3.652,0.38 3.54,0.647 3.491,1.007 Z" id="path-41"></path>
        <path d="M4.256,1.007 C4.213,1.366 4.222,1.525 4.222,1.525 C4.222,1.525 1.163,1.949 1.121,1.951 C1.03,1.957 0.811,2.04 0.811,2.236 C0.811,2.432 1.03,2.493 1.106,2.509 C1.185,2.52 4.053,2.868 4.106,2.879 C4.156,2.891 4.237,2.935 4.237,3.034 C4.237,3.133 4.301,4.399 4.301,4.399 C4.301,4.399 3.237,4.651 3.158,4.679 C3.079,4.705 2.999,4.807 2.999,4.885 C2.999,4.96 3.079,5.036 3.158,5.051 C3.237,5.062 4.222,5.143 4.278,5.147 C4.323,5.155 4.319,5.229 4.319,5.267 C4.319,5.311 4.329,5.602 4.504,5.602 C4.686,5.602 4.696,5.311 4.696,5.267 C4.696,5.229 4.691,5.155 4.733,5.147 C4.79,5.143 5.775,5.062 5.854,5.051 C5.934,5.036 6.011,4.96 6.011,4.885 C6.011,4.807 5.934,4.705 5.854,4.679 C5.775,4.651 4.713,4.399 4.713,4.399 C4.713,4.399 4.775,3.133 4.775,3.034 C4.775,2.935 4.857,2.891 4.909,2.879 C4.961,2.868 7.829,2.52 7.907,2.509 C7.987,2.493 8.205,2.432 8.205,2.236 C8.205,2.04 7.987,1.957 7.894,1.951 C7.843,1.949 4.79,1.525 4.79,1.525 C4.79,1.525 4.802,1.366 4.758,1.007 C4.713,0.647 4.599,0.38 4.504,0.38 C4.417,0.38 4.301,0.647 4.256,1.007 Z" id="path-43"></path>
        <path d="M3.491,0.853 C3.444,1.213 3.459,1.375 3.459,1.375 C3.459,1.375 0.402,1.796 0.357,1.798 C0.261,1.806 0.049,1.887 0.049,2.085 C0.049,2.277 0.261,2.343 0.34,2.354 C0.421,2.37 3.289,2.715 3.342,2.727 C3.396,2.742 3.475,2.785 3.475,2.883 C3.475,2.979 3.54,4.248 3.54,4.248 C3.54,4.248 2.472,4.504 2.396,4.527 C2.318,4.555 2.235,4.651 2.235,4.727 C2.235,4.811 2.318,4.881 2.396,4.898 C2.472,4.913 3.461,4.988 3.513,4.998 C3.562,5.005 3.553,5.077 3.553,5.122 C3.553,5.161 3.565,5.453 3.742,5.453 C3.92,5.453 3.934,5.161 3.934,5.122 C3.934,5.077 3.927,5.005 3.972,4.998 C4.026,4.988 5.011,4.913 5.093,4.898 C5.174,4.881 5.252,4.811 5.252,4.727 C5.252,4.651 5.174,4.555 5.093,4.527 C5.011,4.504 3.946,4.248 3.946,4.248 C3.946,4.248 4.014,2.979 4.014,2.883 C4.014,2.785 4.093,2.742 4.145,2.727 C4.194,2.715 7.066,2.37 7.147,2.354 C7.225,2.343 7.437,2.277 7.437,2.085 C7.437,1.887 7.225,1.806 7.13,1.798 C7.083,1.796 4.026,1.375 4.026,1.375 C4.026,1.375 4.036,1.213 3.997,0.853 C3.946,0.494 3.836,0.23 3.742,0.23 C3.652,0.23 3.54,0.494 3.491,0.853 Z" id="path-45"></path>
        <path d="M4.256,0.853 C4.213,1.213 4.222,1.375 4.222,1.375 C4.222,1.375 1.163,1.796 1.121,1.798 C1.03,1.806 0.811,1.887 0.811,2.085 C0.811,2.277 1.03,2.343 1.106,2.354 C1.185,2.37 4.053,2.715 4.106,2.727 C4.156,2.742 4.237,2.785 4.237,2.883 C4.237,2.979 4.301,4.248 4.301,4.248 C4.301,4.248 3.237,4.504 3.158,4.527 C3.079,4.555 2.999,4.651 2.999,4.727 C2.999,4.811 3.079,4.881 3.158,4.898 C3.237,4.913 4.222,4.988 4.278,4.998 C4.323,5.005 4.319,5.077 4.319,5.122 C4.319,5.161 4.329,5.453 4.504,5.453 C4.686,5.453 4.696,5.161 4.696,5.122 C4.696,5.077 4.691,5.005 4.733,4.998 C4.79,4.988 5.775,4.913 5.854,4.898 C5.934,4.881 6.011,4.811 6.011,4.727 C6.011,4.651 5.934,4.555 5.854,4.527 C5.775,4.504 4.713,4.248 4.713,4.248 C4.713,4.248 4.775,2.979 4.775,2.883 C4.775,2.785 4.857,2.742 4.909,2.727 C4.961,2.715 7.829,2.37 7.907,2.354 C7.987,2.343 8.205,2.277 8.205,2.085 C8.205,1.887 7.987,1.806 7.894,1.798 C7.843,1.796 4.79,1.375 4.79,1.375 C4.79,1.375 4.802,1.213 4.758,0.853 C4.713,0.494 4.599,0.23 4.504,0.23 C4.417,0.23 4.301,0.494 4.256,0.853 Z" id="path-47"></path>
        <path d="M3.491,0.702 C3.444,1.061 3.459,1.227 3.459,1.227 C3.459,1.227 0.402,1.644 0.357,1.646 C0.261,1.652 0.049,1.737 0.049,1.933 C0.049,2.127 0.261,2.192 0.34,2.206 C0.421,2.215 3.289,2.568 3.342,2.574 C3.396,2.586 3.475,2.639 3.475,2.731 C3.475,2.834 3.54,4.095 3.54,4.095 C3.54,4.095 2.472,4.35 2.396,4.376 C2.318,4.402 2.235,4.498 2.235,4.58 C2.235,4.658 2.318,4.733 2.396,4.746 C2.472,4.757 3.461,4.841 3.513,4.844 C3.562,4.853 3.553,4.932 3.553,4.967 C3.553,5.007 3.565,5.301 3.742,5.301 C3.92,5.301 3.934,5.007 3.934,4.967 C3.934,4.932 3.927,4.853 3.972,4.844 C4.026,4.841 5.011,4.757 5.093,4.746 C5.174,4.733 5.252,4.658 5.252,4.58 C5.252,4.498 5.174,4.402 5.093,4.376 C5.011,4.35 3.946,4.095 3.946,4.095 C3.946,4.095 4.014,2.834 4.014,2.731 C4.014,2.639 4.093,2.586 4.145,2.574 C4.194,2.568 7.066,2.215 7.147,2.206 C7.225,2.192 7.437,2.127 7.437,1.933 C7.437,1.737 7.225,1.652 7.13,1.646 C7.083,1.644 4.026,1.227 4.026,1.227 C4.026,1.227 4.036,1.061 3.997,0.702 C3.946,0.344 3.836,0.08 3.742,0.08 C3.652,0.08 3.54,0.344 3.491,0.702 Z" id="path-49"></path>
        <path d="M4.256,0.702 C4.213,1.061 4.222,1.227 4.222,1.227 C4.222,1.227 1.163,1.644 1.121,1.646 C1.03,1.652 0.811,1.737 0.811,1.933 C0.811,2.127 1.03,2.192 1.106,2.206 C1.185,2.215 4.053,2.568 4.106,2.574 C4.156,2.586 4.237,2.639 4.237,2.731 C4.237,2.834 4.301,4.095 4.301,4.095 C4.301,4.095 3.237,4.35 3.158,4.376 C3.079,4.402 2.999,4.498 2.999,4.58 C2.999,4.658 3.079,4.733 3.158,4.746 C3.237,4.757 4.222,4.841 4.278,4.844 C4.323,4.853 4.319,4.932 4.319,4.967 C4.319,5.007 4.329,5.301 4.504,5.301 C4.686,5.301 4.696,5.007 4.696,4.967 C4.696,4.932 4.691,4.853 4.733,4.844 C4.79,4.841 5.775,4.757 5.854,4.746 C5.934,4.733 6.011,4.658 6.011,4.58 C6.011,4.498 5.934,4.402 5.854,4.376 C5.775,4.35 4.713,4.095 4.713,4.095 C4.713,4.095 4.775,2.834 4.775,2.731 C4.775,2.639 4.857,2.586 4.909,2.574 C4.961,2.568 7.829,2.215 7.907,2.206 C7.987,2.192 8.205,2.127 8.205,1.933 C8.205,1.737 7.987,1.652 7.894,1.646 C7.843,1.644 4.79,1.227 4.79,1.227 C4.79,1.227 4.802,1.061 4.758,0.702 C4.713,0.344 4.599,0.08 4.504,0.08 C4.417,0.08 4.301,0.344 4.256,0.702 Z" id="path-51"></path>
        <path d="M1.259,2.889 C0.547,3.949 0.772,4.905 1.848,5.977 C1.848,5.977 1.474,5.166 2.028,4.354 C2.641,3.462 3.663,1.786 1.534,0.534 C1.534,0.534 2.095,1.656 1.259,2.889 Z" id="path-53"></path>
        <path d="M1.276,3.849 C1.954,4.583 2.649,4.31 3.856,5.523 C3.856,5.523 3.943,4.783 3.323,4.1 C2.703,3.409 1.315,2.203 1.881,0.631 C1.881,0.631 0.042,2.521 1.276,3.849 Z" id="path-55"></path>
        <path d="M0.419,2.075 C-0.026,2.823 0.288,3.68 0.288,3.68 C0.452,3.179 0.723,2.809 1.717,2.195 C2.934,1.438 1.696,0.031 1.696,0.031 C1.732,0.892 0.73,1.556 0.419,2.075 Z" id="path-57"></path>
        <path d="M5.24,1.665 C5.099,1.783 4.642,1.769 4.501,1.659 C3.745,1.075 2.671,0.702 1.555,1.151 C0.8,1.447 0.187,2.145 0.172,3.279 L0.173,3.279 L9.535,3.279 C9.483,2.269 8.946,1.46 8.042,1.12 C7.7,0.991 7.378,0.936 7.079,0.936 C6.291,0.936 5.661,1.312 5.24,1.665 Z" id="path-59"></path>
        <path d="M0.374,0.54 C1.034,2.477 3.673,3.424 3.812,5.541 C3.824,5.711 3.989,5.742 4.078,5.702 C5.958,4.829 8.597,2.426 9.223,0.936 C9.279,0.804 9.324,0.672 9.367,0.54 L0.374,0.54 Z" id="path-61"></path>
        <path d="M0.719,0.106 C0.668,0.086 0.619,0.061 0.569,0.034 C0.619,0.061 0.668,0.086 0.719,0.106 Z" id="path-63"></path>
        <path d="M0.928,0.697 C0.875,0.667 0.819,0.634 0.767,0.602 C0.819,0.634 0.875,0.667 0.928,0.697 Z" id="path-65"></path>
        <path d="M0.521,0.809 C0.656,0.908 0.796,0.998 0.937,1.089 C0.796,0.997 0.654,0.908 0.519,0.807 C0.519,0.807 0.519,0.809 0.521,0.809 Z" id="path-67"></path>
        <path d="M0.205,0.648 L41.058,0.648 L41.058,31.429 C41.058,34.4 40.071,49.218 20.63,49.218 C1.188,49.218 0.205,34.4 0.205,31.429 L0.205,0.648 Z M1.157,15.877 L1.157,22.165 L7.474,22.165 L7.474,44.778 C7.491,44.79 7.504,44.799 7.519,44.807 C7.519,44.807 7.519,44.809 7.521,44.809 C7.656,44.908 7.796,44.998 7.937,45.089 C8.205,45.269 8.482,45.441 8.767,45.602 C8.819,45.634 8.875,45.667 8.928,45.697 C8.994,45.732 9.053,45.774 9.121,45.808 C9.171,45.838 9.22,45.862 9.272,45.888 C9.368,45.937 9.471,45.986 9.569,46.034 C9.619,46.061 9.668,46.086 9.719,46.106 C9.81,46.152 9.9,46.201 9.994,46.245 C10.089,46.288 10.185,46.334 10.281,46.376 C11.36,46.856 12.536,47.243 13.799,47.54 L13.799,22.165 L20.131,22.165 L20.131,15.877 L13.806,15.877 L13.806,1.59 L13.885,1.59 L13.885,1.584 L7.521,1.584 L7.521,1.59 L7.474,1.59 L7.474,15.877 L1.157,15.877 Z M30.806,3.843 C30.806,3.892 30.795,4.179 30.621,4.179 C30.437,4.179 30.427,3.892 30.427,3.843 C30.427,3.808 30.434,3.73 30.389,3.724 C30.337,3.72 29.348,3.635 29.27,3.624 C29.192,3.612 29.111,3.536 29.111,3.46 C29.111,3.375 29.192,3.28 29.27,3.255 C29.348,3.227 30.413,2.977 30.413,2.977 C30.413,2.977 30.349,1.708 30.349,1.609 C30.349,1.602 30.345,1.597 30.345,1.59 L21.135,1.59 L21.135,2.991 C21.367,3.047 22.146,3.232 22.213,3.255 C22.288,3.28 22.368,3.375 22.368,3.46 C22.368,3.536 22.288,3.612 22.213,3.624 C22.141,3.635 21.327,3.703 21.135,3.722 L21.135,12.623 C21.15,12.825 21.147,12.926 21.147,12.926 C21.147,12.926 24.204,13.34 24.249,13.345 C24.339,13.349 24.557,13.438 24.557,13.633 C24.557,13.829 24.339,13.894 24.264,13.905 C24.185,13.921 21.318,14.262 21.266,14.275 C21.214,14.288 21.143,14.331 21.135,14.415 L21.135,15.814 C21.367,15.87 22.146,16.054 22.213,16.079 C22.288,16.103 22.368,16.201 22.368,16.279 C22.368,16.357 22.288,16.439 22.213,16.449 C22.141,16.464 21.327,16.525 21.135,16.544 L21.135,25.498 C21.15,25.7 21.147,25.803 21.147,25.803 C21.147,25.803 24.204,26.218 24.249,26.223 C24.339,26.227 24.557,26.309 24.557,26.508 C24.557,26.7 24.339,26.768 24.264,26.781 C24.185,26.794 21.318,27.139 21.266,27.151 C21.214,27.165 21.143,27.207 21.135,27.293 L21.135,28.689 C21.367,28.743 22.146,28.932 22.213,28.952 C22.288,28.978 22.368,29.078 22.368,29.152 C22.368,29.235 22.288,29.31 22.213,29.32 C22.141,29.335 21.327,29.4 21.135,29.419 L21.135,38.346 C21.15,38.546 21.147,38.648 21.147,38.648 C21.147,38.648 24.204,39.066 24.249,39.069 C24.339,39.076 24.557,39.161 24.557,39.355 C24.557,39.546 24.339,39.613 24.264,39.63 C24.185,39.644 21.318,39.987 21.266,39.999 C21.214,40.012 21.143,40.055 21.135,40.139 L21.135,41.536 C21.367,41.593 22.146,41.778 22.213,41.799 C22.288,41.828 22.368,41.927 22.368,41.999 C22.368,42.081 22.288,42.156 22.213,42.172 C22.141,42.181 21.327,42.245 21.135,42.262 L21.135,48.265 C22.692,48.245 24.154,48.123 25.525,47.916 C25.513,47.675 25.461,46.666 25.461,46.58 C25.461,46.484 25.383,46.434 25.33,46.425 C25.28,46.41 22.409,46.065 22.33,46.054 C22.25,46.04 22.037,45.977 22.037,45.78 C22.037,45.586 22.25,45.501 22.345,45.497 C22.392,45.491 25.45,45.07 25.45,45.07 C25.45,45.07 25.435,44.912 25.482,44.555 C25.527,44.189 25.641,43.926 25.731,43.926 C25.825,43.926 25.937,44.189 25.986,44.555 C26.026,44.912 26.014,45.07 26.014,45.07 C26.014,45.07 29.071,45.491 29.12,45.497 C29.211,45.501 29.427,45.586 29.427,45.78 C29.427,45.977 29.211,46.04 29.133,46.054 C29.055,46.065 26.182,46.41 26.132,46.425 C26.083,46.434 26.003,46.484 26.003,46.58 C26.003,46.658 25.958,47.521 25.941,47.843 C31.231,46.947 35.117,44.611 37.504,40.852 C37.733,40.493 37.933,40.131 38.124,39.77 C37.537,39.698 37.007,39.633 36.973,39.63 C36.895,39.613 36.678,39.546 36.678,39.355 C36.678,39.161 36.895,39.076 36.989,39.069 C37.011,39.066 37.806,38.958 38.572,38.854 C39.932,35.806 40.104,32.891 40.104,31.626 L40.104,29.417 C39.887,29.396 39.098,29.333 39.027,29.32 C38.95,29.31 38.866,29.235 38.866,29.152 C38.866,29.078 38.95,28.978 39.027,28.952 C39.093,28.933 39.851,28.748 40.104,28.688 L40.104,27.289 C40.089,27.209 40.02,27.165 39.975,27.151 C39.922,27.139 37.052,26.794 36.973,26.781 C36.895,26.768 36.678,26.7 36.678,26.508 C36.678,26.309 36.895,26.227 36.989,26.223 C37.033,26.218 40.094,25.803 40.094,25.803 C40.094,25.803 40.096,25.742 40.104,25.62 L40.104,16.597 C39.874,16.577 39.096,16.516 39.027,16.501 C38.95,16.492 38.866,16.412 38.866,16.331 C38.866,16.255 38.95,16.157 39.027,16.129 C39.093,16.11 39.848,15.93 40.104,15.866 L40.104,14.492 C40.096,14.409 40.024,14.338 39.975,14.329 C39.922,14.318 37.052,13.972 36.973,13.961 C36.895,13.949 36.678,13.881 36.678,13.687 C36.678,13.492 36.895,13.405 36.989,13.399 C37.033,13.395 40.094,12.977 40.094,12.977 C40.094,12.977 40.099,12.923 40.104,12.832 L40.104,3.72 C39.887,3.701 39.098,3.633 39.027,3.624 C38.95,3.612 38.866,3.536 38.866,3.46 C38.866,3.375 38.95,3.28 39.027,3.255 C39.091,3.234 39.831,3.052 40.104,2.988 L40.104,1.59 L30.893,1.59 C30.891,1.597 30.888,1.602 30.888,1.609 C30.888,1.708 30.823,2.977 30.823,2.977 C30.823,2.977 31.887,3.227 31.967,3.255 C32.048,3.28 32.127,3.375 32.127,3.46 C32.127,3.536 32.048,3.612 31.967,3.624 C31.887,3.635 30.898,3.72 30.848,3.724 C30.801,3.73 30.806,3.808 30.806,3.843 Z" id="path-69"></path>
        <path d="M0.994,0.245 C1.089,0.288 1.185,0.334 1.281,0.376 C2.36,0.856 3.536,1.243 4.799,1.54 L4.799,1.538 C3.313,1.185 1.953,0.712 0.719,0.106 C0.81,0.152 0.9,0.201 0.994,0.245 Z" id="path-71"></path>
        <path d="M1.767,0.602 C1.482,0.441 1.207,0.269 0.937,0.089 C1.205,0.269 1.482,0.441 1.767,0.602 Z" id="path-73"></path>
        <path d="M1.121,0.808 C1.171,0.838 1.22,0.862 1.272,0.888 C1.368,0.937 1.471,0.986 1.569,1.034 C1.353,0.926 1.14,0.813 0.928,0.697 C0.994,0.732 1.053,0.774 1.121,0.808 Z" id="path-75"></path>
        <path d="M0.474,0.778 C0.491,0.79 0.504,0.799 0.519,0.807 C0.504,0.799 0.491,0.788 0.474,0.774 L0.474,0.778 Z" id="path-77"></path>
        <path d="M19.624,0.12 C18.894,0.12 18.013,1.95 17.881,2.265 C17.661,2.787 17.838,3.066 18.093,3.318 C18.348,3.572 18.927,3.84 19.045,4.187 C19.086,4.303 19.088,4.398 19.077,4.462 L19.077,4.489 L19.075,4.493 C19.032,4.778 18.782,5.001 18.481,5.01 C18.421,5.011 18.343,5.003 18.257,4.975 C17.907,4.863 17.628,4.292 17.372,4.041 C17.112,3.789 16.827,3.62 16.299,3.849 C15.981,3.979 14.141,4.865 14.146,5.593 C14.141,6.309 15.981,7.2 16.299,7.336 C16.827,7.561 17.112,7.393 17.372,7.143 C17.628,6.891 17.907,6.318 18.257,6.208 C18.337,6.18 18.408,6.173 18.468,6.172 L18.468,6.173 C18.792,6.173 19.066,6.43 19.086,6.752 C19.088,6.813 19.077,6.9 19.047,6.998 C18.931,7.339 18.47,9.363 15.867,9.389 C12.205,9.339 11.841,7.337 11.725,6.998 C11.658,6.789 11.613,6.639 11.613,6.639 C11.613,6.639 11.573,6.495 11.615,6.381 C11.734,6.039 12.444,5.768 12.704,5.514 C12.96,5.266 13.136,4.985 12.913,4.459 C12.782,4.145 11.904,2.313 11.171,2.313 L11.148,2.313 L11.141,2.313 L11.126,2.313 C10.392,2.313 9.512,4.145 9.382,4.459 C9.158,4.985 9.337,5.266 9.593,5.514 C9.85,5.768 10.528,6.039 10.65,6.381 C10.689,6.495 10.682,6.638 10.678,6.639 C10.678,6.639 10.645,6.789 10.575,6.998 C10.457,7.342 9.995,9.393 7.343,9.393 L7.139,9.393 C7.139,9.393 4.642,9.471 5.029,7.513 C5.298,6.163 5.771,7.441 6.51,7.441 C6.783,7.441 7.532,7.065 8.128,5.244 C8.479,4.167 7.443,3.744 6.002,3.555 C5.515,3.497 5.335,3.831 5.198,4.166 C5.022,4.591 4.913,5.017 4.329,4.636 C3.756,4.26 4.46,3.134 4.704,2.933 C4.953,2.739 3.465,1.281 2.319,1.095 C0.205,0.746 -0.025,1.601 0.247,1.865 C1.227,2.839 3.207,5.25 5.391,11.065 L33.87,11.065 C36.054,5.25 38.034,2.839 39.016,1.865 C39.286,1.601 39.057,0.746 36.942,1.095 C35.801,1.281 34.31,2.739 34.556,2.933 C34.805,3.134 35.507,4.26 34.937,4.636 C34.351,5.017 34.241,4.591 34.063,4.166 C33.924,3.831 33.744,3.497 33.259,3.555 C31.822,3.744 30.782,4.167 31.138,5.244 C31.726,7.065 32.479,7.441 32.753,7.441 C33.49,7.441 33.965,6.163 34.233,7.513 C34.625,9.471 32.122,9.393 32.122,9.393 L31.916,9.393 C29.268,9.393 28.805,7.342 28.688,6.998 C28.616,6.789 28.581,6.639 28.581,6.639 L28.577,6.639 C28.577,6.639 28.536,6.495 28.581,6.381 C28.699,6.039 29.409,5.768 29.664,5.514 C29.921,5.266 30.099,4.985 29.876,4.459 C29.744,4.145 28.864,2.313 28.131,2.313 L28.12,2.313 L28.114,2.313 L28.102,2.313 L28.088,2.313 C27.354,2.313 26.475,4.145 26.346,4.459 C26.121,4.985 26.299,5.266 26.555,5.514 C26.815,5.768 27.492,6.039 27.61,6.381 C27.654,6.495 27.646,6.638 27.645,6.639 C27.645,6.639 27.603,6.789 27.534,6.998 C27.415,7.337 27.058,9.339 23.396,9.389 C20.791,9.363 20.33,7.339 20.216,6.998 C20.179,6.9 20.171,6.813 20.176,6.752 C20.197,6.43 20.467,6.173 20.793,6.173 L20.793,6.172 C20.853,6.173 20.924,6.18 21.007,6.208 C21.357,6.318 21.634,6.891 21.891,7.143 C22.147,7.393 22.432,7.561 22.966,7.336 C23.28,7.2 25.121,6.309 25.111,5.593 C25.121,4.865 23.28,3.979 22.966,3.849 C22.432,3.62 22.147,3.789 21.891,4.041 C21.634,4.292 21.357,4.863 21.007,4.975 C20.915,5.003 20.84,5.011 20.777,5.01 C20.479,5.001 20.229,4.778 20.184,4.493 L20.184,4.489 C20.181,4.476 20.179,4.471 20.179,4.462 C20.171,4.398 20.176,4.303 20.216,4.187 C20.337,3.84 20.913,3.572 21.169,3.318 C21.425,3.066 21.603,2.787 21.381,2.265 C21.248,1.95 20.37,0.12 19.635,0.12 L19.624,0.12 Z" id="path-79"></path>
        <path d="M0.757,1.728 C0.757,2.233 1.161,2.64 1.67,2.64 C2.176,2.64 2.583,2.233 2.583,1.728 C2.583,1.233 2.176,0.832 1.67,0.832 C1.161,0.832 0.757,1.233 0.757,1.728 Z" id="path-81"></path>
        <path d="M0.871,1.728 C0.871,2.233 1.283,2.64 1.789,2.64 C2.293,2.64 2.703,2.233 2.703,1.728 C2.703,1.233 2.293,0.832 1.789,0.832 C1.283,0.832 0.871,1.233 0.871,1.728 Z" id="path-83"></path>
        <path d="M0.682,1.728 C0.682,2.233 1.09,2.64 1.596,2.64 C2.102,2.64 2.51,2.233 2.51,1.728 C2.51,1.233 2.102,0.832 1.596,0.832 C1.09,0.832 0.682,1.233 0.682,1.728 Z" id="path-85"></path>
        <path d="M0.563,1.728 C0.563,2.233 0.972,2.64 1.478,2.64 C1.981,2.64 2.396,2.233 2.396,1.728 C2.396,1.233 1.981,0.832 1.478,0.832 C0.972,0.832 0.563,1.233 0.563,1.728 Z" id="path-87"></path>
        <path d="M1.486,0.832 C0.98,0.832 0.57,1.233 0.57,1.728 C0.57,2.233 0.98,2.64 1.486,2.64 L5.782,2.64 C6.284,2.64 6.696,2.233 6.696,1.728 C6.696,1.233 6.284,0.832 5.782,0.832 L1.486,0.832 Z" id="path-89"></path>
        <path d="M17.088,0.04 L17.088,1.215 L15.808,1.215 L15.808,2.262 L17.088,2.262 L17.088,4.292 C16.293,4.44 15.616,4.907 15.187,5.548 C11.773,4.629 8.682,4.845 5.982,6.198 C3.327,7.537 1.722,9.684 0.937,10.997 L2.184,11.597 C3.511,9.396 6.928,5.346 13.583,6.583 C12.219,7.149 11.232,7.947 10.548,8.667 C9.41,9.866 8.766,11.246 8.537,12.33 L9.959,12.33 C10.181,11.561 10.669,10.541 11.56,9.602 C12.23,8.889 13.264,8.089 14.763,7.611 C14.998,8.969 16.191,9.99 17.628,9.99 L17.637,9.99 C19.076,9.99 20.265,8.969 20.504,7.611 C22,8.089 23.036,8.889 23.705,9.602 C24.597,10.541 25.086,11.561 25.305,12.33 L26.729,12.33 C26.499,11.246 25.858,9.866 24.717,8.667 C24.041,7.947 23.05,7.149 21.682,6.583 C28.336,5.346 31.75,9.396 33.084,11.597 L34.33,10.997 C33.545,9.684 31.941,7.537 29.282,6.198 C26.581,4.845 23.495,4.629 20.073,5.548 C19.651,4.907 18.971,4.44 18.176,4.292 L18.176,2.262 L19.458,2.262 L19.458,1.215 L18.176,1.215 L18.176,0.04 L17.088,0.04 Z" id="path-91"></path>
    </defs>
    <g id="Symbols" stroke="none" stroke-width="1" fill="none" fill-rule="evenodd">
        <g id="Module/Clients" transform="translate(-846.000000, -129.000000)">
            <g id="Group-5" transform="translate(846.000000, 129.000000)">
                <g id="Group-158" transform="translate(54.000000, 29.030000)">
                    <mask id="mask-2" fill="white">
                        <use xlink:href="#path-1"></use>
                    </mask>
                    <g id="Clip-157"></g>
                    <polygon id="Fill-156" fill="#000000" mask="url(#mask-2)" points="-12.076 21.708 20.158 21.708 20.158 -11.915 -12.076 -11.915"></polygon>
                </g>
                <g id="Group-161" transform="translate(61.000000, 29.030000)">
                    <mask id="mask-4" fill="white">
                        <use xlink:href="#path-3"></use>
                    </mask>
                    <g id="Clip-160"></g>
                    <polygon id="Fill-159" fill="#000000" mask="url(#mask-4)" points="-11.858 21.708 20.011 21.708 20.011 -11.904 -11.858 -11.904"></polygon>
                </g>
                <g id="Group-164" transform="translate(69.000000, 29.030000)">
                    <mask id="mask-6" fill="white">
                        <use xlink:href="#path-5"></use>
                    </mask>
                    <g id="Clip-163"></g>
                    <polygon id="Fill-162" fill="#000000" mask="url(#mask-6)" points="-11.92 21.839 19.046 21.839 19.046 -11.904 -11.92 -11.904"></polygon>
                </g>
                <g id="Group-167" transform="translate(77.000000, 29.030000)">
                    <mask id="mask-8" fill="white">
                        <use xlink:href="#path-7"></use>
                    </mask>
                    <g id="Clip-166"></g>
                    <polygon id="Fill-165" fill="#000000" mask="url(#mask-8)" points="-11.726 21.708 19.178 21.708 19.178 -11.904 -11.726 -11.904"></polygon>
                </g>
                <polygon id="Fill-168" fill="#000000" points="85.2437 29.7808 85.2437 30.7458 87.4277 30.7458 87.4277 38.0828 88.5857 38.0828 88.5857 30.7458 90.7657 30.7458 90.8857 29.7808"></polygon>
                <g id="Group-171" transform="translate(91.000000, 29.030000)">
                    <mask id="mask-10" fill="white">
                        <use xlink:href="#path-9"></use>
                    </mask>
                    <g id="Clip-170"></g>
                    <polygon id="Fill-169" fill="#000000" mask="url(#mask-10)" points="-12.201 21.708 20.027 21.708 20.027 -11.915 -12.201 -11.915"></polygon>
                </g>
                <g id="Group-174" transform="translate(99.000000, 29.030000)">
                    <mask id="mask-12" fill="white">
                        <use xlink:href="#path-11"></use>
                    </mask>
                    <g id="Clip-173"></g>
                    <polygon id="Fill-172" fill="#000000" mask="url(#mask-12)" points="-12.107 21.708 21.48 21.708 21.48 -11.904 -12.107 -11.904"></polygon>
                </g>
                <polygon id="Fill-175" fill="#000000" points="110.093 38.082 111.29 38.082 111.29 29.78 110.093 29.78"></polygon>
                <polygon id="Fill-176" fill="#000000" points="113.8511 29.7808 113.8511 38.0828 118.5541 38.0828 118.5541 37.0838 115.0441 37.0838 115.0441 34.2398 117.7361 34.2398 117.7361 33.2618 115.0341 33.2618 115.0341 30.7308 118.2631 30.7308 118.4201 29.7808"></polygon>
                <g id="Group-179" transform="translate(120.000000, 29.030000)">
                    <mask id="mask-14" fill="white">
                        <use xlink:href="#path-13"></use>
                    </mask>
                    <g id="Clip-178"></g>
                    <polygon id="Fill-177" fill="#000000" mask="url(#mask-14)" points="-12.147 21.708 18.757 21.708 18.757 -11.904 -12.147 -11.904"></polygon>
                </g>
                <polygon id="Fill-180" fill="#000000" points="127.8254 29.7808 127.8254 30.7458 130.0064 30.7458 130.0064 38.0828 131.1664 38.0828 131.1664 30.7458 133.3464 30.7458 133.4684 29.7808"></polygon>
                <g id="Group-183" transform="translate(134.000000, 29.030000)">
                    <mask id="mask-16" fill="white">
                        <use xlink:href="#path-15"></use>
                    </mask>
                    <g id="Clip-182"></g>
                    <polygon id="Fill-181" fill="#000000" mask="url(#mask-16)" points="-11.991 21.839 20.17 21.839 20.17 -12.049 -11.991 -12.049"></polygon>
                </g>
                <g id="Group-186" transform="translate(146.000000, 29.030000)">
                    <mask id="mask-18" fill="white">
                        <use xlink:href="#path-17"></use>
                    </mask>
                    <g id="Clip-185"></g>
                    <polygon id="Fill-184" fill="#000000" mask="url(#mask-18)" points="-11.908 21.708 19.238 21.708 19.238 -11.904 -11.908 -11.904"></polygon>
                </g>
                <polygon id="Fill-187" fill="#000000" points="154.8218 29.7808 154.8218 38.0828 159.5248 38.0828 159.5248 37.0838 156.0148 37.0838 156.0148 34.2398 158.7068 34.2398 158.7068 33.2618 155.9998 33.2618 155.9998 30.7308 159.2318 30.7308 159.3898 29.7808"></polygon>
                <g id="Group-190" transform="translate(52.000000, 43.030000)">
                    <mask id="mask-20" fill="white">
                        <use xlink:href="#path-19"></use>
                    </mask>
                    <g id="Clip-189"></g>
                    <polygon id="Fill-188" fill="#000000" mask="url(#mask-20)" points="-12.319 36.775 31.433 36.775 31.433 -12.565 -12.319 -12.565"></polygon>
                </g>
                <polygon id="Fill-191" fill="#000000" points="75.8064 43.4959 75.8064 66.8789 89.5954 66.8789 89.5954 62.8379 80.6424 62.8379 80.6424 56.5819 87.3434 56.5819 87.3434 52.7499 80.5714 52.7499 80.5714 47.3319 89.3274 47.3319 89.2804 43.4959"></polygon>
                <polygon id="Fill-192" fill="#000000" points="91.731 43.4959 91.731 47.3999 97.516 47.3999 97.516 66.8789 102.346 66.8789 102.346 47.3999 108.783 47.3999 108.783 43.4959"></polygon>
                <g id="Group-195" transform="translate(106.000000, 43.030000)">
                    <mask id="mask-22" fill="white">
                        <use xlink:href="#path-21"></use>
                    </mask>
                    <g id="Clip-194"></g>
                    <polygon id="Fill-193" fill="#000000" mask="url(#mask-22)" points="-12.198 36.504 33.463 36.504 33.463 -12.256 -12.198 -12.256"></polygon>
                </g>
                <polygon id="Fill-196" fill="#000000" points="129.3914 43.4959 129.3914 66.8789 134.1564 66.8789 134.1564 56.4849 140.1754 56.4849 140.1754 52.6499 134.1564 52.6499 134.1564 47.2989 142.2174 47.2989 142.2174 43.4959"></polygon>
                <polygon id="Fill-197" fill="#000000" points="145.4114 43.4959 145.4114 66.8789 159.1944 66.8789 159.1944 62.8379 150.2454 62.8379 150.2454 56.5819 156.9444 56.5819 156.9444 52.7499 150.1764 52.7499 150.1764 47.3319 158.9064 47.3319 158.8834 43.4959"></polygon>
                <g id="Group-200" transform="translate(9.000000, 74.030000)">
                    <mask id="mask-24" fill="white">
                        <use xlink:href="#path-23"></use>
                    </mask>
                    <g id="Clip-199"></g>
                    <polygon id="Fill-198" fill="#000000" mask="url(#mask-24)" points="-12.534 13.543 12.927 13.543 12.927 -11.847 -12.534 -11.847"></polygon>
                </g>
                <g id="Group-203" transform="translate(9.000000, 75.030000)">
                    <mask id="mask-26" fill="white">
                        <use xlink:href="#path-25"></use>
                    </mask>
                    <g id="Clip-202"></g>
                    <polygon id="Fill-201" fill="#000000" mask="url(#mask-26)" points="-11.661 13.031 13.935 13.031 13.935 -12.409 -11.661 -12.409"></polygon>
                </g>
                <g id="Group-206" transform="translate(10.000000, 75.030000)">
                    <mask id="mask-28" fill="white">
                        <use xlink:href="#path-27"></use>
                    </mask>
                    <g id="Clip-205"></g>
                    <polygon id="Fill-204" fill="#000000" mask="url(#mask-28)" points="-12.374 14.213 16.454 14.213 16.454 -12.278 -12.374 -12.278"></polygon>
                </g>
                <g id="Group-209" transform="translate(7.000000, 73.030000)">
                    <mask id="mask-30" fill="white">
                        <use xlink:href="#path-29"></use>
                    </mask>
                    <g id="Clip-208"></g>
                    <polygon id="Fill-207" fill="#000000" mask="url(#mask-30)" points="-12.181 14.463 14.776 14.463 14.776 -11.876 -12.181 -11.876"></polygon>
                </g>
                <g id="Group-212" transform="translate(9.000000, 74.030000)">
                    <mask id="mask-32" fill="white">
                        <use xlink:href="#path-31"></use>
                    </mask>
                    <g id="Clip-211"></g>
                    <polygon id="Fill-210" fill="#000000" mask="url(#mask-32)" points="-12.382 13.9 13.649 13.9 13.649 -11.767 -12.382 -11.767"></polygon>
                </g>
                <g id="Group-215" transform="translate(22.000000, 34.030000)">
                    <mask id="mask-34" fill="white">
                        <use xlink:href="#path-33"></use>
                    </mask>
                    <g id="Clip-214"></g>
                    <polygon id="Fill-213" fill="#000000" mask="url(#mask-34)" points="-12.605 50.382 29.86 50.382 29.86 -12.274 -12.605 -12.274"></polygon>
                </g>
                <g id="Group-218" transform="translate(26.000000, 40.030000)">
                    <mask id="mask-36" fill="white">
                        <use xlink:href="#path-35"></use>
                    </mask>
                    <g id="Clip-217"></g>
                    <polygon id="Fill-216" fill="#000000" mask="url(#mask-36)" points="-11.723 18.658 20.979 18.658 20.979 -11.876 -11.723 -11.876"></polygon>
                </g>
                <g id="Group-221" transform="translate(26.000000, 53.030000)">
                    <mask id="mask-38" fill="white">
                        <use xlink:href="#path-37"></use>
                    </mask>
                    <g id="Clip-220"></g>
                    <polygon id="Fill-219" fill="#000000" mask="url(#mask-38)" points="-11.723 18.531 20.979 18.531 20.979 -11.997 -11.723 -11.997"></polygon>
                </g>
                <g id="Group-224" transform="translate(26.000000, 66.030000)">
                    <mask id="mask-40" fill="white">
                        <use xlink:href="#path-39"></use>
                    </mask>
                    <g id="Clip-223"></g>
                    <polygon id="Fill-222" fill="#000000" mask="url(#mask-40)" points="-11.723 18.382 20.979 18.382 20.979 -12.154 -11.723 -12.154"></polygon>
                </g>
                <g id="Group-227" transform="translate(22.000000, 34.030000)">
                    <mask id="mask-42" fill="white">
                        <use xlink:href="#path-41"></use>
                    </mask>
                    <g id="Clip-226"></g>
                    <polygon id="Fill-225" fill="#000000" mask="url(#mask-42)" points="-12.605 18.258 20.092 18.258 20.092 -12.274 -12.605 -12.274"></polygon>
                </g>
                <g id="Group-230" transform="translate(31.000000, 34.030000)">
                    <mask id="mask-44" fill="white">
                        <use xlink:href="#path-43"></use>
                    </mask>
                    <g id="Clip-229"></g>
                    <polygon id="Fill-228" fill="#000000" mask="url(#mask-44)" points="-11.844 18.258 20.86 18.258 20.86 -12.274 -11.844 -12.274"></polygon>
                </g>
                <g id="Group-233" transform="translate(22.000000, 47.030000)">
                    <mask id="mask-46" fill="white">
                        <use xlink:href="#path-45"></use>
                    </mask>
                    <g id="Clip-232"></g>
                    <polygon id="Fill-231" fill="#000000" mask="url(#mask-46)" points="-12.605 18.108 20.092 18.108 20.092 -12.426 -12.605 -12.426"></polygon>
                </g>
                <g id="Group-236" transform="translate(31.000000, 47.030000)">
                    <mask id="mask-48" fill="white">
                        <use xlink:href="#path-47"></use>
                    </mask>
                    <g id="Clip-235"></g>
                    <polygon id="Fill-234" fill="#000000" mask="url(#mask-48)" points="-11.844 18.108 20.86 18.108 20.86 -12.426 -11.844 -12.426"></polygon>
                </g>
                <g id="Group-239" transform="translate(22.000000, 60.030000)">
                    <mask id="mask-50" fill="white">
                        <use xlink:href="#path-49"></use>
                    </mask>
                    <g id="Clip-238"></g>
                    <polygon id="Fill-237" fill="#000000" mask="url(#mask-50)" points="-12.605 17.955 20.092 17.955 20.092 -12.575 -12.605 -12.575"></polygon>
                </g>
                <g id="Group-242" transform="translate(31.000000, 60.030000)">
                    <mask id="mask-52" fill="white">
                        <use xlink:href="#path-51"></use>
                    </mask>
                    <g id="Clip-241"></g>
                    <polygon id="Fill-240" fill="#000000" mask="url(#mask-52)" points="-11.844 17.955 20.86 17.955 20.86 -12.575 -11.844 -12.575"></polygon>
                </g>
                <polygon id="Fill-243" fill="#000000" points="7.521 30.621 13.888 30.621 13.888 30.614 7.521 30.614"></polygon>
                <g id="Group-246" transform="translate(9.000000, 38.030000)">
                    <mask id="mask-54" fill="white">
                        <use xlink:href="#path-53"></use>
                    </mask>
                    <g id="Clip-245"></g>
                    <polygon id="Fill-244" fill="#000000" mask="url(#mask-54)" points="-11.807 18.632 15.473 18.632 15.473 -12.12 -11.807 -12.12"></polygon>
                </g>
                <g id="Group-249" transform="translate(7.000000, 40.030000)">
                    <mask id="mask-56" fill="white">
                        <use xlink:href="#path-55"></use>
                    </mask>
                    <g id="Clip-248"></g>
                    <polygon id="Fill-247" fill="#000000" mask="url(#mask-56)" points="-11.805 18.178 16.515 18.178 16.515 -12.025 -11.805 -12.025"></polygon>
                </g>
                <g id="Group-252" transform="translate(11.000000, 41.030000)">
                    <mask id="mask-58" fill="white">
                        <use xlink:href="#path-57"></use>
                    </mask>
                    <g id="Clip-251"></g>
                    <polygon id="Fill-250" fill="#000000" mask="url(#mask-58)" points="-12.474 16.336 14.908 16.336 14.908 -12.624 -12.474 -12.624"></polygon>
                </g>
                <g id="Group-255" transform="translate(6.000000, 44.030000)">
                    <mask id="mask-60" fill="white">
                        <use xlink:href="#path-59"></use>
                    </mask>
                    <g id="Clip-254"></g>
                    <polygon id="Fill-253" fill="#000000" mask="url(#mask-60)" points="-12.483 15.934 22.19 15.934 22.19 -11.719 -12.483 -11.719"></polygon>
                </g>
                <g id="Group-258" transform="translate(6.000000, 48.030000)">
                    <mask id="mask-62" fill="white">
                        <use xlink:href="#path-61"></use>
                    </mask>
                    <g id="Clip-257"></g>
                    <polygon id="Fill-256" fill="#000000" mask="url(#mask-62)" points="-12.28 18.373 22.022 18.373 22.022 -12.114 -12.28 -12.114"></polygon>
                </g>
                <g id="Group-261" transform="translate(9.000000, 75.030000)">
                    <mask id="mask-64" fill="white">
                        <use xlink:href="#path-63"></use>
                    </mask>
                    <g id="Clip-260"></g>
                    <polygon id="Fill-259" fill="#000000" mask="url(#mask-64)" points="-12.086 12.761 13.373 12.761 13.373 -12.621 -12.086 -12.621"></polygon>
                </g>
                <polygon id="Fill-262" fill="#000000" points="7.521 30.62 13.888 30.62 13.888 30.612 7.521 30.612"></polygon>
                <g id="Group-265" transform="translate(8.000000, 74.030000)">
                    <mask id="mask-66" fill="white">
                        <use xlink:href="#path-65"></use>
                    </mask>
                    <g id="Clip-264"></g>
                    <polygon id="Fill-263" fill="#000000" mask="url(#mask-66)" points="-11.888 13.351 13.583 13.351 13.583 -12.053 -11.888 -12.053"></polygon>
                </g>
                <g id="Group-268" transform="translate(7.000000, 73.030000)">
                    <mask id="mask-68" fill="white">
                        <use xlink:href="#path-67"></use>
                    </mask>
                    <g id="Clip-267"></g>
                    <polygon id="Fill-266" fill="#000000" mask="url(#mask-68)" points="-12.136 13.744 13.592 13.744 13.592 -11.849 -12.136 -11.849"></polygon>
                </g>
                <g id="Group-271" transform="translate(0.000000, 29.030000)">
                    <mask id="mask-70" fill="white">
                        <use xlink:href="#path-69"></use>
                    </mask>
                    <g id="Clip-270"></g>
                    <polygon id="Fill-269" fill="#000000" mask="url(#mask-70)" points="-12.45 61.872 53.713 61.872 53.713 -12.006 -12.45 -12.006"></polygon>
                </g>
                <g id="Group-274" transform="translate(9.000000, 75.030000)">
                    <mask id="mask-72" fill="white">
                        <use xlink:href="#path-71"></use>
                    </mask>
                    <g id="Clip-273"></g>
                    <polygon id="Fill-272" fill="#000000" mask="url(#mask-72)" points="-11.936 14.194 17.454 14.194 17.454 -12.549 -11.936 -12.549"></polygon>
                </g>
                <g id="Group-277" transform="translate(7.000000, 74.030000)">
                    <mask id="mask-74" fill="white">
                        <use xlink:href="#path-73"></use>
                    </mask>
                    <g id="Clip-276"></g>
                    <polygon id="Fill-275" fill="#000000" mask="url(#mask-74)" points="-11.718 13.258 14.422 13.258 14.422 -12.565 -11.718 -12.565"></polygon>
                </g>
                <g id="Group-280" transform="translate(8.000000, 74.030000)">
                    <mask id="mask-76" fill="white">
                        <use xlink:href="#path-75"></use>
                    </mask>
                    <g id="Clip-279"></g>
                    <polygon id="Fill-278" fill="#000000" mask="url(#mask-76)" points="-11.727 13.688 14.224 13.688 14.224 -11.958 -11.727 -11.958"></polygon>
                </g>
                <g id="Group-283" transform="translate(7.000000, 73.030000)">
                    <mask id="mask-78" fill="white">
                        <use xlink:href="#path-77"></use>
                    </mask>
                    <g id="Clip-282"></g>
                    <polygon id="Fill-281" fill="#000000" mask="url(#mask-78)" points="-12.181 13.461 13.173 13.461 13.173 -11.88 -12.181 -11.88"></polygon>
                </g>
                <g id="Group-286" transform="translate(1.000000, 11.030000)">
                    <mask id="mask-80" fill="white">
                        <use xlink:href="#path-79"></use>
                    </mask>
                    <g id="Clip-285"></g>
                    <polygon id="Fill-284" fill="#000000" mask="url(#mask-80)" points="-12.5 23.719 51.762 23.719 51.762 -12.535 -12.5 -12.535"></polygon>
                </g>
                <g id="Group-289" transform="translate(14.000000, 22.030000)">
                    <mask id="mask-82" fill="white">
                        <use xlink:href="#path-81"></use>
                    </mask>
                    <g id="Clip-288"></g>
                    <polygon id="Fill-287" fill="#000000" mask="url(#mask-82)" points="-11.898 15.294 15.238 15.294 15.238 -11.823 -11.898 -11.823"></polygon>
                </g>
                <g id="Group-292" transform="translate(6.000000, 22.030000)">
                    <mask id="mask-84" fill="white">
                        <use xlink:href="#path-83"></use>
                    </mask>
                    <g id="Clip-291"></g>
                    <polygon id="Fill-290" fill="#000000" mask="url(#mask-84)" points="-11.784 15.294 15.358 15.294 15.358 -11.823 -11.784 -11.823"></polygon>
                </g>
                <polygon id="Fill-293" fill="#000000" points="10.145 23.758 11.73 24.67 13.312 23.758 11.73 22.862"></polygon>
                <polygon id="Fill-294" fill="#000000" points="20.6282 25.6597 7.5922 25.6597 7.9552 26.6507 33.3092 26.6507 33.6762 25.6597"></polygon>
                <g id="Group-297" transform="translate(24.000000, 22.030000)">
                    <mask id="mask-86" fill="white">
                        <use xlink:href="#path-85"></use>
                    </mask>
                    <g id="Clip-296"></g>
                    <polygon id="Fill-295" fill="#000000" mask="url(#mask-86)" points="-11.973 15.294 15.165 15.294 15.165 -11.823 -11.973 -11.823"></polygon>
                </g>
                <g id="Group-300" transform="translate(32.000000, 22.030000)">
                    <mask id="mask-88" fill="white">
                        <use xlink:href="#path-87"></use>
                    </mask>
                    <g id="Clip-299"></g>
                    <polygon id="Fill-298" fill="#000000" mask="url(#mask-88)" points="-12.091 15.294 15.051 15.294 15.051 -11.823 -12.091 -11.823"></polygon>
                </g>
                <polygon id="Fill-301" fill="#000000" points="27.9561 23.758 29.5361 24.67 31.1211 23.758 29.5361 22.862"></polygon>
                <g id="Group-304" transform="translate(17.000000, 22.030000)">
                    <mask id="mask-90" fill="white">
                        <use xlink:href="#path-89"></use>
                    </mask>
                    <g id="Clip-303"></g>
                    <polygon id="Fill-302" fill="#000000" mask="url(#mask-90)" points="-12.084 15.294 19.352 15.294 19.352 -11.823 -12.084 -11.823"></polygon>
                </g>
                <g id="Group-307" transform="translate(3.000000, 0.030000)">
                    <mask id="mask-92" fill="white">
                        <use xlink:href="#path-91"></use>
                    </mask>
                    <g id="Clip-306"></g>
                    <polygon id="Fill-305" fill="#000000" mask="url(#mask-92)" points="-11.718 24.986 46.984 24.986 46.984 -12.615 -11.718 -12.615"></polygon>
                </g>
            </g>
        </g>
    </g>
</svg>