<?xml version="1.0" encoding="UTF-8"?>
<svg width="162px" height="30px" viewBox="0 0 162 30" version="1.1" xmlns="http://www.w3.org/2000/svg" xmlns:xlink="http://www.w3.org/1999/xlink">
    <!-- Generator: Sketch 46.2 (44496) - http://www.bohemiancoding.com/sketch -->
    <title>Group</title>
    <desc>Created with Sketch.</desc>
    <defs>
        <path d="M0.282,0.134 L7.115,0.134 C9.873,0.134 12.055,0.564 13.662,1.419 C15.268,2.275 16.546,3.535 17.494,5.197 C18.44,6.859 18.916,8.672 18.916,10.635 C18.916,12.037 18.654,13.378 18.131,14.66 C17.609,15.941 16.865,17.068 15.897,18.039 C14.911,19.041 13.763,19.796 12.456,20.309 C11.694,20.617 10.992,20.826 10.353,20.93 C9.714,21.035 8.494,21.088 6.696,21.088 L0.282,21.088 L0.282,0.134 Z M3.184,2.808 L3.184,18.415 L6.899,18.415 C8.35,18.415 9.479,18.313 10.281,18.107 C11.083,17.9 11.752,17.64 12.29,17.326 C12.828,17.01 13.319,16.622 13.763,16.162 C15.195,14.66 15.913,12.761 15.913,10.468 C15.913,8.215 15.177,6.379 13.705,4.957 C13.164,4.426 12.542,3.99 11.84,3.649 C11.138,3.31 10.473,3.084 9.846,2.973 C9.216,2.863 8.205,2.808 6.814,2.808 L3.184,2.808 Z" id="path-1"></path>
        <path d="M0.905,0.134 L6.202,0.134 C8.343,0.134 10.04,0.66 11.297,1.709 C12.553,2.761 13.182,4.18 13.182,5.968 C13.182,7.189 12.875,8.245 12.26,9.134 C11.643,10.025 10.76,10.689 9.609,11.129 C10.284,11.569 10.946,12.17 11.593,12.929 C12.239,13.688 13.148,15.014 14.319,16.903 C15.055,18.094 15.645,18.989 16.089,19.589 L17.209,21.088 L13.606,21.088 L12.684,19.708 C12.654,19.657 12.592,19.572 12.502,19.452 L11.913,18.627 L10.975,17.098 L9.963,15.46 C9.339,14.6 8.764,13.915 8.245,13.406 C7.724,12.897 7.253,12.531 6.836,12.306 C6.414,12.082 5.711,11.969 4.719,11.969 L3.931,11.969 L3.931,21.088 L0.905,21.088 L0.905,0.134 Z M3.931,2.684 L3.931,9.298 L5.082,9.298 C6.617,9.298 7.669,9.17 8.238,8.909 C8.809,8.649 9.252,8.256 9.572,7.731 C9.888,7.207 10.049,6.609 10.049,5.939 C10.049,5.28 9.871,4.681 9.518,4.147 C9.165,3.612 8.667,3.234 8.026,3.014 C7.385,2.795 6.323,2.684 4.839,2.684 L3.931,2.684 Z" id="path-3"></path>
        <path d="M0.856,0.134 L7.693,0.134 C10.45,0.134 12.632,0.564 14.238,1.419 C15.844,2.275 17.121,3.535 18.068,5.197 C19.017,6.859 19.49,8.672 19.49,10.635 C19.49,12.037 19.23,13.378 18.709,14.66 C18.184,15.941 17.439,17.068 16.473,18.039 C15.485,19.041 14.34,19.796 13.034,20.309 C12.269,20.617 11.567,20.826 10.929,20.93 C10.29,21.035 9.072,21.088 7.272,21.088 L0.856,21.088 L0.856,0.134 Z M3.759,2.808 L3.759,18.415 L7.475,18.415 C8.926,18.415 10.053,18.313 10.857,18.107 C11.659,17.9 12.33,17.64 12.867,17.326 C13.404,17.01 13.893,16.622 14.34,16.162 C15.771,14.66 16.487,12.761 16.487,10.468 C16.487,8.215 15.752,6.379 14.281,4.957 C13.739,4.426 13.117,3.99 12.418,3.649 C11.714,3.31 11.05,3.084 10.42,2.973 C9.79,2.863 8.78,2.808 7.387,2.808 L3.759,2.808 Z" id="path-5"></path>
        <path d="M0.459,0.134 C0.259,0.134 0.096,0.545 0.096,1.048 C0.096,1.551 0.259,1.958 0.459,1.958 L16.038,1.958 C16.239,1.958 16.401,1.551 16.401,1.046 C16.401,0.545 16.239,0.134 16.038,0.134 L0.459,0.134 Z" id="path-7"></path>
        <path d="M0.459,0.463 C0.259,0.463 0.096,0.871 0.096,1.374 C0.096,1.878 0.259,2.286 0.459,2.286 L16.038,2.286 C16.239,2.286 16.401,1.878 16.401,1.374 C16.401,0.871 16.239,0.463 16.038,0.463 L0.459,0.463 Z" id="path-9"></path>
        <path d="M0.647,0.463 C0.343,0.463 0.096,0.871 0.096,1.376 C0.096,1.878 0.343,2.286 0.647,2.286 L1.875,2.286 C2.179,2.286 2.425,1.878 2.425,1.376 C2.425,0.871 2.179,0.463 1.875,0.463 L0.647,0.463 Z" id="path-11"></path>
        <path d="M0.624,0.463 C0.319,0.463 0.072,0.871 0.072,1.376 C0.072,1.878 0.319,2.286 0.624,2.286 L1.851,2.286 C2.155,2.286 2.401,1.878 2.401,1.376 C2.401,0.871 2.155,0.463 1.851,0.463 L0.624,0.463 Z" id="path-13"></path>
        <path d="M0.444,0.463 C0.245,0.463 0.083,0.871 0.083,1.376 C0.083,1.878 0.245,2.286 0.444,2.286 L2.053,2.286 C2.252,2.286 2.413,1.878 2.413,1.376 C2.413,0.871 2.252,0.463 2.053,0.463 L0.444,0.463 Z" id="path-15"></path>
        <path d="M0.072,1.457 C0.072,2.004 0.515,2.449 1.065,2.449 C1.612,2.449 2.056,2.004 2.056,1.457 C2.056,0.908 1.612,0.463 1.065,0.463 C0.515,0.463 0.072,0.908 0.072,1.457 Z" id="path-17"></path>
        <path d="M0.413,1.457 C0.413,2.004 0.858,2.449 1.408,2.449 C1.958,2.449 2.4,2.004 2.4,1.457 C2.4,0.908 1.958,0.463 1.408,0.463 C0.858,0.463 0.413,0.908 0.413,1.457 Z" id="path-19"></path>
        <path d="M0.083,1.457 C0.083,2.004 0.529,2.449 1.076,2.449 C1.623,2.449 2.068,2.004 2.068,1.457 C2.068,0.908 1.623,0.463 1.076,0.463 C0.529,0.463 0.083,0.908 0.083,1.457 Z" id="path-21"></path>
        <path d="M0.133,0.632 C0.133,0.877 0.323,1.076 0.558,1.076 C0.792,1.076 0.983,0.877 0.983,0.632 C0.983,0.385 0.792,0.186 0.558,0.186 C0.323,0.186 0.133,0.385 0.133,0.632 Z" id="path-23"></path>
        <path d="M18.933,1.276 C18.885,1.263 18.684,1.232 18.621,1.232 C18.371,1.232 18.237,1.258 18.148,1.323 C18.32,1.438 18.537,1.605 18.581,2.008 C18.2,1.96 18.043,1.734 17.932,1.555 C17.87,1.649 17.846,1.788 17.846,2.05 C17.846,2.104 17.847,2.169 17.849,2.225 C17.57,2.253 17.296,2.426 17.179,2.594 C17.296,2.76 17.57,2.936 17.849,2.964 C17.847,3.019 17.846,3.085 17.846,3.139 C17.846,3.399 17.87,3.54 17.932,3.632 C18.057,3.433 18.24,3.171 18.733,3.171 L18.808,3.171 C18.81,3.206 18.811,3.239 18.811,3.27 C18.811,3.721 18.611,4.132 18.085,4.132 C17.736,4.132 17.551,3.864 17.469,3.695 C17.526,3.61 17.561,3.509 17.561,3.396 C17.561,3.114 17.342,2.883 17.072,2.883 C16.801,2.883 16.581,3.114 16.581,3.396 C16.581,3.509 16.616,3.61 16.673,3.695 C16.59,3.864 16.406,4.132 16.055,4.132 C15.531,4.132 15.33,3.721 15.33,3.27 C15.33,3.239 15.332,3.206 15.334,3.171 L15.409,3.171 C15.902,3.171 16.085,3.433 16.21,3.632 C16.271,3.54 16.296,3.399 16.296,3.139 C16.296,3.085 16.295,3.019 16.292,2.964 C16.572,2.936 16.846,2.76 16.961,2.594 C16.846,2.426 16.572,2.253 16.292,2.225 C16.295,2.169 16.296,2.104 16.296,2.05 C16.296,1.788 16.271,1.649 16.21,1.555 C16.098,1.734 15.942,1.96 15.56,2.008 C15.604,1.605 15.822,1.438 15.994,1.323 C15.906,1.258 15.771,1.232 15.521,1.232 C15.469,1.232 15.407,1.235 15.354,1.236 C15.327,0.944 15.158,0.657 15,0.536 C14.84,0.657 14.672,0.944 14.646,1.236 C14.592,1.235 14.531,1.232 14.478,1.232 C14.229,1.232 14.095,1.258 14.006,1.323 C14.177,1.438 14.395,1.605 14.438,2.008 C14.058,1.96 13.901,1.734 13.791,1.555 C13.728,1.649 13.704,1.788 13.704,2.05 C13.704,2.104 13.705,2.169 13.707,2.225 C13.428,2.253 13.153,2.426 13.038,2.594 C13.153,2.76 13.428,2.936 13.707,2.964 C13.705,3.019 13.704,3.085 13.704,3.139 C13.704,3.399 13.728,3.54 13.791,3.632 C13.914,3.433 14.097,3.171 14.591,3.171 L14.664,3.171 C14.668,3.206 14.669,3.239 14.669,3.27 C14.669,3.721 14.468,4.132 13.943,4.132 C13.594,4.132 13.41,3.864 13.327,3.695 C13.385,3.61 13.419,3.509 13.419,3.396 C13.419,3.114 13.199,2.883 12.928,2.883 C12.895,2.883 12.862,2.889 12.83,2.894 C12.606,2.942 12.439,3.149 12.439,3.396 C12.439,3.509 12.474,3.61 12.531,3.695 C12.449,3.864 12.263,4.132 11.913,4.132 C11.389,4.132 11.189,3.721 11.189,3.27 C11.189,3.239 11.189,3.206 11.192,3.171 L11.267,3.171 C11.76,3.171 11.944,3.433 12.068,3.632 C12.129,3.54 12.154,3.399 12.154,3.139 C12.154,3.085 12.152,3.019 12.15,2.964 C12.431,2.936 12.704,2.76 12.819,2.594 C12.704,2.426 12.431,2.253 12.15,2.225 C12.152,2.169 12.154,2.104 12.154,2.05 C12.154,1.788 12.129,1.649 12.068,1.555 C11.956,1.734 11.799,1.96 11.418,2.008 C11.462,1.605 11.68,1.438 11.852,1.323 C11.763,1.258 11.628,1.232 11.379,1.232 C11.326,1.232 11.264,1.235 11.212,1.236 C11.184,0.944 11.018,0.657 10.857,0.536 C10.697,0.657 10.531,0.944 10.504,1.236 C10.451,1.235 10.388,1.232 10.336,1.232 C10.086,1.232 9.953,1.258 9.864,1.323 C10.036,1.438 10.253,1.605 10.297,2.008 C9.917,1.96 9.758,1.734 9.647,1.555 C9.587,1.649 9.561,1.788 9.561,2.05 C9.561,2.104 9.563,2.169 9.565,2.225 C9.285,2.253 9.011,2.426 8.895,2.594 C9.011,2.76 9.285,2.936 9.565,2.964 C9.563,3.019 9.561,3.085 9.561,3.139 C9.561,3.399 9.587,3.54 9.647,3.632 C9.772,3.433 9.956,3.171 10.449,3.171 L10.523,3.171 C10.524,3.206 10.527,3.239 10.527,3.27 C10.527,3.721 10.326,4.132 9.801,4.132 C9.451,4.132 9.266,3.862 9.184,3.693 C9.241,3.608 9.274,3.508 9.274,3.396 C9.274,3.114 9.055,2.883 8.785,2.883 C8.514,2.883 8.294,3.114 8.294,3.396 C8.294,3.509 8.329,3.611 8.388,3.696 C8.305,3.865 8.12,4.132 7.771,4.132 C7.247,4.132 7.047,3.721 7.047,3.27 C7.047,3.239 7.048,3.206 7.049,3.171 L7.123,3.171 C7.616,3.171 7.8,3.433 7.925,3.632 C7.986,3.54 8.011,3.399 8.011,3.139 C8.011,3.085 8.01,3.019 8.008,2.964 C8.288,2.936 8.562,2.76 8.678,2.594 C8.562,2.426 8.288,2.253 8.008,2.225 C8.01,2.169 8.011,2.104 8.011,2.05 C8.011,1.788 7.986,1.649 7.925,1.555 C7.814,1.734 7.657,1.96 7.276,2.008 C7.32,1.605 7.538,1.438 7.708,1.323 C7.621,1.258 7.486,1.232 7.237,1.232 C7.184,1.232 7.121,1.235 7.068,1.236 C7.042,0.944 6.875,0.657 6.716,0.536 C6.555,0.657 6.389,0.944 6.361,1.236 C6.309,1.235 6.246,1.232 6.194,1.232 C5.944,1.232 5.81,1.258 5.722,1.323 C5.894,1.438 6.11,1.605 6.154,2.008 C5.774,1.96 5.616,1.734 5.505,1.555 C5.445,1.649 5.42,1.788 5.42,2.05 C5.42,2.104 5.421,2.169 5.423,2.225 C5.143,2.253 4.87,2.426 4.754,2.594 C4.87,2.76 5.143,2.936 5.423,2.964 C5.421,3.019 5.42,3.085 5.42,3.139 C5.42,3.399 5.445,3.54 5.505,3.632 C5.63,3.433 5.814,3.171 6.307,3.171 L6.381,3.171 C6.383,3.206 6.383,3.239 6.383,3.27 C6.383,3.721 6.183,4.132 5.659,4.132 C5.31,4.132 5.125,3.864 5.042,3.695 C5.1,3.61 5.134,3.509 5.134,3.396 C5.134,3.114 4.915,2.883 4.644,2.883 C4.509,2.883 4.386,2.941 4.297,3.034 C4.21,3.126 4.155,3.256 4.155,3.396 C4.155,3.509 4.188,3.61 4.246,3.695 C4.163,3.864 3.978,4.132 3.63,4.132 C3.105,4.132 2.905,3.721 2.905,3.27 C2.905,3.239 2.906,3.206 2.908,3.171 L2.981,3.171 C3.475,3.171 3.657,3.433 3.783,3.632 C3.845,3.54 3.869,3.399 3.869,3.139 C3.869,3.085 3.868,3.019 3.865,2.964 C4.146,2.936 4.419,2.76 4.535,2.594 C4.419,2.426 4.146,2.253 3.865,2.225 C3.868,2.169 3.869,2.104 3.869,2.05 C3.869,1.788 3.845,1.649 3.783,1.555 C3.673,1.734 3.513,1.96 3.134,2.008 C3.179,1.605 3.395,1.438 3.567,1.323 C3.477,1.258 3.344,1.232 3.094,1.232 C3.032,1.232 2.828,1.263 2.781,1.276 C2.683,1.093 2.297,0.513 1.637,0.513 C1.288,0.513 0.962,0.66 0.826,0.745 L0.826,0.79 C1.047,0.795 1.367,0.833 1.635,1.115 C2.051,1.55 2.081,1.899 2.081,3.09 C2.081,4.363 2.705,4.984 3.602,4.984 C4.117,4.984 4.644,4.571 4.644,4.571 C4.644,4.571 5.17,4.984 5.686,4.984 C6.233,4.984 6.716,4.544 6.716,4.544 C6.716,4.544 7.197,4.984 7.744,4.984 C8.261,4.984 8.786,4.571 8.786,4.571 C8.786,4.571 9.313,4.984 9.828,4.984 C10.375,4.984 10.857,4.544 10.857,4.544 C10.857,4.544 11.341,4.984 11.887,4.984 C12.403,4.984 12.928,4.571 12.928,4.571 C12.928,4.571 13.455,4.984 13.97,4.984 C14.517,4.984 15,4.544 15,4.544 C15,4.544 15.482,4.984 16.03,4.984 C16.545,4.984 17.072,4.571 17.072,4.571 C17.072,4.571 17.597,4.984 18.113,4.984 C19.01,4.984 19.632,4.363 19.632,3.09 C19.632,1.899 19.664,1.55 20.081,1.115 C20.374,0.807 20.728,0.789 20.949,0.789 C20.892,0.731 20.503,0.513 20.078,0.513 C19.417,0.513 19.032,1.093 18.933,1.276 Z" id="path-25"></path>
        <path d="M0.349,0.378 L17.361,0.378 L17.362,14.959 C17.362,18.889 14.983,21.283 10.309,21.682 L7.402,21.682 C2.728,21.283 0.349,18.889 0.349,14.959 L0.349,0.378 Z M16.034,0.776 L15.805,1.318 L15.241,1.255 L15.577,1.732 L15.241,2.21 L15.805,2.147 L16.034,2.688 L16.263,2.147 L16.825,2.21 L16.491,1.732 L16.825,1.255 L16.263,1.318 L16.034,0.776 Z M8.856,0.776 L8.627,1.318 L8.064,1.255 L8.397,1.732 L8.064,2.21 L8.627,2.147 L8.856,2.688 L9.083,2.147 L9.648,2.21 L9.314,1.732 L9.648,1.255 L9.083,1.318 L8.856,0.776 Z M1.677,0.776 L1.449,1.318 L0.884,1.255 L1.22,1.732 L0.884,2.21 L1.449,2.147 L1.677,2.688 L1.906,2.147 L2.469,2.21 L2.134,1.732 L2.469,1.255 L1.906,1.318 L1.677,0.776 Z M3.006,14.654 C3.006,15.068 3.044,15.611 3.242,16.169 L7.525,16.169 C7.908,16.169 8.218,15.845 8.218,15.445 L8.218,8.666 C6.425,8.48 5.051,7.447 5.051,6.2 C5.051,4.824 6.729,3.707 8.797,3.707 C10.865,3.707 12.543,4.824 12.543,6.2 C12.543,7.447 11.17,8.48 9.378,8.666 L9.378,10.145 L9.625,10.404 C9.665,10.446 9.698,10.528 9.698,10.588 L9.698,10.959 C9.698,11.167 9.819,11.335 9.969,11.335 L10.241,11.335 L10.241,10.18 L9.859,9.535 C9.814,9.459 9.819,9.338 9.868,9.265 L10.118,8.903 C10.152,8.855 10.215,8.847 10.26,8.884 L10.687,9.236 L10.872,9.198 C10.928,9.186 11.009,9.207 11.054,9.244 L11.355,9.492 L11.559,9.455 C11.673,9.434 11.793,9.508 11.83,9.622 L11.872,9.752 C11.91,9.866 11.858,10.003 11.758,10.062 L11.618,10.142 L11.664,10.908 L12.295,12.787 L12.824,13.736 C12.916,13.905 12.97,14.1 12.97,14.308 C12.97,14.613 12.856,14.889 12.672,15.095 L13.124,16.169 L14.47,16.169 C14.668,15.611 14.705,15.068 14.705,14.654 L14.705,3.087 L3.006,3.087 L3.006,14.654 Z M16.034,7.943 L15.805,8.486 L15.241,8.422 L15.577,8.9 L15.241,9.379 L15.805,9.313 L16.034,9.856 L16.263,9.313 L16.825,9.379 L16.491,8.9 L16.825,8.422 L16.263,8.486 L16.034,7.943 Z M1.677,7.943 L1.449,8.486 L0.884,8.422 L1.22,8.9 L0.884,9.379 L1.449,9.313 L1.677,9.856 L1.906,9.313 L2.469,9.379 L2.134,8.9 L2.469,8.422 L1.906,8.486 L1.677,7.943 Z M9.378,15.445 C9.378,15.845 9.686,16.169 10.069,16.169 L10.739,16.169 L10.805,16.071 C10.836,16.023 10.908,15.967 10.961,15.948 L11.258,15.842 L10.682,15.133 C10.627,15.066 10.622,14.951 10.672,14.879 L10.773,14.732 C10.645,14.659 10.374,14.423 10.282,13.711 C10.261,13.558 10.25,13.383 10.25,13.182 L10.249,13.017 L10.061,13.068 C9.957,13.097 9.832,13.034 9.781,12.928 L9.378,12.09 L9.378,15.445 Z M15.931,15.111 L15.701,15.655 L15.138,15.589 L15.473,16.068 L15.138,16.545 L15.701,16.482 L15.931,17.023 L16.16,16.482 L16.722,16.545 L16.389,16.068 L16.722,15.589 L16.16,15.655 L15.931,15.111 Z M1.782,15.111 L1.553,15.655 L0.989,15.589 L1.324,16.068 L0.989,16.545 L1.553,16.482 L1.782,17.023 L2.01,16.482 L2.573,16.545 L2.239,16.068 L2.573,15.589 L2.01,15.655 L1.782,15.111 Z M3.503,16.736 C4.146,17.849 5.602,18.864 8.856,18.864 C12.11,18.864 13.565,17.849 14.208,16.736 L3.503,16.736 Z" id="path-27"></path>
    </defs>
    <g id="Symbols" stroke="none" stroke-width="1" fill="none" fill-rule="evenodd">
        <g id="Module/Clients" transform="translate(-86.000000, -153.000000)">
            <g id="Group" transform="translate(86.000000, 153.000000)">
                <polygon id="Fill-1" fill="#191818" points="31.048 29.775 32.213 29.775 32.213 1.836 31.048 1.836"></polygon>
                <polygon id="Fill-2" fill="#191818" points="58.6537 4.1644 52.0487 12.7704 45.4037 4.1644 42.6947 4.1644 42.6947 25.1184 45.5567 25.1184 45.5567 8.8134 51.7757 16.9134 52.3047 16.9134 58.4527 8.8134 58.4527 25.1184 61.3297 25.1184 61.3297 4.1644"></polygon>
                <path d="M72.8602,4.1644 L63.6582,25.1184 L66.8102,25.1184 L69.4872,18.9444 L78.6262,18.9444 L81.4822,25.1184 L84.6222,25.1184 L75.0152,4.1644 L72.8602,4.1644 Z M73.9092,8.7434 L77.3652,16.2894 L70.7042,16.2894 L73.9092,8.7434 Z" id="Fill-3" fill="#191818"></path>
                <g id="Group-6" transform="translate(89.000000, 4.030000)">
                    <mask id="mask-2" fill="white">
                        <use xlink:href="#path-1"></use>
                    </mask>
                    <g id="Clip-5"></g>
                    <polygon id="Fill-4" fill="#191818" mask="url(#mask-2)" points="-12.374 33.743 31.57 33.743 31.57 -12.52 -12.374 -12.52"></polygon>
                </g>
                <g id="Group-9" transform="translate(114.000000, 4.030000)">
                    <mask id="mask-4" fill="white">
                        <use xlink:href="#path-3"></use>
                    </mask>
                    <g id="Clip-8"></g>
                    <polygon id="Fill-7" fill="#191818" mask="url(#mask-4)" points="-11.751 33.743 29.864 33.743 29.864 -12.52 -11.751 -12.52"></polygon>
                </g>
                <polygon id="Fill-10" fill="#191818" points="133.538 25.118 135.868 25.118 135.868 4.164 133.538 4.164"></polygon>
                <g id="Group-13" transform="translate(142.000000, 4.030000)">
                    <mask id="mask-6" fill="white">
                        <use xlink:href="#path-5"></use>
                    </mask>
                    <g id="Clip-12"></g>
                    <polygon id="Fill-11" fill="#191818" mask="url(#mask-6)" points="-11.799 33.743 32.145 33.743 32.145 -12.52 -11.799 -12.52"></polygon>
                </g>
                <g id="Group-16" transform="translate(3.000000, 4.030000)">
                    <mask id="mask-8" fill="white">
                        <use xlink:href="#path-7"></use>
                    </mask>
                    <g id="Clip-15"></g>
                    <polygon id="Fill-14" fill="#191818" mask="url(#mask-8)" points="-12.559 14.613 29.056 14.613 29.056 -12.52 -12.559 -12.52"></polygon>
                </g>
                <g id="Group-19" transform="translate(3.000000, 6.030000)">
                    <mask id="mask-10" fill="white">
                        <use xlink:href="#path-9"></use>
                    </mask>
                    <g id="Clip-18"></g>
                    <polygon id="Fill-17" fill="#191818" mask="url(#mask-10)" points="-12.559 14.941 29.056 14.941 29.056 -12.192 -12.559 -12.192"></polygon>
                </g>
                <g id="Group-22" transform="translate(3.000000, 6.030000)">
                    <mask id="mask-12" fill="white">
                        <use xlink:href="#path-11"></use>
                    </mask>
                    <g id="Clip-21"></g>
                    <polygon id="Fill-20" fill="#191818" mask="url(#mask-12)" points="-12.559 14.941 15.08 14.941 15.08 -12.192 -12.559 -12.192"></polygon>
                </g>
                <g id="Group-25" transform="translate(17.000000, 6.030000)">
                    <mask id="mask-14" fill="white">
                        <use xlink:href="#path-13"></use>
                    </mask>
                    <g id="Clip-24"></g>
                    <polygon id="Fill-23" fill="#191818" mask="url(#mask-14)" points="-12.583 14.941 15.056 14.941 15.056 -12.192 -12.583 -12.192"></polygon>
                </g>
                <g id="Group-28" transform="translate(10.000000, 6.030000)">
                    <mask id="mask-16" fill="white">
                        <use xlink:href="#path-15"></use>
                    </mask>
                    <g id="Clip-27"></g>
                    <polygon id="Fill-26" fill="#191818" mask="url(#mask-16)" points="-12.571 14.941 15.068 14.941 15.068 -12.192 -12.571 -12.192"></polygon>
                </g>
                <polygon id="Fill-29" fill="#191818" points="5.4249 7.5223 6.5909 8.5513 7.7539 7.5223 6.5909 6.4923"></polygon>
                <polygon id="Fill-30" fill="#191818" points="14.7427 7.5223 15.9077 8.5513 17.0717 7.5223 15.9077 6.4923"></polygon>
                <g id="Group-33" transform="translate(17.000000, 6.030000)">
                    <mask id="mask-18" fill="white">
                        <use xlink:href="#path-17"></use>
                    </mask>
                    <g id="Clip-32"></g>
                    <polygon id="Fill-31" fill="#191818" mask="url(#mask-18)" points="-12.583 15.104 14.711 15.104 14.711 -12.192 -12.583 -12.192"></polygon>
                </g>
                <g id="Group-36" transform="translate(12.000000, 6.030000)">
                    <mask id="mask-20" fill="white">
                        <use xlink:href="#path-19"></use>
                    </mask>
                    <g id="Clip-35"></g>
                    <polygon id="Fill-34" fill="#191818" mask="url(#mask-20)" points="-12.242 15.104 15.055 15.104 15.055 -12.192 -12.242 -12.192"></polygon>
                </g>
                <g id="Group-39" transform="translate(10.000000, 6.030000)">
                    <mask id="mask-22" fill="white">
                        <use xlink:href="#path-21"></use>
                    </mask>
                    <g id="Clip-38"></g>
                    <polygon id="Fill-37" fill="#191818" mask="url(#mask-22)" points="-12.571 15.104 14.723 15.104 14.723 -12.192 -12.571 -12.192"></polygon>
                </g>
                <g id="Group-42" transform="translate(4.000000, 6.030000)">
                    <mask id="mask-24" fill="white">
                        <use xlink:href="#path-23"></use>
                    </mask>
                    <g id="Clip-41"></g>
                    <polygon id="Fill-40" fill="#191818" mask="url(#mask-24)" points="-12.522 13.731 13.638 13.731 13.638 -12.469 -12.522 -12.469"></polygon>
                </g>
                <g id="Group-45" transform="translate(0.000000, 0.030000)">
                    <mask id="mask-26" fill="white">
                        <use xlink:href="#path-25"></use>
                    </mask>
                    <g id="Clip-44"></g>
                    <polygon id="Fill-43" fill="#191818" mask="url(#mask-26)" points="-11.888 17.638 33.604 17.638 33.604 -12.142 -11.888 -12.142"></polygon>
                </g>
                <g id="Group-48" transform="translate(2.000000, 8.030000)">
                    <mask id="mask-28" fill="white">
                        <use xlink:href="#path-27"></use>
                    </mask>
                    <g id="Clip-47"></g>
                    <polygon id="Fill-46" fill="#191818" mask="url(#mask-28)" points="-12.306 34.396 30.018 34.396 30.018 -12.277 -12.306 -12.277"></polygon>
                </g>
            </g>
        </g>
    </g>
</svg>