<?xml version="1.0" encoding="UTF-8"?>
<svg width="118px" height="60px" viewBox="0 0 118 60" version="1.1" xmlns="http://www.w3.org/2000/svg" xmlns:xlink="http://www.w3.org/1999/xlink">
    <!-- Generator: Sketch 46.2 (44496) - http://www.bohemiancoding.com/sketch -->
    <title>Group 3</title>
    <desc>Created with Sketch.</desc>
    <defs></defs>
    <g id="Symbols" stroke="none" stroke-width="1" fill="none" fill-rule="evenodd">
        <g id="Module/Clients" transform="translate(-488.000000, -138.000000)">
            <g id="Group-3" transform="translate(488.000000, 138.000000)">
                <polygon id="Fill-61" fill="#000000" points="104.175 40.8598 102.735 41.1028 101.323 41.4668 99.941 41.9448 98.243 42.6278 96.514 43.3218 94.743 43.9088 93.194 44.2468 91.62 44.4338 90.033 44.4648 88.453 44.3408 86.891 44.0658 85.366 43.6408 82.712 42.6578 80.951 41.9748 79.151 41.3888 77.599 41.0508 76.019 40.8618 74.432 40.8288 72.845 40.9498 71.278 41.2218 69.746 41.6428 67.011 42.6408 65.186 43.3318 63.325 43.9218 61.613 44.2578 59.873 44.4188 58.127 44.4038 56.388 44.2118 54.682 43.8438 53.02 43.3058 51.261 42.6318 49.481 41.9558 47.669 41.3728 46.114 41.0378 44.535 40.8528 42.945 40.8218 41.36 40.9428 39.794 41.2148 38.261 41.6358 35.539 42.6348 33.719 43.3248 31.862 43.9148 30.154 44.2548 28.419 44.4188 26.676 44.4038 24.944 44.2118 23.241 43.8438 21.586 43.3018 19.831 42.6248 18.05 41.9388 16.231 41.3558 14.393 40.9898 12.524 40.8118 10.646 40.8248 8.781 41.0288 6.948 41.4188 4.198 42.2128 0.844 43.3228 0.847 59.4578 117.312 59.4448 117.312 43.4108 116.874 43.2618 114.462 42.3948 112.001 41.6808 109.498 41.1198 107.735 40.8618 105.954 40.7758"></polygon>
                <polygon id="Fill-62" fill="#000000" points="0.8029 0.8728 0.8019 39.3068 4.1559 38.1958 6.9059 37.4028 8.7399 37.0118 10.6049 36.8078 12.4799 36.7958 14.3489 36.9748 16.1889 37.3418 18.0059 37.9238 19.7899 38.6078 21.5419 39.2868 23.1989 39.8268 24.9019 40.1958 26.6339 40.3888 28.3769 40.4028 30.1119 40.2398 31.8219 39.8998 33.6759 39.3098 35.4959 38.6208 38.2179 37.6218 39.7519 37.1988 41.3169 36.9268 42.9019 36.8048 44.4929 36.8368 46.0719 37.0218 47.6279 37.3568 49.4389 37.9388 51.2199 38.6148 52.9779 39.2898 54.6379 39.8278 56.3469 40.1958 58.0839 40.3868 59.8289 40.4028 61.5679 40.2418 63.2809 39.9048 65.1419 39.3168 66.9689 38.6238 69.7029 37.6268 71.2359 37.2058 72.8019 36.9318 74.3869 36.8108 75.9769 36.8488 77.5569 37.0348 79.1099 37.3728 80.9059 37.9588 82.6709 38.6408 85.3209 39.6258 86.8489 40.0518 88.4109 40.3268 89.9919 40.4478 91.5769 40.4158 93.1509 40.2328 94.6999 39.8928 96.4709 39.3048 98.1999 38.6128 99.9009 37.9298 101.2789 37.4498 102.6939 37.0858 104.1319 36.8428 105.9129 36.7598 107.6919 36.8488 109.4569 37.1048 111.9579 37.6628 114.4179 38.3788 116.8309 39.2478 117.3029 39.3938 117.3039 0.8588"></polygon>
                <polygon id="Fill-63" fill="#FFFFFF" points="102.7845 7.0189 102.7445 7.1589 102.8195 7.2859 103.6315 7.3079 103.8545 7.4819 103.9535 7.7469 103.9655 12.9099 103.8605 13.0319 103.0695 13.0319 103.0695 13.3889 109.9945 13.3889 110.4285 12.4439 110.3135 12.3209 110.1465 12.3149 109.8945 12.5759 109.5805 12.7499 109.2275 12.8279 107.6365 12.9909 106.0345 12.9799 105.8755 12.8829 105.7775 12.7239 105.6655 11.3969 105.6765 10.0689 107.1215 10.0579 108.5625 10.1709 108.7065 10.4339 108.6905 10.7319 109.1425 10.7259 109.1515 8.9429 108.6905 8.9429 108.7135 9.2649 108.5655 9.5509 108.2865 9.7139 105.6765 9.7099 105.6765 7.4889 105.8805 7.3609 108.0445 7.3589 108.5425 7.4089 109.0185 7.5559 109.4565 7.7939 109.4605 7.9509 109.5835 8.0519 109.7375 8.0239 109.9675 7.0029 103.3775 7.0029 102.9185 6.9509"></polygon>
                <polygon id="Fill-64" fill="#FFFFFF" points="106.2297 20.3002 105.5697 20.4212 104.9357 20.6452 99.5937 32.1932 99.3147 32.5512 98.8137 32.5402 98.3177 32.6282 98.3177 33.2152 102.7127 33.2152 102.7127 32.6022 101.3837 32.5792 101.1677 32.5542 100.9807 32.4342 100.8717 32.2462 101.1697 31.0122 101.5867 29.8162 102.1237 28.6682 106.5957 28.6682 106.7367 28.7322 107.9997 32.0412 108.0777 32.4742 107.8727 32.6022 106.7487 32.6022 106.7487 33.2682 112.1647 33.2682 112.1647 32.6022 111.7887 32.6762 111.4077 32.6262 111.0617 32.4602 110.7867 32.1932 109.2697 28.7252 107.8717 25.2062 106.5957 21.6432 106.5017 21.2992 106.5697 20.9522 106.7587 20.7762 106.8757 20.5442 106.9037 20.2882"></polygon>
                <polygon id="Fill-65" fill="#FFFFFF" points="91.8289 7.2574 92.6459 7.2814 92.8939 7.3814 93.0399 7.6034 93.0309 7.8704 93.0549 12.9784 92.2119 12.9784 92.1299 13.1594 92.2119 13.3374 97.0919 13.3104 97.9179 13.2124 98.7219 13.0064 99.4939 12.6994 100.0939 12.3674 100.5949 11.9014 100.9699 11.3274 101.1979 10.6814 101.2599 9.9994 101.1609 9.3224 100.8979 8.6864 100.2649 8.0754 99.5329 7.5844 98.7269 7.2324 97.8679 7.0274 96.9899 6.9764 91.8289 6.9504"></polygon>
                <polygon id="Fill-66" fill="#FFFFFF" points="90.8578 20.5945 90.7838 20.8185 90.8108 21.0565 90.9348 21.2565 92.1878 21.2565 92.3908 21.3785 92.5318 21.5655 92.5978 21.7945 92.6788 27.1335 92.6468 32.4745 92.4938 32.5505 91.3688 32.5505 91.3688 33.2155 96.9898 33.2155 96.9898 32.6275 96.8368 32.5505 95.6608 32.5505 95.3658 32.2685 95.2048 31.8915 95.2018 31.4815 95.2018 21.3855 95.4058 21.2565 96.4788 21.2565 96.4788 20.5945"></polygon>
                <polygon id="Fill-67" fill="#FFFFFF" points="81.9379 5.4439 81.2839 5.7639 80.6789 6.1719 80.6789 6.2479 80.9979 6.4409 82.0539 5.9519 83.1439 5.5449 82.9149 5.3399 82.6309 5.2139"></polygon>
                <polygon id="Fill-68" fill="#FFFFFF" points="80.2297 6.8227 79.3397 6.9817 78.5047 7.3237 77.7577 7.8307 77.1297 8.4827 76.6517 9.2507 76.4727 9.9627 76.4887 10.6957 76.6967 11.3997 77.0837 12.0227 77.6237 12.5197 78.5957 13.0187 79.6347 13.3557 80.7137 13.5227 81.8047 13.5137 82.8807 13.3327 83.9157 12.9807 84.8807 12.4697 85.4167 12.0427 85.8407 11.5007 86.1247 10.8747 86.2497 10.1987 86.2117 9.5097 86.0137 8.8547 85.6637 8.2617 85.1857 7.7707 84.2797 7.2707 83.3057 6.9227 82.2917 6.7277 81.2567 6.6947"></polygon>
                <polygon id="Fill-69" fill="#FFFFFF" points="83.7559 20.2102 82.5079 20.3122 81.2909 20.5932 80.1249 21.0512 79.0379 21.6722 78.0539 22.4442 77.1939 23.3532 76.4749 24.3762 76.0489 25.3182 75.7869 26.3182 75.6969 27.3492 75.7789 28.3802 76.0299 29.3832 76.4479 30.3292 77.0169 31.1922 77.7219 31.9502 78.5429 32.5782 79.8649 33.0792 81.2399 33.4212 82.6409 33.5962 84.0569 33.6022 85.4609 33.4382 86.8359 33.1092 88.1619 32.6162 88.3179 32.0272 88.3809 31.4212 88.3549 30.8142 88.3679 30.6162 88.2429 30.4592 88.0459 30.4312 87.8809 30.5462 87.7479 30.9782 87.5359 31.3762 86.7249 31.9972 85.8109 32.4562 84.8259 32.7362 83.8069 32.8272 82.7899 32.7242 81.8079 32.4352 80.8989 31.9632 80.0959 31.3292 79.4229 30.5582 78.9079 29.6742 78.5679 28.7092 78.4149 27.6972 78.3509 26.6222 78.4849 25.5522 78.8159 24.5272 79.3289 23.5822 80.0069 22.7462 80.8319 22.0512 81.7679 21.5202 82.7879 21.1722 83.8539 21.0192 84.9289 21.0662 85.9769 21.3092 86.4699 21.4542 86.8979 21.7392 87.2159 22.1442 87.3959 22.6252 87.7149 22.6882 87.8959 22.3062 88.0479 20.9272 87.0139 20.5592 85.9429 20.3172 84.8529 20.1992"></polygon>
                <polygon id="Fill-70" fill="#FFFFFF" points="70.9299 6.8992 70.9299 7.2082 71.7229 7.2082 71.9339 7.2782 72.0859 7.4452 72.1319 7.6672 72.1569 12.9292 71.2879 12.9782 71.2879 13.2872 75.1209 13.2872 75.1209 12.9782 74.3279 12.9782 74.1009 12.9062 73.9429 12.7302 73.8949 12.4952 73.8949 7.2562 74.7629 7.2562 74.7629 6.8992"></polygon>
                <polygon id="Fill-71" fill="#FFFFFF" points="69.2955 20.5432 69.2955 21.2072 70.5225 21.2322 70.7355 21.2722 70.9025 21.4122 70.9825 21.6162 71.1095 22.5872 71.2135 26.0992 71.1845 29.6122 62.5235 20.5432 58.7695 20.5432 58.7955 21.2072 59.2585 21.1582 59.7165 21.2602 60.1195 21.4962 60.4275 21.8482 60.6065 22.2812 60.7355 27.3512 60.7125 32.4232 60.4295 32.5512 59.4335 32.5512 59.4335 33.2152 63.4695 33.2152 63.4695 32.5512 62.2695 32.5512 61.9635 32.4022 61.7685 32.1222 61.7385 31.7832 61.6295 30.1992 61.6295 22.9702 71.6455 33.3422 71.7825 33.4332 71.9445 33.4112 72.0545 33.2922 72.0545 21.4622 72.1805 21.2842 72.3855 21.2072 73.3315 21.2072 73.3315 20.5432"></polygon>
                <polygon id="Fill-72" fill="#FFFFFF" points="49.4551 17.413 49.1111 17.758 50.7141 18.702 52.3571 19.573 52.7911 19.138 51.7561 18.241 50.6381 17.45 50.2781 17.258 49.8791 17.17"></polygon>
                <polygon id="Fill-73" fill="#FFFFFF" points="45.8416 20.5432 45.8416 21.1312 47.3226 21.2852 47.5206 21.6002 47.6166 21.9612 47.6036 22.3322 47.6286 32.4232 47.4246 32.5512 46.3526 32.5512 46.3526 33.2152 56.4926 33.2152 56.5716 33.0882 57.0846 31.4532 57.1026 31.2562 56.9736 31.1062 56.7746 31.0942 56.4226 31.4842 56.0096 31.8112 54.5726 32.1932 53.0976 32.4002 51.6116 32.4242 51.0146 32.4052 50.4406 32.2462 50.2596 31.7262 50.1726 31.1842 50.1856 30.6342 50.1856 30.4812 50.1486 28.5792 50.1856 26.6742 53.6876 26.6662 54.0006 26.6862 54.2906 26.8032 54.5286 27.0072 54.5286 27.9532 55.1926 27.9532 55.1926 24.4252 54.5286 24.4252 54.5286 25.4502 54.3286 25.7082 54.0376 25.8622 53.7116 25.8832 51.9616 25.9752 50.2116 25.9602 50.1326 25.8562 50.1326 21.5902 50.2626 21.3092 52.9026 21.3422 53.8376 21.3522 54.7496 21.5642 55.5936 21.9692 55.6296 22.2812 55.7996 22.5452 55.9726 22.5622 56.1266 22.4822 56.2146 22.3322 56.4436 20.5432"></polygon>
                <polygon id="Fill-74" fill="#FFFFFF" points="41.6764 6.847 41.2164 7.819 41.2664 7.922 41.5084 7.925 41.7204 7.814 41.8554 7.616 42.7474 7.329 43.6784 7.209 44.6144 7.257 44.6144 12.852 44.1814 12.973 43.7314 12.999 43.2864 12.929 43.2864 13.237 47.8854 13.237 47.8854 12.929 46.7874 12.929 46.5734 12.858 46.4234 12.69 46.3774 12.469 46.3524 7.257 47.6804 7.282 48.3474 7.323 48.9704 7.561 49.4944 7.972 49.6614 7.967 49.7764 7.845 49.2894 6.847"></polygon>
                <polygon id="Fill-75" fill="#FFFFFF" points="33.1183 20.4928 33.1183 21.1568 34.3443 21.1818 34.6253 21.3238 34.8263 21.5658 34.9163 21.8668 34.8813 22.1788 34.9073 32.5028 33.6283 32.5508 33.6283 33.1648 38.7023 33.2578 43.7703 33.2158 44.0803 32.5778 44.2773 31.9008 44.3583 31.1968 44.2203 31.0648 44.0273 31.0688 43.5913 31.5788 43.0313 31.9468 42.3933 32.1428 40.9283 32.3498 39.4503 32.4368 37.9733 32.3968 37.7753 32.2868 37.6403 32.1078 37.5893 31.8868 37.4063 28.3348 37.3693 24.7768 37.4733 21.2198 38.0753 21.0998 38.6873 21.1568 38.6873 20.4928"></polygon>
                <polygon id="Fill-76" fill="#FFFFFF" points="37.3591 6.8479 37.3591 7.1559 38.3561 7.2059 38.5331 7.4629 38.6231 7.7629 38.6111 8.0749 38.6111 11.2429 38.4611 11.7779 38.1381 12.2269 37.5501 12.6019 36.9021 12.8509 36.2171 12.9719 35.5211 12.9549 34.9641 12.9279 34.4371 12.7559 33.9741 12.4479 33.6101 12.0259 33.3741 11.5239 33.3061 9.3789 33.3231 7.2329 33.5991 7.1159 33.8981 7.0889 34.1911 7.1559 34.1911 6.8479 30.3601 6.8479 30.3601 7.1559 31.1761 7.1799 31.4231 7.2779 31.5691 7.5009 31.5601 7.7709 31.6121 11.6009 31.7531 12.0449 32.0071 12.4369 32.3501 12.7499 33.2521 13.1249 34.2011 13.3609 35.1721 13.4569 36.1481 13.4059 37.1021 13.2119 37.6961 13.0509 38.2321 12.7529 38.6831 12.3339 39.0191 11.8209 39.2231 11.2429 39.2501 7.2819 39.6691 7.1249 40.1181 7.1559 40.1181 6.8479"></polygon>
                <polygon id="Fill-77" fill="#FFFFFF" points="21.9294 7.1557 22.7204 7.1557 22.9334 7.2257 23.0844 7.3947 23.1304 7.6147 23.1544 12.8787 22.2854 12.8787 22.2854 13.2367 26.1174 13.2367 26.1174 12.8787 25.1204 12.8787 24.9704 12.6977 24.9164 12.4697 24.8924 10.2457 25.9644 10.3507 27.0394 10.2737 28.0844 10.0167 28.5364 9.8787 28.9264 9.6117 29.2164 9.2417 29.3854 8.7997 29.4134 8.3287 29.1184 7.8007 28.6974 7.3627 28.1774 7.0517 27.5944 6.8837 26.9874 6.8757 21.9294 6.8467"></polygon>
                <polygon id="Fill-78" fill="#FFFFFF" points="25.4215 20.2354 24.5205 20.4784 19.0535 32.3854 18.6995 32.5334 18.3195 32.5744 17.9415 32.5014 17.9415 33.1644 22.3105 33.1644 22.2585 32.5014 20.8285 32.5004 20.6015 32.4214 20.4575 32.2294 20.4455 31.9884 20.9875 30.2724 21.6995 28.6184 26.2985 28.6184 27.0885 30.7114 27.3725 31.2744 27.5615 31.8754 27.6505 32.5014 27.2055 32.4304 26.7565 32.4574 26.3205 32.5794 26.3205 33.2164 31.7895 33.2164 31.7895 32.5514 31.2665 32.5794 30.7665 32.4184 30.3585 32.0924 28.4095 27.5524 26.6285 22.9444 26.3335 22.2874 26.1445 21.5914 26.0675 20.8754 26.4755 20.4674 26.4805 20.2744 26.3465 20.1354"></polygon>
                <polygon id="Fill-79" fill="#FFFFFF" points="16.4611 6.8479 16.4611 7.1559 17.0111 7.1029 17.5461 7.2449 17.7221 9.1169 17.7601 10.9999 17.6611 12.8799 16.8171 12.8799 16.8171 13.2359 20.6511 13.2359 20.6511 12.8799 19.7321 12.8799 19.5451 12.7459 19.4451 12.5439 19.4501 12.3149 19.4241 7.2329 19.7011 7.1159 20.0001 7.0889 20.2931 7.1559 20.2931 6.8479"></polygon>
                <polygon id="Fill-80" fill="#FFFFFF" points="5.5792 7.0027 5.5502 7.1567 6.3182 7.1567 6.5352 7.1917 6.6892 7.3467 6.7272 7.5657 6.7532 12.8787 5.8822 12.8787 5.8822 13.2367 10.6862 13.2097 11.5282 13.1307 12.3492 12.9257 13.1302 12.5997 13.8542 12.1617 14.3462 11.7357 14.7192 11.2017 14.9502 10.5957 15.0262 9.9457 14.9442 9.2997 14.7052 8.6947 14.3272 8.1637 13.6012 7.6387 12.7942 7.2407 11.9362 6.9837 11.0442 6.8757 5.5502 6.8467"></polygon>
                <polygon id="Fill-81" fill="#FFFFFF" points="15.49 20.4928 15.49 21.1568 16.87 21.1568 17.09 21.2868 17.179 21.5258 17.098 21.7688 16.067 24.5148 14.909 27.2088 13.624 29.8458 11.529 25.5428 9.612 21.1568 10.891 21.1568 10.814 20.4928 5.526 20.4928 5.526 21.1568 6.369 21.1568 6.704 21.2988 6.969 21.5478 7.134 21.8728 12.588 33.5608 12.857 33.6238 13.114 33.2158 18.528 21.1568 19.629 21.1568 19.629 20.4928"></polygon>
                <polygon id="Fill-82" fill="#FFFFFF" points="16.0992 47.581 15.9872 47.582 15.6372 47.582 15.5182 47.581 15.3502 47.579 15.1892 47.98 14.4762 49.659 13.6592 51.551 12.8752 53.355 12.6762 53.79 12.8392 53.789 13.0092 53.787 13.0912 53.787 13.1652 53.787 13.3142 53.79 13.4772 53.79 13.5572 53.582 14.5302 51.169 16.5982 51.17 17.3532 53.79 17.5002 53.789 17.6692 53.787 17.7622 53.787 17.8202 53.787 17.9622 53.79 18.1272 53.79 18.0212 53.46 17.9702 53.295 17.4172 51.473 16.8812 49.732 16.3642 47.984 16.2452 47.579"></polygon>
                <polygon id="Fill-83" fill="#FFFFFF" points="19.5769 49.1776 19.3569 49.1786 19.3089 49.1786 19.1449 49.1776 19.0149 49.1746 18.9899 50.8236 18.9559 52.2086 18.8609 54.2556 18.8219 54.5696 18.7019 54.9606 18.5339 55.1846 18.3609 55.2966 18.1659 55.3606 17.7109 55.3646 17.1379 55.2006 17.1439 55.3016 17.1479 55.3336 17.1659 55.5326 17.1799 55.7566 17.1869 55.8536 17.6229 55.9446 18.0709 55.9936 18.5209 55.9656 18.9229 55.8266 19.2389 55.5446 19.4229 55.1636 19.5139 54.5296 19.5549 53.5576 19.5909 52.2236 19.6859 49.5356 19.7029 49.1746"></polygon>
                <polygon id="Fill-84" fill="#FFFFFF" points="19.6345 47.5405 19.5485 47.5425 19.1695 47.5425 19.0395 47.5405 19.0365 47.6605 19.0325 47.7435 19.0315 47.8415 19.0275 47.9175 19.0245 48.0425 19.0185 48.1855 19.1595 48.1845 19.2495 48.1835 19.4955 48.1835 19.6115 48.1845 19.7495 48.1855 19.7535 48.0685 19.7585 47.8605 19.7665 47.6545 19.7715 47.5405"></polygon>
                <polygon id="Fill-85" fill="#FFFFFF" points="24.0201 49.1767 23.9051 49.1787 23.8071 49.1767 23.7211 49.1767 23.5861 49.1767 23.4621 49.1767 23.4561 49.5557 23.3831 51.5237 23.3071 52.1157 23.1891 52.4847 22.9961 52.8177 22.8291 52.9927 22.4891 53.1807 22.1091 53.2577 21.7231 53.2157 21.4781 53.1237 21.2681 52.9747 21.1401 52.8087 21.0651 52.6107 21.0091 52.1817 21.0391 51.2547 21.0821 50.4227 21.1331 49.5377 21.1411 49.4177 21.1591 49.1767 21.0431 49.1767 20.9341 49.1767 20.7401 49.1787 20.5991 49.1767 20.4751 49.1767 20.4751 49.3877 20.3911 51.6357 20.3641 52.3267 20.4331 53.0007 20.5651 53.3067 20.7821 53.5597 21.0651 53.7367 21.5241 53.8697 22.0021 53.8847 22.4691 53.7837 22.8711 53.5727 23.1741 53.2367 23.3371 52.9127 23.3171 53.7877 23.4421 53.7847 23.5381 53.7837 23.7111 53.7837 23.8351 53.7867 23.9581 53.7877 24.0041 51.8337 24.0511 50.7667 24.1211 49.4417 24.1381 49.1767"></polygon>
                <polygon id="Fill-86" fill="#FFFFFF" points="26.6805 49.1317 26.3385 49.2527 26.0405 49.4567 25.8065 49.7307 25.6195 50.0847 25.6665 49.1767 25.5575 49.1767 25.4455 49.1787 25.3445 49.1787 25.2635 49.1787 25.1255 49.1767 24.9895 49.1767 24.9845 49.5267 24.8275 53.3107 24.7975 53.7877 24.9375 53.7847 25.0295 53.7847 25.1735 53.7837 25.3805 53.7867 25.4925 53.7877 25.4985 53.5017 25.5655 51.5927 25.6585 50.8757 25.7695 50.5157 25.9615 50.1907 26.1385 49.9967 26.3565 49.8497 26.8485 49.7187 27.3535 49.7797 27.6255 49.9137 27.8295 50.1377 27.9435 50.4187 27.9815 50.8647 27.9565 51.6617 27.9185 52.5387 27.8505 53.7877 27.9635 53.7847 28.0425 53.7847 28.1985 53.7847 28.3245 53.7847 28.4145 53.7867 28.5295 53.7877 28.6055 51.4937 28.6385 50.5857 28.5655 49.9507 28.3975 49.5847 28.1075 49.3067 27.7745 49.1587 27.2295 49.0747"></polygon>
                <polygon id="Fill-87" fill="#FFFFFF" points="30.1617 48.1957 29.9567 48.2527 29.7537 48.2967 29.6507 48.3237 29.6437 48.5777 29.6137 49.1967 29.0887 49.1947 29.0847 49.2867 29.0787 49.4707 29.0717 49.6517 29.0707 49.6847 29.0667 49.7527 29.5767 49.7527 29.5637 50.0627 29.5197 51.0177 29.4947 51.5437 29.4447 52.8117 29.4717 53.1907 29.6167 53.5637 29.7647 53.7227 29.9587 53.8247 30.2597 53.8857 30.5647 53.8857 31.1237 53.7757 31.1337 53.7007 31.1387 53.6627 31.1677 53.4797 31.1967 53.2887 31.2017 53.2617 31.2137 53.1767 30.8687 53.2657 30.6207 53.2887 30.5387 53.2797 30.3287 53.1927 30.1847 53.0177 30.1297 52.8207 30.1077 52.4467 30.1427 51.3687 30.1607 50.9487 30.2027 50.0417 30.2127 49.7527 31.2757 49.7527 31.2807 49.6307 31.2837 49.4717 31.2897 49.3007 31.2897 49.2807 31.2937 49.1967 30.2317 49.1947 30.2337 49.0467 30.2357 48.9737 30.2457 48.6747 30.2547 48.3697 30.2557 48.3287 30.2627 48.1697"></polygon>
                <polygon id="Fill-88" fill="#FFFFFF" points="33.0868 49.0885 32.0338 49.3165 32.0228 49.3985 32.0198 49.4235 32.0008 49.5965 31.9978 49.6205 31.9768 49.7715 31.9708 49.8225 31.9578 49.9175 32.6558 49.6605 33.3898 49.5575 33.8278 49.6105 34.0888 49.7595 34.2528 50.0115 34.2848 50.3095 34.1788 50.5915 34.0908 50.6965 33.9608 50.8035 33.4028 51.0275 32.3558 51.3805 31.9818 51.6005 31.7008 51.8795 31.5178 52.2335 31.4498 52.6215 31.5378 53.1645 31.6748 53.4405 31.8888 53.6575 32.1608 53.7965 32.8148 53.8895 33.6338 53.7935 33.6528 53.6955 33.6758 53.5935 33.7238 53.3725 33.7348 53.3265 33.7568 53.2395 33.2078 53.3915 32.9008 53.4095 32.5938 53.3635 32.3078 53.2065 32.1288 52.9325 32.0828 52.6955 32.1038 52.4515 32.2328 52.1745 32.4258 51.9825 32.6538 51.8355 33.1928 51.6175 33.5828 51.4895 33.9558 51.3225 34.2888 51.0835 34.2748 51.3735 34.2728 51.4355 34.2378 52.3805 34.1708 53.5505 34.1528 53.7885 34.2728 53.7845 34.7058 53.7845 34.7488 53.7845 34.8398 53.7885 34.9078 51.5435 34.9608 50.2685 34.9158 49.8505 34.7488 49.5065 34.4958 49.2885 34.1878 49.1605 33.6408 49.0745"></polygon>
                <polygon id="Fill-89" fill="#FFFFFF" points="37.2484 49.1461 36.8814 49.3571 36.6014 49.6731 36.4064 50.0241 36.4424 49.1771 36.3104 49.1771 36.1814 49.1771 36.1094 49.1771 36.0284 49.1781 35.9054 49.1771 35.7924 49.1771 35.7404 51.3351 35.6234 53.7871 35.7584 53.7851 36.0854 53.7851 36.1844 53.7861 36.3104 53.7871 36.3984 51.2571 36.5294 50.5461 36.6634 50.2451 36.8654 49.9801 37.1694 49.7761 37.5304 49.7081 37.8484 49.7821 38.1024 49.9901 38.2384 50.2871 38.2704 50.5771 38.2604 51.2371 38.2184 52.3291 38.1644 53.4731 38.1444 53.7871 38.2844 53.7851 38.3794 53.7851 38.6094 53.7851 38.7064 53.7861 38.8264 53.7871 38.8374 53.3301 38.8604 52.3161 38.8814 51.7021 38.9124 51.2061 39.0284 50.5441 39.2084 50.1731 39.4934 49.8721 39.8054 49.7281 40.1694 49.7191 40.4354 49.8081 40.6434 49.9961 40.7594 50.2521 40.7874 50.5101 40.7754 51.2241 40.7274 52.2731 40.6684 53.4931 40.6494 53.7871 40.7804 53.7851 40.8734 53.7851 41.0224 53.7841 41.1374 53.7851 41.2224 53.7861 41.3314 53.7871 41.3754 52.1821 41.4304 51.0221 41.4594 50.3291 41.4104 49.9061 41.2234 49.5081 40.8894 49.2231 40.5914 49.1151 40.2784 49.0751 39.7944 49.1411 39.3644 49.3691 39.0414 49.7331 38.8974 50.0141 38.8274 49.7911 38.6834 49.5131 38.4584 49.2901 38.0774 49.1121 37.6594 49.0621"></polygon>
                <polygon id="Fill-90" fill="#FFFFFF" points="43.0786 49.228 42.6266 49.521 42.3396 49.863 42.1316 50.259 41.9306 51.004 41.8946 51.774 42.0146 52.499 42.3196 53.165 42.6056 53.493 42.9736 53.72 43.3486 53.834 43.7376 53.886 44.3546 53.861 44.9606 53.738 45.0866 53.704 45.1026 53.576 45.1256 53.411 45.1316 53.38 45.1586 53.196 45.1616 53.167 45.1776 53.06 44.3256 53.318 43.9936 53.348 43.6586 53.316 43.2036 53.128 42.8566 52.777 42.6416 52.292 42.5606 51.768 42.5746 51.285 45.4866 51.282 45.4816 50.563 45.3416 50.012 45.0396 49.529 44.7016 49.263 44.1626 49.095 43.5976 49.089"></polygon>
                <polygon id="Fill-91" fill="#FFFFFF" points="47.5245 49.1317 47.1845 49.2527 46.8865 49.4567 46.6505 49.7307 46.4635 50.0847 46.5095 49.1767 46.4015 49.1767 46.2905 49.1787 46.1875 49.1787 46.1085 49.1787 45.9695 49.1767 45.8325 49.1767 45.8285 49.5267 45.6705 53.3107 45.6415 53.7877 45.7815 53.7847 45.8745 53.7847 46.0165 53.7837 46.2255 53.7867 46.3375 53.7877 46.3425 53.5017 46.4095 51.5927 46.5005 50.8757 46.6145 50.5157 46.8065 50.1907 46.9835 49.9967 47.2025 49.8497 47.6915 49.7187 48.1975 49.7797 48.4695 49.9137 48.6745 50.1377 48.7885 50.4187 48.8265 50.8647 48.7995 51.6617 48.7625 52.5387 48.6945 53.7877 48.8075 53.7847 48.8865 53.7847 49.0445 53.7847 49.1675 53.7847 49.2575 53.7867 49.3735 53.7877 49.4515 51.4937 49.4825 50.5857 49.4105 49.9507 49.2425 49.5847 48.9515 49.3067 48.6185 49.1587 48.0745 49.0747"></polygon>
                <polygon id="Fill-92" fill="#FFFFFF" points="51.0057 48.1957 50.8007 48.2527 50.5987 48.2967 50.4947 48.3237 50.4877 48.5777 50.4587 49.1967 49.9317 49.1947 49.9287 49.2867 49.9227 49.4707 49.9157 49.6517 49.9137 49.6847 49.9107 49.7527 50.4197 49.7527 50.4067 50.0627 50.3647 51.0177 50.3387 51.5437 50.2897 52.8117 50.3157 53.1907 50.4597 53.5637 50.6107 53.7227 50.8027 53.8247 51.1037 53.8857 51.4077 53.8857 51.9687 53.7757 51.9777 53.7007 51.9837 53.6627 52.0127 53.4797 52.0407 53.2887 52.0457 53.2617 52.0587 53.1767 51.7137 53.2657 51.4647 53.2887 51.3817 53.2797 51.1727 53.1927 51.0287 53.0177 50.9747 52.8207 50.9507 52.4467 50.9857 51.3687 51.0057 50.9487 51.0467 50.0417 51.0557 49.7527 52.1207 49.7527 52.1257 49.6307 52.1287 49.4717 52.1337 49.3007 52.1347 49.2807 52.1387 49.1967 51.0757 49.1947 51.0777 49.0467 51.0807 48.9737 51.0887 48.6747 51.0997 48.3697 51.1007 48.3287 51.1067 48.1697"></polygon>
                <polygon id="Fill-93" fill="#FFFFFF" points="60.9805 47.5765 60.9335 47.5765 60.7085 47.5745 60.5035 47.5765 60.4755 47.5765 60.3745 47.5745 60.3655 48.9955 60.3565 49.1655 59.7155 49.0795 59.0685 49.1085 58.4775 49.2805 57.9665 49.6225 57.5805 50.1005 57.3205 50.6975 57.1785 51.3345 57.1605 51.9845 57.2665 52.6275 57.3785 52.9375 57.5465 53.2215 57.8895 53.5785 58.3315 53.8045 58.8235 53.8785 59.3115 53.7905 59.7465 53.5525 60.0835 53.1865 60.2825 52.8085 60.2375 53.7875 60.3165 53.7845 60.3555 53.7835 60.7415 53.7835 60.7895 53.7845 60.8855 53.7875 60.9185 51.6105 60.9785 49.6605 61.0485 48.0095 61.0725 47.5745"></polygon>
                <polygon id="Fill-94" fill="#FFFFFF" points="62.55 47.5765 62.332 47.5785 62.277 47.5785 62.15 47.5765 62.014 47.5755 61.972 47.7345 61.664 48.8495 61.589 49.1035 61.647 49.1015 61.674 49.1015 61.762 49.1005 61.79 49.1015 61.871 49.1015 61.899 49.1015 61.961 49.1035 62.062 48.8905 62.346 48.3135 62.605 47.8125 62.629 47.7675 62.722 47.5755"></polygon>
                <polygon id="Fill-95" fill="#FFFFFF" points="66.646 47.581 66.534 47.582 66.186 47.582 66.065 47.581 65.898 47.579 65.738 47.98 65.024 49.659 64.209 51.551 63.423 53.355 63.224 53.79 63.387 53.789 63.557 53.787 63.641 53.787 63.712 53.787 63.862 53.79 64.025 53.79 64.105 53.582 65.079 51.169 67.145 51.17 67.9 53.79 68.049 53.789 68.216 53.787 68.309 53.787 68.366 53.787 68.511 53.79 68.674 53.79 68.568 53.46 68.517 53.295 67.965 51.473 67.428 49.732 66.91 47.984 66.793 47.579"></polygon>
                <polygon id="Fill-96" fill="#FFFFFF" points="70.1245 49.1776 69.9035 49.1786 69.8555 49.1786 69.6915 49.1776 69.5635 49.1746 69.5405 50.8236 69.5025 52.2086 69.4105 54.2556 69.3685 54.5696 69.2505 54.9606 69.0815 55.1846 68.9085 55.2966 68.7135 55.3606 68.2595 55.3646 67.6845 55.2006 67.6935 55.3016 67.6945 55.3336 67.7135 55.5326 67.7305 55.7566 67.7345 55.8536 68.1705 55.9446 68.6175 55.9936 69.0695 55.9656 69.4695 55.8266 69.7855 55.5446 69.9705 55.1636 70.0625 54.5296 70.1015 53.5576 70.1395 52.2236 70.2335 49.5356 70.2495 49.1746"></polygon>
                <polygon id="Fill-97" fill="#FFFFFF" points="70.1821 47.5405 70.0961 47.5425 69.7161 47.5425 69.5861 47.5405 69.5831 47.6605 69.5791 47.7435 69.5781 47.8415 69.5771 47.9175 69.5711 48.0425 69.5671 48.1855 69.7071 48.1845 69.7961 48.1835 70.0421 48.1835 70.1591 48.1845 70.2981 48.1855 70.3011 48.0685 70.3061 47.8605 70.3141 47.6545 70.3201 47.5405"></polygon>
                <polygon id="Fill-98" fill="#FFFFFF" points="74.5687 49.1767 74.4517 49.1787 74.3537 49.1767 74.2677 49.1767 74.1327 49.1767 74.0087 49.1767 74.0007 49.5557 73.9307 51.5237 73.8547 52.1157 73.7357 52.4847 73.5417 52.8177 73.3777 52.9927 73.0377 53.1807 72.6557 53.2577 72.2687 53.2157 72.0257 53.1237 71.8137 52.9747 71.6847 52.8087 71.6127 52.6107 71.5567 52.1817 71.5847 51.2547 71.6297 50.4227 71.6817 49.5377 71.6887 49.4177 71.7057 49.1767 71.5917 49.1767 71.4817 49.1767 71.2877 49.1787 71.1457 49.1767 71.0217 49.1767 71.0217 49.3877 70.9377 51.6357 70.9107 52.3267 70.9817 53.0007 71.1127 53.3067 71.3287 53.5597 71.6127 53.7367 72.0707 53.8697 72.5497 53.8847 73.0187 53.7837 73.4177 53.5727 73.7207 53.2367 73.8857 52.9127 73.8637 53.7877 73.9897 53.7847 74.0847 53.7837 74.2587 53.7837 74.3797 53.7867 74.5067 53.7877 74.5507 51.8337 74.5997 50.7667 74.6667 49.4417 74.6847 49.1767"></polygon>
                <polygon id="Fill-99" fill="#FFFFFF" points="77.2281 49.1317 76.8871 49.2527 76.5881 49.4567 76.3551 49.7307 76.1661 50.0847 76.2131 49.1767 76.1041 49.1767 75.9931 49.1787 75.8911 49.1787 75.8111 49.1787 75.6721 49.1767 75.5351 49.1767 75.5321 49.5267 75.3741 53.3107 75.3451 53.7877 75.4841 53.7847 75.5771 53.7847 75.7191 53.7837 75.9281 53.7867 76.0391 53.7877 76.0451 53.5017 76.1141 51.5927 76.2041 50.8757 76.3181 50.5157 76.5091 50.1907 76.6871 49.9967 76.9041 49.8497 77.3951 49.7187 77.9001 49.7797 78.1731 49.9137 78.3761 50.1377 78.4901 50.4187 78.5291 50.8647 78.5031 51.6617 78.4661 52.5387 78.3961 53.7877 78.5111 53.7847 78.5891 53.7847 78.7481 53.7847 78.8711 53.7847 78.9611 53.7867 79.0771 53.7877 79.1531 51.4937 79.1861 50.5857 79.1131 49.9507 78.9451 49.5847 78.6551 49.3067 78.3211 49.1587 77.7781 49.0747"></polygon>
                <polygon id="Fill-100" fill="#FFFFFF" points="80.7094 48.1957 80.5044 48.2527 80.3014 48.2967 80.1964 48.3237 80.1904 48.5777 80.1614 49.1967 79.6344 49.1947 79.6304 49.2867 79.6254 49.4707 79.6194 49.6517 79.6174 49.6847 79.6144 49.7527 80.1224 49.7527 80.1104 50.0627 80.0674 51.0177 80.0424 51.5437 79.9914 52.8117 80.0194 53.1907 80.1634 53.5637 80.3144 53.7227 80.5064 53.8247 80.8084 53.8857 81.1114 53.8857 81.6714 53.7757 81.6794 53.7007 81.6864 53.6627 81.7154 53.4797 81.7444 53.2887 81.7494 53.2617 81.7624 53.1767 81.4164 53.2657 81.1684 53.2887 81.0854 53.2797 80.8764 53.1927 80.7324 53.0177 80.6784 52.8207 80.6544 52.4467 80.6884 51.3687 80.7094 50.9487 80.7504 50.0417 80.7604 49.7527 81.8244 49.7527 81.8274 49.6307 81.8314 49.4717 81.8374 49.3007 81.8384 49.2807 81.8404 49.1967 80.7794 49.1947 80.7794 49.0467 80.7824 48.9737 80.7924 48.6747 80.8024 48.3697 80.8034 48.3287 80.8104 48.1697"></polygon>
                <polygon id="Fill-101" fill="#FFFFFF" points="83.6334 49.0885 82.5814 49.3165 82.5714 49.3985 82.5674 49.4235 82.5494 49.5965 82.5444 49.6205 82.5254 49.7715 82.5184 49.8225 82.5044 49.9175 83.2024 49.6605 83.9364 49.5575 84.3744 49.6105 84.6364 49.7595 84.8004 50.0115 84.8314 50.3095 84.7244 50.5915 84.6384 50.6965 84.5074 50.8035 83.9494 51.0275 82.9054 51.3805 82.5294 51.6005 82.2494 51.8795 82.0664 52.2335 81.9964 52.6215 82.0844 53.1645 82.2214 53.4405 82.4364 53.6575 82.7084 53.7965 83.3624 53.8895 84.1804 53.7935 84.1994 53.6955 84.2234 53.5935 84.2704 53.3725 84.2814 53.3265 84.3054 53.2395 83.7554 53.3915 83.4484 53.4095 83.1404 53.3635 82.8554 53.2065 82.6754 52.9325 82.6294 52.6955 82.6514 52.4515 82.7794 52.1745 82.9724 51.9825 83.2014 51.8355 83.7404 51.6175 84.1314 51.4895 84.5054 51.3225 84.8364 51.0835 84.8234 51.3735 84.8224 51.4355 84.7834 52.3805 84.7174 53.5505 84.6994 53.7885 84.8224 53.7845 85.2514 53.7845 85.2974 53.7845 85.3854 53.7885 85.4544 51.5435 85.5064 50.2685 85.4634 49.8505 85.2954 49.5065 85.0454 49.2885 84.7354 49.1605 84.1874 49.0745"></polygon>
                <polygon id="Fill-102" fill="#FFFFFF" points="87.795 49.1461 87.428 49.3571 87.149 49.6731 86.954 50.0241 86.989 49.1771 86.859 49.1771 86.729 49.1771 86.657 49.1771 86.576 49.1781 86.452 49.1771 86.342 49.1771 86.288 51.3351 86.171 53.7871 86.305 53.7851 86.633 53.7851 86.734 53.7861 86.858 53.7871 86.945 51.2571 87.077 50.5461 87.209 50.2451 87.412 49.9801 87.716 49.7761 88.078 49.7081 88.394 49.7821 88.649 49.9901 88.786 50.2871 88.818 50.5771 88.807 51.2371 88.766 52.3291 88.711 53.4731 88.691 53.7871 88.832 53.7851 88.925 53.7851 89.157 53.7851 89.252 53.7861 89.373 53.7871 89.385 53.3301 89.409 52.3161 89.429 51.7021 89.46 51.2061 89.575 50.5441 89.754 50.1731 90.039 49.8721 90.354 49.7281 90.718 49.7191 90.982 49.8081 91.191 49.9961 91.307 50.2521 91.334 50.5101 91.323 51.2241 91.274 52.2731 91.216 53.4931 91.196 53.7871 91.327 53.7851 91.42 53.7851 91.57 53.7841 91.684 53.7851 91.771 53.7861 91.878 53.7871 91.922 52.1821 91.978 51.0221 92.007 50.3291 91.957 49.9061 91.771 49.5081 91.437 49.2231 91.139 49.1151 90.825 49.0751 90.342 49.1411 89.912 49.3691 89.588 49.7331 89.445 50.0141 89.375 49.7911 89.23 49.5131 89.006 49.2901 88.625 49.1121 88.207 49.0621"></polygon>
                <polygon id="Fill-103" fill="#FFFFFF" points="93.6271 49.228 93.1731 49.521 92.8851 49.863 92.6781 50.259 92.4781 51.004 92.4421 51.774 92.5611 52.499 92.8691 53.165 93.1511 53.493 93.5211 53.72 93.8971 53.834 94.2861 53.886 94.9011 53.861 95.5081 53.738 95.6351 53.704 95.6501 53.576 95.6741 53.411 95.6791 53.38 95.7041 53.196 95.7091 53.167 95.7261 53.06 94.8731 53.318 94.5391 53.348 94.2041 53.316 93.7491 53.128 93.4021 52.777 93.1891 52.292 93.1061 51.768 93.1191 51.285 96.0341 51.282 96.0291 50.563 95.8871 50.012 95.5881 49.529 95.2491 49.263 94.7111 49.095 94.1441 49.089"></polygon>
                <polygon id="Fill-104" fill="#FFFFFF" points="98.0731 49.1317 97.7311 49.2527 97.4321 49.4567 97.1981 49.7307 97.0121 50.0847 97.0591 49.1767 96.9481 49.1767 96.8391 49.1787 96.7341 49.1787 96.6561 49.1787 96.5151 49.1767 96.3801 49.1767 96.3761 49.5267 96.2171 53.3107 96.1881 53.7877 96.3291 53.7847 96.4221 53.7847 96.5641 53.7837 96.7721 53.7867 96.8831 53.7877 96.8891 53.5017 96.9571 51.5927 97.0491 50.8757 97.1611 50.5157 97.3531 50.1907 97.5311 49.9967 97.7471 49.8497 98.2401 49.7187 98.7451 49.7797 99.0171 49.9137 99.2221 50.1377 99.3351 50.4187 99.3731 50.8647 99.3471 51.6617 99.3091 52.5387 99.2401 53.7877 99.3551 53.7847 99.4341 53.7847 99.5901 53.7847 99.7151 53.7847 99.8061 53.7867 99.9211 53.7877 99.9961 51.4937 100.0281 50.5857 99.9581 49.9507 99.7881 49.5847 99.4981 49.3067 99.1661 49.1587 98.6211 49.0747"></polygon>
                <polygon id="Fill-105" fill="#FFFFFF" points="101.5533 48.1957 101.3473 48.2527 101.1463 48.2967 101.0403 48.3237 101.0333 48.5777 101.0043 49.1967 100.4793 49.1947 100.4743 49.2867 100.4693 49.4707 100.4623 49.6517 100.4623 49.6847 100.4573 49.7527 100.9663 49.7527 100.9563 50.0627 100.9113 51.0177 100.8863 51.5437 100.8363 52.8117 100.8623 53.1907 101.0073 53.5637 101.1573 53.7227 101.3513 53.8247 101.6523 53.8857 101.9563 53.8857 102.5163 53.7757 102.5243 53.7007 102.5313 53.6627 102.5583 53.4797 102.5883 53.2887 102.5923 53.2617 102.6053 53.1767 102.2603 53.2657 102.0123 53.2887 101.9303 53.2797 101.7203 53.1927 101.5763 53.0177 101.5203 52.8207 101.4973 52.4467 101.5333 51.3687 101.5533 50.9487 101.5943 50.0417 101.6033 49.7527 102.6673 49.7527 102.6713 49.6307 102.6763 49.4717 102.6803 49.3007 102.6823 49.2807 102.6843 49.1967 101.6233 49.1947 101.6253 49.0467 101.6263 48.9737 101.6353 48.6747 101.6473 48.3697 101.6473 48.3287 101.6553 48.1697"></polygon>
                <polygon id="Fill-106" fill="#FFFFFF" points="104.2156 49.0831 103.8906 49.1571 103.5946 49.3051 103.4086 49.4751 103.2236 49.8241 103.1596 50.1791 103.2526 50.6451 103.4936 51.0541 103.9486 51.5381 104.3306 51.9141 104.6356 52.2731 104.7446 52.5381 104.7486 52.8131 104.6306 53.0641 104.4216 53.2421 104.1576 53.3171 103.7816 53.3231 103.4136 53.2461 102.8806 53.0371 102.8926 53.1541 102.9096 53.3571 102.9246 53.5611 102.9356 53.6981 103.3716 53.8121 103.8956 53.8851 104.4226 53.8531 104.8716 53.6821 105.2166 53.3491 105.3996 52.9031 105.3926 52.4241 105.2566 52.0701 105.0386 51.7611 104.6016 51.3161 104.1836 50.8991 103.9216 50.5631 103.8486 50.3931 103.8256 50.2061 103.8686 49.9951 103.9946 49.8151 104.2266 49.6841 104.6286 49.6201 105.0306 49.6761 105.4496 49.8371 105.4436 49.6991 105.4336 49.4791 105.4236 49.3011 105.4176 49.2651 105.4136 49.1951 105.2756 49.1641 104.4446 49.0721"></polygon>
                <polygon id="Fill-107" fill="#000000" points="24.8923 7.2565 24.8923 9.9135 25.7143 9.9975 26.5313 9.8765 27.2923 9.5565 27.5853 9.2195 27.7263 8.7945 27.6893 8.3505 27.4823 7.9515 27.1403 7.6665 26.4263 7.3575 25.6673 7.2195"></polygon>
                <polygon id="Fill-108" fill="#000000" points="8.4889 7.2565 8.5129 12.1635 8.5099 12.4115 8.5979 12.6445 8.7699 12.8275 9.7319 12.8565 10.6829 12.7065 11.5889 12.3895 12.4239 11.9065 12.8549 11.3595 13.1169 10.7145 13.1919 10.0205 13.0709 9.3335 12.7649 8.7065 12.3009 8.1885 11.7079 7.8185 10.9449 7.4975 10.1409 7.2925 9.3159 7.2145"></polygon>
                <polygon id="Fill-109" fill="#000000" points="80.4862 7.1296 79.8412 7.2486 79.2522 7.5366 78.7622 7.9726 78.4082 8.5216 78.2102 9.1476 78.1632 9.7936 78.2222 10.4386 78.3912 11.0626 78.7662 11.7306 79.2792 12.2966 79.9032 12.7376 80.6082 13.0296 81.3612 13.1606 82.1242 13.1236 82.8602 12.9196 83.5332 12.5606 84.1112 12.0606 84.4142 11.3516 84.5472 10.5936 84.5022 9.8236 84.2822 9.0856 83.8992 8.4166 83.3762 7.8536 82.7362 7.4226 82.0152 7.1526 81.2512 7.0526"></polygon>
                <polygon id="Fill-110" fill="#000000" points="94.8708 7.3609 94.7408 7.4889 94.7408 11.8309 94.8038 12.3989 95.0218 12.9289 95.9328 12.9629 96.8378 12.8449 97.7098 12.5739 98.5218 12.1619 98.9968 11.6939 99.3208 11.1179 99.4708 10.4699 99.4348 9.8049 99.2158 9.1779 98.8298 8.6379 98.1628 8.0889 97.4048 7.6769 96.5848 7.4119 95.7298 7.3069"></polygon>
                <polygon id="Fill-111" fill="#000000" points="23.3785 24.658 22.6705 26.21 22.0575 27.8 25.8875 27.8 25.9125 27.748 24.2135 23.162 24.1765 23.149"></polygon>
                <polygon id="Fill-112" fill="#000000" points="104.5638 23.2639 103.4348 25.5429 102.4838 27.9009 106.3148 27.9009 105.5368 25.5619 104.6408 23.2639"></polygon>
                <polygon id="Fill-113" fill="#000000" points="15.6168 48.5089 15.2488 49.3889 14.9048 50.2039 14.7488 50.5699 16.4568 50.5699 16.3488 50.1969 16.1108 49.3889 15.8738 48.5949 15.7508 48.1869"></polygon>
                <polygon id="Fill-114" fill="#000000" points="43.4287 49.6546 43.0377 49.9176 42.7727 50.3036 42.6317 50.7526 42.6057 50.8976 44.8737 50.9006 44.8607 50.5476 44.7977 50.2396 44.6607 49.9576 44.4527 49.7396 44.1847 49.6016 43.8877 49.5566"></polygon>
                <polygon id="Fill-115" fill="#000000" points="59.3434 49.6222 58.9154 49.7432 58.5304 49.9722 58.2664 50.2522 58.0694 50.5842 57.8814 51.1512 57.8194 51.7432 57.8904 52.3352 58.0734 52.7972 58.3584 53.1082 58.7454 53.2832 59.1674 53.2952 59.5604 53.1432 59.8664 52.8482 60.1054 52.3872 60.2314 51.8852 60.2934 51.1822 60.3254 50.0762 60.3314 49.7442 59.7914 49.6162"></polygon>
                <polygon id="Fill-116" fill="#000000" points="66.1636 48.5089 65.7956 49.3889 65.4526 50.2039 65.2966 50.5699 67.0046 50.5699 66.8976 50.1969 66.6566 49.3889 66.4196 48.5949 66.3006 48.1869"></polygon>
                <polygon id="Fill-117" fill="#000000" points="93.9745 49.6546 93.5855 49.9176 93.3205 50.3036 93.1805 50.7526 93.1535 50.8976 95.4215 50.9006 95.4085 50.5476 95.3445 50.2396 95.2095 49.9576 94.9995 49.7396 94.7325 49.6016 94.4335 49.5566"></polygon>
                <polygon id="Fill-118" fill="#FFFFFF" points="65.6677 6.7192 64.3987 6.9152 63.1747 7.2962 62.0157 7.8462 61.5067 8.2482 61.0797 8.7382 60.7477 9.2942 60.6277 9.5952 60.5677 9.9102 60.5627 10.5742 60.7137 11.2182 61.0107 11.8132 61.4357 12.3212 61.9667 12.7182 62.5757 12.9792 63.8607 13.3112 65.1767 13.4722 66.5027 13.4552 67.8137 13.2672 69.0917 12.9042 69.1917 11.9072 68.8607 11.9072 68.7187 12.1962 68.4997 12.4342 68.2217 12.5972 67.3257 12.8962 66.3917 13.0372 65.4437 13.0142 64.5187 12.8262 63.8197 12.5572 63.2187 12.1122 62.7597 11.5212 62.4767 10.8282 62.3867 10.0872 62.4957 9.3472 62.8007 8.6642 63.2777 8.0872 64.0777 7.5922 64.9537 7.2572 65.8787 7.0962 66.8167 7.1142 67.7357 7.3072 68.0627 7.4002 68.3267 7.6122 68.4897 7.9102 68.6087 7.9742 68.7327 7.9222 68.8897 7.4742 68.9357 7.0022 68.2217 6.8752 66.9497 6.7042"></polygon>
                <polygon id="Fill-119" fill="#FFFFFF" points="54.9496 6.7183 54.3366 6.8603 50.7216 12.7253 50.3076 12.9143 49.8526 12.9293 49.8486 13.2293 52.8416 13.2543 52.8416 12.9293 51.8706 12.9293 51.6966 12.8723 51.5886 12.7253 51.9356 11.7863 52.4596 10.9353 55.5236 10.9353 56.5216 12.8023 56.4776 12.9053 56.3676 12.9293 55.5236 12.9293 55.5336 13.2773 59.2556 13.2873 59.2276 12.9283 58.8726 12.9473 58.5376 12.8413 58.2576 12.6233 56.7706 9.9203 55.3976 7.1553 55.7286 6.7973 55.5746 6.6453"></polygon>
                <polygon id="Fill-120" fill="#333333" points="53.3512 9.3463 52.7142 10.5283 55.2692 10.5283 55.2942 10.4763 54.1842 8.2673 54.0932 8.2293"></polygon>
            </g>
        </g>
    </g>
</svg>